<?xml version="1.0" encoding="UTF-8" standalone="no"?>
<svg
   xmlns:dc="http://purl.org/dc/elements/1.1/"
   xmlns:cc="http://creativecommons.org/ns#"
   xmlns:rdf="http://www.w3.org/1999/02/22-rdf-syntax-ns#"
   xmlns:svg="http://www.w3.org/2000/svg"
   xmlns="http://www.w3.org/2000/svg"
   xmlns:sodipodi="http://sodipodi.sourceforge.net/DTD/sodipodi-0.dtd"
   xmlns:inkscape="http://www.inkscape.org/namespaces/inkscape"
   viewBox="0 0 248.02856 134.92161"
   height="134.92162"
   width="248.02856"
   xml:space="preserve"
   version="1.1"
   id="svg2"
   inkscape:version="0.91 r13725"
   sodipodi:docname="ASP_logo_pos_mit_claim_CMYK.svg"><sodipodi:namedview
     pagecolor="#ffffff"
     bordercolor="#666666"
     borderopacity="1"
     objecttolerance="10"
     gridtolerance="10"
     guidetolerance="10"
     inkscape:pageopacity="0"
     inkscape:pageshadow="2"
     inkscape:window-width="1280"
     inkscape:window-height="751"
     id="namedview4276"
     showgrid="false"
     fit-margin-top="40"
     fit-margin-left="0"
     fit-margin-right="0"
     fit-margin-bottom="40"
     inkscape:zoom="2.4025328"
     inkscape:cx="124.01481"
     inkscape:cy="67.458362"
     inkscape:window-x="0"
     inkscape:window-y="0"
     inkscape:window-maximized="1"
     inkscape:current-layer="svg2" /><metadata
     id="metadata8"><rdf:RDF><cc:Work
         rdf:about=""><dc:format>image/svg+xml</dc:format><dc:type
           rdf:resource="http://purl.org/dc/dcmitype/StillImage" /><dc:title></dc:title></cc:Work></rdf:RDF></metadata><defs
     id="defs6" /><g
     transform="matrix(1.25,0,0,-1.25,-14.172693,109.09449)"
     id="g10"><g
       transform="scale(0.1,0.1)"
       id="g12"><path
         id="path14"
         style="fill:#1c6980;fill-opacity:1;fill-rule:nonzero;stroke:none"
         d="m 973.301,369.18 -7.301,0 c -21.93,0 -28.793,-5.524 -28.793,-16.598 0,-9.531 5.094,-13.73 12.629,-13.73 7.969,0 14.168,3.757 23.465,9.957 l 0,20.371 z m 3.551,-39.403 c -10.641,-6.433 -20.383,-11.953 -33.664,-11.953 -18.379,0 -31.446,10.614 -31.446,32.543 0,23.246 14.403,37.422 52.699,37.422 l 8.86,0 0,8.191 c 0,9.961 -4.871,14.836 -18.156,14.836 -10.403,0 -20.372,-1.554 -31,-3.765 l -2.653,20.816 c 12.395,2.875 25.024,4.86 38.524,4.86 31.445,0 41.844,-10.395 41.844,-35.207 l 0,-77.266 -23.465,0 -1.543,9.523"
         inkscape:connector-curvature="0" /><path
         id="path16"
         style="fill:#1c6980;fill-opacity:1;fill-rule:nonzero;stroke:none"
         d="m 1057.06,317.824 c -11.06,0 -20.37,1.535 -30.56,4.192 l 2.66,20.828 c 11.07,-2.438 20.38,-4.219 29.01,-4.219 13.72,0 20.15,3.984 20.15,11.523 0,6.864 -4.43,8.848 -23.03,16.387 -20.81,8.633 -28.56,15.051 -28.56,32.543 0,22.586 15.28,33.438 46.05,33.438 9.3,0 19.05,-1.555 26.35,-3.539 l -2.88,-20.817 c -7.97,1.992 -16.38,3.539 -24.79,3.539 -11.74,0 -18.16,-3.094 -18.16,-10.625 0,-5.765 4.2,-8.414 21.7,-15.277 21.7,-8.649 30.11,-14.613 30.11,-33.668 0,-22.137 -13.72,-34.305 -48.05,-34.305"
         inkscape:connector-curvature="0" /><path
         id="path18"
         style="fill:#1c6980;fill-opacity:1;fill-rule:nonzero;stroke:none"
         d="m 1157.31,345.719 c 6.43,-3.539 11.74,-5.543 18.16,-5.543 11.74,0 22.58,7.523 22.58,35.433 0,28.118 -6.42,33.653 -17.71,33.653 -6.43,0 -13.5,-3.539 -23.03,-9.969 l 0,-53.574 z m -5.1,84.359 1.78,-10.844 c 11.29,7.524 21.48,13.063 34.76,13.063 23.03,0 38.08,-12.848 38.08,-55.578 0,-42.957 -20.58,-58.688 -46.27,-58.688 -9.07,0 -16.82,2.004 -24.14,5.758 l -0.21,-0.215 c 0.87,-7.969 1.1,-14.832 1.1,-22.594 l 0,-27.445 -28.56,0 0,156.543 23.46,0"
         inkscape:connector-curvature="0" /><path
         id="path20"
         style="fill:#1c6980;fill-opacity:1;fill-rule:nonzero;stroke:none"
         d="m 1316.6,385.121 c -0.23,21.477 -5.54,26.578 -18.61,26.578 -13.06,0 -19.69,-5.312 -20.37,-26.578 l 38.98,0 z m 24.8,-18.367 -63.78,0 c 0.68,-23.469 7.54,-27.238 26.8,-27.238 11.07,0 19.48,1.32 30.33,3.769 l 2.44,-21.269 c -12.19,-2.657 -23.69,-4.426 -37.87,-4.426 -32.32,0 -50.48,9.519 -50.48,56.914 0,45.609 19.7,58.898 50.04,58.898 30.11,0 43.41,-10.41 43.41,-50.48 0,-5.32 -0.45,-10.633 -0.89,-16.168"
         inkscape:connector-curvature="0" /><path
         id="path22"
         style="fill:#1c6980;fill-opacity:1;fill-rule:nonzero;stroke:none"
         d="m 1441.78,321.809 c -8.42,-2.45 -19.49,-4.219 -29.01,-4.219 -32.55,0 -48.27,11.742 -48.27,56.914 0,45.164 20.15,58.012 50.04,58.012 9.53,0 19.49,-1.555 28.12,-3.77 l -2.44,-21.031 c -7.52,1.992 -14.61,3.101 -22.79,3.101 -15.06,0 -24.14,-5.98 -24.14,-35.648 0,-29.449 6.64,-35.652 24.35,-35.652 6.43,0 14.62,1.32 22.15,3.328 l 1.99,-21.035"
         inkscape:connector-curvature="0" /><path
         id="path24"
         style="fill:#1c6980;fill-opacity:1;fill-rule:nonzero;stroke:none"
         d="m 1531.47,320.465 c -8.4,-1.985 -15.49,-3.086 -25.23,-3.086 -22.82,0 -31.24,7.074 -31.24,31.215 l 0,60.011 -15.93,0 0,21.473 15.93,0 0,33.215 28.8,3.762 0,-36.977 25.25,0 0,-21.473 -25.25,0 0,-54.703 c 0,-11.293 3.1,-15.05 10.4,-15.05 4.89,0 9.75,0.878 14.85,2.218 l 2.42,-20.605"
         inkscape:connector-curvature="0" /><path
         id="path26"
         style="fill:#1c6980;fill-opacity:1;fill-rule:nonzero;stroke:none"
         d="m 1615.4,404.836 c -3.55,1.996 -6.65,3.535 -11.96,3.535 -5.54,0 -12.85,-3.984 -21.48,-9.078 l 0,-79.039 -28.57,0 0,109.824 23.47,0 1.78,-11.074 c 9.52,7.754 18.15,14.398 27.22,14.398 5.78,0 10.2,-1.55 13.07,-3.324 l -3.53,-25.242"
         inkscape:connector-curvature="0" /><path
         id="path28"
         style="fill:#1c6980;fill-opacity:1;fill-rule:nonzero;stroke:none"
         d="m 1691.24,369.18 -7.31,0 c -21.92,0 -28.79,-5.524 -28.79,-16.598 0,-9.531 5.1,-13.73 12.63,-13.73 7.98,0 14.17,3.757 23.47,9.957 l 0,20.371 z m 3.54,-39.403 c -10.63,-6.433 -20.37,-11.953 -33.66,-11.953 -18.38,0 -31.44,10.614 -31.44,32.543 0,23.246 14.39,37.422 52.7,37.422 l 8.86,0 0,8.191 c 0,9.961 -4.88,14.836 -18.17,14.836 -10.39,0 -20.37,-1.554 -30.99,-3.765 l -2.65,20.816 c 12.39,2.875 25.02,4.86 38.52,4.86 31.44,0 41.85,-10.395 41.85,-35.207 l 0,-77.266 -23.48,0 -1.54,9.523"
         inkscape:connector-curvature="0" /><path
         id="path30"
         style="fill:#1c6980;fill-opacity:1;fill-rule:nonzero;stroke:none"
         d="m 1238.04,197.668 0,30.711 c 0,6.293 -1.94,8.238 -6.2,8.238 -3.3,0 -6.87,-1.543 -11.43,-4.551 l 0,-34.398 -12.49,0 0,71.508 12.49,0 0,-17.149 c 0,-3.297 -0.09,-6.304 -0.49,-10.371 l 0.1,-0.097 c 4.95,3.004 9.89,5.136 16.08,5.136 10.08,0 14.53,-4.75 14.53,-15.89 l 0,-33.137 -12.59,0"
         inkscape:connector-curvature="0" /><path
         id="path32"
         style="fill:#1c6980;fill-opacity:1;fill-rule:nonzero;stroke:none"
         d="m 1287.78,237.59 c -6.59,0 -9.41,-2.813 -9.41,-15.793 0,-13.18 2.9,-15.992 9.51,-15.992 6.58,0 9.49,2.711 9.49,15.793 0,13.179 -2.91,15.992 -9.59,15.992 z m -0.1,-41.375 c -14.15,0 -21.89,5.133 -21.89,25.191 0,19.864 8.32,25.774 22.27,25.774 14.15,0 21.91,-5.145 21.91,-25.192 0,-19.859 -8.34,-25.773 -22.29,-25.773"
         inkscape:connector-curvature="0" /><path
         id="path34"
         style="fill:#1c6980;fill-opacity:1;fill-rule:nonzero;stroke:none"
         d="m 1336.31,196.598 c -4.84,0 -8.91,0.683 -13.38,1.843 l 1.18,9.11 c 4.83,-1.067 8.9,-1.836 12.69,-1.836 6,0 8.81,1.742 8.81,5.027 0,3.008 -1.93,3.883 -10.08,7.18 -9.1,3.773 -12.5,6.582 -12.5,14.238 0,9.875 6.69,14.629 20.16,14.629 4.06,0 8.34,-0.676 11.53,-1.543 l -1.26,-9.113 c -3.49,0.875 -7.17,1.547 -10.86,1.547 -5.13,0 -7.94,-1.356 -7.94,-4.653 0,-2.507 1.85,-3.675 9.51,-6.679 9.49,-3.778 13.16,-6.395 13.16,-14.723 0,-9.695 -6,-15.027 -21.02,-15.027"
         inkscape:connector-curvature="0" /><path
         id="path36"
         style="fill:#1c6980;fill-opacity:1;fill-rule:nonzero;stroke:none"
         d="m 1398.74,197.758 c -3.7,-0.863 -6.79,-1.34 -11.06,-1.34 -9.97,0 -13.65,3.094 -13.65,13.656 l 0,26.25 -6.98,0 0,9.399 6.98,0 0,14.531 12.59,1.652 0,-16.183 11.04,0 0,-9.399 -11.04,0 0,-23.926 c 0,-4.941 1.35,-6.593 4.55,-6.593 2.14,0 4.26,0.386 6.49,0.968 l 1.08,-9.015"
         inkscape:connector-curvature="0" /><path
         id="path38"
         style="fill:#1c6980;fill-opacity:1;fill-rule:nonzero;stroke:none"
         d="m 1412.06,197.668 0,48.055 12.5,0 0,-48.055 -12.5,0 z m 6.29,56.875 c -5.71,0 -7.26,1.551 -7.26,6.875 0,5.332 1.55,6.781 7.26,6.781 5.62,0 7.08,-1.449 7.08,-6.781 0,-5.324 -1.46,-6.875 -7.08,-6.875"
         inkscape:connector-curvature="0" /><path
         id="path40"
         style="fill:#1c6980;fill-opacity:1;fill-rule:nonzero;stroke:none"
         d="m 1472.29,197.668 0,30.711 c 0,6.293 -1.93,8.238 -6.2,8.238 -3.29,0 -6.89,-1.543 -11.44,-4.551 l 0,-34.398 -12.5,0 0,48.055 10.28,0 0.78,-4.848 c 5.71,3.688 10.94,5.82 17.15,5.82 10.07,0 14.53,-4.75 14.53,-15.89 l 0,-33.137 -12.6,0"
         inkscape:connector-curvature="0" /><path
         id="path42"
         style="fill:#1c6980;fill-opacity:1;fill-rule:nonzero;stroke:none"
         d="m 1520.55,238.75 c -5.92,0 -8.23,-1.934 -8.23,-8.727 0,-6.683 2.24,-8.808 8.33,-8.808 5.92,0 8.33,2.031 8.33,8.808 0,6.696 -2.41,8.727 -8.43,8.727 z m -3.96,-40.691 c -3.5,-1.36 -6.31,-3.688 -6.31,-7.262 0,-4.172 2.32,-6.984 10.37,-6.984 8.24,0 11.04,3.296 11.04,7.07 0,2.722 -1.55,4.172 -5.22,4.941 l -9.88,2.235 z m -15.51,10.558 c 0,3.293 1.74,5.715 4.84,7.656 -3.48,2.516 -5.6,6.582 -5.6,13.75 0,12.012 6.29,17.157 20.33,17.157 4.84,0 8.24,-0.582 10.76,-1.457 l 14.82,0 0,-7.657 -7.07,-0.964 c 1.06,-1.446 1.84,-3.489 1.84,-7.079 0,-12.101 -6.3,-17.14 -20.45,-17.14 -2.22,0 -4.35,0.285 -5.42,0.668 -1.36,-0.863 -1.94,-1.543 -1.94,-2.707 0,-1.551 0.87,-2.512 6.1,-3.676 l 13.08,-2.914 c 8.24,-1.836 11.44,-4.844 11.44,-12.297 0,-9.691 -6.89,-16.473 -23.45,-16.473 -16.08,0 -22.19,5.039 -22.19,13.95 0,5.914 3.89,9.589 8.14,11.82 -3.39,1.543 -5.23,3.973 -5.23,7.363"
         inkscape:connector-curvature="0" /><path
         id="path44"
         style="fill:#1c6980;fill-opacity:1;fill-rule:nonzero;stroke:none"
         d="m 1625.04,245.723 -18.22,-52.41 c -4.45,-13.762 -8.32,-17.247 -20.33,-17.247 -3.2,0 -6.21,0.391 -8.33,0.868 l 1.16,9.203 c 1.74,-0.383 4.36,-0.481 6.1,-0.481 4.36,0 7.26,1.352 9.58,7.551 l 1.66,4.461 -4.17,0 -15.5,48.055 13.46,0 6.69,-21.7 c 1.65,-5.914 2.62,-9.691 3.88,-15.984 l 0.2,0 c 1.34,6.293 2.32,10.262 4.06,15.984 l 6.69,21.7 13.07,0"
         inkscape:connector-curvature="0" /><path
         id="path46"
         style="fill:#1c6980;fill-opacity:1;fill-rule:nonzero;stroke:none"
         d="m 1655.94,237.59 c -6.6,0 -9.4,-2.813 -9.4,-15.793 0,-13.18 2.91,-15.992 9.5,-15.992 6.59,0 9.49,2.711 9.49,15.793 0,13.179 -2.9,15.992 -9.59,15.992 z m -0.1,-41.375 c -14.14,0 -21.89,5.133 -21.89,25.191 0,19.864 8.33,25.774 22.29,25.774 14.14,0 21.89,-5.145 21.89,-25.192 0,-19.859 -8.34,-25.773 -22.29,-25.773"
         inkscape:connector-curvature="0" /><path
         id="path48"
         style="fill:#1c6980;fill-opacity:1;fill-rule:nonzero;stroke:none"
         d="m 1705.83,245.723 0,-30.707 c 0,-6.399 2.03,-8.243 6.3,-8.243 3.29,0 6.88,1.559 11.43,4.551 l 0,34.399 12.5,0 0,-48.055 -10.26,0 -0.79,4.75 c -5.71,-3.59 -10.94,-5.719 -17.15,-5.719 -10.06,0 -14.53,4.746 -14.53,15.793 l 0,33.231 12.5,0"
         inkscape:connector-curvature="0" /><path
         id="path50"
         style="fill:#1c6980;fill-opacity:1;fill-rule:nonzero;stroke:none"
         d="m 1780.82,234.672 c -1.56,0.879 -2.9,1.562 -5.24,1.562 -2.42,0 -5.61,-1.742 -9.4,-3.972 l 0,-34.594 -12.49,0 0,48.055 10.26,0 0.78,-4.848 c 4.17,3.395 7.95,6.305 11.92,6.305 2.52,0 4.45,-0.684 5.72,-1.457 l -1.55,-11.051"
         inkscape:connector-curvature="0" /><path
         id="path52"
         style="fill:#1c6980;fill-opacity:1;fill-rule:nonzero;stroke:none"
         d="m 1832.82,245.723 14.04,0 0,-9.399 -14.04,0 0,-38.656 -12.5,0 0,38.656 -7.27,0 0,9.399 7.27,0 0,6.203 c 0,14.047 5.82,18.797 18.51,18.797 4.06,0 7.84,-0.68 10.84,-1.461 l -1.07,-9.199 c -2.23,0.484 -5.14,1.066 -8.22,1.066 -5.04,0 -7.56,-2.227 -7.56,-8.723 l 0,-6.683"
         inkscape:connector-curvature="0" /><path
         id="path54"
         style="fill:#1c6980;fill-opacity:1;fill-rule:nonzero;stroke:none"
         d="m 1870.53,245.723 0,-30.707 c 0,-6.399 2.03,-8.243 6.31,-8.243 3.28,0 6.88,1.559 11.43,4.551 l 0,34.399 12.5,0 0,-48.055 -10.28,0 -0.77,4.75 c -5.71,-3.59 -10.95,-5.719 -17.16,-5.719 -10.06,0 -14.52,4.746 -14.52,15.793 l 0,33.231 12.49,0"
         inkscape:connector-curvature="0" /><path
         id="path56"
         style="fill:#1c6980;fill-opacity:1;fill-rule:nonzero;stroke:none"
         d="m 1945.59,197.758 c -3.67,-0.863 -6.78,-1.34 -11.03,-1.34 -9.98,0 -13.67,3.094 -13.67,13.656 l 0,26.25 -6.98,0 0,9.399 6.98,0 0,14.531 12.59,1.652 0,-16.183 11.04,0 0,-9.399 -11.04,0 0,-23.926 c 0,-4.941 1.36,-6.593 4.55,-6.593 2.14,0 4.27,0.386 6.49,0.968 l 1.07,-9.015"
         inkscape:connector-curvature="0" /><path
         id="path58"
         style="fill:#1c6980;fill-opacity:1;fill-rule:nonzero;stroke:none"
         d="m 1970.61,245.723 0,-30.707 c 0,-6.399 2.04,-8.243 6.31,-8.243 3.28,0 6.87,1.559 11.42,4.551 l 0,34.399 12.5,0 0,-48.055 -10.27,0 -0.76,4.75 c -5.72,-3.59 -10.96,-5.719 -17.16,-5.719 -10.07,0 -14.53,4.746 -14.53,15.793 l 0,33.231 12.49,0"
         inkscape:connector-curvature="0" /><path
         id="path60"
         style="fill:#1c6980;fill-opacity:1;fill-rule:nonzero;stroke:none"
         d="m 2045.6,234.672 c -1.55,0.879 -2.9,1.562 -5.22,1.562 -2.43,0 -5.63,-1.742 -9.41,-3.972 l 0,-34.594 -12.5,0 0,48.055 10.27,0 0.78,-4.848 c 4.17,3.395 7.95,6.305 11.91,6.305 2.52,0 4.46,-0.684 5.72,-1.457 l -1.55,-11.051"
         inkscape:connector-curvature="0" /><path
         id="path62"
         style="fill:#1c6980;fill-opacity:1;fill-rule:nonzero;stroke:none"
         d="m 2086.37,226.055 c -0.1,9.398 -2.42,11.625 -8.14,11.625 -5.71,0 -8.62,-2.325 -8.91,-11.625 l 17.05,0 z m 10.84,-8.035 -27.89,0 c 0.29,-10.27 3.29,-11.922 11.72,-11.922 4.84,0 8.53,0.582 13.28,1.652 l 1.07,-9.309 c -5.34,-1.16 -10.38,-1.937 -16.58,-1.937 -14.14,0 -22.09,4.172 -22.09,24.902 0,19.957 8.63,25.774 21.9,25.774 13.18,0 18.99,-4.551 18.99,-22.098 0,-2.324 -0.19,-4.648 -0.4,-7.062"
         inkscape:connector-curvature="0" /><path
         id="path64"
         style="fill:#c7e112;fill-opacity:1;fill-rule:nonzero;stroke:none"
         d="M 929.688,220.953 736.324,359.664 577.75,193.551 c -2.687,-2.797 -6.328,-4.289 -10.039,-4.289 -1.809,0 -3.613,0.347 -5.348,1.07 l -93.258,38.984 26.926,-105.484 c 1.602,-6.254 7.207,-10.449 13.434,-10.449 0.902,0 1.812,0.086 2.742,0.269 l 412.117,82.438 c 5.403,1.078 9.668,5.258 10.836,10.668 1.164,5.402 -1.004,10.972 -5.472,14.195"
         inkscape:connector-curvature="0" /><path
         id="path66"
         style="fill:#9bb1bb;fill-opacity:1;fill-rule:nonzero;stroke:none"
         d="m 443.293,350.582 c 2.414,3.328 6.16,5.434 10.27,5.719 l 256.414,18.308 c 3.187,0.274 6.429,-0.66 9.07,-2.554 l 17.277,-12.391 68.879,72.164 c 3.238,3.399 4.555,8.195 3.453,12.781 -1.082,4.575 -4.41,8.293 -8.847,9.86 L 525.41,551.965 c -3.129,1.094 -6.558,1.055 -9.633,-0.129 L 122.273,400.195 c -5.285,-2.047 -8.804,-7.078 -8.89,-12.757 -0.082,-5.665 3.305,-10.797 8.535,-12.989 L 469.105,229.316 441.098,339.047 c -1,3.98 -0.215,8.211 2.195,11.535"
         inkscape:connector-curvature="0" /><path
         id="path68"
         style="fill:#c7e112;fill-opacity:1;fill-rule:nonzero;stroke:none"
         d="m 567.711,189.262 c 3.711,0 7.352,1.492 10.039,4.289 l 158.574,166.113 -17.277,12.391 c -2.641,1.894 -5.883,2.828 -9.07,2.554 L 453.563,356.301 c -4.11,-0.285 -7.856,-2.391 -10.27,-5.719 -2.41,-3.324 -3.195,-7.555 -2.195,-11.535 l 28.007,-109.731 93.258,-38.984 c 1.735,-0.723 3.539,-1.07 5.348,-1.07"
         inkscape:connector-curvature="0" /><path
         id="path70"
         style="fill:#77a93f;fill-opacity:1;fill-rule:nonzero;stroke:none"
         d="m 567.711,189.262 c 3.711,0 7.352,1.492 10.039,4.289 l 158.574,166.113 -17.277,12.391 c -2.641,1.894 -5.883,2.828 -9.07,2.554 L 453.563,356.301 c -4.11,-0.285 -7.856,-2.391 -10.27,-5.719 -2.41,-3.324 -3.195,-7.555 -2.195,-11.535 l 28.007,-109.731 93.258,-38.984 c 1.735,-0.723 3.539,-1.07 5.348,-1.07"
         inkscape:connector-curvature="0" /></g></g></svg>