<?xml version="1.0" encoding="UTF-8" standalone="no"?>
<svg
   xmlns:dc="http://purl.org/dc/elements/1.1/"
   xmlns:cc="http://creativecommons.org/ns#"
   xmlns:rdf="http://www.w3.org/1999/02/22-rdf-syntax-ns#"
   xmlns:svg="http://www.w3.org/2000/svg"
   xmlns="http://www.w3.org/2000/svg"
   version="1.1"
   id="svg6490"
   viewBox="0 0 862.65211 166.36182"
   height="46.951004mm"
   width="243.45959mm">
  <defs
     id="defs6492" />
  <metadata
     id="metadata6495">
    <rdf:RDF>
      <cc:Work
         rdf:about="">
        <dc:format>image/svg+xml</dc:format>
        <dc:type
           rdf:resource="http://purl.org/dc/dcmitype/StillImage" />
        <dc:title></dc:title>
      </cc:Work>
    </rdf:RDF>
  </metadata>
  <g
     transform="translate(239.89769,-406.3241)"
     id="layer1">
    <path
       id="path100"
       style="fill:#417ec9;fill-opacity:1;fill-rule:nonzero;stroke:none"
       d="m -16.8874,482.18648 -51.21747,-51.51323 0.0141,0.0383 c -15.0603,-15.06302 -35.85042,-24.38745 -58.775,-24.38745 -0.002,0 -0.004,0.0128 -0.007,0.0128 l 0,20.79949 c 2.68916,0 5.41984,0.17461 8.18799,0.54937 30.29341,4.1139 53.73458,30.30065 54.19366,60.86321 0.52404,34.8383 -27.65983,63.33752 -62.37483,63.33752 -34.39901,0 -62.38421,-27.98818 -62.38421,-62.37505 0,-0.0256 0.003,-0.049 0.003,-0.0618 l 0,-55.17572 -47.63185,47.9125 c -4.0249,4.05003 -4.0249,10.58713 0,14.63716 l 51.21597,51.52601 -0.0309,-0.10008 c 15.06345,15.08644 35.8738,24.43642 58.82756,24.43642 22.92458,0 43.7147,-9.32443 58.77496,-24.38745 l -0.0141,0.0511 51.21747,-51.52601 c 4.02447,-4.05003 4.02447,-10.58713 0,-14.63716" />
    <path
       id="path102"
       style="fill:#417ec9;fill-opacity:1;fill-rule:nonzero;stroke:none"
       d="m -147.66122,489.51145 0,-0.0383 c 0.0168,-11.44952 9.33763,-20.76116 20.79545,-20.76116 11.46591,0 20.79523,9.32442 20.79523,20.79949 0,11.46229 -9.32932,20.78884 -20.79523,20.78884 -11.46783,0 -20.79545,-9.32655 -20.79609,-20.78884 l 6.4e-4,0 z m -6.4e-4,-80.52563 c -7.37223,1.91216 -14.35416,4.80168 -20.79118,8.53869 l 0,71.98694 -0.003,0 c 0.002,23.47608 19.55105,42.46136 43.22581,41.55 21.38761,-0.82406 39.08613,-18.51257 39.91871,-39.89976 0.92414,-23.68689 -18.07456,-43.25135 -41.55469,-43.25135 -7.57921,0 -14.66931,2.07611 -20.79545,5.63852 l 0,-0.0128 -6.4e-4,-44.55026" />
    <path
       id="path104"
       style="fill:#393536;fill-opacity:1;fill-rule:nonzero;stroke:none"
       d="m 70.52881,497.27293 -17.0199,0 0,14.82666 17.24987,0 c 6.89909,0 10.69359,-2.63826 10.69359,-7.35051 l 0,-0.23636 c 0,-4.36304 -3.44955,-7.23979 -10.92356,-7.23979 z m 7.70398,-22.88626 c 0,-4.48654 -3.5624,-6.89909 -10.11867,-6.89909 l -14.60521,0 0,14.13676 14.03029,0 c 6.78624,0 10.69359,-2.2997 10.69359,-7.01195 l 0,-0.22572 z m -46.45602,-24.83886 41.2817,0 c 10.11867,0 17.24987,2.52541 21.96425,7.12693 3.21958,3.33669 5.17432,7.58688 5.17432,13.11254 l 0,0.22358 c 0,9.31378 -5.28931,14.83731 -12.41837,17.95042 9.77585,3.21319 15.9829,8.73672 15.9829,19.66242 l 0,0.22571 c 0,13.80032 -11.26852,22.2006 -30.471,22.2006 l -41.5138,0 0,-80.5022" />
    <path
       id="path106"
       style="fill:#393536;fill-opacity:1;fill-rule:nonzero;stroke:none"
       d="m 172.87814,498.18642 -8.96882,-22.76275 -9.08381,22.76275 18.05263,0 z m -19.54743,-49.21141 21.50218,0 34.26975,81.075 -23.91898,0 -5.74925,-14.50087 -31.16517,0 -5.74924,14.50087 -23.34193,0 34.15264,-81.075" />
    <path
       id="path108"
       style="fill:#393536;fill-opacity:1;fill-rule:nonzero;stroke:none"
       d="m 228.4265,449.54781 22.3092,0 0,60.95051 38.98414,0 0,19.55169 -61.29334,0 0,-80.5022" />
    <path
       id="path110"
       style="fill:#393536;fill-opacity:1;fill-rule:nonzero;stroke:none"
       d="m 358.25722,498.18642 -8.97095,-22.76275 -9.0838,22.76275 18.05475,0 z m -19.54743,-49.21141 21.50218,0 34.26763,81.075 -23.91899,0 -5.74925,-14.50087 -31.16303,0 -5.74925,14.50087 -23.34619,0 34.1569,-81.075" />
    <path
       id="path112"
       style="fill:#393536;fill-opacity:1;fill-rule:nonzero;stroke:none"
       d="m 452.55762,497.27293 -17.0199,0 0,14.82666 17.24987,0 c 6.89909,0 10.69359,-2.63826 10.69359,-7.35051 l 0,-0.23636 c 0,-4.36304 -3.44741,-7.23979 -10.92356,-7.23979 z m 7.70399,-22.88626 c 0,-4.48654 -3.56454,-6.89909 -10.11867,-6.89909 l -14.60522,0 0,14.13676 14.03242,0 c 6.78198,0 10.69147,-2.2997 10.69147,-7.01195 l 0,-0.22572 z m -46.45603,-24.83886 41.28384,0 c 10.11654,0 17.24773,2.52541 21.96211,7.12693 3.21958,3.33669 5.17432,7.58688 5.17432,13.11254 l 0,0.22358 c 0,9.31378 -5.2893,14.83731 -12.41837,17.95042 9.77372,3.21319 15.9829,8.73672 15.9829,19.66242 l 0,0.22571 c 0,13.80032 -11.26852,22.2006 -30.47312,22.2006 l -41.51168,0 0,-80.5022" />
    <path
       id="path114"
       style="fill:#393536;fill-opacity:1;fill-rule:nonzero;stroke:none"
       d="m 508.10597,530.05001 22.3075,0 0,-80.50029 -22.3075,0 0,80.50029 z" />
    <path
       id="path116"
       style="fill:#393536;fill-opacity:1;fill-rule:nonzero;stroke:none"
       d="m 576.29841,469.0995 -24.03398,0 0,-19.55169 70.49,0 0,19.55169 -24.14682,0 0,60.95051 -22.3092,0 0,-60.95051" />
  </g>
</svg>
