<?xml version="1.0" encoding="UTF-8" standalone="no"?>
<svg
   xmlns:dc="http://purl.org/dc/elements/1.1/"
   xmlns:cc="http://creativecommons.org/ns#"
   xmlns:rdf="http://www.w3.org/1999/02/22-rdf-syntax-ns#"
   xmlns:svg="http://www.w3.org/2000/svg"
   xmlns="http://www.w3.org/2000/svg"
   version="1.1"
   id="svg5843"
   viewBox="0 0 931.4355 146.92519"
   height="41.465553mm"
   width="262.8718mm">
  <defs
     id="defs5845" />
  <metadata
     id="metadata5848">
    <rdf:RDF>
      <cc:Work
         rdf:about="">
        <dc:format>image/svg+xml</dc:format>
        <dc:type
           rdf:resource="http://purl.org/dc/dcmitype/StillImage" />
        <dc:title></dc:title>
      </cc:Work>
    </rdf:RDF>
  </metadata>
  <g
     transform="translate(302.86086,-464.61393)"
     id="layer1">
    <path
       id="path22"
       style="fill:#417ec9;fill-opacity:1;fill-rule:nonzero;stroke:none"
       d="m -105.89908,531.61389 -45.23357,-45.50208 0.0123,0.0341 c -13.30093,-13.29779 -31.66232,-21.53198 -51.91031,-21.53198 -0.002,0 -0.003,0 -0.005,0 l 0,18.37203 c 2.37381,0 4.78593,0.15544 7.23064,0.48762 26.75571,3.63267 47.45959,26.76167 47.86459,53.7597 0.46165,30.76272 -24.43024,55.94016 -55.09033,55.94016 -30.38157,0 -55.09863,-24.7175 -55.09863,-55.09694 0,-0.0192 0.003,-0.0341 0.003,-0.0511 l 0,-48.73017 -42.06883,42.3187 c -3.55418,3.57518 -3.55418,9.34997 0,12.92728 l 45.23453,45.50208 -0.0275,-0.083 c 13.30439,13.32334 31.68409,21.57883 51.95699,21.57883 20.24799,0 38.60938,-8.2342 51.91036,-21.53199 l -0.0123,0.0362 45.23357,-45.50208 c 3.55517,-3.57731 3.55517,-9.3521 0,-12.92728" />
    <path
       id="path24"
       style="fill:#417ec9;fill-opacity:1;fill-rule:nonzero;stroke:none"
       d="m -221.39715,538.07647 0,-0.0277 c 0.0151,-10.11441 8.24718,-18.33796 18.36649,-18.33796 10.12698,0 18.36565,8.23845 18.36565,18.36564 0,10.12506 -8.23867,18.36352 -18.36565,18.36352 -10.12761,0 -18.36735,-8.23633 -18.3682,-18.36352 l 0.002,0 z m -0.002,-71.11816 c -6.51027,1.68857 -12.67623,4.24167 -18.36223,7.54003 l 0,63.57813 -0.003,0 c 0.002,20.73135 17.2686,37.51063 38.17776,36.70361 18.88968,-0.73037 34.52208,-16.35554 35.2567,-35.245 0.81512,-20.91448 -15.96437,-38.19203 -36.70147,-38.19203 -6.69404,0 -12.95582,1.82912 -18.3665,4.96991 l 0,0 -0.002,-39.35465" />
    <path
       id="path26"
       style="fill:#417ec9;fill-opacity:1;fill-rule:nonzero;stroke:none"
       d="m -63.843143,594.54258 0,-0.43013 c 0,-7.75722 5.0636,-12.82295 11.67097,-12.82295 3.95207,0 6.6457,1.54591 8.69201,3.95208 l -4.16501,4.41627 c -1.07745,-1.29252 -2.44237,-2.36784 -4.41627,-2.36784 -2.94702,0 -5.136,2.6191 -5.136,6.89484 l 0,0.14266 c 0,4.48867 2.22517,6.96724 5.136,6.96724 2.15277,0 3.44528,-1.14772 4.59513,-2.47857 l 4.09474,4.16714 c -2.0463,2.51263 -4.84853,4.30981 -9.04973,4.30981 -6.43064,0 -11.42184,-4.9188 -11.42184,-12.75055" />
    <path
       id="path28"
       style="fill:#417ec9;fill-opacity:1;fill-rule:nonzero;stroke:none"
       d="m -24.663103,594.50638 0,-0.39393 c 0,-4.346 -2.08463,-7.00556 -5.06359,-7.00556 -2.98109,0 -5.02953,2.62336 -5.02953,6.97149 l 0,0.3918 c 0,4.346 2.08464,7.00343 5.0636,7.00343 3.01729,0 5.02952,-2.62123 5.02952,-6.96723 z m -16.70049,0.0724 0,-0.53873 c 0,-7.50596 4.9188,-12.78462 11.67097,-12.78462 6.78837,0 11.6369,5.20627 11.6369,12.74842 l 0,0.53873 c 0,7.50809 -4.92093,12.78675 -11.67097,12.78675 -6.7905,0 -11.6369,-5.20627 -11.6369,-12.75055" />
    <path
       id="path30"
       style="fill:#417ec9;fill-opacity:1;fill-rule:nonzero;stroke:none"
       d="m -13.965243,581.72176 6.0707704,0 8.36834995,12.64195 0,-12.64195 6.35611005,0 0,25.13911 -5.74499,0 -8.692,-13.18068 0,13.18068 -6.3582404,0 0,-25.13911" />
    <path
       id="path32"
       style="fill:#417ec9;fill-opacity:1;fill-rule:nonzero;stroke:none"
       d="m 16.667587,587.53915 -6.21345,0 0,-5.81739 18.8916,0 0,5.81739 -6.21345,0 0,19.32172 -6.4647,0 0,-19.32172" />
    <path
       id="path34"
       style="fill:#417ec9;fill-opacity:1;fill-rule:nonzero;stroke:none"
       d="m 33.006087,581.72176 17.30948,0 0,5.67472 -10.91717,0 0,4.13094 9.83972,0 0,5.35106 -9.83972,0 0,4.3098 11.06197,0 0,5.67259 -17.45428,0 0,-25.13911" />
    <path
       id="path36"
       style="fill:#417ec9;fill-opacity:1;fill-rule:nonzero;stroke:none"
       d="m 74.807357,581.72176 -7.04176,12.28209 7.32922,12.85702 -7.25469,0 -3.87968,-7.79342 -3.91587,7.79342 -7.07371,0 7.2909,-12.78249 -6.96936,-12.35662 7.22062,0 3.55602,7.2909 3.66248,-7.2909 7.07583,0" />
    <path
       id="path38"
       style="fill:#417ec9;fill-opacity:1;fill-rule:nonzero;stroke:none"
       d="m 83.277907,587.53915 -6.21131,0 0,-5.81739 18.89159,0 0,5.81739 -6.21344,0 0,19.32172 -6.46684,0 0,-19.32172" />
    <path
       id="path40"
       style="fill:#417ec9;fill-opacity:1;fill-rule:nonzero;stroke:none"
       d="m 99.365147,596.91467 0,-15.19291 6.503043,0 0,15.26531 c 0,3.01516 1.47138,4.45247 3.70081,4.45247 2.26137,0 3.69868,-1.36491 3.69868,-4.346 l 0,-15.37178 6.53497,0 0,15.08432 c 0,7.29089 -4.12881,10.48705 -10.27198,10.48705 -6.14105,0 -10.165523,-3.23236 -10.165523,-10.37846" />
    <path
       id="path42"
       style="fill:#417ec9;fill-opacity:1;fill-rule:nonzero;stroke:none"
       d="m 136.24975,597.16594 -2.33376,-7.36329 -2.3359,7.36329 4.66966,0 z m -5.53205,-15.58684 6.53711,0 8.87087,25.28177 -6.78837,0 -1.47138,-4.52487 -7.90202,0 -1.43731,4.52487 -6.64357,0 8.83467,-25.28177" />
    <path
       id="path44"
       style="fill:#417ec9;fill-opacity:1;fill-rule:nonzero;stroke:none"
       d="m 149.17491,581.72176 6.4647,0 0,19.32172 9.87593,0 0,5.81739 -16.34063,0 0,-25.13911" />
    <path
       id="path46"
       style="fill:#417ec9;fill-opacity:1;fill-rule:nonzero;stroke:none"
       d="m 176.93098,603.52205 3.44955,-4.70587 c 2.04631,1.69071 4.38007,2.83843 6.82457,2.83843 1.72264,0 2.6191,-0.75379 2.6191,-1.83124 l 0,-0.0362 c 0,-1.00506 -0.75379,-1.61618 -3.69868,-2.65743 -4.73994,-1.61618 -8.08089,-3.34095 -8.08089,-7.90202 l 0,-0.10647 c 0,-4.56106 3.48362,-7.75935 8.97947,-7.75935 3.37715,0 6.35611,0.93479 8.97734,3.05349 l -3.26642,4.81233 c -1.72477,-1.32871 -3.80728,-2.29757 -5.85358,-2.29757 -1.47351,0 -2.2997,0.71759 -2.2997,1.65238 l 0,0.0341 c 0,1.11365 0.78999,1.68857 3.98614,2.87462 4.77613,1.54378 7.75722,3.48362 7.75722,7.75722 l 0,0.0703 c 0,4.88473 -3.77107,7.90202 -9.15833,7.90202 -3.73275,0 -7.29089,-1.14772 -10.23579,-3.69868" />
    <path
       id="path48"
       style="fill:#417ec9;fill-opacity:1;fill-rule:nonzero;stroke:none"
       d="m 200.16432,581.72176 17.31162,0 0,5.67472 -10.91718,0 0,4.13094 9.83973,0 0,5.35106 -9.83973,0 0,4.3098 11.06197,0 0,5.67259 -17.45641,0 0,-25.13911" />
    <path
       id="path50"
       style="fill:#417ec9;fill-opacity:1;fill-rule:nonzero;stroke:none"
       d="m 220.74023,594.54258 0,-0.43013 c 0,-7.75722 5.06573,-12.82295 11.6731,-12.82295 3.94994,0 6.6457,1.54591 8.692,3.95208 l -4.165,4.41627 c -1.07958,-1.29252 -2.4445,-2.36784 -4.42053,-2.36784 -2.94277,0 -5.13387,2.6191 -5.13387,6.89484 l 0,0.14266 c 0,4.48867 2.22517,6.96724 5.13387,6.96724 2.1549,0 3.44741,-1.14772 4.59726,-2.47857 l 4.09687,4.16714 c -2.04843,2.51263 -4.85066,4.30981 -9.05187,4.30981 -6.4285,0 -11.42183,-4.9188 -11.42183,-12.75055" />
    <path
       id="path52"
       style="fill:#417ec9;fill-opacity:1;fill-rule:nonzero;stroke:none"
       d="m 244.4399,596.91467 0,-15.19291 6.5009,0 0,15.26531 c 0,3.01516 1.47138,4.45247 3.70081,4.45247 2.26137,0 3.69868,-1.36491 3.69868,-4.346 l 0,-15.37178 6.53711,0 0,15.08432 c 0,7.29089 -4.13094,10.48705 -10.27199,10.48705 -6.14317,0 -10.16551,-3.23236 -10.16551,-10.37846" />
    <path
       id="path54"
       style="fill:#417ec9;fill-opacity:1;fill-rule:nonzero;stroke:none"
       d="m 279.05887,593.93358 c 2.1911,0 3.48362,-1.25844 3.48362,-3.26855 l 0,-0.0724 c 0,-2.1549 -1.36492,-3.23235 -3.51769,-3.23235 l -3.16209,0 0,6.5733 3.19616,0 z m -9.62466,-12.21182 9.87592,0 c 3.37715,0 5.92598,0.89859 7.54216,2.54883 1.40324,1.40325 2.19323,3.34095 2.19323,5.89192 l 0,0.17886 c 0,3.73701 -1.83337,6.06865 -4.4908,7.39949 l 5.17219,9.12001 -7.29089,0 -4.27361,-7.79342 -2.2997,0 0,7.79342 -6.4285,0 0,-25.13911" />
    <path
       id="path56"
       style="fill:#417ec9;fill-opacity:1;fill-rule:nonzero;stroke:none"
       d="m 293.136,606.86087 6.46375,0 0,-25.13975 -6.46375,0 0,25.13975 z" />
    <path
       id="path58"
       style="fill:#417ec9;fill-opacity:1;fill-rule:nonzero;stroke:none"
       d="m 309.61717,587.53915 -6.21344,0 0,-5.81739 18.89372,0 0,5.81739 -6.21344,0 0,19.32172 -6.46684,0 0,-19.32172" />
    <path
       id="path60"
       style="fill:#417ec9;fill-opacity:1;fill-rule:nonzero;stroke:none"
       d="m 332.02645,597.45127 -8.08301,-15.72951 7.14823,0 4.2012,9.08594 4.23954,-9.08594 7.0375,0 -8.07875,15.65924 0,9.47987 -6.46471,0 0,-9.4096" />
    <path
       id="path62"
       style="fill:#417ec9;fill-opacity:1;fill-rule:nonzero;stroke:none"
       d="m 359.1714,606.86087 6.46541,0 0,-25.13975 -6.46541,0 0,25.13975 z" />
    <path
       id="path64"
       style="fill:#417ec9;fill-opacity:1;fill-rule:nonzero;stroke:none"
       d="m 370.59111,581.72176 6.06865,0 8.37047,12.64195 0,-12.64195 6.35611,0 0,25.13911 -5.74712,0 -8.68987,-13.18068 0,13.18068 -6.35824,0 0,-25.13911" />
    <path
       id="path66"
       style="fill:#417ec9;fill-opacity:1;fill-rule:nonzero;stroke:none"
       d="m 401.22181,587.53915 -6.21345,0 0,-5.81739 18.89373,0 0,5.81739 -6.21558,0 0,19.32172 -6.4647,0 0,-19.32172" />
    <path
       id="path68"
       style="fill:#417ec9;fill-opacity:1;fill-rule:nonzero;stroke:none"
       d="m 417.56031,581.72176 17.31162,0 0,5.67472 -10.91931,0 0,4.13094 9.84186,0 0,5.35106 -9.84186,0 0,4.3098 11.06197,0 0,5.67259 -17.45428,0 0,-25.13911" />
    <path
       id="path70"
       style="fill:#417ec9;fill-opacity:1;fill-rule:nonzero;stroke:none"
       d="m 439.10507,581.72176 6.46684,0 0,19.32172 9.8738,0 0,5.81739 -16.34064,0 0,-25.13911" />
    <path
       id="path72"
       style="fill:#417ec9;fill-opacity:1;fill-rule:nonzero;stroke:none"
       d="m 459.06986,581.72176 6.46684,0 0,19.32172 9.87592,0 0,5.81739 -16.34276,0 0,-25.13911" />
    <path
       id="path74"
       style="fill:#417ec9;fill-opacity:1;fill-rule:nonzero;stroke:none"
       d="m 479.14324,606.86087 6.46541,0 0,-25.13975 -6.46541,0 0,25.13975 z" />
    <path
       id="path76"
       style="fill:#417ec9;fill-opacity:1;fill-rule:nonzero;stroke:none"
       d="m 489.84323,594.57878 0,-0.5004 c 0,-7.54429 5.17219,-12.78888 12.10322,-12.78888 3.59221,0 6.21344,1.07958 8.65794,3.05349 l -3.59222,4.92093 c -1.32871,-1.18392 -2.76602,-2.0825 -4.92092,-2.0825 -3.19616,0 -5.63852,2.80009 -5.63852,6.96723 l 0,0.35773 c 0,4.59727 2.47856,7.14823 5.71091,7.14823 1.25632,0 2.18898,-0.28746 2.9087,-0.75379 l 0,-3.73488 -3.98615,0 0,-4.99333 10.05479,0 0,11.99676 c -2.36996,1.75884 -5.42345,3.12376 -9.2286,3.12376 -6.86076,0 -12.06915,-4.8464 -12.06915,-12.71435" />
    <path
       id="path78"
       style="fill:#417ec9;fill-opacity:1;fill-rule:nonzero;stroke:none"
       d="m 515.48273,581.72176 17.31161,0 0,5.67472 -10.9193,0 0,4.13094 9.84185,0 0,5.35106 -9.84185,0 0,4.3098 11.0641,0 0,5.67259 -17.45641,0 0,-25.13911" />
    <path
       id="path80"
       style="fill:#417ec9;fill-opacity:1;fill-rule:nonzero;stroke:none"
       d="m 537.02962,581.72176 6.07078,0 8.36621,12.64195 0,-12.64195 6.35824,0 0,25.13911 -5.74711,0 -8.68988,-13.18068 0,13.18068 -6.35824,0 0,-25.13911" />
    <path
       id="path82"
       style="fill:#417ec9;fill-opacity:1;fill-rule:nonzero;stroke:none"
       d="m 561.87914,594.54258 0,-0.43013 c 0,-7.75722 5.06359,-12.82295 11.67309,-12.82295 3.94995,0 6.64357,1.54591 8.68988,3.95208 l -4.16501,4.41627 c -1.07958,-1.29252 -2.44449,-2.36784 -4.4184,-2.36784 -2.94489,0 -5.13599,2.6191 -5.13599,6.89484 l 0,0.14266 c 0,4.48867 2.22517,6.96724 5.13599,6.96724 2.1549,0 3.44955,-1.14772 4.59727,-2.47857 l 4.09474,4.16714 c -2.04844,2.51263 -4.84853,4.30981 -9.05187,4.30981 -6.42851,0 -11.4197,-4.9188 -11.4197,-12.75055" />
    <path
       id="path84"
       style="fill:#417ec9;fill-opacity:1;fill-rule:nonzero;stroke:none"
       d="m 585.82794,581.72176 17.31374,0 0,5.67472 -10.91931,0 0,4.13094 9.84186,0 0,5.35106 -9.84186,0 0,4.3098 11.06198,0 0,5.67259 -17.45641,0 0,-25.13911" />
    <path
       id="path86"
       style="fill:#393536;fill-opacity:1;fill-rule:nonzero;stroke:none"
       d="m -22.853153,519.47021 -17.84608,0 0,15.5549 18.0867,0 c 7.23553,0 11.21528,-2.77454 11.21528,-7.71889 l 0,-0.24062 c 0,-4.58023 -3.61776,-7.59539 -11.4559,-7.59539 z m 8.07875,-23.99777 c 0,-4.70161 -3.73701,-7.23554 -10.61055,-7.23554 l -15.31428,0 0,14.83306 14.71168,0 c 7.11416,0 11.21315,-2.41043 11.21315,-7.35478 l 0,-0.24274 z m -48.71527,-26.04408 43.28969,0 c 10.6126804,0 18.0867004,2.65104 23.0310504,7.47401 3.37715,3.49853 5.42558,7.95951 5.42558,13.74709 l 0,0.24061 c 0,9.76946 -5.54482,15.55704 -13.0231,18.81281 10.25069,3.37502 16.7622396,9.16472 16.7622396,20.6185 l 0,0.24061 c 0,14.47107 -11.81575965,23.2738 -31.95515,23.2738 l -43.53031,0 0,-84.40743" />
    <path
       id="path88"
       style="fill:#393536;fill-opacity:1;fill-rule:nonzero;stroke:none"
       d="m 96.530987,520.43268 -9.40534,-23.87428 -9.52671,23.87428 18.93205,0 z m -20.49926,-51.60906 22.54769,0 35.937043,85.01217 -25.08374,0 -6.02819,-15.19291 -32.679143,0 -6.02819,15.19291 -24.47687,0 35.8114,-85.01217" />
    <path
       id="path90"
       style="fill:#393536;fill-opacity:1;fill-rule:nonzero;stroke:none"
       d="m 166.83999,469.42836 23.39304,0 0,63.90818 40.87501,0 0,20.49925 -64.26805,0 0,-84.40743" />
    <path
       id="path92"
       style="fill:#393536;fill-opacity:1;fill-rule:nonzero;stroke:none"
       d="m 315.04063,520.43268 -9.40534,-23.87428 -9.52672,23.87428 18.93206,0 z m -20.49926,-51.60906 22.54769,0 35.93491,85.01217 -25.08161,0 -6.02819,-15.19291 -32.67914,0 -6.03032,15.19291 -24.47687,0 35.81353,-85.01217" />
    <path
       id="path94"
       style="fill:#393536;fill-opacity:1;fill-rule:nonzero;stroke:none"
       d="m 425.98402,519.47021 -17.84608,0 0,15.5549 18.0867,0 c 7.23553,0 11.21528,-2.77454 11.21528,-7.71889 l 0,-0.24062 c 0,-4.58023 -3.61563,-7.59539 -11.4559,-7.59539 z m 8.07875,-23.99777 c 0,-4.70161 -3.73701,-7.23554 -10.61055,-7.23554 l -15.31428,0 0,14.83306 14.71168,0 c 7.11415,0 11.21315,-2.41043 11.21315,-7.35478 l 0,-0.24274 z m -48.71314,-26.04408 43.28969,0 c 10.60842,0 18.08457,2.65104 23.02892,7.47401 3.37715,3.49853 5.42558,7.95951 5.42558,13.74709 l 0,0.24061 c 0,9.76946 -5.54482,15.55704 -13.02097,18.81281 10.24856,3.37502 16.76011,9.16472 16.76011,20.6185 l 0,0.24061 c 0,14.47107 -11.81576,23.2738 -31.95515,23.2738 l -43.52818,0 0,-84.40743" />
    <path
       id="path96"
       style="fill:#393536;fill-opacity:1;fill-rule:nonzero;stroke:none"
       d="m 496.2909,553.83579 23.39197,0 0,-84.40786 -23.39197,0 0,84.40786 z" />
    <path
       id="path98"
       style="fill:#393536;fill-opacity:1;fill-rule:nonzero;stroke:none"
       d="m 579.85937,489.92548 -25.20086,0 0,-20.49712 73.91613,0 0,20.49712 -25.32223,0 0,63.91031 -23.39304,0 0,-63.91031" />
  </g>
</svg>
