<?xml version="1.0" encoding="UTF-8" standalone="no"?>
<svg
   xmlns:dc="http://purl.org/dc/elements/1.1/"
   xmlns:cc="http://creativecommons.org/ns#"
   xmlns:rdf="http://www.w3.org/1999/02/22-rdf-syntax-ns#"
   xmlns:svg="http://www.w3.org/2000/svg"
   xmlns="http://www.w3.org/2000/svg"
   version="1.1"
   id="svg4579"
   viewBox="0 0 670.13666 427.16893"
   height="120.55656mm"
   width="189.12746mm">
  <defs
     id="defs4581" />
  <metadata
     id="metadata4584">
    <rdf:RDF>
      <cc:Work
         rdf:about="">
        <dc:format>image/svg+xml</dc:format>
        <dc:type
           rdf:resource="http://purl.org/dc/dcmitype/StillImage" />
        <dc:title></dc:title>
      </cc:Work>
    </rdf:RDF>
  </metadata>
  <g
     transform="translate(-44.36023,-230.20632)"
     id="layer1">
    <path
       id="path136"
       style="fill:#417ec9;fill-opacity:1;fill-rule:nonzero;stroke:none"
       d="m 502.00269,323.06727 -62.69445,-63.05006 0.0149,0.0426 c -18.43378,-18.44017 -43.88377,-29.85349 -71.94648,-29.85349 -0.002,0 -0.004,0 -0.006,0 l 0,25.46703 c 3.29198,0 6.63293,0.21293 10.02286,0.68139 37.08263,5.02527 65.77775,37.09328 66.33777,74.50595 0.64093,42.65088 -33.8588,77.52964 -76.35424,77.52964 -42.10789,0 -76.36488,-34.26124 -76.36488,-76.35849 0,-0.0213 0.004,-0.0426 0.004,-0.0639 l 0,-67.54298 -58.30799,58.6423 c -4.92519,4.96138 -4.92519,12.96773 0,17.92912 l 62.69658,63.07135 -0.0383,-0.12776 c 18.44018,18.46146 43.91359,29.91736 72.01036,29.91736 28.06271,0 53.5127,-11.41331 71.94648,-29.85348 l -0.0149,0.0639 62.69445,-63.07135 c 4.92731,-4.96139 4.92731,-12.96774 0,-17.92913" />
    <path
       id="path138"
       style="fill:#417ec9;fill-opacity:1;fill-rule:nonzero;stroke:none"
       d="m 341.92241,332.03183 0,-0.0426 c 0.0213,-14.01112 11.43035,-25.40314 25.45425,-25.40314 14.03668,0 25.45638,11.41331 25.45638,25.44573 0,14.03241 -11.4197,25.44573 -25.45638,25.44573 -14.03667,0 -25.45638,-11.41332 -25.45638,-25.44573 l 0.002,0 z m -0.002,-98.56761 c -9.02418,2.34228 -17.57139,5.877 -25.44999,10.45511 l 0,88.1125 -0.004,0 c 0.002,28.74622 23.9339,51.99872 52.91435,50.87017 26.18036,-1.0008 47.8465,-22.65629 48.86645,-48.84729 1.12856,-28.98045 -22.12607,-52.93564 -50.87017,-52.93564 -9.27758,0 -17.95468,2.53393 -25.45425,6.89909 l 0,0 -0.002,-54.55394" />
    <path
       id="path140"
       style="fill:#417ec9;fill-opacity:1;fill-rule:nonzero;stroke:none"
       d="m 44.36023,644.9824 0,-0.40458 c 0,-7.51661 4.90262,-12.41411 11.30302,-12.41411 3.82452,0 6.43383,1.49054 8.41519,3.81154 l -4.03406,4.27999 c -1.04402,-1.25632 -2.36485,-2.2997 -4.27701,-2.2997 -2.85141,0 -4.97331,2.53393 -4.97331,6.68616 l 0,0.12776 c 0,4.34388 2.15512,6.75004 4.97331,6.75004 2.08677,0 3.33861,-1.10726 4.45077,-2.40616 l 3.96506,4.04576 c -1.98221,2.42746 -4.69543,4.17353 -8.76355,4.17353 -6.22516,0 -11.05942,-4.76975 -11.05942,-12.35023" />
    <path
       id="path142"
       style="fill:#417ec9;fill-opacity:1;fill-rule:nonzero;stroke:none"
       d="m 82.29929,644.93981 0,-0.36199 c 0,-4.21611 -2.01692,-6.79263 -4.90496,-6.79263 -2.88463,0 -4.86748,2.53393 -4.86748,6.75004 l 0,0.38329 c 0,4.19482 2.01607,6.77133 4.9024,6.77133 2.92296,0 4.87004,-2.53393 4.87004,-6.75004 z m -16.1722,0.0852 0,-0.53233 c 0,-7.26109 4.76527,-12.37153 11.30216,-12.37153 6.57437,0 11.26895,5.04656 11.26895,12.35023 l 0,0.51105 c 0,7.26108 -4.76528,12.39281 -11.30387,12.39281 -6.57267,0 -11.26724,-5.04656 -11.26724,-12.35023" />
    <path
       id="path144"
       style="fill:#417ec9;fill-opacity:1;fill-rule:nonzero;stroke:none"
       d="m 92.65836,632.56829 5.87722,0 8.10409,12.24376 0,-12.24376 6.1551,0 0,24.33847 -5.56548,0 -8.41498,-12.75481 0,12.75481 -6.15595,0 0,-24.33847" />
    <path
       id="path146"
       style="fill:#417ec9;fill-opacity:1;fill-rule:nonzero;stroke:none"
       d="m 122.31935,638.21106 -6.01605,0 0,-5.64277 18.29282,0 0,5.64277 -6.01754,0 0,18.6957 -6.25923,0 0,-18.6957" />
    <path
       id="path148"
       style="fill:#417ec9;fill-opacity:1;fill-rule:nonzero;stroke:none"
       d="m 138.13936,632.56829 16.76224,0 0,5.49372 -10.57009,0 0,4.00318 9.52671,0 0,5.17432 -9.52671,0 0,4.17352 10.7085,0 0,5.49373 -16.90065,0 0,-24.33847" />
    <path
       id="path150"
       style="fill:#417ec9;fill-opacity:1;fill-rule:nonzero;stroke:none"
       d="m 178.6183,632.56829 -6.81818,11.90306 7.095,12.43541 -7.02686,0 -3.75404,-7.5379 -3.79024,7.5379 -6.85012,0 7.05879,-12.37153 -6.74791,-11.96694 6.99066,0 3.44316,7.06944 3.54749,-7.06944 6.85225,0" />
    <path
       id="path152"
       style="fill:#417ec9;fill-opacity:1;fill-rule:nonzero;stroke:none"
       d="m 186.82056,638.21106 -6.01541,0 0,-5.64277 18.29324,0 0,5.64277 -6.01541,0 0,18.6957 -6.26242,0 0,-18.6957" />
    <path
       id="path154"
       style="fill:#417ec9;fill-opacity:1;fill-rule:nonzero;stroke:none"
       d="m 202.39888,647.28209 0,-14.7138 6.29436,0 0,14.77768 c 0,2.91721 1.42454,4.32259 3.58157,4.32259 2.18897,0 3.58157,-1.3202 3.58157,-4.21612 l 0,-14.88415 6.33055,0 0,14.60734 c 0,7.06944 -3.99892,10.157 -9.94832,10.157 -5.94515,0 -9.83973,-3.13015 -9.83973,-10.05054" />
    <path
       id="path156"
       style="fill:#417ec9;fill-opacity:1;fill-rule:nonzero;stroke:none"
       d="m 238.11021,647.51632 -2.25924,-7.11203 -2.25924,7.11203 4.51848,0 z m -5.35318,-15.07579 6.32842,0 8.5898,24.46623 -6.5733,0 -1.42667,-4.36517 -7.64862,0 -1.39047,4.36517 -6.43702,0 8.55786,-24.46623" />
    <path
       id="path158"
       style="fill:#417ec9;fill-opacity:1;fill-rule:nonzero;stroke:none"
       d="m 250.62653,632.56829 6.26029,0 0,18.71698 9.56291,0 0,5.62149 -15.8232,0 0,-24.33847" />
    <path
       id="path160"
       style="fill:#417ec9;fill-opacity:1;fill-rule:nonzero;stroke:none"
       d="m 277.50532,653.67014 3.33882,-4.5568 c 1.98242,1.6396 4.24166,2.76815 6.60737,2.76815 1.66941,0 2.53819,-0.74527 2.53819,-1.78865 l 0,-0.0213 c 0,-0.9795 -0.73037,-1.57572 -3.58157,-2.57651 -4.59088,-1.57572 -7.82536,-3.23661 -7.82536,-7.66566 l 0,-0.0852 c 0,-4.42905 3.37289,-7.51661 8.69413,-7.51661 3.26856,0 6.15595,0.89433 8.69414,2.9598 l -3.16421,4.64198 c -1.66941,-1.27761 -3.68591,-2.21452 -5.66833,-2.21452 -1.42667,0 -2.22517,0.70268 -2.22517,1.59701 l 0,0.0426 c 0,1.06467 0.76443,1.6183 3.86051,2.76815 4.62495,1.51184 7.51021,3.38567 7.51021,7.51661 l 0,0.0639 c 0,4.74845 -3.65183,7.66566 -8.86661,7.66566 -3.61776,0 -7.06092,-1.12856 -9.91212,-3.59861" />
    <path
       id="path162"
       style="fill:#417ec9;fill-opacity:1;fill-rule:nonzero;stroke:none"
       d="m 300.0019,632.56829 16.76224,0 0,5.49372 -10.57222,0 0,4.00318 9.53097,0 0,5.17432 -9.53097,0 0,4.17352 10.71276,0 0,5.49373 -16.90278,0 0,-24.33847" />
    <path
       id="path164"
       style="fill:#417ec9;fill-opacity:1;fill-rule:nonzero;stroke:none"
       d="m 319.92836,644.9824 0,-0.40458 c 0,-7.51661 4.90389,-12.41411 11.30259,-12.41411 3.82431,0 6.43276,1.49054 8.41519,3.81154 l -4.03299,4.27999 c -1.04338,-1.25632 -2.36571,-2.2997 -4.27999,-2.2997 -2.8512,0 -4.97204,2.53393 -4.97204,6.68616 l 0,0.12776 c 0,4.34388 2.15703,6.75004 4.97204,6.75004 2.08889,0 3.33882,-1.10726 4.45247,-2.40616 l 3.96485,4.04576 c -1.98243,2.42746 -4.69522,4.17353 -8.76441,4.17353 -6.22409,0 -11.05771,-4.76975 -11.05771,-12.35023" />
    <path
       id="path166"
       style="fill:#417ec9;fill-opacity:1;fill-rule:nonzero;stroke:none"
       d="m 342.87636,647.28209 0,-14.7138 6.29436,0 0,14.77768 c 0,2.91721 1.42666,4.32259 3.58157,4.32259 2.1911,0 3.58369,-1.3202 3.58369,-4.21612 l 0,-14.88415 6.32843,0 0,14.60734 c 0,7.06944 -3.99892,10.157 -9.94619,10.157 -5.94728,0 -9.84186,-3.13015 -9.84186,-10.05054" />
    <path
       id="path168"
       style="fill:#417ec9;fill-opacity:1;fill-rule:nonzero;stroke:none"
       d="m 376.39659,644.38618 c 2.12296,0 3.37502,-1.21373 3.37502,-3.15144 l 0,-0.0852 c 0,-2.06547 -1.32233,-3.13015 -3.40696,-3.13015 l -3.06201,0 0,6.36676 3.09395,0 z m -9.32017,-11.81789 9.56504,0 c 3.27069,0 5.7386,0.87303 7.30368,2.47004 1.35639,1.36279 2.12083,3.23661 2.12083,5.70666 l 0,0.17035 c 0,3.61989 -1.77375,5.877 -4.34601,7.17591 l 5.00611,8.81551 -7.0588,0 -4.13733,-7.5379 -2.2273,0 0,7.5379 -6.22622,0 0,-24.33847" />
    <path
       id="path170"
       style="fill:#417ec9;fill-opacity:1;fill-rule:nonzero;stroke:none"
       d="m 390.02656,656.90676 6.25995,0 0,-24.34358 -6.25995,0 0,24.34358 z" />
    <path
       id="path172"
       style="fill:#417ec9;fill-opacity:1;fill-rule:nonzero;stroke:none"
       d="m 405.98817,638.21106 -6.01542,0 0,-5.64277 18.29112,0 0,5.64277 -6.01541,0 0,18.6957 -6.26029,0 0,-18.6957" />
    <path
       id="path174"
       style="fill:#417ec9;fill-opacity:1;fill-rule:nonzero;stroke:none"
       d="m 427.68624,647.79314 -7.82536,-15.22485 6.92252,0 4.06706,8.79421 4.10325,-8.79421 6.81605,0 -7.82536,15.16097 0,9.1775 -6.25816,0 0,-9.11362" />
    <path
       id="path176"
       style="fill:#417ec9;fill-opacity:1;fill-rule:nonzero;stroke:none"
       d="m 453.97307,656.90676 6.25829,0 0,-24.34358 -6.25829,0 0,24.34358 z" />
    <path
       id="path178"
       style="fill:#417ec9;fill-opacity:1;fill-rule:nonzero;stroke:none"
       d="m 465.02865,632.56829 5.87701,0 8.10431,12.24376 0,-12.24376 6.15595,0 0,24.33847 -5.56612,0 -8.4152,-12.75481 0,12.75481 -6.15595,0 0,-24.33847" />
    <path
       id="path180"
       style="fill:#417ec9;fill-opacity:1;fill-rule:nonzero;stroke:none"
       d="m 494.6905,638.21106 -6.01541,0 0,-5.64277 18.29324,0 0,5.64277 -6.01541,0 0,18.6957 -6.26242,0 0,-18.6957" />
    <path
       id="path182"
       style="fill:#417ec9;fill-opacity:1;fill-rule:nonzero;stroke:none"
       d="m 510.51157,632.56829 16.76224,0 0,5.49372 -10.57222,0 0,4.00318 9.52884,0 0,5.17432 -9.52884,0 0,4.17352 10.71276,0 0,5.49373 -16.90278,0 0,-24.33847" />
    <path
       id="path184"
       style="fill:#417ec9;fill-opacity:1;fill-rule:nonzero;stroke:none"
       d="m 531.37281,632.56829 6.26029,0 0,18.71698 9.56291,0 0,5.62149 -15.8232,0 0,-24.33847" />
    <path
       id="path186"
       style="fill:#417ec9;fill-opacity:1;fill-rule:nonzero;stroke:none"
       d="m 550.70731,632.56829 6.26029,0 0,18.71698 9.56291,0 0,5.62149 -15.8232,0 0,-24.33847" />
    <path
       id="path188"
       style="fill:#417ec9;fill-opacity:1;fill-rule:nonzero;stroke:none"
       d="m 570.14402,656.90676 6.25994,0 0,-24.34358 -6.25994,0 0,24.34358 z" />
    <path
       id="path190"
       style="fill:#417ec9;fill-opacity:1;fill-rule:nonzero;stroke:none"
       d="m 580.5033,645.02498 0,-0.48975 c 0,-7.30367 5.01036,-12.37152 11.72208,-12.37152 3.47722,0 6.01541,1.02209 8.38112,2.9385 l -3.47936,4.76975 c -1.28613,-1.14985 -2.67659,-2.02289 -4.76336,-2.02289 -3.09394,0 -5.45965,2.72557 -5.45965,6.75004 l 0,0.3407 c 0,4.47163 2.39978,6.94168 5.52992,6.94168 1.21586,0 2.12083,-0.29811 2.815,-0.74527 l 0,-3.6199 -3.85838,0 0,-4.83362 9.73752,0 0,11.62625 c -2.29544,1.70348 -5.25098,3.02368 -8.93688,3.02368 -6.64358,0 -11.68801,-4.68457 -11.68801,-12.30765" />
    <path
       id="path192"
       style="fill:#417ec9;fill-opacity:1;fill-rule:nonzero;stroke:none"
       d="m 605.33153,632.56829 16.76224,0 0,5.49372 -10.57222,0 0,4.00318 9.52884,0 0,5.17432 -9.52884,0 0,4.17352 10.71276,0 0,5.49373 -16.90278,0 0,-24.33847" />
    <path
       id="path194"
       style="fill:#417ec9;fill-opacity:1;fill-rule:nonzero;stroke:none"
       d="m 626.19703,632.56829 5.877,0 8.10218,12.24376 0,-12.24376 6.15595,0 0,24.33847 -5.56399,0 -8.41519,-12.75481 0,12.75481 -6.15595,0 0,-24.33847" />
    <path
       id="path196"
       style="fill:#417ec9;fill-opacity:1;fill-rule:nonzero;stroke:none"
       d="m 650.25655,644.9824 0,-0.40458 c 0,-7.51661 4.90389,-12.41411 11.30259,-12.41411 3.82431,0 6.43277,1.49054 8.41732,3.81154 l -4.03512,4.27999 c -1.04338,-1.25632 -2.36357,-2.2997 -4.27786,-2.2997 -2.8512,0 -4.97203,2.53393 -4.97203,6.68616 l 0,0.12776 c 0,4.34388 2.1549,6.75004 4.97203,6.75004 2.08676,0 3.33882,-1.10726 4.45034,-2.40616 l 3.96698,4.04576 c -1.98455,2.42746 -4.69735,4.17353 -8.7644,4.17353 -6.22622,0 -11.05985,-4.76975 -11.05985,-12.35023" />
    <path
       id="path198"
       style="fill:#417ec9;fill-opacity:1;fill-rule:nonzero;stroke:none"
       d="m 673.44943,632.56829 16.76437,0 0,5.49372 -10.57222,0 0,4.00318 9.52884,0 0,5.17432 -9.52884,0 0,4.17352 10.71063,0 0,5.49373 -16.90278,0 0,-24.33847" />
    <path
       id="path200"
       style="fill:#393536;fill-opacity:1;fill-rule:nonzero;stroke:none"
       d="m 83.70913,561.40541 -17.28095,0 0,15.0545 17.51475,0 c 7.00514,0 10.85883,-2.68298 10.85883,-7.47401 l 0,-0.23423 c 0,-4.42905 -3.50341,-7.34626 -11.09263,-7.34626 z m 7.82302,-23.2525 c 0,-4.55681 -3.6199,-7.00556 -10.27497,-7.00556 l -14.829,0 0,14.37311 14.24492,0 c 6.88887,0 10.85905,-2.34229 10.85905,-7.13332 l 0,-0.23423 z m -47.17192,-25.21151 41.91839,0 c 10.27496,0 17.5139,2.55522 22.30068,7.23979 3.27068,3.38567 5.25523,7.70825 5.25523,13.30844 l 0,0.23423 c 0,9.45431 -5.37086,15.0545 -12.6115,18.20594 9.92575,3.2792 16.23055,8.87939 16.23055,19.9733 l 0,0.23423 c 0,14.01113 -11.4427,22.52853 -30.94137,22.52853 l -42.15198,0 0,-81.72446" />
    <path
       id="path202"
       style="fill:#393536;fill-opacity:1;fill-rule:nonzero;stroke:none"
       d="m 199.31133,562.32103 -9.10723,-23.10345 -9.22648,23.10345 18.33371,0 z m -19.8498,-49.97584 21.83435,0 34.79571,82.32067 -24.28737,0 -5.83868,-14.71381 -31.64214,0 -5.83867,14.71381 -23.7018,0 34.6786,-82.32067" />
    <path
       id="path204"
       style="fill:#393536;fill-opacity:1;fill-rule:nonzero;stroke:none"
       d="m 267.3909,512.9414 22.65203,0 0,61.87891 39.58249,0 0,19.84555 -62.23452,0 0,-81.72446" />
    <path
       id="path206"
       style="fill:#393536;fill-opacity:1;fill-rule:nonzero;stroke:none"
       d="m 410.89632,562.32103 -9.10723,-23.10345 -9.22435,23.10345 18.33158,0 z m -19.8498,-49.97584 21.83435,0 34.79571,82.32067 -24.28524,0 -5.83867,-14.71381 -31.64427,0 -5.83868,14.71381 -23.7018,0 34.6786,-82.32067" />
    <path
       id="path208"
       style="fill:#393536;fill-opacity:1;fill-rule:nonzero;stroke:none"
       d="m 518.32628,561.40541 -17.2818,0 0,15.0545 17.5139,0 c 7.00769,0 10.85969,-2.68298 10.85969,-7.47401 l 0,-0.23423 c 0,-4.42905 -3.50278,-7.34626 -11.09179,-7.34626 z m 7.82324,-23.2525 c 0,-4.55681 -3.6199,-7.00556 -10.27625,-7.00556 l -14.82879,0 0,14.37311 14.24535,0 c 6.88845,0 10.85969,-2.34229 10.85969,-7.13332 l 0,-0.23423 z m -47.17362,-25.21151 41.91838,0 c 10.27411,0 17.51603,2.55522 22.30068,7.23979 3.27068,3.38567 5.25524,7.70825 5.25524,13.30844 l 0,0.23423 c 0,9.45431 -5.37022,15.0545 -12.61001,18.20594 9.92277,3.2792 16.22777,8.87939 16.22777,19.9733 l 0,0.23423 c 0,14.01113 -11.44099,22.52853 -30.93945,22.52853 l -42.15261,0 0,-81.72446" />
    <path
       id="path210"
       style="fill:#393536;fill-opacity:1;fill-rule:nonzero;stroke:none"
       d="m 586.40373,594.66586 22.65096,0 0,-81.73212 -22.65096,0 0,81.73212 z" />
    <path
       id="path212"
       style="fill:#393536;fill-opacity:1;fill-rule:nonzero;stroke:none"
       d="m 667.32329,532.78695 -24.40022,0 0,-19.84555 71.57384,0 0,19.84555 -24.51946,0 0,61.87891 -22.65416,0 0,-61.87891" />
  </g>
</svg>
