<?xml version="1.0" encoding="UTF-8" standalone="no"?>
<svg
   xmlns:dc="http://purl.org/dc/elements/1.1/"
   xmlns:cc="http://creativecommons.org/ns#"
   xmlns:rdf="http://www.w3.org/1999/02/22-rdf-syntax-ns#"
   xmlns:svg="http://www.w3.org/2000/svg"
   xmlns="http://www.w3.org/2000/svg"
   version="1.1"
   id="svg5226"
   viewBox="0 0 678.46713 368.98867"
   height="104.1368mm"
   width="191.4785mm">
  <defs
     id="defs5228" />
  <metadata
     id="metadata5231">
    <rdf:RDF>
      <cc:Work
         rdf:about="">
        <dc:format>image/svg+xml</dc:format>
        <dc:type
           rdf:resource="http://purl.org/dc/dcmitype/StillImage" />
        <dc:title></dc:title>
      </cc:Work>
    </rdf:RDF>
  </metadata>
  <g
     transform="translate(-40.766444,-299.29644)"
     id="layer1">
    <path
       id="path370"
       style="fill:#417ec9;fill-opacity:1;fill-rule:nonzero;stroke:none"
       d="m 504.09895,393.30937 -63.4738,-63.85068 0.0149,0.0511 c -18.66375,-18.66375 -44.42675,-30.21335 -72.8408,-30.21335 -0.002,0 -0.004,0 -0.006,0 l 0,25.77578 c 3.33244,0 6.71597,0.21081 10.14636,0.68778 37.5447,5.0998 66.59542,37.54896 67.16396,75.43648 0.64732,43.16406 -34.28041,78.48785 -77.30393,78.48785 -42.63171,0 -77.31457,-34.67434 -77.31457,-77.31244 0,-0.0234 0.004,-0.0362 0.004,-0.0618 l 0,-68.37555 -59.03197,59.37479 c -4.98906,5.01249 -4.98906,13.12532 0,18.13781 l 63.4738,63.85068 -0.0383,-0.11285 c 18.67014,18.69995 44.4587,30.2751 72.90681,30.2751 28.41405,0 54.17918,-11.5496 72.84081,-30.21335 l -0.0149,0.0511 63.4738,-63.85068 c 4.98693,-5.01249 4.98693,-13.12532 0,-18.13781" />
    <path
       id="path372"
       style="fill:#417ec9;fill-opacity:1;fill-rule:nonzero;stroke:none"
       d="m 342.02773,402.37189 0,-0.0362 c 0.0213,-14.18786 11.57089,-25.72681 25.77152,-25.72681 14.21128,0 25.77153,11.56237 25.77153,25.76301 0,14.21341 -11.56025,25.77578 -25.77153,25.77578 -14.21128,0 -25.77152,-11.56237 -25.77365,-25.77578 l 0.002,0 z m -0.002,-99.78773 c -9.13504,2.36358 -17.78872,5.9494 -25.76739,10.57435 l 0,89.21338 -0.002,0 c 0.002,29.09969 24.232,52.63753 53.57231,51.51323 26.50615,-1.02635 48.44059,-22.95013 49.47119,-49.46267 1.14559,-29.34883 -22.40076,-53.58722 -51.50046,-53.58722 -9.39256,0 -18.18039,2.56161 -25.77152,6.97362 l 0,0 -0.002,-55.22469" />
    <path
       id="path374"
       style="fill:#393536;fill-opacity:1;fill-rule:nonzero;stroke:none"
       d="m 80.604234,634.5988 -17.49559,0 0,15.2355 17.7328,0 c 7.09244,0 10.99447,-2.71067 10.99447,-7.56133 l 0,-0.23848 c 0,-4.48654 -3.54771,-7.43569 -11.23168,-7.43569 z m 7.92118,-23.52506 c 0,-4.6143 -3.66482,-7.10138 -10.4023,-7.10138 l -15.01447,0 0,14.5392 14.42315,0 c 6.97533,0 10.99362,-2.36358 10.99362,-7.21424 l 0,-0.22358 z m -47.75897,-25.53943 42.43879,0 c 10.40316,0 17.732796,2.59994 22.578566,7.32497 3.3105,3.42612 5.32018,7.79981 5.32018,13.47665 l 0,0.23636 c 0,9.57569 -5.4373,15.25041 -12.766946,18.43804 10.048616,3.31327 16.432616,8.98799 16.432616,20.22457 l 0,0.23849 c 0,14.17508 -11.58515,22.81172 -31.328056,22.81172 l -42.67515,0 0,-82.7508" />
    <path
       id="path376"
       style="fill:#393536;fill-opacity:1;fill-rule:nonzero;stroke:none"
       d="m 197.64289,635.53571 -9.22008,-23.40156 -9.33933,23.40156 18.55941,0 z m -20.09467,-50.5891 22.10478,0 35.22797,83.3385 -24.58974,0 -5.90894,-14.89906 -32.03607,0 -5.91108,14.89906 -23.99777,0 35.11085,-83.3385" />
    <path
       id="path378"
       style="fill:#393536;fill-opacity:1;fill-rule:nonzero;stroke:none"
       d="m 266.56995,585.53431 22.9331,0 0,62.64974 40.0765,0 0,20.10106 -63.0096,0 0,-82.7508" />
    <path
       id="path380"
       style="fill:#393536;fill-opacity:1;fill-rule:nonzero;stroke:none"
       d="m 411.85976,635.53571 -9.22221,-23.40156 -9.3372,23.40156 18.55941,0 z m -20.0968,-50.5891 22.10478,0 35.2301,83.3385 -24.58974,0 -5.90894,-14.89906 -32.0382,0 -5.90895,14.89906 -23.9999,0 35.11085,-83.3385" />
    <path
       id="path382"
       style="fill:#393536;fill-opacity:1;fill-rule:nonzero;stroke:none"
       d="m 520.6227,634.5988 -17.49474,0 0,15.2355 17.7311,0 c 7.09499,0 10.99596,-2.71067 10.99596,-7.56133 l 0,-0.23848 c 0,-4.48654 -3.54749,-7.43569 -11.23232,-7.43569 z m 7.92118,-23.52506 c 0,-4.6143 -3.66461,-7.10138 -10.40187,-7.10138 l -15.01405,0 0,14.5392 14.42209,0 c 6.97575,0 10.99383,-2.36358 10.99383,-7.21424 l 0,-0.22358 z m -47.75706,-25.53943 42.43795,0 c 10.404,0 17.73322,2.59994 22.57963,7.32497 3.30901,3.42612 5.31911,7.79981 5.31911,13.47665 l 0,0.23636 c 0,9.57569 -5.43836,15.25041 -12.76758,18.43804 10.0484,3.31327 16.43219,8.98799 16.43219,20.22457 l 0,0.23849 c 0,14.17508 -11.58366,22.81172 -31.32699,22.81172 l -42.67431,0 0,-82.7508" />
    <path
       id="path384"
       style="fill:#393536;fill-opacity:1;fill-rule:nonzero;stroke:none"
       d="m 589.54976,668.28511 22.93374,0 0,-82.75016 -22.93374,0 0,82.75016 z" />
    <path
       id="path386"
       style="fill:#393536;fill-opacity:1;fill-rule:nonzero;stroke:none"
       d="m 671.4765,605.6226 -24.70685,0 0,-20.08829 72.46391,0 0,20.08829 -24.82396,0 0,62.66251 -22.9331,0 0,-62.66251" />
  </g>
</svg>
