<?xml version="1.0" encoding="UTF-8" standalone="no"?>
<svg
   xmlns:dc="http://purl.org/dc/elements/1.1/"
   xmlns:cc="http://creativecommons.org/ns#"
   xmlns:rdf="http://www.w3.org/1999/02/22-rdf-syntax-ns#"
   xmlns:svg="http://www.w3.org/2000/svg"
   xmlns="http://www.w3.org/2000/svg"
   viewBox="0 0 64.824997 94.862503"
   height="94.862503"
   width="64.824997"
   xml:space="preserve"
   version="1.1"
   id="svg2"><metadata
     id="metadata8"><rdf:RDF><cc:Work
         rdf:about=""><dc:format>image/svg+xml</dc:format><dc:type
           rdf:resource="http://purl.org/dc/dcmitype/StillImage" /><dc:title></dc:title></cc:Work></rdf:RDF></metadata><defs
     id="defs6" /><g
     transform="matrix(1.25,0,0,-1.25,0,94.8625)"
     id="g10"><g
       transform="scale(0.1,0.1)"
       id="g12"><path
         id="path14"
         style="fill:#376177;fill-opacity:1;fill-rule:nonzero;stroke:none"
         d="m 185.602,758.906 c 77.55,0 140.449,-62.867 140.449,-140.449 0,-52.102 -24.153,-97.316 -63.223,-121.824 -0.765,-0.485 -1.32,-1.211 -1.32,-2.16 0,-1.719 1.359,-2.153 1.453,-2.192 50.684,-19.621 82.488,-71.379 82.488,-131.484 0,-77.598 -62.914,-140.477 -140.472,-140.477 L 19.4961,220.359 C 8.73047,220.359 0,229.098 0,239.84 l 0,499.574 c 0,10.77 8.73047,19.492 19.4961,19.492 l 166.1059,0" /><path
         id="path16"
         style="fill:#fbbc09;fill-opacity:1;fill-rule:nonzero;stroke:none"
         d="m 117.691,315.707 c -2.476,0 -4.593,2.121 -4.593,4.594 l 0,112.625 c 0,2.472 2.117,4.594 4.593,4.594 l 7.09,0 c 2.469,0 4.59,-2.122 4.59,-4.594 l 0,-49.895 43.848,0 0,49.895 c 0,2.472 2.117,4.594 4.594,4.594 l 7.066,0 c 2.476,0 4.594,-2.122 4.594,-4.594 l 0,-112.625 c 0,-2.473 -2.118,-4.594 -4.594,-4.594 l -7.066,0 c -2.477,0 -4.594,2.121 -4.594,4.594 l 0,48.418 -43.848,0 0,-48.418 c 0,-2.473 -2.121,-4.594 -4.59,-4.594 l -7.09,0" /><path
         id="path18"
         style="fill:#fbbc09;fill-opacity:1;fill-rule:nonzero;stroke:none"
         d="m 117.234,542.152 c -2.468,0 -4.613,2.141 -4.613,4.614 l 0,112.644 c 0,2.473 2.145,4.594 4.613,4.594 l 67.743,0 c 2.472,0 4.593,-2.121 4.593,-4.594 l 0,-4.773 c 0,-2.469 -2.121,-4.594 -4.593,-4.594 l -56.075,0 0,-39.148 47.77,0 c 2.473,0 4.594,-2.141 4.594,-4.618 l 0,-4.769 c 0,-2.477 -2.121,-4.594 -4.594,-4.594 l -47.77,0 0,-50.148 c 0,-2.473 -2.121,-4.614 -4.593,-4.614 l -7.075,0" /><path
         id="path20"
         style="fill:#376177;fill-opacity:1;fill-rule:nonzero;stroke:none"
         d="m 6.96875,96.7578 8.40625,0 c 7.207,0 9.7578,2.7735 9.7578,9.0822 0,6.23 -2.3242,9.082 -9.4609,9.082 l -8.70315,0 0,-18.1642 z m -0.07812,24.0232 8.55857,0 c 6.0781,0 7.4336,2.547 7.4336,7.957 0,5.403 -1.7305,8.188 -7.8086,8.188 l -8.18357,0 0,-16.145 z M 2.01172,90.9766 c -1.050782,0 -1.9531262,0.8984 -1.9531262,1.9531 l 0,47.8243 c 0,1.043 0.9023442,1.949 1.9531262,1.949 l 13.28518,0 c 10.8906,0 14.8633,-5.711 14.8633,-13.816 0,-5.403 -1.3477,-8.332 -6.3047,-10.43 5.0312,-1.426 8.6328,-5.332 8.6328,-12.988 0,-10.2854 -6.7578,-14.4924 -16.3672,-14.4924 l -14.10938,0" /><path
         id="path22"
         style="fill:#376177;fill-opacity:1;fill-rule:nonzero;stroke:none"
         d="m 58.668,124.465 c -4.3555,0 -7.0586,-2.258 -7.5821,-11.274 l 14.9414,0 c 0,8.645 -1.9531,11.274 -7.3593,11.274 z M 59.4922,90 c -9.8359,0 -15.3906,5.7031 -15.3906,19.824 0,14.258 5.8554,19.735 14.7187,19.735 8.9297,0 14.0352,-5.094 14.0352,-18.692 l 0,-1.347 c 0,-0.672 -0.5274,-1.2 -1.1992,-1.2 l -20.6446,0 c 0.1446,-10.2848 2.4024,-12.8434 8.6328,-12.8434 3.2266,0 5.3321,0.9765 7.2774,2.3359 0.9062,0.6719 2.1797,0.4492 2.7812,-0.3828 l 1.1992,-1.5703 C 71.5039,95.0273 71.3516,93.75 70.4531,93.1523 67.3789,90.9766 64.2227,90 59.4922,90" /><path
         id="path24"
         style="fill:#376177;fill-opacity:1;fill-rule:nonzero;stroke:none"
         d="m 87.8828,90.9766 c -1.0508,0 -1.957,0.8984 -1.957,1.9531 l 0,33.7113 c 0,1.043 0.9062,1.945 1.957,1.945 l 1.1211,0 c 1.1289,0 2.1055,-0.824 2.3281,-1.945 l 0.6758,-3.379 c 2.7774,3.449 6.2305,6.004 10.5862,6.004 0.222,0 0.527,0 0.75,-0.078 0.304,-0.079 0.601,-0.372 0.527,-0.672 l -0.527,-5.254 c -0.074,-0.528 -0.602,-0.977 -1.199,-0.91 -0.375,0.078 -0.829,0.078 -1.204,0.078 -3.4527,0 -5.7808,-1.278 -8.5582,-3.828 l 0,-25.6723 c 0,-1.0547 -0.8984,-1.9531 -1.9492,-1.9531 l -2.5508,0" /><path
         id="path26"
         style="fill:#376177;fill-opacity:1;fill-rule:nonzero;stroke:none"
         d="m 117.402,90.9766 c -1.05,0 -1.953,0.8984 -1.953,1.9531 l 0,33.7113 c 0,1.043 0.903,1.945 1.953,1.945 l 1.121,0 c 1.129,0 2.106,-0.824 2.332,-1.875 l 0.598,-2.777 c 3.309,3.3 7.059,5.625 11.485,5.625 5.406,0 9.089,-2.774 9.089,-9.161 l 0,-27.4683 c 0,-1.0547 -0.906,-1.9531 -1.953,-1.9531 l -2.554,0 c -1.051,0 -1.95,0.8984 -1.95,1.9531 l 0,25.4493 c 0,4.277 -1.199,5.476 -4.578,5.476 -3.004,0 -6.383,-2.097 -9.09,-4.5 l 0,-26.4253 c 0,-1.0547 -0.894,-1.9531 -1.945,-1.9531 l -2.555,0" /><path
         id="path28"
         style="fill:#376177;fill-opacity:1;fill-rule:nonzero;stroke:none"
         d="m 169.656,124.465 c -4.351,0 -7.054,-2.258 -7.582,-11.274 l 14.942,0 c 0,8.645 -1.953,11.274 -7.36,11.274 z M 170.484,90 c -9.836,0 -15.39,5.7031 -15.39,19.824 0,14.258 5.859,19.735 14.715,19.735 8.929,0 14.039,-5.094 14.039,-18.692 l 0,-1.347 c 0,-0.672 -0.528,-1.2 -1.203,-1.2 l -20.641,0 c 0.148,-10.2848 2.398,-12.8434 8.633,-12.8434 3.226,0 5.324,0.9765 7.277,2.3359 0.902,0.6719 2.18,0.4492 2.777,-0.3828 l 1.204,-1.5703 c 0.601,-0.8321 0.449,-2.1094 -0.45,-2.7071 C 178.363,90.9766 175.215,90 170.484,90" /><path
         id="path30"
         style="fill:#376177;fill-opacity:1;fill-rule:nonzero;stroke:none"
         d="m 198.879,90.9766 c -1.051,0 -1.953,0.8984 -1.953,1.9531 l 0,33.7113 c 0,1.043 0.902,1.945 1.953,1.945 l 1.121,0 c 1.129,0 2.105,-0.824 2.328,-1.945 l 0.676,-3.379 c 2.777,3.449 6.23,6.004 10.586,6.004 0.223,0 0.527,0 0.75,-0.078 0.305,-0.079 0.601,-0.372 0.527,-0.672 l -0.527,-5.254 c -0.07,-0.528 -0.602,-0.977 -1.199,-0.91 -0.375,0.078 -0.828,0.078 -1.203,0.078 -3.454,0 -5.782,-1.278 -8.559,-3.828 l 0,-25.6723 c 0,-1.0547 -0.899,-1.9531 -1.949,-1.9531 l -2.551,0" /><path
         id="path32"
         style="fill:#376177;fill-opacity:1;fill-rule:nonzero;stroke:none"
         d="M 2.75781,0.976563 C 1.70703,0.976563 0.8125,1.875 0.8125,2.92969 l 0,47.82421 c 0,1.043 0.89453,1.9492 1.94531,1.9492 l 21.85159,0 c 1.0508,0 1.9492,-0.9062 1.9492,-1.9492 l 0,-2.0351 c 0,-1.043 -0.8984,-1.9532 -1.9492,-1.9532 l -16.89456,0 0,-15.6797 13.36326,0 c 1.0508,0 1.9532,-0.9101 1.9532,-1.9531 l 0,-2.0351 c 0,-1.043 -0.9024,-1.9532 -1.9532,-1.9532 l -13.36326,0 0,-22.21481 C 7.71484,1.875 6.81641,0.976563 5.76563,0.976563 l -3.00782,0" /><path
         id="path34"
         style="fill:#376177;fill-opacity:1;fill-rule:nonzero;stroke:none"
         d="m 46.7188,5.10547 c 3.6757,0 6.4531,2.48437 8.2578,4.50391 l 0,9.98832 -2.2539,0 c -9.461,0 -11.2618,-2.4024 -11.2618,-7.8868 0,-4.95309 1.5743,-6.60543 5.2579,-6.60543 z M 45.8945,0 c -7.207,0 -11.3398,3.97266 -11.3398,11.7109 0,8.5625 5.0312,12.5391 17.3437,12.5391 l 3.0782,0 0,2.9258 c 0,4.2031 -0.5274,6.7578 -5.4063,6.7578 -3.2265,0 -6.3828,-1.1328 -9.2344,-2.5547 -0.9765,-0.4531 -2.1757,-0.0703 -2.625,0.9063 l -0.7539,1.4257 c -0.4492,0.9766 -0.0781,2.1758 0.8985,2.7071 3.3789,1.7968 7.2851,3.1406 12.3867,3.1406 7.3594,0 11.1875,-3.2969 11.1875,-11.3281 l 0,-25.30081 c 0,-1.05469 -0.8984,-1.953127 -1.9531,-1.953127 l -1.1211,0 c -1.1289,0 -2.1797,0.749997 -2.4805,1.874997 l -0.5234,1.875 C 53.1719,2.32422 50.0195,0 45.8945,0" /><path
         id="path36"
         style="fill:#376177;fill-opacity:1;fill-rule:nonzero;stroke:none"
         d="m 89.4492,0 c -9.6094,0 -14.9414,6.30859 -14.9414,19.8242 0,14.336 5.707,19.7344 15.0156,19.7344 3.6016,0 6.4571,-0.8203 9.1563,-2.9961 0.9062,-0.6758 0.9805,-1.875 0.3008,-2.707 l -1.2032,-1.5039 c -0.746,-0.8203 -1.9453,-0.8985 -2.7734,-0.2227 -1.6562,1.2774 -3.2305,1.9531 -5.707,1.9531 -5.7031,0 -7.8828,-2.4726 -7.8828,-14.2578 0,-11.56248 2.4062,-14.34764 8.4101,-14.34764 2.3242,0 3.9024,0.90235 5.4766,2.17969 0.8281,0.67188 2.1055,0.60547 2.7812,-0.22656 L 99.4336,6.00781 C 100.18,5.25391 100.105,3.97266 99.2813,3.30078 96.8047,1.125 93.7266,0 89.4492,0" /><path
         id="path38"
         style="fill:#376177;fill-opacity:1;fill-rule:nonzero;stroke:none"
         d="m 114.238,0.976563 c -1.05,0 -1.953,0.898437 -1.953,1.953127 l 0,50.44921 c 0,1.0469 0.903,1.9531 1.953,1.9531 l 2.555,0 c 1.051,0 1.945,-0.9062 1.945,-1.9531 l 0,-18.9922 c 3.309,3.0742 6.688,5.1719 11.035,5.1719 5.407,0 9.09,-2.7734 9.09,-9.1602 l 0,-27.46871 c 0,-1.05469 -0.902,-1.953127 -1.953,-1.953127 l -2.555,0 c -1.05,0 -1.949,0.898437 -1.949,1.953127 l 0,25.44921 c 0,4.2774 -1.199,5.4766 -4.578,5.4766 -3.004,0 -6.383,-2.0977 -9.09,-4.5 l 0,-26.42581 c 0,-1.05469 -0.894,-1.953127 -1.945,-1.953127 l -2.555,0" /><path
         id="path40"
         style="fill:#376177;fill-opacity:1;fill-rule:nonzero;stroke:none"
         d="m 155.844,0.976563 c -1.055,0 -1.953,0.898437 -1.953,1.953127 l 0,50.44921 c 0,1.0469 0.898,1.9531 1.953,1.9531 l 2.551,0 c 1.054,0 1.953,-0.9062 1.953,-1.9531 l 0,-18.9922 c 3.304,3.0742 6.683,5.1719 11.035,5.1719 5.402,0 9.086,-2.7734 9.086,-9.1602 l 0,-27.46871 c 0,-1.05469 -0.903,-1.953127 -1.953,-1.953127 l -2.555,0 c -1.051,0 -1.953,0.898437 -1.953,1.953127 l 0,25.44921 c 0,4.2774 -1.199,5.4766 -4.574,5.4766 -3.004,0 -6.383,-2.0977 -9.086,-4.5 l 0,-26.42581 c 0,-1.05469 -0.899,-1.953127 -1.953,-1.953127 l -2.551,0" /><path
         id="path42"
         style="fill:#376177;fill-opacity:1;fill-rule:nonzero;stroke:none"
         d="m 208.969,5.10547 c 5.711,0 8.41,3.07812 8.41,14.64063 0,11.6328 -2.777,14.7187 -8.484,14.7187 -5.707,0 -8.407,-3.0117 -8.407,-14.6406 0,-11.56248 2.778,-14.71873 8.481,-14.71873 z M 208.969,0 c -9.16,0 -15.391,5.70313 -15.391,19.8242 0,14.1094 6.086,19.7344 15.238,19.7344 9.164,0 15.469,-5.625 15.469,-19.7344 C 224.285,5.70313 218.129,0 208.969,0" /><path
         id="path44"
         style="fill:#376177;fill-opacity:1;fill-rule:nonzero;stroke:none"
         d="m 250.574,0 c -9.605,0 -14.937,6.30859 -14.937,19.8242 0,14.336 5.707,19.7344 15.011,19.7344 3.606,0 6.457,-0.8203 9.161,-2.9961 0.898,-0.6758 0.976,-1.875 0.304,-2.707 l -1.203,-1.5039 c -0.75,-0.8203 -1.953,-0.8985 -2.777,-0.2227 -1.656,1.2774 -3.227,1.9531 -5.707,1.9531 -5.703,0 -7.883,-2.4726 -7.883,-14.2578 0,-11.56248 2.402,-14.34764 8.41,-14.34764 2.324,0 3.902,0.90235 5.477,2.17969 0.828,0.67188 2.105,0.60547 2.781,-0.22656 l 1.352,-1.42188 c 0.75,-0.7539 0.671,-2.03515 -0.153,-2.70703 C 257.934,1.125 254.855,0 250.574,0" /><path
         id="path46"
         style="fill:#376177;fill-opacity:1;fill-rule:nonzero;stroke:none"
         d="m 275.371,0.976563 c -1.051,0 -1.953,0.898437 -1.953,1.953127 l 0,50.44921 c 0,1.0469 0.902,1.9531 1.953,1.9531 l 2.555,0 c 1.051,0 1.945,-0.9062 1.945,-1.9531 l 0,-18.9922 c 3.309,3.0742 6.688,5.1719 11.035,5.1719 5.407,0 9.09,-2.7734 9.09,-9.1602 l 0,-27.46871 c 0,-1.05469 -0.902,-1.953127 -1.953,-1.953127 l -2.555,0 c -1.05,0 -1.949,0.898437 -1.949,1.953127 l 0,25.44921 c 0,4.2774 -1.199,5.4766 -4.578,5.4766 -3.004,0 -6.383,-2.0977 -9.09,-4.5 l 0,-26.42581 c 0,-1.05469 -0.894,-1.953127 -1.945,-1.953127 l -2.555,0" /><path
         id="path48"
         style="fill:#376177;fill-opacity:1;fill-rule:nonzero;stroke:none"
         d="m 323.93,0 c -4.129,0 -8.106,1.34766 -10.883,2.92969 -0.902,0.59375 -1.199,1.79687 -0.68,2.70703 l 0.832,1.42187 c 0.524,0.97657 1.723,1.26954 2.625,0.75391 2.629,-1.50391 5.328,-2.40234 8.41,-2.40234 5.102,0 6.68,2.01953 6.68,5.54684 0,4.211 -1.953,5.0274 -7.961,6.6875 -5.254,1.4258 -9.609,4.1993 -9.609,11.6328 0,5.4805 3.531,10.2813 11.789,10.2813 3.601,0 6.308,-0.5938 8.711,-1.5703 0.976,-0.4492 1.426,-1.6485 0.976,-2.6289 l -0.679,-1.5039 c -0.45,-0.9727 -1.578,-1.5039 -2.625,-1.0547 -2.18,0.9765 -3.903,1.2812 -6.161,1.2812 -4.05,0 -5.925,-1.4257 -5.925,-4.6484 0,-3.5352 1.57,-4.4336 6.754,-5.8594 5.781,-1.5703 11.039,-3.8281 11.039,-12.3125 C 337.223,3.45703 332.789,0 323.93,0" /><path
         id="path50"
         style="fill:#376177;fill-opacity:1;fill-rule:nonzero;stroke:none"
         d="m 363.145,0 c -9.61,0 -14.942,6.30859 -14.942,19.8242 0,14.336 5.707,19.7344 15.016,19.7344 3.601,0 6.453,-0.8203 9.16,-2.9961 0.898,-0.6758 0.976,-1.875 0.301,-2.707 l -1.2,-1.5039 c -0.753,-0.8203 -1.953,-0.8985 -2.781,-0.2227 -1.652,1.2774 -3.226,1.9531 -5.707,1.9531 -5.703,0 -7.879,-2.4726 -7.879,-14.2578 0,-11.56248 2.403,-14.34764 8.407,-14.34764 2.324,0 3.902,0.90235 5.48,2.17969 0.824,0.67188 2.105,0.60547 2.777,-0.22656 l 1.352,-1.42188 C 373.883,5.25391 373.805,3.97266 372.98,3.30078 370.504,1.125 367.422,0 363.145,0" /><path
         id="path52"
         style="fill:#376177;fill-opacity:1;fill-rule:nonzero;stroke:none"
         d="m 387.934,0.976563 c -1.055,0 -1.954,0.898437 -1.954,1.953127 l 0,50.44921 c 0,1.0469 0.899,1.9531 1.954,1.9531 l 2.55,0 c 1.055,0 1.954,-0.9062 1.954,-1.9531 l 0,-18.9922 c 3.304,3.0742 6.683,5.1719 11.035,5.1719 5.406,0 9.086,-2.7734 9.086,-9.1602 l 0,-27.46871 c 0,-1.05469 -0.903,-1.953127 -1.954,-1.953127 l -2.554,0 c -1.047,0 -1.953,0.898437 -1.953,1.953127 l 0,25.44921 c 0,4.2774 -1.2,5.4766 -4.575,5.4766 -3.003,0 -6.382,-2.0977 -9.085,-4.5 l 0,-26.42581 c 0,-1.05469 -0.899,-1.953127 -1.954,-1.953127 l -2.55,0" /><path
         id="path54"
         style="fill:#376177;fill-opacity:1;fill-rule:nonzero;stroke:none"
         d="m 437.027,0 c -5.41,0 -9.609,3.07422 -9.609,9.60938 l 0,27.03122 c 0,1.043 0.898,1.9453 1.945,1.9453 l 2.555,0 c 1.051,0 1.953,-0.9023 1.953,-1.9453 l 0,-25 c 0,-4.43357 1.5,-5.93747 4.879,-5.93747 3.004,0 6.23,2.03125 9.008,4.51167 l 0,26.4258 c 0,1.043 0.902,1.9453 1.953,1.9453 l 2.555,0 c 1.05,0 1.949,-0.9023 1.949,-1.9453 l 0,-33.71091 c 0,-1.05469 -0.899,-1.953127 -1.949,-1.953127 l -1.129,0 c -1.125,0 -2.098,0.828127 -2.328,1.874997 l -0.602,2.78516 C 445.059,2.40234 441.453,0 437.027,0" /><path
         id="path56"
         style="fill:#376177;fill-opacity:1;fill-rule:nonzero;stroke:none"
         d="m 476.348,0.222656 c -4.805,0 -6.832,2.558594 -6.832,9.164064 l 0,43.99218 c 0,1.0469 0.898,1.9531 1.953,1.9531 l 2.551,0 c 1.054,0 1.953,-0.9062 1.953,-1.9531 l 0,-45.19531 c 0,-1.875 0.824,-2.6289 2.625,-2.6289 0.304,0 0.601,0 0.828,0.08203 0.375,0 0.75,-0.22656 0.824,-0.60938 l 0.375,-2.17578 c 0.227,-1.04687 -0.449,-2.097654 -1.5,-2.324216 -0.902,-0.144531 -1.879,-0.304688 -2.777,-0.304688" /><path
         id="path58"
         style="fill:#376177;fill-opacity:1;fill-rule:nonzero;stroke:none"
         d="m 504.391,34.4648 c -4.356,0 -7.055,-2.2578 -7.582,-11.2734 l 14.937,0 c 0,8.6445 -1.949,11.2734 -7.355,11.2734 z M 505.215,0 c -9.832,0 -15.391,5.70313 -15.391,19.8242 0,14.2578 5.856,19.7344 14.719,19.7344 8.93,0 14.035,-5.0938 14.035,-18.6914 l 0,-1.3477 c 0,-0.6718 -0.527,-1.1992 -1.199,-1.1992 l -20.645,0 c 0.145,-10.28514 2.403,-12.84374 8.633,-12.84374 3.227,0 5.332,0.97657 7.278,2.33594 0.906,0.67188 2.179,0.44922 2.781,-0.38281 l 1.199,-1.57031 C 517.227,5.02734 517.074,3.75 516.176,3.15234 513.102,0.976563 509.945,0 505.215,0" /></g></g></svg>