<?xml version="1.0" encoding="UTF-8" standalone="no"?>
<!-- Created with Inkscape (http://www.inkscape.org/) -->

<svg
   xmlns:dc="http://purl.org/dc/elements/1.1/"
   xmlns:cc="http://creativecommons.org/ns#"
   xmlns:rdf="http://www.w3.org/1999/02/22-rdf-syntax-ns#"
   xmlns:svg="http://www.w3.org/2000/svg"
   xmlns="http://www.w3.org/2000/svg"
   xmlns:sodipodi="http://sodipodi.sourceforge.net/DTD/sodipodi-0.dtd"
   xmlns:inkscape="http://www.inkscape.org/namespaces/inkscape"
   id="svg3642"
   version="1.1"
   inkscape:version="0.91 r13725"
   xml:space="preserve"
   width="271.18124"
   height="70.976128"
   viewBox="0 0 271.18125 70.976127"
   sodipodi:docname="Cybersecurity-Alliance.svg"><metadata
     id="metadata3648"><rdf:RDF><cc:Work
         rdf:about=""><dc:format>image/svg+xml</dc:format><dc:type
           rdf:resource="http://purl.org/dc/dcmitype/StillImage" /><dc:title></dc:title></cc:Work></rdf:RDF></metadata><defs
     id="defs3646" /><sodipodi:namedview
     pagecolor="#ffffff"
     bordercolor="#666666"
     borderopacity="1"
     objecttolerance="10"
     gridtolerance="10"
     guidetolerance="10"
     inkscape:pageopacity="0"
     inkscape:pageshadow="2"
     inkscape:window-width="1280"
     inkscape:window-height="751"
     id="namedview3644"
     showgrid="false"
     units="px"
     fit-margin-top="0"
     fit-margin-left="0"
     fit-margin-right="0"
     fit-margin-bottom="0"
     inkscape:zoom="4.2408041"
     inkscape:cx="135.58749"
     inkscape:cy="35.487507"
     inkscape:window-x="0"
     inkscape:window-y="0"
     inkscape:window-maximized="1"
     inkscape:current-layer="g3650" /><g
     id="g3650"
     inkscape:groupmode="layer"
     inkscape:label="ink_ext_XXXXXX"
     transform="matrix(1.25,0,0,-1.25,0,70.976125)"><g
       id="g3652"
       transform="scale(0.1,0.1)"><path
         d="m 1.79688,215.84 c 8.21482,-4.473 17.81252,-7.051 30.82032,-7.051 17.2148,0 31.4219,7.57 31.4219,24.59 C 64.0391,256.934 0,259.855 0,291.328 c 0,19.258 19.6094,31.301 44.2305,31.301 6.8008,0 17.8086,-0.859 27.4218,-3.949 l -2.2031,-10.84 c -6.2109,2.93 -16.0117,4.473 -25.4179,4.473 -14.4102,0 -30.2227,-5.165 -30.2227,-20.633 0,-24.082 64.0391,-24.246 64.0391,-59.336 0,-24.246 -24.2188,-33.867 -45.8282,-33.867 -13.6093,0 -24.21872,2.402 -31.617156,5.148 L 1.79688,215.84"
         style="fill:#4e5152;fill-opacity:1;fill-rule:nonzero;stroke:none"
         id="path3654"
         inkscape:connector-curvature="0" /><path
         d="m 141.711,320.563 68.453,0 0,-10.309 -54.641,0 0,-42.82 51.836,0 0,-10.325 -51.836,0 0,-46.257 57.036,0 0,-10.325 -70.848,0 0,120.036"
         style="fill:#4e5152;fill-opacity:1;fill-rule:nonzero;stroke:none"
         id="path3656"
         inkscape:connector-curvature="0" /><path
         d="m 278.23,320.563 36.016,0 c 24.824,0 41.027,-9.114 41.027,-31.118 0,-15.484 -13.804,-25.8 -31.011,-27.687 l 0,-0.34 c 11.203,-1.203 13.605,-6.379 18.004,-14.445 l 23.82,-46.446 -15.211,0 -20.219,40.598 c -8,15.469 -14,15.984 -27.207,15.984 l -11.41,0 0,-56.582 -13.809,0 0,120.036 z m 13.809,-53.129 14.609,0 c 16.211,0 34.821,5.332 34.821,22.011 0,19.598 -16.211,20.809 -35.223,20.809 l -14.207,0 0,-42.82"
         style="fill:#4e5152;fill-opacity:1;fill-rule:nonzero;stroke:none"
         id="path3658"
         inkscape:connector-curvature="0" /><path
         d="m 475.984,200.527 -14.808,0 -52.043,120.036 14.609,0 45.039,-108.161 46.629,108.161 13.602,0 -53.028,-120.036"
         style="fill:#4e5152;fill-opacity:1;fill-rule:nonzero;stroke:none"
         id="path3660"
         inkscape:connector-curvature="0" /><path
         d="m 581.672,200.527 13.8086,0 0,120.031 -13.8086,0 0,-120.031 z"
         style="fill:#4e5152;fill-opacity:1;fill-rule:nonzero;stroke:none"
         id="path3662"
         inkscape:connector-curvature="0" /><path
         d="m 759.801,307.156 c -8.797,3.949 -21.41,5.157 -31.219,5.157 -36.23,0 -56.641,-22.02 -56.641,-51.774 0,-30.254 19.809,-51.758 56.641,-51.758 9.199,0 23.223,1.043 31.219,5.176 l 0.801,-10.324 c -7.614,-3.965 -23.215,-5.156 -32.02,-5.156 -44.027,0 -70.449,24.921 -70.449,62.062 0,36.473 27.219,62.094 70.449,62.094 8.211,0 24.816,-1.211 32.02,-4.469 l -0.801,-11.008"
         style="fill:#4e5152;fill-opacity:1;fill-rule:nonzero;stroke:none"
         id="path3664"
         inkscape:connector-curvature="0" /><path
         d="m 833.473,320.563 68.449,0 0,-10.309 -54.641,0 0,-42.82 51.832,0 0,-10.325 -51.832,0 0,-46.257 57.043,0 0,-10.325 -70.851,0 0,120.036"
         style="fill:#4e5152;fill-opacity:1;fill-rule:nonzero;stroke:none"
         id="path3666"
         inkscape:connector-curvature="0" /><path
         d="m 965.781,215.84 c 8.199,-4.473 17.809,-7.051 30.821,-7.051 17.208,0 31.418,7.57 31.418,24.59 0,23.555 -64.04,26.476 -64.04,57.949 0,19.258 19.61,31.301 44.23,31.301 6.8,0 17.81,-0.859 27.42,-3.949 l -2.2,-10.84 c -6.21,2.93 -16.02,4.473 -25.42,4.473 -14.408,0 -30.221,-5.165 -30.221,-20.633 0,-24.082 64.041,-24.246 64.041,-59.336 0,-24.246 -24.21,-33.867 -45.826,-33.867 -13.609,0 -24.219,2.402 -31.621,5.148 l 1.398,12.215"
         style="fill:#4e5152;fill-opacity:1;fill-rule:nonzero;stroke:none"
         id="path3668"
         inkscape:connector-curvature="0" /><path
         d="m 202.145,372.188 -42.993,0 -46.672,54.832 -62.7847,0 0,33.699 78.1757,0 c 10.766,0 19.793,2.758 27.133,8.281 8.301,6.469 12.449,15.707 12.449,27.711 0,24.355 -13.187,36.539 -39.582,36.539 l -95.2851,0 0,-161.062 -29.07418,0 0,195.05 119.72228,0 c 21.5,0 38.848,-5.429 52.039,-16.281 15.149,-12.375 22.723,-30.559 22.723,-54.539 0,-16.379 -4.398,-30.469 -13.191,-42.27 -8.153,-11.043 -19.231,-18.75 -33.242,-23.132 l 50.582,-58.828"
         style="fill:#599c32;fill-opacity:1;fill-rule:nonzero;stroke:none"
         id="path3670"
         inkscape:connector-curvature="0" /><path
         d="m 433.754,372.188 -37.375,0.289 -28.109,54.543 -79.153,0 17.594,33.699 44.219,0 -29.067,56.261 -75.265,-144.503 -37.368,0 90.641,176.203 c 2.277,4.57 5.449,8.75 9.531,12.558 4.875,4.379 9.278,6.571 13.196,6.571 4.218,0 8.625,-2.098 13.179,-6.278 3.922,-3.625 7.09,-7.91 9.532,-12.851 l 88.445,-176.492"
         style="fill:#599c32;fill-opacity:1;fill-rule:nonzero;stroke:none"
         id="path3672"
         inkscape:connector-curvature="0" /><path
         d="m 622.371,471.855 c 0,-28.75 -7.949,-52.546 -23.82,-71.402 -15.879,-18.836 -35.961,-28.265 -60.231,-28.265 l -94.058,0 0,195.05 94.058,0 c 24.59,0 44.754,-8.761 60.473,-26.269 15.723,-17.52 23.578,-40.551 23.578,-69.114 m -29.066,-2.859 c 0,18.852 -5.172,34.274 -15.524,46.258 -10.347,12.004 -23.492,17.996 -39.461,17.996 l -65.226,0 0,-127.082 65.226,0 c 15.969,0 29.114,5.812 39.461,17.426 10.352,11.613 15.524,26.746 15.524,45.402"
         style="fill:#599c32;fill-opacity:1;fill-rule:nonzero;stroke:none"
         id="path3674"
         inkscape:connector-curvature="0" /><path
         d="m 828.176,372.188 -37.383,0.289 -28.102,54.543 -79.148,0 17.594,33.699 44.215,0 -29.071,56.261 -75.258,-144.503 -37.371,0 90.641,176.203 c 2.281,4.57 5.449,8.75 9.523,12.558 4.887,4.379 9.286,6.571 13.207,6.571 4.219,0 8.618,-2.098 13.18,-6.278 3.918,-3.625 7.09,-7.91 9.539,-12.851 l 88.434,-176.492"
         style="fill:#599c32;fill-opacity:1;fill-rule:nonzero;stroke:none"
         id="path3676"
         inkscape:connector-curvature="0" /><path
         d="m 1037.8,372.188 -43.007,0 -46.66,54.832 -62.789,0 0,33.699 78.179,0 c 10.762,0 19.79,2.758 27.118,8.281 8.312,6.469 12.469,15.707 12.469,27.711 0,24.355 -13.196,36.539 -39.587,36.539 l -95.281,0 0,-161.062 -29.07,0 0,195.05 119.711,0 c 21.508,0 38.847,-5.429 52.037,-16.281 15.15,-12.375 22.73,-30.559 22.73,-54.539 0,-16.379 -4.4,-30.469 -13.2,-42.27 -8.14,-11.043 -19.22,-18.75 -33.227,-23.132 l 50.577,-58.828"
         style="fill:#599c32;fill-opacity:1;fill-rule:nonzero;stroke:none"
         id="path3678"
         inkscape:connector-curvature="0" /><path
         d="m 2032.08,565.516 -228.94,0 0,-228.942 c 0,-75.859 61.5,-137.363 137.36,-137.363 l 91.57,0 c 75.87,0 137.38,61.504 137.38,137.363 l 0,91.578 c 0,75.86 -61.51,137.364 -137.37,137.364"
         style="fill:#c51e29;fill-opacity:1;fill-rule:nonzero;stroke:none"
         id="path3680"
         inkscape:connector-curvature="0" /><path
         d="m 1876.41,492.254 0,-73.262 73.25,0 0,-146.519 73.26,0 0,219.781 -146.51,0"
         style="fill:#ffffff;fill-opacity:1;fill-rule:nonzero;stroke:none"
         id="path3682"
         inkscape:connector-curvature="0" /><path
         d="m 1269.92,565.508 236,0 0,-69.598 -160.12,0 0,-82.148 140.76,0 0,-69.602 -140.76,0 0,-144.949 -75.88,0 0,366.297"
         style="fill:#040606;fill-opacity:1;fill-rule:nonzero;stroke:none"
         id="path3684"
         inkscape:connector-curvature="0" /><path
         d="m 1542.55,565.516 75.87,0 0,-296.707 148.1,0 0,-69.598 -223.97,0 0,366.305"
         style="fill:#040606;fill-opacity:1;fill-rule:nonzero;stroke:none"
         id="path3686"
         inkscape:connector-curvature="0" /><path
         d="m 0,0 2169.45,0 0,128.977 L 0,128.977 0,0 Z"
         style="fill:#c3c4c2;fill-opacity:1;fill-rule:nonzero;stroke:none"
         id="path3688"
         inkscape:connector-curvature="0" /><path
         d="m 310.617,64.2891 0,0.3984 c 0,16.875 10.481,28.625 24.231,28.625 7.515,0 12.39,-2.8828 16.707,-6.7969 l -2.559,-3.039 c -3.75,3.5937 -8.152,6.1523 -14.308,6.1523 -11.278,0 -19.989,-10.3125 -19.989,-24.8633 l 0,-0.3203 c 0,-14.707 8.711,-25.0195 19.989,-25.0195 5.996,0 10.468,2.3906 14.707,6.5508 l 2.484,-2.793 c -4.563,-4.3242 -9.836,-7.4414 -17.356,-7.4414 -13.585,0 -23.906,11.4375 -23.906,28.5469"
         style="fill:#4e5152;fill-opacity:1;fill-rule:nonzero;stroke:none"
         id="path3690"
         inkscape:connector-curvature="0" /><path
         d="m 404.855,59.3281 -20.222,33.1836 4.715,0 17.586,-29.3476 17.589,29.3476 4.563,0 -20.238,-33.0976 0,-22.8711 -3.993,0 0,22.7851"
         style="fill:#4e5152;fill-opacity:1;fill-rule:nonzero;stroke:none"
         id="path3692"
         inkscape:connector-curvature="0" /><path
         d="m 484.211,62.9297 -13.992,0 0,-22.7031 14.793,0 c 9.187,0 15.031,4.2382 15.031,11.3476 l 0,0.1641 c 0,7.1094 -5.598,11.1914 -15.832,11.1914 z m 13.43,15.4297 c 0,6.3203 -4.875,10.4804 -13.274,10.4804 l -14.148,0 0,-22.2382 13.59,0 c 8.312,0 13.832,4.1601 13.832,11.6015 l 0,0.1563 z m -31.418,14.1523 18.222,0 c 5.84,0 10.559,-1.7578 13.594,-4.7187 2.324,-2.3125 3.602,-5.4375 3.602,-9.1094 l 0,-0.168 c 0,-7.7539 -4.879,-11.5898 -9.676,-13.3476 6.64,-1.6797 12.07,-5.6758 12.07,-13.4297 l 0,-0.1641 c 0,-9.2695 -7.59,-15.0312 -19.187,-15.0312 l -18.625,0 0,55.9687"
         style="fill:#4e5152;fill-opacity:1;fill-rule:nonzero;stroke:none"
         id="path3694"
         inkscape:connector-curvature="0" /><path
         d="m 543.422,92.5117 33.496,0 0,-3.6719 -29.504,0 0,-22.2382 26.543,0 0,-3.6719 -26.543,0 0,-22.7031 29.902,0 0,-3.6836 -33.894,0 0,55.9687"
         style="fill:#4e5152;fill-opacity:1;fill-rule:nonzero;stroke:none"
         id="path3696"
         inkscape:connector-curvature="0" /><path
         d="m 633.891,63.1641 c 10.308,0 16.074,5.039 16.074,12.9609 l 0,0.1563 c 0,7.996 -5.676,12.5585 -15.117,12.5585 l -14.231,0 0,-25.6757 13.274,0 z m -17.27,29.3476 18.469,0 c 6.238,0 11.355,-1.9922 14.473,-5.1172 2.714,-2.7148 4.316,-6.6328 4.316,-10.9492 l 0,-0.164 c 0,-9.0352 -5.996,-14.3946 -14.309,-15.9102 l 16.067,-23.8281 -4.875,0 -15.516,23.0273 -14.629,0 0,-23.0273 -3.996,0 0,55.9687"
         style="fill:#4e5152;fill-opacity:1;fill-rule:nonzero;stroke:none"
         id="path3698"
         inkscape:connector-curvature="0" /><path
         d="m 690.461,43.4961 2.637,3.125 c 5.039,-4.7148 9.914,-7.1953 16.472,-7.1953 7.524,0 12.715,4.7148 12.715,10.789 l 0,0.1563 c 0,5.2852 -2.558,8.7227 -13.515,12.5586 -12.235,4.3945 -16.075,8.7891 -16.075,16.0742 l 0,0.1563 c 0,7.9101 6.797,14.1523 16.235,14.1523 6.394,0 11.433,-1.9141 16.316,-6.0742 l -2.48,-3.2031 c -4.407,3.9257 -8.957,5.5937 -13.996,5.5937 -7.352,0 -12.071,-4.5508 -12.071,-10.1445 l 0,-0.168 c 0,-5.4297 2.641,-8.7891 13.906,-12.7148 11.993,-4.3946 15.598,-9.0313 15.598,-15.9844 l 0,-0.1563 c 0,-8.4765 -7.043,-14.7187 -16.711,-14.7187 -7.273,0 -13.191,2.4023 -19.031,7.7539"
         style="fill:#4e5152;fill-opacity:1;fill-rule:nonzero;stroke:none"
         id="path3700"
         inkscape:connector-curvature="0" /><path
         d="m 765.82,92.5117 33.496,0 0,-3.6719 -29.5,0 0,-22.2382 26.543,0 0,-3.6719 -26.543,0 0,-22.7031 29.903,0 0,-3.6836 -33.899,0 0,55.9687"
         style="fill:#4e5152;fill-opacity:1;fill-rule:nonzero;stroke:none"
         id="path3702"
         inkscape:connector-curvature="0" /><path
         d="m 836.855,64.2891 0,0.3984 c 0,16.875 10.469,28.625 24.219,28.625 7.524,0 12.403,-2.8828 16.723,-6.7969 l -2.563,-3.039 c -3.757,3.5937 -8.164,6.1523 -14.312,6.1523 -11.274,0 -19.992,-10.3125 -19.992,-24.8633 l 0,-0.3203 c 0,-14.707 8.718,-25.0195 19.992,-25.0195 5.992,0 10.476,2.3906 14.715,6.5508 l 2.468,-2.793 c -4.55,-4.3242 -9.832,-7.4414 -17.343,-7.4414 -13.59,0 -23.907,11.4375 -23.907,28.5469"
         style="fill:#4e5152;fill-opacity:1;fill-rule:nonzero;stroke:none"
         id="path3704"
         inkscape:connector-curvature="0" /><path
         d="m 915.41,57.0898 0,35.4219 3.918,0 0,-35.1758 c 0,-11.5156 5.996,-17.9882 15.828,-17.9882 9.524,0 15.598,5.9961 15.598,17.7421 l 0,35.4219 3.992,0 0,-35.0976 c 0,-13.9961 -7.984,-21.75 -19.742,-21.75 -11.594,0 -19.594,7.7539 -19.594,21.4257"
         style="fill:#4e5152;fill-opacity:1;fill-rule:nonzero;stroke:none"
         id="path3706"
         inkscape:connector-curvature="0" /><path
         d="m 1013.57,63.1641 c 10.31,0 16.07,5.039 16.07,12.9609 l 0,0.1563 c 0,7.996 -5.67,12.5585 -15.12,12.5585 l -14.23,0 0,-25.6757 13.28,0 z m -17.269,29.3476 18.469,0 c 6.24,0 11.35,-1.9922 14.47,-5.1172 2.71,-2.7148 4.32,-6.6328 4.32,-10.9492 l 0,-0.164 c 0,-9.0352 -6,-14.3946 -14.32,-15.9102 l 16.07,-23.8281 -4.87,0 -15.52,23.0273 -14.63,0 0,-23.0273 -3.989,0 0,55.9687"
         style="fill:#4e5152;fill-opacity:1;fill-rule:nonzero;stroke:none"
         id="path3708"
         inkscape:connector-curvature="0" /><path
         d="m 1074.38,36.543 3.9922,0 0,55.9688 -3.9922,0 0,-55.9688 z"
         style="fill:#4e5152;fill-opacity:1;fill-rule:nonzero;stroke:none"
         id="path3710"
         inkscape:connector-curvature="0" /><path
         d="m 1133.64,88.8398 -16.3,0 0,3.6719 36.69,0 0,-3.6719 -16.39,0 0,-52.2968 -4,0 0,52.2968"
         style="fill:#4e5152;fill-opacity:1;fill-rule:nonzero;stroke:none"
         id="path3712"
         inkscape:connector-curvature="0" /><path
         d="m 1207.4,59.3281 -20.23,33.1836 4.73,0 17.58,-29.3476 17.59,29.3476 4.56,0 -20.23,-33.0976 0,-22.8711 -4,0 0,22.7851"
         style="fill:#4e5152;fill-opacity:1;fill-rule:nonzero;stroke:none"
         id="path3714"
         inkscape:connector-curvature="0" /><path
         d="m 1347.79,55.8125 -12.23,32.2266 -12.32,-32.2266 24.55,0 z m -14.16,37.0977 4.01,0 21.82,-56.3672 -4.31,0 -5.92,15.6758 -27.42,0 -5.92,-15.6758 -4.08,0 21.82,56.3672"
         style="fill:#4e5152;fill-opacity:1;fill-rule:nonzero;stroke:none"
         id="path3716"
         inkscape:connector-curvature="0" /><path
         d="m 1397.74,92.5117 3.99,0 0,-52.2851 27.11,0 0,-3.6836 -31.1,0 0,55.9687"
         style="fill:#4e5152;fill-opacity:1;fill-rule:nonzero;stroke:none"
         id="path3718"
         inkscape:connector-curvature="0" /><path
         d="m 1467.09,92.5117 4,0 0,-52.2851 27.11,0 0,-3.6836 -31.11,0 0,55.9687"
         style="fill:#4e5152;fill-opacity:1;fill-rule:nonzero;stroke:none"
         id="path3720"
         inkscape:connector-curvature="0" /><path
         d="m 1537.01,36.543 4,0 0,55.9688 -4,0 0,-55.9688 z"
         style="fill:#4e5152;fill-opacity:1;fill-rule:nonzero;stroke:none"
         id="path3722"
         inkscape:connector-curvature="0" /><path
         d="m 1615.79,55.8125 -12.23,32.2266 -12.32,-32.2266 24.55,0 z m -14.15,37.0977 4,0 21.82,-56.3672 -4.31,0 -5.92,15.6758 -27.42,0 -5.92,-15.6758 -4.08,0 21.83,56.3672"
         style="fill:#4e5152;fill-opacity:1;fill-rule:nonzero;stroke:none"
         id="path3724"
         inkscape:connector-curvature="0" /><path
         d="m 1665.73,92.5117 3.84,0 32.22,-48.2148 0,48.2148 3.84,0 0,-55.9687 -3.2,0 -32.86,49.3359 0,-49.3359 -3.84,0 0,55.9687"
         style="fill:#4e5152;fill-opacity:1;fill-rule:nonzero;stroke:none"
         id="path3726"
         inkscape:connector-curvature="0" /><path
         d="m 1745.73,64.2891 0,0.3984 c 0,16.875 10.47,28.625 24.22,28.625 7.52,0 12.4,-2.8828 16.72,-6.7969 l -2.56,-3.039 c -3.76,3.5937 -8.15,6.1523 -14.31,6.1523 -11.27,0 -19.99,-10.3125 -19.99,-24.8633 l 0,-0.3203 c 0,-14.707 8.72,-25.0195 19.99,-25.0195 5.99,0 10.48,2.3906 14.71,6.5508 l 2.47,-2.793 c -4.55,-4.3242 -9.83,-7.4414 -17.34,-7.4414 -13.59,0 -23.91,11.4375 -23.91,28.5469"
         style="fill:#4e5152;fill-opacity:1;fill-rule:nonzero;stroke:none"
         id="path3728"
         inkscape:connector-curvature="0" /><path
         d="m 1824.93,92.5117 33.5,0 0,-3.6719 -29.5,0 0,-22.2382 26.54,0 0,-3.6719 -26.54,0 0,-22.7031 29.9,0 0,-3.6836 -33.9,0 0,55.9687"
         style="fill:#4e5152;fill-opacity:1;fill-rule:nonzero;stroke:none"
         id="path3730"
         inkscape:connector-curvature="0" /></g></g></svg>