<?xml version="1.0" encoding="UTF-8" standalone="no"?>
<svg
   xmlns:dc="http://purl.org/dc/elements/1.1/"
   xmlns:cc="http://creativecommons.org/ns#"
   xmlns:rdf="http://www.w3.org/1999/02/22-rdf-syntax-ns#"
   xmlns:svg="http://www.w3.org/2000/svg"
   xmlns="http://www.w3.org/2000/svg"
   viewBox="0 0 800.78748 107.7125"
   height="107.7125"
   width="800.78748"
   xml:space="preserve"
   version="1.1"
   id="svg2"><metadata
     id="metadata8"><rdf:RDF><cc:Work
         rdf:about=""><dc:format>image/svg+xml</dc:format><dc:type
           rdf:resource="http://purl.org/dc/dcmitype/StillImage" /><dc:title></dc:title></cc:Work></rdf:RDF></metadata><defs
     id="defs6" /><g
     transform="matrix(1.25,0,0,-1.25,0,107.7125)"
     id="g10"><g
       transform="scale(0.1,0.1)"
       id="g12"><path
         id="path14"
         style="fill:#59c134;fill-opacity:1;fill-rule:nonzero;stroke:none"
         d="m 5243.2,856.055 -177.01,-457.989 -175.65,457.989 -221.5,0 -163.28,-850.39094 227.15,0.3125 88.96,491.87544 182.97,-492.18794 104.9,0 196.31,481.79694 67.36,-481.79694 221.25,0 -119.29,850.39094 -232.17,0" /><path
         id="path16"
         style="fill:#59c134;fill-opacity:1;fill-rule:nonzero;stroke:none"
         d="m 2344.69,5.66406 221.109,0 0,850.391 -221.109,0 0,-850.391 z" /><path
         id="path18"
         style="fill:#59c134;fill-opacity:1;fill-rule:nonzero;stroke:none"
         d="m 978.402,5.66406 221.098,0 0,850.391 -221.098,0 0,-850.391 z" /><path
         id="path20"
         style="fill:#59c134;fill-opacity:1;fill-rule:nonzero;stroke:none"
         d="m 343.434,856.055 -343.434,0 0,-189.922 343.434,0 c 167.742,0 249.453,-105.313 249.453,-235.274 0,-129.921 -81.711,-235.273 -249.453,-235.273 l -37.297,0 0,385.527 -221.094,0 0,-575.44894 258.391,0 c 310.41,0 479.062,190.39094 479.062,425.19494 0,234.825 -168.633,425.196 -479.062,425.196" /><path
         id="path22"
         style="fill:#59c134;fill-opacity:1;fill-rule:nonzero;stroke:none"
         d="m 6122.83,856.055 -358.09,0 0,-850.39094 221.09,0 0,660.46894 105.83,0 c 59.21,0 93.53,-41.875 93.53,-93.535 0,-51.66 -34.32,-93.555 -93.53,-93.555 l -20.78,0 0,-189.922 51.95,0 c 171.68,0 283.47,126.914 283.47,283.477 0,156.543 -111.79,283.457 -283.47,283.457" /><path
         id="path24"
         style="fill:#59c134;fill-opacity:1;fill-rule:nonzero;stroke:none"
         d="M 2721.75,430.859 C 2721.75,192.891 2922.29,0 3169.62,0 c 77.78,0 146.37,14.4531 205.12,40.1367 l 0,210.8203 c -48.03,-29.375 -113.36,-46.875 -196.62,-46.875 -125.23,0 -226.77,101.543 -226.77,226.777 0,125.235 101.54,226.778 226.77,226.778 75.02,0 143.97,-21.543 196.62,-56.953 l 0,213.164 c -61.48,30.527 -131.17,47.871 -205.12,47.871 -247.33,0 -447.87,-192.891 -447.87,-430.86" /><path
         id="path26"
         style="fill:#59c134;fill-opacity:1;fill-rule:nonzero;stroke:none"
         d="m 1789.11,314.648 168.28,0 c -9.77,-75.39 -73.01,-133.261 -168.28,-133.261 -140.36,0 -209.77,124.238 -209.77,249.472 0,125.235 69.41,249.473 209.77,249.473 82.72,0 142.72,-54.238 173.92,-127.148 l 198.73,82.089 c -60.45,134.825 -186.57,226.446 -372.65,226.446 -262.45,0 -433.7,-192.891 -433.7,-430.86 C 1355.41,192.891 1526.66,0 1789.11,0 c 270.02,0 413.84,192.891 413.84,430.859 l 0,48.204 -413.84,0 0,-164.415" /><path
         id="path28"
         style="fill:#59c134;fill-opacity:1;fill-rule:nonzero;stroke:none"
         d="m 4086.13,243.281 c -36.33,-24.726 -80.2,-39.199 -127.46,-39.199 -125.24,0 -226.76,101.543 -226.76,226.777 0,125.235 101.52,226.778 226.76,226.778 125.25,0 226.77,-101.543 226.77,-226.778 0,-47.246 -14.46,-91.113 -39.19,-127.441 l 152.62,-152.617 c 67.07,75.312 107.67,173.086 107.67,280.058 0,237.969 -200.51,430.86 -447.85,430.86 -247.35,0 -447.89,-192.891 -447.89,-430.86 C 3510.8,192.891 3711.34,0 3958.69,0 c 104.95,0 201.38,34.8242 277.73,92.9883 L 4086.13,243.281" /></g></g></svg>