<?xml version="1.0" encoding="UTF-8" standalone="no"?>
<svg
   xmlns:dc="http://purl.org/dc/elements/1.1/"
   xmlns:cc="http://creativecommons.org/ns#"
   xmlns:rdf="http://www.w3.org/1999/02/22-rdf-syntax-ns#"
   xmlns:svg="http://www.w3.org/2000/svg"
   xmlns="http://www.w3.org/2000/svg"
   viewBox="0 0 329.64001 89.813332"
   height="89.813332"
   width="329.64001"
   xml:space="preserve"
   id="svg2"
   version="1.1"><metadata
     id="metadata8"><rdf:RDF><cc:Work
         rdf:about=""><dc:format>image/svg+xml</dc:format><dc:type
           rdf:resource="http://purl.org/dc/dcmitype/StillImage" /></cc:Work></rdf:RDF></metadata><defs
     id="defs6"><clipPath
       id="clipPath20"
       clipPathUnits="userSpaceOnUse"><path
         id="path18"
         d="M 0,0 H 2472 V 673.598 H 0 Z" /></clipPath></defs><g
     transform="matrix(1.3333333,0,0,-1.3333333,0,89.813333)"
     id="g10"><g
       transform="scale(0.1)"
       id="g12"><g
         id="g14"><g
           clip-path="url(#clipPath20)"
           id="g16"><path
             id="path22"
             style="fill:#f89c0e;fill-opacity:1;fill-rule:nonzero;stroke:none"
             d="m 671.387,96.2109 c 0,0 0,-96.2109 -96.211,-96.2109 H 96.207 C 96.207,0 0,0 0,96.2109 V 575.18 c 0,0 0,96.211 96.207,96.211 h 478.969 c 0,0 96.211,0 96.211,-96.211 V 96.2109" /><path
             id="path24"
             style="fill:#ffffff;fill-opacity:1;fill-rule:nonzero;stroke:none"
             d="m 475.289,257.055 -41.324,16.304 48.281,13.215 z m 196.098,-77.387 -174.828,68.992 10.543,44.719 164.285,44.965 v 23.472 l -158.379,-43.347 82.566,350.363 c -11.875,2.496 -20.398,2.559 -20.398,2.559 H 572.93 L 488.152,311.66 398.852,287.219 0,444.613 V 420.285 L 362.441,277.25 0,178.047 V 154.578 L 397.559,263.395 470.039,234.789 418.816,17.4336 0,126.566 V 103.184 L 395.918,0 h 89.797 l -44.992,11.7227 50.589,214.6753 180.075,-71.066 v 24.336" /><path
             id="path26"
             style="fill:#f89c0e;fill-opacity:1;fill-rule:nonzero;stroke:none"
             d="M 974.242,26.7344 V 161.926 c 0,2.136 -1.746,3.875 -3.875,3.875 h -17.871 c -2.141,0 -3.891,-1.739 -3.891,-3.875 v -34.387 c -7.187,0.973 -13.98,1.363 -18.648,1.363 -31.269,0 -46.422,-18.453 -46.422,-48.7614 V 65.1914 c 0,-30.2969 15.153,-48.75 46.422,-48.75 12.426,0 26.996,1.9375 39.047,5.0547 4.457,1.1562 5.238,2.3281 5.238,5.2383 m -25.637,12.0351 c -3.695,-0.7656 -11.652,-1.3593 -18.648,-1.3593 -16.703,0 -20.781,11.8515 -20.781,27.7812 v 14.9492 c 0,15.9336 4.078,27.7814 20.781,27.7814 4.668,0 13.207,-0.578 18.648,-1.36 z M 1086.31,26.7344 v 91.8706 c 0,2.918 -0.77,4.075 -5.24,5.247 -12.04,3.113 -26.61,5.05 -39.03,5.05 -31.28,0 -46.427,-18.453 -46.427,-48.7614 V 65.1914 c 0,-30.2969 15.147,-48.75 46.427,-48.75 12.42,0 26.99,1.9375 39.03,5.0547 4.47,1.1562 5.24,2.3281 5.24,5.2383 m -25.64,12.0351 c -3.69,-0.7656 -11.65,-1.3593 -18.63,-1.3593 -16.72,0 -20.79,11.8515 -20.79,27.7812 v 14.9492 c 0,15.9336 4.07,27.7814 20.79,27.7814 6.98,0 14.94,-0.578 18.63,-1.36 z m 107.04,-17.2734 v 12.0351 c 0,1.9415 -1.56,2.9102 -4.09,2.9102 h -15.33 c -8.37,0 -11.85,1.3633 -11.85,9.1289 v 62.7417 h 27.37 c 2.14,0 3.9,1.75 3.9,3.879 v 11.461 c 0,2.141 -1.76,3.887 -3.9,3.887 h -27.37 v 19.035 c 0,1.946 -1.57,3.887 -3.31,3.887 h -0.59 l -18.06,-3.106 c -2.14,-0.39 -3.88,-1.753 -3.88,-3.882 V 45.5703 c 0,-22.5273 11.46,-29.1289 30.68,-29.1289 8.16,0 18.08,0.7695 22.73,1.5508 2.52,0.3867 3.7,1.5508 3.7,3.5039 M 1272,26.7344 v 91.8706 c 0,2.918 -0.76,4.075 -5.24,5.247 -12.03,3.113 -26.6,5.05 -39.04,5.05 -31.26,0 -46.42,-18.453 -46.42,-48.7614 V 65.1914 c 0,-30.2969 15.16,-48.75 46.42,-48.75 12.44,0 27.01,1.9375 39.04,5.0547 4.48,1.1562 5.24,2.3281 5.24,5.2383 m -25.63,12.0351 c -3.69,-0.7656 -11.66,-1.3593 -18.65,-1.3593 -16.7,0 -20.79,11.8515 -20.79,27.7812 v 14.9492 c 0,15.9336 4.09,27.7814 20.79,27.7814 6.99,0 14.96,-0.578 18.65,-1.36 z m 120.42,-14.7539 v 12.625 c 0,1.9453 -1.55,2.9102 -3.48,2.9102 h -0.6 c -7.76,-0.9649 -12.43,-1.3555 -25.04,-1.3555 -9.13,0 -18.66,5.2383 -18.66,25.4375 v 18.0664 c 0,20.2068 9.53,25.4458 18.66,25.4458 12.61,0 17.28,-0.383 25.04,-1.364 h 0.6 c 1.93,0 3.48,0.981 3.48,2.922 v 12.621 c 0,3.11 -0.77,4.278 -4.08,5.047 -4.46,1.168 -13.21,2.531 -25.04,2.531 -25.26,0 -44.3,-15.543 -44.3,-47.2028 V 63.6328 c 0,-31.6601 19.04,-47.1914 44.3,-47.1914 11.83,0 20.58,1.3633 25.04,2.5195 3.31,0.7813 4.08,1.9414 4.08,5.0547 m 108,40.7852 v 15.7304 c 0,27.7808 -15.93,48.3708 -46.43,48.3708 -30.48,0 -46.42,-20.59 -46.42,-48.3708 V 64.8008 c 0,-27.7774 15.94,-48.3594 46.42,-48.3594 30.5,0 46.43,20.582 46.43,48.3594 m -25.63,0 c 0,-15.9297 -7.2,-26.2149 -20.8,-26.2149 -13.58,0 -20.78,10.2852 -20.78,26.2149 v 15.7304 c 0,15.9297 7.2,26.2308 20.78,26.2308 13.6,0 20.8,-10.3011 20.8,-26.2308 z m 186.85,-42.7305 v 69.7305 c 0,24.4692 -14.57,37.1012 -39.24,37.1012 h -4.67 c -10.86,0 -19.81,-2.531 -25.82,-7.769 -6.03,5.238 -14.77,7.769 -25.65,7.769 h -4.65 c -24.68,0 -39.25,-12.632 -39.25,-37.1012 V 22.0703 c 0,-2.1367 1.57,-4.0781 3.69,-4.0781 h 18.27 c 2.14,0 3.68,1.9414 3.68,4.0781 v 69.7305 c 0,13.2112 4.67,15.7302 13.61,15.7302 h 4.65 c 11.27,0 12.82,-6.207 12.82,-15.7302 V 22.0703 c 0,-2.1367 1.55,-4.0781 3.69,-4.0781 h 18.46 c 2.13,0 3.69,1.9414 3.69,4.0781 v 69.7305 c 0,9.5232 1.56,15.7302 12.81,15.7302 h 4.67 c 8.93,0 13.59,-2.519 13.59,-15.7302 V 22.0703 c 0,-2.1367 1.56,-4.0781 3.69,-4.0781 h 18.26 c 2.14,0 3.7,1.9414 3.7,4.0781" /><path
             id="path28"
             style="fill:#173a79;fill-opacity:1;fill-rule:nonzero;stroke:none"
             d="m 1143.23,395.129 v 30.82 c 0,82 -46.23,139.789 -130.98,139.789 -84.203,0 -132.082,-53.941 -132.082,-139.789 v -40.734 c 0,-108.406 78.148,-138.129 133.172,-138.129 49.54,0 71,2.754 106.78,9.352 9.89,1.66 11.55,5.511 11.55,14.308 v 36.328 c 0,5.504 -4.4,8.254 -9.9,8.254 h -1.65 c -23.12,-2.203 -61.09,-5.504 -101.27,-5.504 -52.834,0 -66.041,37.973 -66.041,69.895 v 1.648 h 179.411 c 7.71,0 11.01,4.953 11.01,13.762 m -73.21,37.969 H 953.355 v 2.211 c 0,43.472 24.77,67.687 58.895,67.687 34.12,0 57.77,-24.769 57.77,-67.687 z m 507.97,-170.051 v 197.57 c 0,69.34 -41.27,105.121 -111.17,105.121 h -13.2 c -30.82,0 -56.14,-7.164 -73.2,-22.023 -17.07,14.859 -41.82,22.023 -72.64,22.023 h -13.21 c -69.9,0 -111.17,-35.781 -111.17,-105.121 v -197.57 c 0,-6.059 4.4,-11.563 10.46,-11.563 h 51.73 c 6.05,0 10.45,5.504 10.45,11.563 v 197.57 c 0,37.418 13.21,44.578 38.53,44.578 h 13.21 c 31.92,0 36.32,-17.605 36.32,-44.578 v -197.57 c 0,-6.059 4.4,-11.563 10.46,-11.563 h 52.28 c 6.05,0 10.45,5.504 10.45,11.563 v 197.57 c 0,26.973 4.4,44.578 36.33,44.578 h 13.2 c 25.32,0 38.53,-7.16 38.53,-44.578 v -197.57 c 0,-6.059 4.4,-11.563 10.46,-11.563 h 51.72 c 6.05,0 10.46,5.504 10.46,11.563 m 136.47,351.117 v 48.434 c 0,6.05 -4.94,11 -11,11 h -53.38 c -6.05,0 -11.56,-4.95 -11.56,-11 v -48.434 c 0,-6.059 5.51,-11.008 11.56,-11.008 h 53.38 c 6.06,0 11,4.949 11,11.008 m -1.64,-351.117 v 287.832 c 0,6.051 -4.96,10.996 -11.01,10.996 h -50.63 c -6.05,0 -11.01,-4.945 -11.01,-10.996 V 263.047 c 0,-6.059 4.96,-11.563 11.01,-11.563 h 50.63 c 6.05,0 11.01,5.504 11.01,11.563 m 232.24,-1.649 v 34.122 c 0,5.496 -4.42,8.25 -11.56,8.25 h -43.49 c -23.65,0 -33.56,3.859 -33.56,25.871 v 177.757 h 77.6 c 6.05,0 11.01,4.95 11.01,11.012 v 32.469 c 0,6.051 -4.96,10.996 -11.01,10.996 h -77.6 v 53.941 c 0,5.504 -4.41,11 -9.35,11 h -1.66 l -51.18,-8.796 c -6.05,-1.102 -11.01,-4.954 -11.01,-11.012 V 329.641 c 0,-63.844 32.48,-82.555 86.96,-82.555 23.12,0 51.18,2.199 64.39,4.398 7.16,1.106 10.46,4.407 10.46,9.914 m 281.22,133.731 v 30.82 c 0,82 -46.23,139.789 -130.98,139.789 -84.21,0 -132.09,-53.941 -132.09,-139.789 v -40.734 c 0,-108.406 78.16,-138.129 133.19,-138.129 49.53,0 70.98,2.754 106.76,9.352 9.91,1.66 11.56,5.511 11.56,14.308 v 36.328 c 0,5.504 -4.41,8.254 -9.91,8.254 h -1.65 c -23.11,-2.203 -61.08,-5.504 -101.27,-5.504 -52.82,0 -66.04,37.973 -66.04,69.895 v 1.648 h 179.41 c 7.72,0 11.02,4.953 11.02,13.762 m -73.2,37.969 h -116.67 v 2.211 c 0,43.472 24.77,67.687 58.89,67.687 34.11,0 57.78,-24.769 57.78,-67.687 z m 319.25,-164.551 v 35.769 c 0,5.508 -4.4,8.262 -9.9,8.262 h -1.66 c -22.01,-2.754 -35.22,-3.851 -70.99,-3.851 -25.87,0 -52.83,14.863 -52.83,72.089 v 51.18 c 0,57.242 26.96,72.102 52.83,72.102 35.77,0 48.98,-1.102 70.99,-3.848 h 1.66 c 5.5,0 9.9,2.746 9.9,8.246 v 35.774 c 0,8.808 -2.2,12.109 -11.56,14.304 -12.65,3.301 -37.42,7.164 -70.99,7.164 -71.54,0 -125.48,-44.027 -125.48,-133.742 v -51.18 c 0,-89.699 53.94,-133.73 125.48,-133.73 33.57,0 58.34,3.852 70.99,7.152 9.36,2.2 11.56,5.508 11.56,14.309" /></g></g></g></g></svg>