<?xml version="1.0" encoding="UTF-8" standalone="no"?>
<svg
   xmlns:dc="http://purl.org/dc/elements/1.1/"
   xmlns:cc="http://creativecommons.org/ns#"
   xmlns:rdf="http://www.w3.org/1999/02/22-rdf-syntax-ns#"
   xmlns:svg="http://www.w3.org/2000/svg"
   xmlns="http://www.w3.org/2000/svg"
   viewBox="0 0 708.66248 429.97501"
   height="429.97501"
   width="708.66248"
   xml:space="preserve"
   version="1.1"
   id="svg2"><metadata
     id="metadata8"><rdf:RDF><cc:Work
         rdf:about=""><dc:format>image/svg+xml</dc:format><dc:type
           rdf:resource="http://purl.org/dc/dcmitype/StillImage" /><dc:title></dc:title></cc:Work></rdf:RDF></metadata><defs
     id="defs6" /><g
     transform="matrix(1.25,0,0,-1.25,0,429.975)"
     id="g10"><g
       transform="scale(0.1,0.1)"
       id="g12"><path
         id="path14"
         style="fill:#ffffff;fill-opacity:1;fill-rule:nonzero;stroke:none"
         d="m 742.398,3424.71 4184.712,0 c 401.21,0 726.43,-325.63 726.43,-727.32 l 0,-1954.05 c 0,-401.719 -325.22,-727.3283 -726.43,-727.3283 l -4184.712,0 C 341.188,16.0117 15.9258,341.621 15.9258,743.34 l 0,1954.05 c 0,401.69 325.2622,727.32 726.4722,727.32" /><path
         id="path16"
         style="fill:#231f20;fill-opacity:1;fill-rule:nonzero;stroke:none"
         d="M 745.652,3439.84 C 334.504,3439.84 0,3105.36 0,2694.21 L 0,745.602 C 0,334.488 334.504,0 745.652,0 L 4923.72,0 c 411.1,0 745.57,334.488 745.57,745.602 l 0,1948.608 c 0,411.15 -334.47,745.63 -745.57,745.63 l -4178.068,0 z M 40.625,745.602 l 0,1948.608 c 0,388.75 316.27,705 705.027,705 l 4178.068,0 c 388.71,0 704.99,-316.25 704.99,-705 l 0,-1948.608 c 0,-388.711 -316.28,-705.0434 -704.99,-705.0434 l -4178.068,0 C 356.895,40.5586 40.625,356.891 40.625,745.602" /><path
         id="path18"
         style="fill:#c4161d;fill-opacity:1;fill-rule:nonzero;stroke:none"
         d="m 731.637,1664.64 1979.933,0 0,214.85 -1979.933,0 0,86 c 0,297.72 224.043,512.61 497.263,512.61 l 1482.67,0 0,214.89 -1482.67,0 c -396.009,0 -712.107,-300.85 -712.107,-727.5 l 0,-819.63 214.844,0 0,518.78" /><path
         id="path20"
         style="fill:#c4161d;fill-opacity:1;fill-rule:nonzero;stroke:none"
         d="m 3181.41,2502.65 0,653.85 -214.89,0 0,-2001.45 214.89,0 0,923.95 c 39.93,230.27 224.09,399.1 485.03,399.1 l 785.88,0 c 276.26,0 497.27,-224.09 497.27,-497.28 l 0,-825.77 214.88,0 0,825.77 c 0,392.94 -316.19,712.17 -712.15,712.17 l -785.88,0 c -196.49,0 -359.16,-73.68 -485.03,-190.34" /><path
         id="path22"
         style="fill:#231f20;fill-opacity:1;fill-rule:nonzero;stroke:none"
         d="m 717.008,727.672 c 55.812,0 99.219,-18.793 130.211,-56.293 31.035,-37.578 46.527,-83.238 46.527,-136.969 0,-53.73 -15.492,-99.39 -46.527,-136.89 -30.992,-37.598 -74.399,-56.391 -130.211,-56.391 -55.774,0 -99.215,18.793 -130.25,56.391 -30.945,37.5 -46.485,83.16 -46.485,136.89 0,53.731 15.54,99.391 46.485,136.969 31.035,37.5 74.476,56.293 130.25,56.293 m 0,-345.172 c 42.015,0 73.695,14.738 95.097,44.43 21.7,29.961 32.551,65.8 32.551,107.48 0,41.66 -10.851,77.34 -32.551,106.93 -21.402,30.039 -53.082,44.961 -95.097,44.961 -42.012,0 -73.871,-14.922 -95.617,-44.961 -21.352,-29.59 -31.989,-65.27 -31.989,-106.93 0,-41.68 10.637,-77.519 31.989,-107.48 21.746,-29.692 53.605,-44.43 95.617,-44.43" /><path
         id="path24"
         style="fill:#231f20;fill-opacity:1;fill-rule:nonzero;stroke:none"
         d="m 953.637,718.859 133.903,0 c 24.09,0 43.88,-0.64 59.41,-2.027 15.46,-1.383 29.13,-5.684 40.8,-12.953 11.72,-6.891 21.36,-16.867 28.91,-29.938 7.94,-12.75 11.93,-27.91 11.93,-45.531 0,-19.211 -4.85,-36.109 -14.49,-50.601 -9.64,-14.161 -23.05,-24.829 -40.32,-32.028 22.78,-5.179 40.15,-15.672 52.21,-31.511 12.07,-15.891 18.06,-35.329 18.06,-58.43 0,-28.91 -9.94,-53.91 -29.95,-74.91 -19.66,-20.66 -47.01,-30.989 -82.16,-30.989 l -178.303,0 0,368.918 z m 49.133,-327.589 122.96,0 c 21.4,0 38.24,5.89 50.65,17.531 12.37,11.758 18.62,27.949 18.62,48.597 0,22.051 -7.42,37.774 -22.22,47.051 -14.8,9.653 -34.12,14.449 -57.9,14.449 l -112.11,0 0,-127.628 z m 0,169 98.18,0 c 27.21,0 47,4.781 59.42,14.449 12.76,9.941 19.09,24.793 19.09,44.402 0,23.141 -6.85,38.59 -20.66,46.539 -13.76,7.891 -33.07,11.891 -57.85,11.891 l -98.18,0 0,-117.281" /><path
         id="path26"
         style="fill:#231f20;fill-opacity:1;fill-rule:nonzero;stroke:none"
         d="m 1307.63,718.859 254.73,0 0,-41.308 -205.64,0 0,-117.281 191.71,0 0,-41.372 -191.71,0 0,-127.628 207.21,0 0,-41.329 -256.3,0 0,368.918" /><path
         id="path28"
         style="fill:#231f20;fill-opacity:1;fill-rule:nonzero;stroke:none"
         d="m 1623.34,718.859 173.65,0 c 34.82,0 62.16,-8.589 82.12,-25.82 20.01,-17.219 29.99,-40.84 29.99,-70.801 0,-23.769 -5.34,-43.75 -16.01,-59.976 -10.33,-16.133 -26.39,-27.34 -48.05,-33.492 19.62,-4.219 33.25,-12.782 40.85,-25.879 7.55,-12.762 12.19,-29.121 13.92,-49.09 1.7,-19.66 3.27,-38.59 4.65,-56.852 2.74,-20.269 8.64,-35.98 17.53,-47.008 l -54.72,0 c -5.52,5.86 -8.82,20.489 -9.86,43.918 -0.65,23.403 -1.86,39.102 -3.55,47.02 -3.83,27.551 -10.86,45.422 -21.23,53.73 -9.98,8.629 -23.44,12.93 -40.32,12.93 l -119.84,0 0,-157.598 -49.13,0 0,368.918 z m 151.44,-169.961 c 26.51,0 47.34,4.653 62.53,13.934 15.15,9.297 22.7,26.52 22.7,51.699 0,18.918 -5.51,34.059 -16.53,45.489 -10.68,11.621 -27.04,17.531 -49.1,17.531 l -121.91,0 0,-128.653 102.31,0" /><path
         id="path30"
         style="fill:#231f20;fill-opacity:1;fill-rule:nonzero;stroke:none"
         d="m 2133.37,727.672 c 55.81,0 99.22,-18.793 130.25,-56.293 30.98,-37.578 46.49,-83.238 46.49,-136.969 0,-53.73 -15.51,-99.39 -46.49,-136.89 -31.03,-37.598 -74.44,-56.391 -130.25,-56.391 -55.82,0 -99.22,18.793 -130.22,56.391 -31.03,37.5 -46.52,83.16 -46.52,136.89 0,53.731 15.49,99.391 46.52,136.969 31,37.5 74.4,56.293 130.22,56.293 m 0,-345.172 c 42.01,0 73.69,14.738 95.1,44.43 21.7,29.961 32.54,65.8 32.54,107.48 0,41.66 -10.84,77.34 -32.54,106.93 -21.41,30.039 -53.09,44.961 -95.1,44.961 -42.01,0 -73.88,-14.922 -95.58,-44.961 -21.39,-29.59 -32.03,-65.27 -32.03,-106.93 0,-41.68 10.64,-77.519 32.03,-107.48 21.7,-29.692 53.57,-44.43 95.58,-44.43 m 25.3,418.57 46.49,0 0,-53.73 -46.49,0 0,53.73 z m -97.1,0 46.49,0 0,-53.73 -46.49,0 0,53.73" /><path
         id="path32"
         style="fill:#231f20;fill-opacity:1;fill-rule:nonzero;stroke:none"
         d="m 2583.45,610.879 c -2.78,25.519 -12.24,44.453 -28.43,56.851 -15.84,12.379 -36.85,18.571 -63.02,18.571 -23.79,0 -43.57,-4.981 -59.46,-14.922 -15.45,-9.68 -23.22,-25.699 -23.22,-48.078 0,-19.961 8.07,-33.422 24.3,-40.34 16.16,-6.539 47.66,-15.129 94.53,-25.82 46.88,-10.371 78.04,-24.082 93.54,-41.301 15.84,-17.289 23.79,-38.809 23.79,-64.59 0,-36.199 -14.5,-63.602 -43.41,-82.211 -28.95,-18.609 -62.55,-27.91 -100.78,-27.91 -44.44,0 -80.99,10.859 -109.55,32.601 -28.56,22.051 -42.88,54.551 -42.88,97.649 l 46.48,0 c 0,-29.328 10.16,-51.559 30.47,-66.66 20.74,-14.84 46.36,-22.219 77.04,-22.219 26.52,0 48.7,4.98 66.67,15.02 17.92,10.269 26.87,27.691 26.87,52.16 0,26.179 -11.72,43.05 -35.12,50.609 -23.14,7.602 -54.64,15.699 -94.62,24.262 -39.63,8.629 -67.31,20.699 -83.15,36.211 -15.54,15.84 -23.28,35.488 -23.28,58.879 0,35.507 12.94,62.371 38.77,80.648 26.18,18.281 57.86,27.383 95.05,27.383 39.97,0 72.53,-9.84 97.66,-29.473 25.52,-19.609 38.28,-48.769 38.28,-87.32 l -46.53,0" /><path
         id="path34"
         style="fill:#231f20;fill-opacity:1;fill-rule:nonzero;stroke:none"
         d="m 2788.56,677.551 -122.94,0 0,41.308 295.04,0 0,-41.308 -122.95,0 0,-327.61 -49.15,0 0,327.61" /><path
         id="path36"
         style="fill:#231f20;fill-opacity:1;fill-rule:nonzero;stroke:none"
         d="m 3001.46,718.859 254.77,0 0,-41.308 -205.63,0 0,-117.281 191.66,0 0,-41.372 -191.66,0 0,-127.628 207.19,0 0,-41.329 -256.33,0 0,368.918" /><path
         id="path38"
         style="fill:#231f20;fill-opacity:1;fill-rule:nonzero;stroke:none"
         d="m 3317.22,718.859 173.6,0 c 34.77,0 62.2,-8.589 82.17,-25.82 20.01,-17.219 29.99,-40.84 29.99,-70.801 0,-23.769 -5.38,-43.75 -16.07,-59.976 -10.32,-16.133 -26.33,-27.34 -48.04,-33.492 19.67,-4.219 33.25,-12.782 40.85,-25.879 7.58,-12.762 12.23,-29.121 13.92,-49.09 1.74,-19.66 3.3,-38.59 4.69,-56.852 2.73,-20.269 8.55,-35.98 17.54,-47.008 l -54.78,0 c -5.5,5.86 -8.77,20.489 -9.8,43.918 -0.7,23.403 -1.91,39.102 -3.65,47.02 -3.77,27.551 -10.85,45.422 -21.14,53.73 -10.03,8.629 -23.43,12.93 -40.32,12.93 l -119.92,0 0,-157.598 -49.04,0 0,368.918 z M 3468.6,548.898 c 26.52,0 47.36,4.653 62.5,13.934 15.15,9.297 22.79,26.52 22.79,51.699 0,18.918 -5.51,34.059 -16.54,45.489 -10.72,11.621 -27.08,17.531 -49.13,17.531 l -121.96,0 0,-128.653 102.34,0" /><path
         id="path40"
         style="fill:#231f20;fill-opacity:1;fill-rule:nonzero;stroke:none"
         d="m 3671.16,718.859 173.65,0 c 34.77,0 62.16,-8.589 82.12,-25.82 20.01,-17.219 29.99,-40.84 29.99,-70.801 0,-23.769 -5.34,-43.75 -16.01,-59.976 -10.33,-16.133 -26.39,-27.34 -48.05,-33.492 19.62,-4.219 33.25,-12.782 40.8,-25.879 7.6,-12.762 12.24,-29.121 13.94,-49.09 1.73,-19.66 3.29,-38.59 4.69,-56.852 2.73,-20.269 8.59,-35.98 17.52,-47.008 l -54.72,0 c -5.52,5.86 -8.82,20.489 -9.86,43.918 -0.69,23.403 -1.91,39.102 -3.65,47.02 -3.77,27.551 -10.76,45.422 -21.13,53.73 -10.02,8.629 -23.44,12.93 -40.32,12.93 l -119.88,0 0,-157.598 -49.09,0 0,368.918 z M 3822.6,548.898 c 26.51,0 47.35,4.653 62.45,13.934 15.23,9.297 22.78,26.52 22.78,51.699 0,18.918 -5.51,34.059 -16.53,45.489 -10.67,11.621 -27.04,17.531 -49.08,17.531 l -121.97,0 0,-128.653 102.35,0" /><path
         id="path42"
         style="fill:#231f20;fill-opacity:1;fill-rule:nonzero;stroke:none"
         d="m 4025.11,718.859 254.77,0 0,-41.308 -205.64,0 0,-117.281 191.67,0 0,-41.372 -191.67,0 0,-127.628 207.17,0 0,-41.329 -256.3,0 0,368.918" /><path
         id="path44"
         style="fill:#231f20;fill-opacity:1;fill-rule:nonzero;stroke:none"
         d="m 4391.99,349.941 -49.12,0 0,368.918 49.12,0 0,-368.918" /><path
         id="path46"
         style="fill:#231f20;fill-opacity:1;fill-rule:nonzero;stroke:none"
         d="m 4734.09,607.75 c -5.16,25.531 -17.06,44.961 -35.67,58.422 -18.23,13.457 -40.8,20.129 -67.72,20.129 -41.62,0 -72.99,-14.27 -94,-42.871 -20.7,-28.61 -31,-64.059 -31,-106.418 0,-45.492 10.3,-82.742 31,-111.641 21.01,-28.601 52.52,-42.871 94.53,-42.871 32.07,0 57.68,9.801 76.99,29.43 19.67,20 29.48,45.64 29.48,76.992 l 49.09,0 c -4.83,-46.481 -21.01,-82.852 -48.58,-109.024 -27.56,-25.839 -64.58,-38.769 -111.1,-38.769 -55.13,0 -97.32,17.93 -126.56,53.73 -29.3,35.821 -43.98,81.993 -43.98,138.5 0,56.172 15.32,102.481 46.01,139.02 30.64,36.851 73.57,55.293 128.65,55.293 39.97,0 73.92,-10.543 101.82,-31.5 27.87,-20.711 44.58,-50.141 50.08,-88.422 l -49.04,0" /><path
         id="path48"
         style="fill:#231f20;fill-opacity:1;fill-rule:nonzero;stroke:none"
         d="m 4847.72,718.859 49.14,0 0,-158.589 194.3,0 0,158.589 49.05,0 0,-368.918 -49.05,0 0,168.957 -194.3,0 0,-168.957 -49.14,0 0,368.918" /><path
         id="path50"
         style="fill:#231f20;fill-opacity:1;fill-rule:nonzero;stroke:none"
         d="m 5186.7,866.82 -4659.141,0 0,36.039 4659.141,0 0,-36.039" /></g></g></svg>