<?xml version="1.0" encoding="UTF-8" standalone="no"?>
<svg
   xmlns:dc="http://purl.org/dc/elements/1.1/"
   xmlns:cc="http://creativecommons.org/ns#"
   xmlns:rdf="http://www.w3.org/1999/02/22-rdf-syntax-ns#"
   xmlns:svg="http://www.w3.org/2000/svg"
   xmlns="http://www.w3.org/2000/svg"
   viewBox="0 0 159.41251 112"
   height="112"
   width="159.41251"
   xml:space="preserve"
   version="1.1"
   id="svg2"><metadata
     id="metadata8"><rdf:RDF><cc:Work
         rdf:about=""><dc:format>image/svg+xml</dc:format><dc:type
           rdf:resource="http://purl.org/dc/dcmitype/StillImage" /><dc:title></dc:title></cc:Work></rdf:RDF></metadata><defs
     id="defs6" /><g
     transform="matrix(1.25,0,0,-1.25,0,112)"
     id="g10"><g
       transform="scale(0.1,0.1)"
       id="g12"><path
         id="path14"
         style="fill:#5f8ea2;fill-opacity:1;fill-rule:nonzero;stroke:none"
         d="m 609.141,1.875 0,2.40234 c 0,0.82032 -0.45,1.05469 -1.121,1.05469 l -18.157,0 0,0.0586 17.926,26.93357 c 0.527,0.7422 0.68,1.2696 0.68,1.9531 l 0,1.504 c 0,0.664 -0.305,1.1914 -1.356,1.1914 l -22.195,0 c -0.824,0 -1.129,-0.4493 -1.129,-1.1329 l 0,-2.0898 c 0,-1.0547 0.375,-1.2695 1.274,-1.2695 l 15.753,0 0,-0.0782 -17.703,-26.69917 c -0.597,-0.82032 -0.75,-1.26954 -0.75,-2.16797 l 0,-1.44532 c 0,-0.66406 0.45,-1.347652 1.352,-1.347652 l 24.449,0 c 0.754,0 0.977,0.449222 0.977,1.132812 l 0,0 z m -36.828,0.44922 0,33.14458 c 0,1.0546 -0.45,1.5039 -1.422,1.5039 l -3.45,0 c -0.976,0 -1.503,-0.4493 -1.503,-1.5039 l 0,-33.14458 c 0,-1.05469 0.527,-1.582032 1.503,-1.582032 l 3.45,0 c 0.972,0 1.422,0.527342 1.422,1.582032 l 0,0 z m 0.675,43.49608 c 0,2.1875 -1.875,3.6133 -3.894,3.6133 -2.028,0 -3.828,-1.4258 -3.828,-3.6133 0,-2.168 1.8,-3.5937 3.828,-3.5937 1.945,0 3.894,1.4257 3.894,3.5937 l 0,0 z m -24.148,-23.5547 -18.824,0 c 0.597,5.5664 4.125,10.586 10.351,10.586 5.696,0 8.473,-4.4336 8.473,-9.5313 l 0,-1.0547 z m 6.301,-2.2461 0,1.2696 c 0,4.8828 -1.274,9.3164 -4.278,12.3828 -2.472,2.5586 -5.922,4.1211 -10.199,4.1211 -10.801,0 -17.476,-8.1641 -17.476,-18.8867 C 523.188,7.57813 529.34,0 540.891,0 c 3.449,0 8.25,0.683594 11.472,2.1875 0.602,0.29297 0.903,0.50781 0.903,0.95703 0,0.07813 0,0.23438 -0.078,0.39063 l -0.825,2.7539 c -0.144,0.54688 -0.523,0.6836 -0.898,0.6836 -0.227,0 -0.449,-0.07813 -0.746,-0.13672 -2.477,-0.9961 -5.93,-1.58203 -9.004,-1.58203 -7.574,0 -11.625,5.54689 -11.852,12.67579 l 23.028,0 c 1.949,0 2.25,0.3711 2.25,2.0898 l 0,0 z m -38.852,15.9766 c 0,0.5273 -0.226,0.9766 -0.898,0.9766 l -3.598,0 c -1.051,0 -1.578,-0.4493 -1.805,-1.2696 l -7.05,-27.22654 -0.145,0 -7.949,27.59764 c -0.231,0.7422 -0.68,0.8985 -1.352,0.8985 l -3.078,0 c -0.746,0 -1.273,-0.293 -1.496,-1.1329 l -7.801,-27.28511 -0.148,0 -7.125,27.36331 c -0.153,0.6836 -0.68,1.0547 -1.801,1.0547 l -3.977,0 c -0.824,0 -1.125,-0.3711 -1.125,-0.8985 0,-0.1562 0,-0.3711 0.075,-0.6054 l 9.976,-33.37896 c 0.227,-0.82031 0.824,-1.347652 1.797,-1.347652 l 3.75,0 c 0.902,0 1.578,0.312502 1.875,1.289062 l 7.051,25.11715 0.078,0 7.195,-25.05856 c 0.227,-0.89843 0.754,-1.347652 1.805,-1.347652 l 3.82,0 c 0.903,0 1.5,0.449222 1.805,1.347652 l 10.047,33.37896 c 0.074,0.1562 0.074,0.371 0.074,0.5273 l 0,0 z M 458.09,2.1875 l 0,22.1875 c 0,8.1836 -3.149,13.418 -11.774,13.418 -4.199,0 -9.003,-1.4844 -12.3,-4.4141 l 0,19.4141 c 0,0.9765 -0.453,1.289 -1.125,1.289 -0.223,0 -0.45,-0.0781 -0.672,-0.0781 l -3.153,-0.4492 c -0.902,-0.1563 -1.425,-0.5274 -1.425,-1.582 l 0,-49.88286 c 0,-0.89843 0.379,-1.347652 1.203,-1.347652 l 3.894,0 c 0.907,0 1.278,0.449222 1.278,1.445312 l 0,25.9375 c 2.625,2.4023 6.976,4.3555 10.425,4.3555 5.926,0 7.278,-3.9063 7.278,-9.1602 l 0,-21.1328 c 0,-0.99609 0.371,-1.445312 1.273,-1.445312 l 3.903,0 c 0.898,0 1.195,0.449222 1.195,1.445312 l 0,0 z m -39.223,0.95703 c 0,0.23438 -0.074,0.52735 -0.152,0.83985 l -0.672,2.08984 c -0.152,0.52734 -0.375,0.76172 -0.754,0.76172 -0.144,0 -0.371,-0.07813 -0.594,-0.15625 -2.402,-1.05469 -5.175,-1.79688 -8.402,-1.79688 -8.023,0 -11.324,6.60159 -11.324,14.23829 0,8.3984 4.496,13.7305 11.625,13.7305 2.926,0 5.472,-0.8203 7.797,-1.875 0.226,-0.1563 0.527,-0.2344 0.675,-0.2344 0.454,0 0.676,0.3906 0.825,0.8984 l 0.601,2.4024 c 0.078,0.2343 0.153,0.3906 0.153,0.6054 0,0.4493 -0.227,0.7422 -0.754,0.9766 -2.621,1.3477 -6.371,2.168 -9.598,2.168 -11.25,0 -17.926,-7.9492 -17.926,-18.9649 C 390.367,7.65625 396.07,0 407.844,0 c 3.449,0 6.898,0.683594 10.125,2.1875 0.676,0.29297 0.898,0.50781 0.898,0.95703 l 0,0 z m -36.152,8.02737 c 0,4.8047 -3.375,7.8125 -7.5,9.5312 l -5.852,2.4805 c -3.148,1.3477 -4.644,2.5391 -4.644,5.0977 0,2.539 2.176,4.6484 6.148,4.6484 2.399,0 5.926,-0.8984 7.871,-1.7969 0.227,-0.0781 0.457,-0.1562 0.602,-0.1562 0.379,0 0.68,0.2148 0.828,0.7422 l 0.824,2.6367 c 0.078,0.2148 0.153,0.4492 0.153,0.5859 0,0.3125 -0.227,0.5274 -0.676,0.7617 -3.379,1.5625 -6.528,2.0899 -9.75,2.0899 -6.602,0 -12.606,-3.3594 -12.606,-9.961 0,-4.7265 3.305,-7.7343 7.727,-9.4531 l 5.027,-1.9531 c 3.449,-1.3477 5.625,-2.9297 5.625,-5.8399 0,-3.53512 -2.922,-5.64449 -7.273,-5.64449 -2.555,0 -6.153,1.05468 -8.926,2.26562 -0.152,0.07813 -0.305,0.07813 -0.449,0.07813 -0.375,0 -0.68,-0.3125 -0.824,-0.76172 l -0.977,-2.69531 c -0.074,-0.15625 -0.074,-0.29297 -0.074,-0.44922 0,-0.3711 0.222,-0.74219 0.746,-0.97657 C 361.191,1.26953 365.168,0 368.992,0 c 7.949,0 13.723,4.27734 13.723,11.1719 l 0,0 z m -34.793,-8.84768 0,50.46878 c 0,0.9765 -0.457,1.289 -1.129,1.289 -0.152,0 -0.227,0 -0.375,0 l -3.75,-0.5273 c -0.898,-0.1563 -1.125,-0.4492 -1.125,-1.5039 l 0,-49.80471 c 0,-1.05468 0.449,-1.503902 1.348,-1.503902 l 3.675,0 c 0.899,0 1.356,0.527342 1.356,1.582032 l 0,0 z M 322.117,12.8906 c -1.351,-3.74997 -5.176,-7.55857 -9.972,-7.55857 -5.403,0 -9.223,5.09767 -9.223,13.33987 0,8.9258 4.344,14.0234 10.121,14.0234 3.598,0 7.273,-2.0117 9.074,-5.3906 l 0,-14.4141 z m 9.602,-11.17185 0,2.55859 c 0,0.82032 -0.375,0.97657 -1.051,0.97657 l -0.527,0 c -0.598,0 -0.969,0.13672 -1.274,0.68359 -0.297,0.44922 -0.375,1.64063 -0.375,3.35938 l 0,26.25002 c 0,0.9765 -0.449,1.4258 -1.347,1.4258 l -3.375,0 c -0.825,0 -1.426,-0.3711 -1.426,-1.2696 l -0.078,-2.4804 c -2.246,3.0078 -6.297,4.5703 -10.047,4.5703 -8.551,0 -15.973,-7.0508 -15.973,-19.5703 C 296.246,8.76953 300.82,0 311.168,0 c 4.574,0 9.523,3.00781 11.25,6.28906 l 0.148,0 c 0,-2.98828 1.575,-5.546872 4.875,-5.546872 l 3.149,0 c 0.754,0 1.129,0.234375 1.129,0.976562 l 0,0 z M 290.02,36.3086 c 0,0.1367 0,0.2148 0,0.3711 0,0.4492 -0.153,0.8203 -0.602,0.8984 -0.75,0.1367 -1.648,0.2149 -2.172,0.2149 -3.976,0 -6.824,-2.2461 -8.629,-4.7266 l -0.07,2.5586 c 0,0.9766 -0.527,1.3477 -1.5,1.3477 l -3.231,0 c -0.894,0 -1.421,-0.3711 -1.421,-1.5039 l 0,-33.14458 c 0,-1.05469 0.449,-1.582032 1.421,-1.582032 l 3.528,0 c 0.976,0 1.426,0.605472 1.426,1.582032 l 0,25.56638 c 1.949,2.793 4.875,4.5117 7.5,4.5117 0.75,0 1.5,-0.0781 2.171,-0.2343 0.079,0 0.153,0 0.227,0 0.453,0 0.75,0.2343 0.824,0.7617 l 0.528,3.3789 0,0 z M 263.695,2.53906 c 0,0.09766 -0.078,0.15625 -0.078,0.3125 l -0.597,2.40235 c -0.149,0.52734 -0.524,0.74218 -0.903,0.74218 -0.148,0 -0.297,0 -0.445,-0.05859 -1.203,-0.39062 -3.004,-0.91797 -4.731,-0.91797 -1.945,0 -3.296,0.60547 -4.125,1.50391 -1.121,1.26953 -1.273,3.22265 -1.273,5.70316 l 0,20.2539 8.773,0 c 0.754,0 1.129,0.2148 1.129,0.9765 l 0,2.5391 c 0,0.8203 -0.375,0.9766 -1.05,0.9766 l -8.852,0 0,9.2187 c 0,0.8399 -0.375,1.3672 -1.121,1.3672 -0.078,0 -0.227,0 -0.305,0 l -3.672,-0.5273 c -0.976,-0.1563 -1.273,-0.4493 -1.273,-1.504 l 0,-8.5546 -4.277,0 c -0.676,0 -0.977,-0.293 -0.977,-1.0547 l 0,-2.3242 c 0,-0.9766 0.148,-1.1133 1.129,-1.1133 l 4.125,0 0,-19.6485 c 0,-4.64841 0.144,-7.65622 2.324,-10.05856 C 249.219,0.898438 252.445,0 255.668,0 c 2.551,0 5.25,0.605469 6.977,1.34766 0.597,0.23437 1.05,0.60547 1.05,1.1914 l 0,0 z m -32.699,-0.21484 0,22.05078 c 0,8.1836 -3.301,13.418 -11.926,13.418 -4.347,0 -8.851,-1.5625 -12.3,-4.4922 l -0.075,2.3242 c 0,0.9766 -0.523,1.3477 -1.425,1.3477 l -3.297,0 c -1.055,0 -1.426,-0.4493 -1.426,-1.5039 l 0,-33.22271 c 0,-0.97656 0.523,-1.503902 1.426,-1.503902 l 3.519,0 c 0.977,0 1.426,0.527342 1.426,1.582032 l 0,25.80078 c 2.629,2.4023 6.898,4.3555 10.352,4.3555 6,0 7.347,-3.8282 7.347,-9.1602 l 0,-20.99608 c 0,-1.05469 0.449,-1.582032 1.43,-1.582032 l 3.523,0 c 1.051,0 1.426,0.527342 1.426,1.582032 l 0,0 z m -46.875,19.94138 -18.828,0 c 0.602,5.5664 4.125,10.586 10.352,10.586 5.703,0 8.476,-4.4336 8.476,-9.5313 l 0,-1.0547 z m 6.301,-2.2461 0,1.2696 c 0,4.8828 -1.277,9.3164 -4.274,12.3828 -2.476,2.5586 -5.929,4.1211 -10.203,4.1211 -10.8,0 -17.472,-8.1641 -17.472,-18.8867 C 158.473,7.57813 164.617,0 176.172,0 c 3.445,0 8.246,0.683594 11.473,2.1875 0.601,0.29297 0.902,0.50781 0.902,0.95703 0,0.07813 0,0.23438 -0.074,0.39063 l -0.828,2.7539 c -0.149,0.54688 -0.528,0.6836 -0.899,0.6836 -0.223,0 -0.453,-0.07813 -0.75,-0.13672 -2.476,-0.9961 -5.922,-1.58203 -9,-1.58203 -7.578,0 -11.625,5.54689 -11.851,12.67579 l 23.023,0 c 1.953,0 2.254,0.3711 2.254,2.0898 l 0,0 z m -39.524,-17.98825 0,2.98828 c 0,0.91797 -0.375,1.21094 -1.351,1.21094 l -26.625,0 0,0.05859 26.703,41.26954 c 0.602,0.8984 0.602,1.5625 0.602,2.3828 l 0,1.2891 c 0,0.8203 -0.379,1.1914 -1.426,1.1914 l -31.203,0 c -0.977,0 -1.203,-0.293 -1.203,-1.1133 l 0,-3.1641 c 0,-0.9765 0.304,-1.1914 1.652,-1.1914 l 23.254,0 0,-0.0781 L 114.672,5.46875 C 114.145,4.72656 114.07,4.19922 114.07,3.53516 l 0,-1.66016 c 0,-0.68359 0.301,-1.132812 1.051,-1.132812 l 34.504,0 c 0.973,0 1.273,0.390622 1.273,1.289062 l 0,0 z m -66.9761,0.29297 0,48.59378 c 0,1.0547 -0.4492,1.5039 -1.4219,1.5039 l -4.0508,0 c -0.9804,0 -1.5,-0.4492 -1.5,-1.5039 l 0,-20.3907 -24.1523,0 0,20.3907 c 0,1.0547 -0.5274,1.5039 -1.5,1.5039 l -3.9727,0 c -0.9765,0 -1.5039,-0.4492 -1.5039,-1.5039 l 0,-48.59378 c 0,-1.05469 0.5274,-1.582032 1.5039,-1.582032 l 3.9727,0 c 0.9726,0 1.5,0.527342 1.5,1.582032 l 0,22.79298 24.1523,0 0,-22.79298 c 0,-1.05469 0.5196,-1.582032 1.5,-1.582032 l 4.0508,0 c 0.9727,0 1.4219,0.527342 1.4219,1.582032 l 0,0 z M 34.7227,51.0742 c 0,0.0781 0,0.1563 0,0.2344 0,0.7422 -0.3789,1.1133 -1.1954,1.1133 l -26.4023,0 c -1.05078,0 -1.42578,-0.4492 -1.42578,-1.5039 l 0,-48.51566 c 0,-1.425777 0.375,-1.660152 1.57422,-1.660152 l 3.89846,0 c 1.1289,0 1.5,0.312502 1.5,1.582032 l 0,22.79298 17.6992,0 c 1.0508,0 1.4258,0.3125 1.4258,1.3476 l 0,2.7149 c 0,0.8984 -0.4492,1.3476 -1.5,1.3476 l -17.625,0 0,16.4258 19.7265,0 c 1.2735,0 1.9454,0.1367 2.0235,1.1914 l 0.3008,2.9297 0,0" /><path
         id="path16"
         style="fill:#5f8ea2;fill-opacity:1;fill-rule:nonzero;stroke:none"
         d="M 24.1641,447.559 0,447.559 0,320 l 85.9727,0 0,23.027 c 0,0 -60.3633,0 -61.8086,0 0,1.465 0,104.532 0,104.532 l 0,0" /><path
         id="path18"
         style="fill:#5f8ea2;fill-opacity:1;fill-rule:nonzero;stroke:none"
         d="m 183.148,353.438 c 0,-0.782 -0.328,-1.536 -0.918,-2.129 l -7.371,-7.364 c -0.671,-0.664 -1.246,-0.918 -2.125,-0.918 l -28.164,0 c -0.879,0 -1.449,0.254 -2.121,0.918 l -7.371,7.364 c -0.59,0.593 -0.918,1.347 -0.918,2.129 l 0,94.121 -24.164,0 0,-97.911 c 0,-3.828 1.41,-7.187 4.188,-9.96 l 15.5,-15.508 c 2.777,-2.774 6.136,-4.18 9.972,-4.18 l 37.996,0 c 3.836,0 7.196,1.406 9.977,4.18 l 15.496,15.508 c 2.777,2.773 4.188,6.132 4.188,9.96 l 0,97.911 -24.165,0 0,-94.121" /><path
         id="path20"
         style="fill:#5f8ea2;fill-opacity:1;fill-rule:nonzero;stroke:none"
         d="m 722.93,447.559 c 0,0 0,-88.094 0,-94.832 -2.657,6.238 -40.364,94.832 -40.364,94.832 l -33.355,0 0,-127.559 23.594,0 c 0,0 0,88.086 0,94.824 C 675.461,408.586 713.152,320 713.152,320 l 33.371,0 0,127.559 -23.593,0 0,0" /><path
         id="path22"
         style="fill:#5f8ea2;fill-opacity:1;fill-rule:nonzero;stroke:none"
         d="m 265.609,357.324 c 0.012,0 63.145,35.989 63.145,35.989 4.996,2.839 8.062,7.136 8.195,12.773 l 0,41.473 -94.211,0 0,-23.036 70.039,0 0,-11.574 c 0,-1.152 -0.828,-2.148 -1.82,-2.715 -0.004,-0.007 -63.141,-36.191 -63.141,-36.191 -4.964,-2.844 -8.074,-7.141 -8.187,-12.773 l 0,-41.27 97.32,0 0,23.027 c 0,0 -71.707,0 -73.156,0 0,1.368 0,11.575 0,11.575 0,1.16 0.832,2.156 1.816,2.722 l 0,0" /><path
         id="path24"
         style="fill:#5f8ea2;fill-opacity:1;fill-rule:nonzero;stroke:none"
         d="m 536.586,392.734 0,31.789 c 1.434,0 41.789,0 41.789,0 0.879,0 1.449,-0.246 2.121,-0.918 l 4.156,-4.152 c 0.668,-0.676 0.918,-1.25 0.918,-2.129 l 0,-17.383 c 0,-0.886 -0.25,-1.464 -0.918,-2.128 l -4.156,-4.161 c -0.672,-0.664 -1.242,-0.918 -2.121,-0.918 0,0 -40.355,0 -41.789,0 l 0,0 z m 64.777,-49.707 c -8.375,10.696 -20.136,25.703 -20.898,26.68 1.344,0 3.012,0 3.012,0 3.714,0 6.949,1.348 9.597,3.992 l 12.473,12.485 c 2.82,2.808 4.187,6.082 4.187,9.968 l 0,24.953 c 0,3.895 -1.367,7.157 -4.187,9.969 l -12.473,12.481 c -2.652,2.656 -5.883,4.004 -9.597,4.004 l -86.582,0 0,-23.036 15.527,0 0,-104.523 24.164,0 c 0,0 0,48.262 0,49.707 1.328,0 13.059,0 13.059,0 1.097,0 1.996,-0.469 2.597,-1.367 0.028,-0.047 37.485,-48.34 37.485,-48.34 l 7.265,0 19.903,0 0,23.027 -15.532,0 0,0" /><path
         id="path26"
         style="fill:#5f8ea2;fill-opacity:1;fill-rule:nonzero;stroke:none"
         d="m 469.055,424.707 0,23.035 -101.504,0 0,-23.023 15.531,0 0,-104.531 85.973,0 0,23.027 c 0,0 -60.364,0 -61.809,0 l 0,29.324 c 1.445,0 46.277,0 46.277,0 l 0,23.027 c 0,0 -44.832,0 -46.277,0 l 0,29.141 c 1.445,0 61.809,0 61.809,0 l 0,0" /><path
         id="path28"
         style="fill:#2d3f4c;fill-opacity:1;fill-rule:nonzero;stroke:none"
         d="m 73.1484,638.891 c 0,0 0,-50.727 0,-52.172 l -48.9843,0 c 0,1.445 0,52.172 0,52.172 l -24.1641,0 0,-127.559 24.1641,0 c 0,0 0,50.918 0,52.359 l 48.9843,0 c 0,-1.441 0,-52.359 0,-52.359 l 24.168,0 0,127.559 -24.168,0 0,0" /><path
         id="path30"
         style="fill:#2d3f4c;fill-opacity:1;fill-rule:nonzero;stroke:none"
         d="m 219.648,605.449 0,-60.672 c 0,-0.777 -0.324,-1.535 -0.914,-2.125 l -7.371,-7.375 c -0.672,-0.664 -1.246,-0.914 -2.125,-0.914 l -39.508,0 c -0.875,0 -1.449,0.25 -2.117,0.914 l -7.375,7.375 c -0.59,0.59 -0.918,1.348 -0.918,2.125 l 0,60.672 c 0,0.778 0.328,1.535 0.918,2.125 l 7.375,7.371 c 0.668,0.664 1.242,0.914 2.117,0.914 l 39.508,0 c 0.879,0 1.453,-0.25 2.125,-0.914 l 7.371,-7.371 c 0.59,-0.59 0.914,-1.347 0.914,-2.125 l 0,0 z m 19.981,13.754 -15.496,15.504 c -2.781,2.777 -6.141,4.184 -9.977,4.184 l -49.336,0 c -3.843,0 -7.199,-1.407 -9.976,-4.184 l -15.496,-15.504 c -2.782,-2.777 -4.192,-6.133 -4.192,-9.973 l 0,-68.234 c 0,-3.844 1.41,-7.195 4.192,-9.976 l 15.496,-15.5 c 2.777,-2.778 6.133,-4.188 9.976,-4.188 l 49.336,0 c 3.84,0 7.196,1.41 9.977,4.188 l 15.496,15.5 c 2.777,2.773 4.184,6.132 4.184,9.976 l 0,68.234 c 0,3.84 -1.407,7.196 -4.184,9.973 l 0,0" /><path
         id="path32"
         style="fill:#2d3f4c;fill-opacity:1;fill-rule:nonzero;stroke:none"
         d="m 344.02,535.277 c -0.668,-0.664 -1.247,-0.914 -2.125,-0.914 l -31.188,0 c -0.879,0 -1.453,0.25 -2.121,0.914 l -7.375,7.375 c -0.59,0.59 -0.914,1.348 -0.914,2.125 l 0,60.672 c 0,0.778 0.324,1.535 0.914,2.125 l 7.375,7.371 c 0.668,0.664 1.242,0.914 2.121,0.914 l 31.188,0 c 0.878,0 1.457,-0.25 2.125,-0.914 l 13.375,-13.379 16.367,16.168 -16.977,16.973 c -2.777,2.777 -6.133,4.184 -9.976,4.184 l -41.02,0 c -3.836,0 -7.195,-1.407 -9.973,-4.184 l -15.5,-15.504 c -2.777,-2.777 -4.183,-6.133 -4.183,-9.973 l 0,-68.234 c 0,-3.844 1.406,-7.195 4.183,-9.976 l 15.5,-15.5 c 2.778,-2.778 6.137,-4.188 9.973,-4.188 l 41.02,0 c 3.843,0 7.199,1.41 9.976,4.188 l 16.977,16.968 -16.367,16.168 -13.375,-13.379 0,0" /><path
         id="path34"
         style="fill:#2d3f4c;fill-opacity:1;fill-rule:nonzero;stroke:none"
         d="m 476.461,638.891 c 0,0 0,-50.727 0,-52.172 l -48.984,0 c 0,1.445 0,52.172 0,52.172 l -24.164,0 0,-127.559 24.164,0 c 0,0 0,50.918 0,52.359 l 48.984,0 c 0,-1.441 0,-52.359 0,-52.359 l 24.164,0 0,127.559 -24.164,0 0,0" /><path
         id="path36"
         style="fill:#2d3f4c;fill-opacity:1;fill-rule:nonzero;stroke:none"
         d="m 738.691,535.277 c -0.671,-0.664 -1.242,-0.914 -2.128,-0.914 l -31.18,0 c -0.879,0 -1.457,0.25 -2.129,0.914 l -7.363,7.375 c -0.598,0.59 -0.918,1.348 -0.918,2.125 l 0,60.672 c 0,0.778 0.32,1.535 0.918,2.125 l 7.363,7.371 c 0.672,0.664 1.25,0.914 2.129,0.914 l 31.18,0 c 0.878,0 1.457,-0.25 2.128,-0.914 l 13.372,-13.379 16.367,16.168 -16.977,16.973 c -2.769,2.777 -6.133,4.184 -9.969,4.184 l -41.023,0 c -3.84,0 -7.199,-1.407 -9.973,-4.184 l -15.5,-15.504 c -2.781,-2.777 -4.187,-6.133 -4.187,-9.973 l 0,-68.234 c 0,-3.844 1.406,-7.203 4.187,-9.976 l 15.5,-15.5 c 2.774,-2.778 6.133,-4.188 9.973,-4.188 l 41.023,0 c 3.836,0 7.2,1.41 9.969,4.188 l 16.977,16.968 -16.367,16.168 -13.372,-13.379 0,0" /><path
         id="path38"
         style="fill:#2d3f4c;fill-opacity:1;fill-rule:nonzero;stroke:none"
         d="m 871.133,638.891 c 0,0 0,-50.727 0,-52.172 l -48.985,0 c 0,1.445 0,52.172 0,52.172 l -24.168,0 0,-127.559 24.168,0 c 0,0 0,50.918 0,52.359 l 48.985,0 c 0,-1.441 0,-52.359 0,-52.359 l 24.172,0 0,127.559 -24.172,0 0,0" /><path
         id="path40"
         style="fill:#2d3f4c;fill-opacity:1;fill-rule:nonzero;stroke:none"
         d="m 1009.06,638.891 0,-94.114 c 0,-0.777 -0.33,-1.535 -0.93,-2.125 l -7.36,-7.375 c -0.67,-0.664 -1.25,-0.914 -2.125,-0.914 l -28.165,0 c -0.878,0 -1.449,0.25 -2.121,0.914 l -7.375,7.375 c -0.586,0.59 -0.918,1.348 -0.918,2.125 l 0,94.114 -24.168,0 0,-97.895 c 0,-3.844 1.407,-7.195 4.192,-9.976 l 15.496,-15.5 c 2.773,-2.778 6.133,-4.188 9.973,-4.188 l 37.991,0 c 3.85,0 7.21,1.41 9.98,4.188 0,0 15.5,15.496 15.5,15.5 2.78,2.773 4.19,6.132 4.19,9.976 l 0,97.895 -24.16,0 0,0" /><path
         id="path42"
         style="fill:#2d3f4c;fill-opacity:1;fill-rule:nonzero;stroke:none"
         d="m 1097.99,534.363 c 0,1.461 0,104.528 0,104.528 l -24.16,0 0,-127.559 85.96,0 0,23.031 c 0,0 -60.35,0 -61.8,0 l 0,0" /><path
         id="path44"
         style="fill:#2d3f4c;fill-opacity:1;fill-rule:nonzero;stroke:none"
         d="m 627.559,581.234 -64.93,9.075 c -1.535,0.156 -2.762,1.515 -2.762,3.046 l 0,12.098 c 0,0.777 0.328,1.531 0.918,2.121 l 7.375,7.371 c 0.668,0.668 1.242,0.918 2.121,0.918 l 36.383,0 c 0.875,0 1.449,-0.25 2.121,-0.918 l 13.192,-13.191 16.164,16.367 -16.586,16.586 c -2.782,2.777 -6.133,4.191 -9.977,4.191 l -46.211,0 c -3.844,0 -7.199,-1.414 -9.976,-4.191 l -15.496,-15.496 c -2.782,-2.785 -4.192,-6.141 -4.192,-9.977 l 0,-24.761 c 0.188,-7.696 6.016,-14.496 13.692,-15.485 l 64.742,-9.066 c 1.586,-0.16 2.953,-1.582 2.953,-3.047 l 0,-12.098 c 0,-0.777 -0.332,-1.531 -0.918,-2.125 l -7.371,-7.371 c -0.672,-0.668 -1.246,-0.918 -2.125,-0.918 l -42.906,0 c -0.879,0 -1.457,0.25 -2.125,0.918 l -13.192,13.196 -16.164,-16.368 16.59,-16.586 c 2.777,-2.781 6.133,-4.191 9.973,-4.191 l 52.742,0 c 3.836,0 7.195,1.41 9.969,4.191 l 15.503,15.497 c 2.778,2.781 4.079,6.132 4.184,9.976 l 0,24.762 c 0,7.695 -6.012,14.496 -13.691,15.476 l 0,0" /><path
         id="path46"
         style="fill:#2d3f4c;fill-opacity:1;fill-rule:nonzero;stroke:none"
         d="m 1275.33,615.859 0,23.032 -101.5,0 0,-23.028 15.52,0 0,-104.531 85.98,0 0,23.031 c 0,0 -60.37,0 -61.81,0 l 0,29.328 c 1.44,0 46.27,0 46.27,0 l 0,23.028 c 0,0 -44.83,0 -46.27,0 l 0,29.14 c 1.44,0 61.81,0 61.81,0 l 0,0" /><path
         id="path48"
         style="fill:#2d3f4c;fill-opacity:1;fill-rule:nonzero;stroke:none"
         d="m 715.266,893.609 c 0,0.45 -0.149,0.825 -0.903,1.121 -1.875,0.754 -4.578,1.278 -6.824,1.278 -6.973,0 -10.945,-3.899 -11.848,-10.422 -0.156,-1.352 -0.3,-3.301 -0.3,-6.004 l 0,-1.422 -4.356,0 c -0.742,0 -1.047,-0.305 -1.047,-1.051 l 0,-2.324 c 0,-0.976 0.149,-1.129 0.981,-1.129 l 4.422,0 0,-30.148 c 0,-1.051 0.449,-1.574 1.425,-1.574 l 3.528,0 c 1.043,0 1.426,0.601 1.426,1.652 l 0,30.07 9.293,0 c 0.753,0 1.054,0.301 1.054,1.051 l 0,2.551 c 0,0.75 -0.379,0.902 -1.133,0.902 l -9.214,0 0,3.524 c 0,5.851 1.421,9.226 6.523,9.226 1.719,0 3.75,-0.527 4.949,-0.976 0.227,-0.075 0.449,-0.149 0.676,-0.149 0.367,0 0.594,0.227 0.75,0.746 l 0.52,2.324 c 0.078,0.305 0.078,0.528 0.078,0.754 l 0,0 z m -39.004,-33.597 c 0,-6.981 -2.778,-13.879 -10.649,-13.879 -7.945,0 -10.269,7.277 -10.269,14.176 0,6.601 2.469,13.726 10.574,13.726 7.793,0 10.344,-7.051 10.344,-14.023 l 0,0 z m 6.597,0.07 c 0,10.875 -5.242,18.902 -16.875,18.902 -11.171,0 -17.246,-8.25 -17.246,-18.828 0,-10.722 5.18,-18.972 16.797,-18.972 11.184,0 17.324,8.324 17.324,18.898 l 0,0 z m -60.144,17.324 c 0,0.449 -0.297,0.754 -0.973,0.754 l -4.125,0 c -0.902,0 -1.273,-0.305 -1.578,-1.129 l -9.445,-27.898 -9.754,28.051 c -0.223,0.671 -0.672,0.976 -1.426,0.976 l -4.949,0 c -0.602,0 -0.824,-0.305 -0.824,-0.754 0,-0.148 0,-0.375 0.078,-0.519 l 13.422,-35.555 -1.95,-4.797 c -1.578,-3.902 -4.05,-5.555 -8.171,-5.555 -0.754,0 -1.805,0.153 -2.629,0.227 -0.153,0 -0.223,0 -0.301,0 -0.676,0 -1.051,-0.297 -1.125,-1.051 l -0.375,-2.851 c 0,-0.145 0,-0.223 0,-0.371 0,-0.528 0.148,-0.977 0.824,-1.129 1.129,-0.223 2.25,-0.297 3.375,-0.297 8.102,0 11.852,3.148 15.149,12.004 l 14.628,39.222 c 0.075,0.223 0.149,0.45 0.149,0.672 l 0,0 z M 583.492,843.73 c 0,0.079 -0.074,0.153 -0.074,0.305 l -0.602,2.395 c -0.148,0.527 -0.527,0.754 -0.902,0.754 -0.144,0 -0.297,0 -0.449,-0.075 -1.199,-0.375 -2.996,-0.902 -4.723,-0.902 -1.953,0 -3.301,0.602 -4.125,1.5 -1.129,1.277 -1.273,3.227 -1.273,5.703 l 0,20.246 8.773,0 c 0.746,0 1.121,0.227 1.121,0.977 l 0,2.551 c 0,0.824 -0.375,0.976 -1.047,0.976 l -8.847,0 0,9.223 c 0,0.824 -0.375,1.351 -1.129,1.351 -0.074,0 -0.227,0 -0.297,0 l -3.68,-0.527 c -0.972,-0.148 -1.273,-0.449 -1.273,-1.496 l 0,-8.551 -4.277,0 c -0.672,0 -0.969,-0.305 -0.969,-1.051 l 0,-2.324 c 0,-0.976 0.144,-1.129 1.121,-1.129 l 4.125,0 0,-19.648 c 0,-4.653 0.152,-7.649 2.324,-10.051 1.727,-1.875 4.953,-2.773 8.176,-2.773 2.555,0 5.254,0.597 6.976,1.351 0.602,0.223 1.051,0.602 1.051,1.195 l 0,0 z m -33.527,-0.222 0,33.152 c 0,1.047 -0.449,1.5 -1.426,1.5 l -3.445,0 c -0.977,0 -1.504,-0.453 -1.504,-1.5 l 0,-33.152 c 0,-1.051 0.527,-1.574 1.504,-1.574 l 3.445,0 c 0.977,0 1.426,0.523 1.426,1.574 l 0,0 z m 0.676,43.5 c 0,2.176 -1.875,3.601 -3.903,3.601 -2.019,0 -3.824,-1.425 -3.824,-3.601 0,-2.172 1.805,-3.598 3.824,-3.598 1.953,0 3.903,1.426 3.903,3.598 l 0,0 z M 533.02,852.359 c 0,4.801 -3.379,7.797 -7.5,9.528 l -5.852,2.468 c -3.152,1.352 -4.652,2.555 -4.652,5.102 0,2.551 2.175,4.648 6.152,4.648 2.395,0 5.922,-0.898 7.875,-1.796 0.227,-0.079 0.449,-0.149 0.598,-0.149 0.375,0 0.675,0.223 0.824,0.75 l 0.824,2.621 c 0.078,0.227 0.152,0.449 0.152,0.602 0,0.297 -0.226,0.527 -0.675,0.754 -3.371,1.57 -6.524,2.097 -9.75,2.097 -6.602,0 -12.598,-3.375 -12.598,-9.976 0,-4.727 3.301,-7.723 7.727,-9.453 l 5.023,-1.946 c 3.445,-1.347 5.625,-2.925 5.625,-5.851 0,-3.524 -2.926,-5.625 -7.277,-5.625 -2.547,0 -6.153,1.051 -8.926,2.25 -0.152,0.074 -0.297,0.074 -0.449,0.074 -0.375,0 -0.672,-0.297 -0.825,-0.75 l -0.976,-2.695 c -0.074,-0.153 -0.074,-0.305 -0.074,-0.457 0,-0.375 0.226,-0.746 0.75,-0.969 2.472,-1.129 6.449,-2.402 10.277,-2.402 7.949,0 13.727,4.277 13.727,11.175 l 0,0 z m -30.754,25.125 c 0,0.149 0,0.223 0,0.371 0,0.45 -0.149,0.829 -0.602,0.907 -0.746,0.144 -1.644,0.222 -2.172,0.222 -3.972,0 -6.824,-2.25 -8.629,-4.726 l -0.07,2.551 c 0,0.976 -0.527,1.351 -1.5,1.351 l -3.23,0 c -0.895,0 -1.422,-0.375 -1.422,-1.5 l 0,-33.152 c 0,-1.051 0.453,-1.574 1.422,-1.574 l 3.527,0 c 0.976,0 1.426,0.601 1.426,1.574 l 0,25.574 c 1.953,2.773 4.875,4.504 7.5,4.504 0.754,0 1.504,-0.078 2.175,-0.227 0.075,0 0.149,0 0.227,0 0.449,0 0.746,0.227 0.824,0.746 l 0.524,3.379 0,0 z m -34.121,-14.027 -18.829,0 c 0.602,5.551 4.125,10.578 10.352,10.578 5.699,0 8.477,-4.426 8.477,-9.527 l 0,-1.051 z m 6.296,-2.25 0,1.273 c 0,4.879 -1.273,9.301 -4.273,12.379 -2.477,2.547 -5.926,4.125 -10.203,4.125 -10.801,0 -17.477,-8.179 -17.477,-18.902 0,-11.32 6.157,-18.898 17.703,-18.898 3.454,0 8.25,0.671 11.473,2.175 0.602,0.297 0.902,0.524 0.902,0.973 0,0.078 0,0.223 -0.078,0.375 l -0.824,2.773 c -0.144,0.528 -0.519,0.68 -0.898,0.68 -0.223,0 -0.45,-0.078 -0.746,-0.152 -2.477,-0.977 -5.926,-1.578 -9.004,-1.578 -7.575,0 -11.621,5.554 -11.852,12.675 l 23.027,0 c 1.95,0 2.25,0.379 2.25,2.102 l 0,0 z m -38.773,16.199 c 0,0.528 -0.375,0.754 -1.199,0.754 l -3.453,0 c -1.043,0 -1.575,-0.305 -1.875,-1.203 l -6.746,-20.398 c -0.903,-2.7 -1.805,-5.625 -2.254,-7.204 l -0.075,0 c -0.523,1.731 -1.421,4.43 -2.398,7.426 l -6.75,20.328 c -0.227,0.746 -0.676,1.051 -1.801,1.051 l -4.129,0 c -0.746,0 -1.121,-0.305 -1.121,-0.824 0,-0.152 0,-0.379 0.074,-0.527 l 12.297,-33.672 c 0.305,-0.832 0.828,-1.203 1.805,-1.203 l 3.301,0 c 0.824,0 1.347,0.296 1.722,1.203 l 12.454,33.672 c 0.078,0.222 0.148,0.449 0.148,0.597 l 0,0 z m -41.328,-33.898 0,33.152 c 0,1.047 -0.449,1.5 -1.426,1.5 l -3.445,0 c -0.977,0 -1.5,-0.453 -1.5,-1.5 l 0,-33.152 c 0,-1.051 0.523,-1.574 1.5,-1.574 l 3.445,0 c 0.977,0 1.426,0.523 1.426,1.574 l 0,0 z m 0.68,43.5 c 0,2.176 -1.875,3.601 -3.903,3.601 -2.023,0 -3.828,-1.425 -3.828,-3.601 0,-2.172 1.805,-3.598 3.828,-3.598 1.949,0 3.903,1.426 3.903,3.598 l 0,0 z m -20.403,-43.5 0,22.051 c 0,8.171 -3.301,13.425 -11.922,13.425 -4.351,0 -8.851,-1.578 -12.304,-4.5 l -0.075,2.325 c 0,0.976 -0.519,1.351 -1.425,1.351 l -3.301,0 c -1.047,0 -1.418,-0.453 -1.418,-1.5 l 0,-33.226 c 0,-0.977 0.519,-1.5 1.418,-1.5 l 3.527,0 c 0.977,0 1.426,0.523 1.426,1.574 l 0,25.801 c 2.625,2.402 6.898,4.347 10.352,4.347 6,0 7.347,-3.82 7.347,-9.148 l 0,-21 c 0,-1.051 0.453,-1.574 1.426,-1.574 l 3.523,0 c 1.051,0 1.426,0.523 1.426,1.574 l 0,0 z m -43.648,21 0,27.601 c 0,0.977 -0.371,1.5 -1.422,1.5 l -4.055,0 c -0.972,0 -1.5,-0.523 -1.5,-1.5 l 0,-26.402 c 0,-9.676 -1.496,-18.676 -13.5,-18.676 -12.449,0 -13.722,8.551 -13.722,18.606 l 0,26.472 c 0,0.977 -0.375,1.5 -1.426,1.5 l -4.121,0 c -0.981,0 -1.426,-0.523 -1.426,-1.5 l 0,-27.152 c 0,-14.625 4.348,-23.773 20.625,-23.773 14.848,0 20.547,9.597 20.547,23.324 l 0,0 z m -78.371,-1.051 -18.828,0 c 0.601,5.551 4.125,10.578 10.351,10.578 5.699,0 8.477,-4.426 8.477,-9.527 l 0,-1.051 z m 6.297,-2.25 0,1.273 c 0,4.879 -1.274,9.301 -4.278,12.379 -2.472,2.547 -5.922,4.125 -10.199,4.125 -10.801,0 -17.477,-8.179 -17.477,-18.902 0,-11.32 6.157,-18.898 17.704,-18.898 3.453,0 8.25,0.671 11.472,2.175 0.602,0.297 0.903,0.524 0.903,0.973 0,0.078 0,0.223 -0.079,0.375 l -0.824,2.773 c -0.144,0.528 -0.519,0.68 -0.898,0.68 -0.223,0 -0.449,-0.078 -0.746,-0.152 -2.477,-0.977 -5.926,-1.578 -9.004,-1.578 -7.574,0 -11.621,5.554 -11.852,12.675 l 23.028,0 c 1.949,0 2.25,0.379 2.25,2.102 l 0,0 z m -42.602,-17.699 0,22.051 c 0,8.171 -3.297,13.425 -11.922,13.425 -4.351,0 -8.848,-1.578 -12.301,-4.5 l -0.074,2.325 c 0,0.976 -0.527,1.351 -1.426,1.351 l -3.3,0 c -1.047,0 -1.426,-0.453 -1.426,-1.5 l 0,-33.226 c 0,-0.977 0.527,-1.5 1.426,-1.5 l 3.527,0 c 0.976,0 1.426,0.523 1.426,1.574 l 0,25.801 c 2.621,2.402 6.898,4.347 10.351,4.347 5.996,0 7.348,-3.82 7.348,-9.148 l 0,-21 c 0,-1.051 0.449,-1.574 1.426,-1.574 l 3.523,0 c 1.051,0 1.422,0.523 1.422,1.574 l 0,0 z m -39.07,33.976 c 0,0.149 0,0.223 0,0.371 0,0.45 -0.153,0.829 -0.602,0.907 -0.754,0.144 -1.648,0.222 -2.172,0.222 -3.98,0 -6.828,-2.25 -8.629,-4.726 l -0.074,2.551 c 0,0.976 -0.527,1.351 -1.5,1.351 l -3.226,0 c -0.899,0 -1.426,-0.375 -1.426,-1.5 l 0,-33.152 c 0,-1.051 0.449,-1.574 1.426,-1.574 l 3.527,0 c 0.976,0 1.426,0.601 1.426,1.574 l 0,25.574 c 1.949,2.773 4.871,4.504 7.5,4.504 0.746,0 1.5,-0.078 2.172,-0.227 0.078,0 0.152,0 0.222,0 0.457,0 0.754,0.227 0.828,0.746 l 0.528,3.379 0,0 z m -34.125,-14.027 -18.825,0 c 0.598,5.551 4.125,10.578 10.352,10.578 5.695,0 8.473,-4.426 8.473,-9.527 l 0,-1.051 z m 6.3,-2.25 0,1.273 c 0,4.879 -1.277,9.301 -4.277,12.379 -2.476,2.547 -5.922,4.125 -10.199,4.125 -10.801,0 -17.477,-8.179 -17.477,-18.902 0,-11.32 6.153,-18.898 17.7,-18.898 3.453,0 8.253,0.671 11.476,2.175 0.602,0.297 0.902,0.524 0.902,0.973 0,0.078 0,0.223 -0.078,0.375 l -0.824,2.773 c -0.144,0.528 -0.523,0.68 -0.898,0.68 -0.227,0 -0.45,-0.078 -0.75,-0.152 -2.477,-0.977 -5.926,-1.578 -9,-1.578 -7.575,0 -11.625,5.554 -11.852,12.675 l 23.027,0 c 1.95,0 2.25,0.379 2.25,2.102 l 0,0 z m -38.777,-16.875 c 0,0.223 -0.074,0.527 -0.148,0.824 l -0.676,2.102 c -0.149,0.527 -0.371,0.75 -0.75,0.75 -0.152,0 -0.375,-0.078 -0.602,-0.153 -2.398,-1.046 -5.175,-1.8 -8.394,-1.8 -8.0276,0 -11.3283,6.601 -11.3283,14.254 0,8.398 4.5,13.726 11.6253,13.726 2.922,0 5.472,-0.828 7.8,-1.875 0.227,-0.152 0.524,-0.226 0.676,-0.226 0.449,0 0.672,0.375 0.824,0.898 l 0.602,2.402 c 0.07,0.227 0.145,0.375 0.145,0.598 0,0.453 -0.223,0.75 -0.747,0.977 -2.628,1.351 -6.378,2.175 -9.597,2.175 -11.2541,0 -17.926,-7.949 -17.926,-18.972 0,-11.18 5.6992,-18.828 17.4727,-18.828 3.4493,0 6.9023,0.671 10.1253,2.175 0.672,0.297 0.898,0.524 0.898,0.973 l 0,0 z m -38.9999,-0.746 0,33.074 c 0,1.047 -0.4492,1.5 -1.4219,1.5 l -3.5234,0 c -0.9766,0 -1.4258,-0.453 -1.4258,-1.5 l 0,-25.574 c -2.4023,-2.254 -6.6016,-4.43 -9.9023,-4.43 -6.0039,0 -7.1993,3.75 -7.1993,9.078 l 0,20.926 c 0,1.047 -0.5273,1.5 -1.4961,1.5 l -3.3789,0 c -0.9726,0 -1.5,-0.453 -1.5,-1.5 l 0,-21.902 c 0,-8.024 3.1485,-13.574 11.7774,-13.574 4.3515,0 8.3984,1.574 11.8515,4.5 l 0.0704,-2.325 c 0,-0.902 0.5234,-1.425 1.4257,-1.425 l 3.2227,0 c 1.0508,0 1.5,0.523 1.5,1.652 l 0,0 z m -38.6953,-0.379 0,3.078 c 0,0.899 -0.3789,1.195 -1.4258,1.195 l -18.8281,0 0,44.551 c 0,1.129 -0.4492,1.578 -1.5,1.578 l -4.0469,0 c -0.97656,0 -1.42578,-0.601 -1.42578,-1.578 l 0,-48.445 c 0,-1.203 0.51953,-1.652 1.5,-1.652 l 24.45308,0 c 0.8946,0 1.2735,0.296 1.2735,1.273 l 0,0" /><path
         id="path50"
         style="fill:#2d3f4c;fill-opacity:1;fill-rule:nonzero;stroke:none"
         d="m 858.508,756.691 c 0,4.797 -3.371,7.797 -7.5,9.52 l -5.852,2.477 c -3.144,1.351 -4.648,2.55 -4.648,5.101 0,2.551 2.18,4.649 6.152,4.649 2.403,0 5.93,-0.899 7.871,-1.797 0.227,-0.078 0.457,-0.153 0.606,-0.153 0.371,0 0.676,0.227 0.82,0.746 l 0.828,2.629 c 0.078,0.227 0.149,0.45 0.149,0.602 0,0.297 -0.223,0.519 -0.672,0.746 -3.379,1.578 -6.528,2.105 -9.746,2.105 -6.606,0 -12.61,-3.378 -12.61,-9.976 0,-4.727 3.301,-7.727 7.727,-9.453 l 5.027,-1.949 c 3.445,-1.352 5.625,-2.922 5.625,-5.848 0,-3.527 -2.922,-5.625 -7.273,-5.625 -2.551,0 -6.157,1.051 -8.926,2.25 -0.148,0.074 -0.305,0.074 -0.449,0.074 -0.371,0 -0.676,-0.301 -0.824,-0.754 l -0.973,-2.699 c -0.078,-0.145 -0.078,-0.297 -0.078,-0.449 0,-0.371 0.222,-0.746 0.75,-0.973 2.468,-1.129 6.445,-2.402 10.273,-2.402 7.949,0 13.723,4.277 13.723,11.179 l 0,0 z m -30.598,-8.628 c 0,0.078 -0.078,0.152 -0.078,0.3 l -0.598,2.399 c -0.156,0.527 -0.523,0.754 -0.894,0.754 -0.156,0 -0.305,0 -0.449,-0.075 -1.203,-0.375 -3.008,-0.906 -4.731,-0.906 -1.949,0 -3.301,0.602 -4.129,1.5 -1.125,1.281 -1.269,3.231 -1.269,5.703 l 0,20.25 8.769,0 c 0.75,0 1.133,0.227 1.133,0.977 l 0,2.551 c 0,0.824 -0.383,0.972 -1.055,0.972 l -8.847,0 0,9.227 c 0,0.824 -0.379,1.348 -1.121,1.348 -0.078,0 -0.227,0 -0.305,0 l -3.672,-0.524 c -0.976,-0.152 -1.277,-0.449 -1.277,-1.5 l 0,-8.551 -4.282,0 c -0.671,0 -0.972,-0.3 -0.972,-1.047 l 0,-2.332 c 0,-0.968 0.152,-1.121 1.133,-1.121 l 4.121,0 0,-19.648 c 0,-4.652 0.144,-7.652 2.324,-10.055 1.727,-1.875 4.949,-2.773 8.172,-2.773 2.551,0 5.254,0.601 6.98,1.351 0.598,0.227 1.047,0.598 1.047,1.2 l 0,0 z m -28.43,33.75 c 0,0.152 0,0.222 0,0.375 0,0.449 -0.144,0.824 -0.593,0.898 -0.75,0.152 -1.653,0.23 -2.176,0.23 -3.977,0 -6.828,-2.25 -8.625,-4.726 l -0.078,2.547 c 0,0.976 -0.52,1.351 -1.492,1.351 l -3.235,0 c -0.898,0 -1.418,-0.375 -1.418,-1.504 l 0,-33.148 c 0,-1.051 0.45,-1.57 1.418,-1.57 l 3.528,0 c 0.972,0 1.421,0.597 1.421,1.57 l 0,25.578 c 1.958,2.774 4.883,4.5 7.5,4.5 0.754,0 1.504,-0.078 2.18,-0.223 0.078,0 0.149,0 0.227,0 0.449,0 0.75,0.223 0.816,0.747 l 0.527,3.375 0,0 z m -40.269,-15.075 -15.82,0 6.152,17.028 c 0.965,2.773 1.492,4.269 1.875,5.472 l 0.066,0 c 0.301,-1.05 0.829,-2.699 1.731,-5.328 l 5.996,-17.172 0,0 z m 14.551,-19.648 c 0,0.226 -0.071,0.449 -0.149,0.746 l -18.523,49.199 c -0.227,0.602 -0.676,0.906 -1.352,0.906 l -3.972,0 c -0.684,0 -1.133,-0.449 -1.36,-1.05 L 729.59,747.766 c -0.078,-0.305 -0.156,-0.532 -0.156,-0.754 0,-0.449 0.222,-0.746 0.832,-0.746 l 4.422,0 c 1.042,0 1.347,0.297 1.73,1.273 l 5.164,14.024 19.434,0 4.953,-13.95 c 0.371,-1.125 0.742,-1.347 2.019,-1.347 l 4.649,0 c 0.832,0 1.125,0.297 1.125,0.824 l 0,0 z m -78.449,8.473 c -1.875,-2.704 -5.926,-4.95 -9.454,-4.95 -6.523,0 -10.046,5.926 -10.046,13.875 0,8.25 3.906,13.797 10.652,13.797 3.672,0 7.273,-2.394 8.848,-5.25 l 0,-17.472 z m 6.375,-7.727 0,50.48 c 0,0.899 -0.379,1.274 -1.122,1.274 -0.156,0 -0.222,0 -0.378,0 l -3.672,-0.527 c -0.981,-0.153 -1.203,-0.602 -1.203,-1.571 l 0,-18.301 c -2.176,2.622 -6.297,4.2 -9.747,4.2 -9.902,0 -16.355,-8.176 -16.355,-19.2 0,-9.828 4.656,-18.679 15.445,-18.679 4.282,0 8.637,2.027 11.028,4.879 l 0.078,-2.7 c 0,-0.976 0.449,-1.425 1.574,-1.425 l 3.23,0 c 0.672,0 1.122,0.597 1.122,1.57 l 0,0 z m -42.821,0 0,22.051 c 0,8.176 -3.301,13.429 -11.929,13.429 -4.348,0 -8.848,-1.578 -12.297,-4.503 l -0.075,2.324 c 0,0.976 -0.527,1.351 -1.425,1.351 l -3.301,0 c -1.051,0 -1.426,-0.453 -1.426,-1.504 l 0,-33.218 c 0,-0.981 0.527,-1.5 1.426,-1.5 l 3.523,0 c 0.977,0 1.426,0.519 1.426,1.57 l 0,25.801 c 2.621,2.402 6.899,4.351 10.348,4.351 6,0 7.351,-3.824 7.351,-9.148 l 0,-21.004 c 0,-1.051 0.45,-1.57 1.43,-1.57 l 3.523,0 c 1.043,0 1.426,0.519 1.426,1.57 l 0,0 z m -49.652,10.578 c -1.348,-3.75 -5.176,-7.574 -9.977,-7.574 -5.398,0 -9.222,5.098 -9.222,13.351 0,8.922 4.347,14.024 10.121,14.024 3.601,0 7.273,-2.027 9.078,-5.402 l 0,-14.399 z m 9.598,-11.18 0,2.555 c 0,0.824 -0.375,0.973 -1.047,0.973 l -0.524,0 c -0.601,0 -0.976,0.152 -1.273,0.679 -0.305,0.45 -0.379,1.645 -0.379,3.375 l 0,26.25 c 0,0.969 -0.453,1.422 -1.352,1.422 l -3.375,0 c -0.824,0 -1.425,-0.375 -1.425,-1.277 l -0.075,-2.473 c -2.25,3 -6.297,4.578 -10.047,4.578 -8.554,0 -15.976,-7.05 -15.976,-19.578 0,-9.453 4.574,-18.226 14.922,-18.226 4.582,0 9.527,3.004 11.25,6.301 l 0.152,0 c 0,-3 1.574,-5.547 4.879,-5.547 l 3.148,0 c 0.747,0 1.122,0.222 1.122,0.968 l 0,0 z m -62.547,9.457 c 0,4.797 -3.375,7.797 -7.5,9.52 l -5.852,2.477 c -3.148,1.351 -4.648,2.55 -4.648,5.101 0,2.551 2.172,4.649 6.148,4.649 2.402,0 5.93,-0.899 7.875,-1.797 0.227,-0.078 0.449,-0.153 0.602,-0.153 0.375,0 0.672,0.227 0.824,0.746 l 0.828,2.629 c 0.07,0.227 0.145,0.45 0.145,0.602 0,0.297 -0.223,0.519 -0.672,0.746 -3.375,1.578 -6.528,2.105 -9.746,2.105 -6.602,0 -12.606,-3.378 -12.606,-9.976 0,-4.727 3.301,-7.727 7.727,-9.453 l 5.023,-1.949 c 3.453,-1.352 5.625,-2.922 5.625,-5.848 0,-3.527 -2.926,-5.625 -7.273,-5.625 -2.551,0 -6.149,1.051 -8.926,2.25 -0.149,0.074 -0.301,0.074 -0.449,0.074 -0.371,0 -0.676,-0.301 -0.828,-0.754 l -0.969,-2.699 c -0.078,-0.145 -0.078,-0.297 -0.078,-0.449 0,-0.371 0.222,-0.746 0.75,-0.973 2.476,-1.129 6.449,-2.402 10.273,-2.402 7.949,0 13.727,4.277 13.727,11.179 l 0,0 z m -38.328,11.098 -18.821,0 c 0.602,5.551 4.125,10.574 10.352,10.574 5.699,0 8.469,-4.422 8.469,-9.523 l 0,-1.051 z m 6.304,-2.254 0,1.278 c 0,4.878 -1.277,9.3 -4.277,12.378 -2.477,2.547 -5.922,4.125 -10.199,4.125 -10.801,0 -17.477,-8.179 -17.477,-18.902 0,-11.328 6.152,-18.902 17.699,-18.902 3.453,0 8.254,0.676 11.477,2.179 0.601,0.297 0.902,0.524 0.902,0.969 0,0.078 0,0.227 -0.078,0.379 l -0.824,2.774 c -0.149,0.527 -0.524,0.675 -0.899,0.675 -0.222,0 -0.449,-0.078 -0.753,-0.148 -2.473,-0.977 -5.922,-1.578 -8.997,-1.578 -7.574,0 -11.628,5.551 -11.851,12.676 l 23.027,0 c 1.949,0 2.25,0.375 2.25,2.097 l 0,0 z M 485.766,748.66 c 0,0.227 -0.075,0.531 -0.153,0.828 l -0.672,2.098 c -0.152,0.527 -0.375,0.754 -0.753,0.754 -0.145,0 -0.372,-0.074 -0.594,-0.152 -2.403,-1.051 -5.176,-1.797 -8.403,-1.797 -8.023,0 -11.324,6.597 -11.324,14.25 0,8.394 4.496,13.722 11.625,13.722 2.926,0 5.477,-0.824 7.801,-1.875 0.223,-0.148 0.523,-0.222 0.672,-0.222 0.449,0 0.676,0.375 0.824,0.898 l 0.602,2.402 c 0.078,0.223 0.152,0.372 0.152,0.594 0,0.453 -0.227,0.754 -0.754,0.977 -2.621,1.351 -6.371,2.179 -9.598,2.179 -11.25,0 -17.925,-7.957 -17.925,-18.98 0,-11.172 5.699,-18.824 17.476,-18.824 3.449,0 6.899,0.676 10.125,2.179 0.676,0.297 0.899,0.524 0.899,0.969 l 0,0 z m -38.7,-0.824 0,22.051 c 0,8.176 -3.296,13.429 -11.925,13.429 -4.348,0 -8.848,-1.578 -12.297,-4.503 l -0.074,2.324 c 0,0.976 -0.528,1.351 -1.426,1.351 l -3.301,0 c -1.051,0 -1.426,-0.453 -1.426,-1.504 l 0,-33.218 c 0,-0.981 0.528,-1.5 1.426,-1.5 l 3.523,0 c 0.977,0 1.426,0.519 1.426,1.57 l 0,25.801 c 2.621,2.402 6.903,4.351 10.348,4.351 6,0 7.351,-3.824 7.351,-9.148 l 0,-21.004 c 0,-1.051 0.454,-1.57 1.426,-1.57 l 3.528,0 c 1.05,0 1.421,0.519 1.421,1.57 l 0,0 z m -46.652,19.953 -18.82,0 c 0.597,5.551 4.125,10.574 10.347,10.574 5.7,0 8.473,-4.422 8.473,-9.523 l 0,-1.051 z m 6.305,-2.254 0,1.278 c 0,4.878 -1.274,9.3 -4.278,12.378 -2.476,2.547 -5.921,4.125 -10.199,4.125 -10.801,0 -17.476,-8.179 -17.476,-18.902 0,-11.328 6.152,-18.902 17.699,-18.902 3.453,0 8.254,0.676 11.476,2.179 0.602,0.297 0.903,0.524 0.903,0.969 0,0.078 0,0.227 -0.078,0.379 l -0.825,2.774 c -0.148,0.527 -0.523,0.675 -0.898,0.675 -0.227,0 -0.449,-0.078 -0.746,-0.148 -2.477,-0.977 -5.93,-1.578 -9.004,-1.578 -7.574,0 -11.629,5.551 -11.852,12.676 l 23.028,0 c 1.949,0 2.25,0.375 2.25,2.097 l 0,0 z m -43.051,-17.699 0,33.148 c 0,1.051 -0.449,1.504 -1.426,1.504 l -3.449,0 c -0.977,0 -1.504,-0.453 -1.504,-1.504 l 0,-33.148 c 0,-1.051 0.527,-1.57 1.504,-1.57 l 3.449,0 c 0.977,0 1.426,0.519 1.426,1.57 l 0,0 z m 0.672,43.504 c 0,2.176 -1.875,3.598 -3.895,3.598 -2.027,0 -3.828,-1.422 -3.828,-3.598 0,-2.176 1.801,-3.602 3.828,-3.602 1.95,0 3.895,1.426 3.895,3.602 l 0,0 z m -17.399,-42.68 c 0,0.227 -0.07,0.531 -0.148,0.828 l -0.676,2.098 c -0.148,0.527 -0.375,0.754 -0.75,0.754 -0.152,0 -0.371,-0.074 -0.601,-0.152 -2.399,-1.051 -5.176,-1.797 -8.399,-1.797 -8.027,0 -11.324,6.597 -11.324,14.25 0,8.394 4.5,13.722 11.629,13.722 2.918,0 5.473,-0.824 7.797,-1.875 0.222,-0.148 0.527,-0.222 0.672,-0.222 0.449,0 0.675,0.375 0.828,0.898 l 0.597,2.402 c 0.075,0.223 0.153,0.372 0.153,0.594 0,0.453 -0.227,0.754 -0.75,0.977 -2.629,1.351 -6.379,2.179 -9.602,2.179 -11.25,0 -17.926,-7.957 -17.926,-18.98 0,-11.172 5.7,-18.824 17.477,-18.824 3.445,0 6.898,0.676 10.129,2.179 0.672,0.297 0.894,0.524 0.894,0.969 l 0,0 z m -36.824,11.629 c 0,6.977 -4.351,10.727 -10.199,13.875 l -8.023,4.274 c -3.149,1.652 -5.848,3.828 -5.848,7.722 0,5.028 4.871,6.981 9.07,6.981 3.004,0 6.524,-0.907 9.528,-2.18 0.296,-0.145 0.597,-0.223 0.898,-0.223 0.449,0 0.824,0.223 1.051,0.825 l 1.125,3.078 c 0.074,0.222 0.148,0.449 0.148,0.672 0,0.601 -0.449,0.976 -1.195,1.273 -3.902,1.652 -7.5,2.254 -11.93,2.254 -7.871,0 -15.898,-4.649 -15.898,-13.277 0,-5.403 3.301,-9.45 8.25,-12.149 l 9.523,-5.098 c 3.676,-1.953 6.602,-4.351 6.602,-8.55 0,-5.926 -5.403,-8.325 -10.5,-8.325 -3.524,0 -7.274,0.969 -10.649,2.172 -0.375,0.153 -0.679,0.153 -0.902,0.153 -0.523,0 -0.824,-0.227 -1.051,-0.907 l -0.976,-3.371 c -0.075,-0.226 -0.075,-0.449 -0.075,-0.675 0,-0.598 0.305,-0.977 1.051,-1.2 4.125,-1.347 8.551,-2.101 12.602,-2.101 9.222,0 17.398,4.953 17.398,14.777 l 0,0 z m -68.551,-4.726 c -1.875,-2.704 -5.921,-4.95 -9.449,-4.95 -6.519,0 -10.047,5.926 -10.047,13.875 0,8.25 3.899,13.797 10.649,13.797 3.676,0 7.277,-2.394 8.847,-5.25 l 0,-17.472 z m 6.379,-7.727 0,50.48 c 0,0.899 -0.379,1.274 -1.125,1.274 -0.148,0 -0.226,0 -0.375,0 l -3.675,-0.527 c -0.977,-0.153 -1.204,-0.602 -1.204,-1.571 l 0,-18.301 c -2.171,2.622 -6.296,4.2 -9.746,4.2 -9.902,0 -16.351,-8.176 -16.351,-19.2 0,-9.828 4.648,-18.679 15.449,-18.679 4.277,0 8.629,2.027 11.023,4.879 l 0.079,-2.7 c 0,-0.976 0.453,-1.425 1.574,-1.425 l 3.226,0 c 0.676,0 1.125,0.597 1.125,1.57 l 0,0 z m -46.652,19.953 -18.82,0 c 0.597,5.551 4.125,10.574 10.347,10.574 5.7,0 8.473,-4.422 8.473,-9.523 l 0,-1.051 z m 6.305,-2.254 0,1.278 c 0,4.878 -1.282,9.3 -4.278,12.378 -2.476,2.547 -5.925,4.125 -10.199,4.125 -10.801,0 -17.476,-8.179 -17.476,-18.902 0,-11.328 6.148,-18.902 17.699,-18.902 3.453,0 8.254,0.676 11.476,2.179 0.602,0.297 0.903,0.524 0.903,0.969 0,0.078 0,0.227 -0.078,0.379 l -0.825,2.774 c -0.152,0.527 -0.523,0.675 -0.898,0.675 -0.227,0 -0.449,-0.078 -0.754,-0.148 -2.477,-0.977 -5.922,-1.578 -8.996,-1.578 -7.574,0 -11.629,5.551 -11.852,12.676 l 23.028,0 c 1.949,0 2.25,0.375 2.25,2.097 l 0,0 z m -43.051,-17.699 0,33.148 c 0,1.051 -0.449,1.504 -1.426,1.504 l -3.453,0 c -0.973,0 -1.5,-0.453 -1.5,-1.504 l 0,-33.148 c 0,-1.051 0.527,-1.57 1.5,-1.57 l 3.453,0 c 0.977,0 1.426,0.519 1.426,1.57 l 0,0 z m 0.672,43.504 c 0,2.176 -1.875,3.598 -3.903,3.598 -2.023,0 -3.82,-1.422 -3.82,-3.598 0,-2.176 1.797,-3.602 3.82,-3.602 1.954,0 3.903,1.426 3.903,3.602 l 0,0 z m -20.176,-43.504 0,50.48 c 0,0.973 -0.449,1.274 -1.121,1.274 -0.152,0 -0.227,0 -0.375,0 l -3.75,-0.527 c -0.902,-0.153 -1.125,-0.45 -1.125,-1.5 l 0,-49.797 c 0,-1.051 0.449,-1.5 1.348,-1.5 l 3.675,0 c 0.899,0 1.348,0.519 1.348,1.57 l 0,0 z m -23.398,16.73 c 0,-6.675 -2.7,-14.031 -10.422,-14.031 -3.672,0 -7.5,2.324 -9.075,5.25 l 0,17.629 c 1.875,2.699 5.997,4.801 9.524,4.801 7.801,0 9.973,-7.125 9.973,-13.649 l 0,0 z m 6.675,0.145 c 0,9.68 -4.726,18.605 -15.375,18.605 -4.273,0 -8.773,-1.953 -11.172,-4.8 l 0,2.621 c 0,1.051 -0.601,1.351 -1.722,1.351 l -2.8518,0 c -0.9765,0 -1.4258,-0.3 -1.4258,-1.351 l 0,-49.422 c 0,-1.051 0.4493,-1.578 1.4258,-1.578 l 3.2968,0 c 0.973,0 1.652,0.304 1.652,1.426 l 0,18.148 c 2.247,-2.773 6.219,-4.199 9.899,-4.199 10.875,0 16.273,9.222 16.273,19.199 l 0,0 z m -49.4958,-0.145 c 0,-6.675 -2.7031,-14.031 -10.4258,-14.031 -3.6757,0 -7.5,2.324 -9.0781,5.25 l 0,17.629 c 1.875,2.699 6.0039,4.801 9.5274,4.801 7.7968,0 9.9765,-7.125 9.9765,-13.649 l 0,0 z m 6.6719,0.145 c 0,9.68 -4.7227,18.605 -15.375,18.605 -4.2734,0 -8.7734,-1.953 -11.1758,-4.8 l 0,2.621 c 0,1.051 -0.5976,1.351 -1.7226,1.351 l -2.8516,0 c -0.9727,0 -1.4219,-0.3 -1.4219,-1.351 l 0,-49.422 c 0,-1.051 0.4492,-1.578 1.4219,-1.578 l 3.3008,0 c 0.9765,0 1.6484,0.304 1.6484,1.426 l 0,18.148 c 2.2539,-2.773 6.2266,-4.199 9.9024,-4.199 10.875,0 16.2734,9.222 16.2734,19.199 l 0,0 z m -55.125,2.027 -15.8242,0 6.1523,17.028 c 0.9766,2.773 1.5,4.269 1.875,5.472 l 0.0742,0 c 0.3008,-1.05 0.8243,-2.699 1.7266,-5.328 l 5.9961,-17.172 0,0 z M 44.9219,747.09 c 0,0.226 -0.0742,0.449 -0.1446,0.746 L 26.25,797.035 c -0.2227,0.602 -0.6797,0.906 -1.3516,0.906 l -3.9765,0 c -0.6719,0 -1.1211,-0.449 -1.3477,-1.05 L 0.746094,747.766 c -0.074219,-0.305 -0.152344,-0.532 -0.152344,-0.754 0,-0.449 0.230469,-0.746 0.82813,-0.746 l 4.42968,0 c 1.04688,0 1.34766,0.297 1.72266,1.273 l 5.17578,14.024 19.4219,0 4.9531,-13.95 c 0.375,-1.125 0.7461,-1.347 2.0273,-1.347 l 4.6446,0 c 0.8281,0 1.125,0.297 1.125,0.824 l 0,0" /><path
         id="path52"
         style="fill:#5f8ea2;fill-opacity:1;fill-rule:nonzero;stroke:none"
         d="m 1021.55,150.359 -15.38,0 c 0.61,4.426 3.54,8.325 8.4,8.325 4.58,0 6.84,-3.594 6.98,-7.5 0,-0.149 0,-0.676 0,-0.825 l 0,0 z m 8.93,-3.75 0,1.125 c 0,5.098 -0.98,9.825 -4.43,13.426 -2.62,2.778 -6.37,4.504 -10.94,4.504 -11.18,0 -18.606,-7.805 -18.606,-19.055 0,-11.699 6.976,-19.199 18.746,-19.199 3.9,0 8.92,0.754 12.6,2.406 0.9,0.372 1.2,0.743 1.2,1.27 0,0.223 -0.08,0.523 -0.14,0.898 l -1.06,3.829 c -0.14,0.593 -0.53,0.898 -1.04,0.898 -0.31,0 -0.54,-0.148 -0.83,-0.227 -2.78,-1.043 -6.08,-1.796 -9.22,-1.796 -5.94,0 -10.14,3.972 -10.73,9.746 l 21.98,0 c 1.86,0 2.47,0.382 2.47,2.175 l 0,0 z m -39.757,17.778 c 0,0.601 -0.215,0.828 -0.75,0.972 -0.664,0.149 -1.496,0.305 -2.102,0.305 -4.199,0 -6.75,-1.875 -9.062,-4.805 l -0.086,2.403 c 0,1.047 -0.664,1.426 -1.868,1.426 l -4.804,0 c -1.121,0 -1.875,-0.379 -1.875,-1.875 l 0,-32.625 c 0,-1.282 0.594,-1.875 1.797,-1.875 l 5.476,0 c 1.274,0 1.809,0.671 1.809,1.875 l 0,23.843 c 1.863,2.258 4.648,3.606 7.195,3.606 0.676,0 1.418,-0.078 2.024,-0.227 0.144,0 0.222,0 0.293,0 0.605,0 0.988,0.305 1.054,0.981 l 0.828,5.32 c 0.071,0.227 0.071,0.449 0.071,0.676 l 0,0 z m -32.547,-33.977 0,32.551 c 0,1.348 -0.676,1.727 -1.867,1.727 l -5.332,0 c -1.204,0 -1.875,-0.45 -1.875,-1.727 l 0,-23.93 c -2.247,-2.019 -5.848,-3.59 -8.704,-3.59 -4.5,0 -5.543,2.84 -5.543,6.969 l 0,20.551 c 0,1.348 -0.675,1.727 -1.875,1.727 l -5.253,0 c -1.204,0 -1.957,-0.45 -1.957,-1.727 l 0,-22.121 c 0,-8.106 3.46,-13.43 11.859,-13.43 4.344,0 8.476,1.496 11.922,4.281 l 0.078,-1.875 c 0.066,-0.976 0.82,-1.503 1.797,-1.503 l 4.797,0 c 1.504,0 1.953,0.527 1.953,2.097 l 0,0 z m -40.805,0.149 c 0,0.156 0,0.222 -0.066,0.449 l -0.75,3.75 c -0.149,0.601 -0.45,0.906 -0.981,0.906 -0.222,0 -0.445,-0.078 -0.75,-0.156 -1.347,-0.449 -2.922,-0.899 -4.797,-0.899 -1.804,0 -2.847,0.606 -3.523,1.575 -0.828,1.199 -0.977,2.847 -0.977,5.105 l 0,17.168 8.399,0 c 0.898,0 1.504,0.527 1.504,1.426 l 0,3.523 c 0,0.981 -0.528,1.282 -1.426,1.282 l -8.477,0 0,8.996 c 0,1.132 -0.449,1.648 -1.425,1.648 -0.149,0 -0.223,0 -0.372,0 l -5.402,-0.676 c -1.199,-0.144 -1.875,-0.523 -1.875,-1.797 l 0,-8.171 -3.824,0 c -0.899,0 -1.352,-0.606 -1.352,-1.504 l 0,-2.852 c 0,-1.57 0.227,-1.875 1.653,-1.875 l 3.523,0 0,-16.719 c 0,-5.476 0.07,-8.554 2.395,-11.179 1.875,-2.168 5.175,-3.149 9.004,-3.149 3,0 6.074,0.754 8.398,1.723 0.754,0.301 1.121,0.683 1.121,1.426 l 0,0 z m -31.414,0.3 c 0,0.301 -0.078,0.75 -0.234,1.282 l -0.965,3.3 c -0.156,0.516 -0.449,0.899 -0.91,0.899 -0.227,0 -0.52,-0.156 -0.743,-0.227 -2.625,-1.054 -4.648,-1.648 -7.878,-1.648 -6.45,0 -9.747,4.949 -9.747,12.144 0,7.356 3.668,11.926 10.125,11.926 2.618,0 5.02,-0.754 7.2,-1.648 0.3,-0.149 0.593,-0.305 0.816,-0.305 0.461,0 0.754,0.383 0.91,1.055 l 0.965,3.972 c 0.078,0.227 0.156,0.676 0.156,0.903 0,0.601 -0.3,0.75 -0.894,1.054 -3.156,1.422 -6.684,2.098 -10.051,2.098 -11.633,0 -18.602,-7.883 -18.602,-19.504 0,-11.551 6.375,-18.75 17.918,-18.75 3.973,0 7.278,0.598 10.879,2.246 0.672,0.305 1.055,0.61 1.055,1.203 l 0,0 z m -45.754,19.5 -15.379,0 c 0.606,4.426 3.528,8.325 8.399,8.325 4.582,0 6.828,-3.594 6.98,-7.5 0,-0.149 0,-0.676 0,-0.825 l 0,0 z m 8.93,-3.75 0,1.125 c 0,5.098 -0.981,9.825 -4.426,13.426 -2.629,2.778 -6.379,4.504 -10.957,4.504 -11.172,0 -18.594,-7.805 -18.594,-19.055 0,-11.699 6.973,-19.199 18.75,-19.199 3.899,0 8.926,0.754 12.598,2.406 0.898,0.372 1.199,0.743 1.199,1.27 0,0.223 -0.074,0.523 -0.152,0.898 l -1.047,3.829 c -0.156,0.593 -0.527,0.898 -1.055,0.898 -0.293,0 -0.515,-0.148 -0.82,-0.227 -2.774,-1.043 -6.074,-1.796 -9.231,-1.796 -5.925,0 -10.125,3.972 -10.718,9.746 l 21.968,0 c 1.875,0 2.485,0.382 2.485,2.175 l 0,0 z m -40.278,-16.05 c 0,0.156 0,0.222 -0.078,0.449 l -0.75,3.75 c -0.144,0.601 -0.449,0.906 -0.976,0.906 -0.227,0 -0.449,-0.078 -0.75,-0.156 -1.352,-0.449 -2.922,-0.899 -4.797,-0.899 -1.797,0 -2.852,0.606 -3.524,1.575 -0.832,1.199 -0.976,2.847 -0.976,5.105 l 0,17.168 8.394,0 c 0.903,0 1.504,0.527 1.504,1.426 l 0,3.523 c 0,0.981 -0.523,1.282 -1.422,1.282 l -8.476,0 0,8.996 c 0,1.132 -0.449,1.648 -1.43,1.648 -0.144,0 -0.222,0 -0.371,0 l -5.398,-0.676 c -1.2,-0.144 -1.875,-0.523 -1.875,-1.797 l 0,-8.171 -3.828,0 c -0.899,0 -1.348,-0.606 -1.348,-1.504 l 0,-2.852 c 0,-1.57 0.226,-1.875 1.648,-1.875 l 3.528,0 0,-16.719 c 0,-5.476 0.078,-8.554 2.402,-11.179 1.875,-2.168 5.176,-3.149 8.992,-3.149 3,0 6.074,0.754 8.403,1.723 0.75,0.301 1.128,0.683 1.128,1.426 l 0,0 z m -35.171,-0.371 0,32.773 c 0,1.348 -0.676,1.727 -1.875,1.727 l -5.254,0 c -1.203,0 -1.953,-0.45 -1.953,-1.727 l 0,-32.773 c 0,-1.348 0.601,-1.875 1.953,-1.875 l 5.254,0 c 1.265,0 1.875,0.527 1.875,1.875 l 0,0 z m 0.449,44.023 c 0,2.996 -2.485,4.727 -5.031,4.727 -2.625,0 -5.098,-1.797 -5.098,-4.805 0,-3 2.629,-4.649 5.098,-4.649 2.48,0 5.031,1.805 5.031,4.727 l 0,0 z m -22.199,-44.395 0,22.418 c 0,8.098 -3.457,13.43 -11.856,13.43 -3.973,0 -8.691,-1.426 -11.848,-4.055 l 0,18.832 c 0,1.043 -0.449,1.422 -1.277,1.422 -0.293,0 -0.676,0 -0.969,-0.078 l -5.171,-0.672 c -1.055,-0.156 -1.653,-0.527 -1.653,-1.875 l 0,-49.582 c 0,-0.972 0.293,-1.343 1.199,-1.343 l 6.45,0 c 1.121,0 1.421,0.371 1.421,1.503 l 0,24.293 c 2.329,2.024 6.079,3.606 8.997,3.606 4.503,0 5.625,-3.008 5.625,-7.051 l 0,-20.848 c 0,-1.203 0.222,-1.503 1.281,-1.503 l 6.597,0 c 0.981,0 1.204,0.371 1.204,1.503 l 0,0 z m -41.551,1.043 c 0,0.301 -0.07,0.75 -0.227,1.282 l -0.976,3.3 c -0.149,0.516 -0.45,0.899 -0.899,0.899 -0.222,0 -0.527,-0.156 -0.754,-0.227 -2.617,-1.054 -4.644,-1.648 -7.871,-1.648 -6.441,0 -9.746,4.949 -9.746,12.144 0,7.356 3.676,11.926 10.117,11.926 2.629,0 5.032,-0.754 7.207,-1.648 0.293,-0.149 0.598,-0.305 0.825,-0.305 0.449,0 0.75,0.383 0.894,1.055 l 0.981,3.972 c 0.078,0.227 0.156,0.676 0.156,0.903 0,0.601 -0.305,0.75 -0.91,1.054 -3.145,1.422 -6.668,2.098 -10.047,2.098 -11.621,0 -18.598,-7.883 -18.598,-19.504 0,-11.551 6.367,-18.75 17.922,-18.75 3.977,0 7.273,0.598 10.879,2.246 0.676,0.305 1.047,0.61 1.047,1.203 l 0,0 z m -35.324,33.528 c 0,0.601 -0.223,0.828 -0.75,0.972 -0.676,0.149 -1.496,0.305 -2.102,0.305 -4.199,0 -6.746,-1.875 -9.07,-4.805 l -0.078,2.403 c 0,1.047 -0.676,1.426 -1.875,1.426 l -4.801,0 c -1.125,0 -1.875,-0.379 -1.875,-1.875 l 0,-32.625 c 0,-1.282 0.597,-1.875 1.801,-1.875 l 5.476,0 c 1.274,0 1.801,0.671 1.801,1.875 l 0,23.843 c 1.875,2.258 4.644,3.606 7.195,3.606 0.672,0 1.426,-0.078 2.032,-0.227 0.148,0 0.222,0 0.292,0 0.606,0 0.977,0.305 1.055,0.981 l 0.82,5.32 c 0.079,0.227 0.079,0.449 0.079,0.676 l 0,0 z m -45.528,-15.981 -13.871,0 5.32,15.754 c 0.754,2.102 1.204,3.672 1.579,4.949 l 0.152,0 c 0.371,-1.199 0.824,-2.769 1.5,-4.871 l 5.32,-15.832 0,0 z m 17.028,-18.894 c 0,0.304 0,0.597 -0.153,0.976 l -18.375,48.371 c -0.297,0.829 -0.968,1.356 -2.097,1.356 l -6,0 c -1.125,0 -1.653,-0.606 -2.024,-1.504 l -18.301,-48.602 c -0.152,-0.293 -0.152,-0.597 -0.152,-0.824 0,-0.601 0.301,-0.972 1.051,-0.972 l 6.676,0 c 1.199,0 1.722,0.593 2.027,1.57 l 3.894,11.25 18.981,0 3.894,-11.024 c 0.458,-1.203 0.977,-1.796 2.555,-1.796 l 6.676,0 c 0.973,0 1.348,0.449 1.348,1.199 l 0,0 z m -241.571,9.679 c -1.496,-1.875 -4.797,-3.605 -7.722,-3.605 -2.028,0 -3.973,0.676 -5.325,2.023 -2.25,2.176 -3,5.704 -3,9 0,3.45 0.899,7.278 3.227,9.524 1.348,1.277 3.223,2.18 5.547,2.18 2.851,0 5.777,-1.653 7.273,-3.672 l 0,-15.45 z m 9.078,-8.41 0,32.102 c 0,1.277 -0.449,1.805 -1.8,1.805 l -4.953,0 c -1.122,0 -1.649,-0.379 -1.723,-1.348 l -0.152,-1.953 c -0.895,1.269 -2.395,2.402 -3.821,3 -1.722,0.75 -3.597,1.199 -5.402,1.199 -10.871,0 -16.723,-9.453 -16.723,-19.5 0,-5.473 1.571,-10.352 4.723,-13.574 2.625,-2.778 6.375,-4.278 11.023,-4.278 3.301,0 7.5,1.649 9.75,3.829 l 0,-3 c 0,-6.004 -1.57,-9.981 -9.07,-9.981 -2.625,0 -5.703,0.828 -8.402,1.953 -0.375,0.149 -0.746,0.305 -1.125,0.305 -0.528,0 -0.825,-0.527 -1.125,-1.352 l -1.051,-3.297 c -0.074,-0.304 -0.227,-0.605 -0.227,-0.976 0,-0.676 0.375,-1.125 1.203,-1.504 3.598,-1.574 7.426,-2.324 11.098,-2.324 12.602,0 17.777,6.746 17.777,18.894 l 0,0 z m -44.476,-0.515 0,21.968 c 0,8.176 -3.445,13.43 -11.848,13.43 -4.347,0 -8.699,-1.582 -12.152,-4.355 l -0.07,1.953 c -0.075,1.125 -0.754,1.426 -1.805,1.426 l -4.871,0 c -1.356,0 -1.875,-0.672 -1.875,-1.875 l 0,-32.704 c 0,-1.203 0.672,-1.796 1.801,-1.796 l 5.472,0 c 1.278,0 1.797,0.593 1.797,1.875 l 0,23.921 c 2.328,2.024 5.93,3.606 8.856,3.606 4.574,0 5.695,-2.93 5.695,-7.051 l 0,-20.398 c 0,-1.282 0.449,-1.953 1.805,-1.953 l 5.398,0 c 1.348,0 1.797,0.671 1.797,1.953 l 0,0 z m -45.149,-0.078 0,32.773 c 0,1.348 -0.671,1.727 -1.875,1.727 l -5.246,0 c -1.203,0 -1.953,-0.45 -1.953,-1.727 l 0,-32.773 c 0,-1.348 0.602,-1.875 1.953,-1.875 l 5.246,0 c 1.278,0 1.875,0.527 1.875,1.875 l 0,0 z m 0.454,44.023 c 0,2.996 -2.477,4.727 -5.028,4.727 -2.625,0 -5.101,-1.797 -5.101,-4.805 0,-3 2.629,-4.649 5.101,-4.649 2.477,0 5.028,1.805 5.028,4.727 l 0,0 z m -18.075,-9.824 c 0,0.601 -0.226,0.828 -0.75,0.972 -0.675,0.149 -1.5,0.305 -2.101,0.305 -4.199,0 -6.75,-1.875 -9.074,-4.805 l -0.075,2.403 c 0,1.047 -0.675,1.426 -1.875,1.426 l -4.8,0 c -1.125,0 -1.875,-0.379 -1.875,-1.875 l 0,-32.625 c 0,-1.282 0.601,-1.875 1.8,-1.875 l 5.477,0 c 1.273,0 1.797,0.671 1.797,1.875 l 0,23.843 c 1.875,2.258 4.652,3.606 7.199,3.606 0.676,0 1.426,-0.078 2.027,-0.227 0.149,0 0.227,0 0.297,0 0.602,0 0.977,0.305 1.051,0.981 l 0.824,5.32 c 0.078,0.227 0.078,0.449 0.078,0.676 l 0,0 z m -38.925,-14.028 -15.375,0 c 0.601,4.426 3.527,8.325 8.398,8.325 4.574,0 6.824,-3.594 6.977,-7.5 0,-0.149 0,-0.676 0,-0.825 l 0,0 z m 8.925,-3.75 0,1.125 c 0,5.098 -0.976,9.825 -4.425,13.426 -2.625,2.778 -6.375,4.504 -10.95,4.504 -11.175,0 -18.601,-7.805 -18.601,-19.055 0,-11.699 6.976,-19.199 18.75,-19.199 3.898,0 8.926,0.754 12.601,2.406 0.899,0.372 1.2,0.743 1.2,1.27 0,0.223 -0.075,0.523 -0.153,0.898 l -1.047,3.829 c -0.152,0.593 -0.527,0.898 -1.05,0.898 -0.297,0 -0.524,-0.148 -0.825,-0.227 -2.773,-1.043 -6.074,-1.796 -9.222,-1.796 -5.93,0 -10.129,3.972 -10.731,9.746 l 21.981,0 c 1.875,0 2.472,0.382 2.472,2.175 l 0,0 z m -50.175,3.75 -15.375,0 c 0.601,4.426 3.527,8.325 8.398,8.325 4.574,0 6.824,-3.594 6.977,-7.5 0,-0.149 0,-0.676 0,-0.825 l 0,0 z m 8.925,-3.75 0,1.125 c 0,5.098 -0.976,9.825 -4.425,13.426 -2.625,2.778 -6.375,4.504 -10.95,4.504 -11.175,0 -18.601,-7.805 -18.601,-19.055 0,-11.699 6.976,-19.199 18.754,-19.199 3.894,0 8.922,0.754 12.597,2.406 0.903,0.372 1.2,0.743 1.2,1.27 0,0.223 -0.075,0.523 -0.153,0.898 l -1.047,3.829 c -0.152,0.593 -0.523,0.898 -1.05,0.898 -0.297,0 -0.524,-0.148 -0.825,-0.227 -2.773,-1.043 -6.074,-1.796 -9.222,-1.796 -5.93,0 -10.129,3.972 -10.731,9.746 l 21.981,0 c 1.875,0 2.472,0.382 2.472,2.175 l 0,0 z m -43.875,-16.343 0,21.968 c 0,8.176 -3.449,13.43 -11.851,13.43 -4.352,0 -8.696,-1.582 -12.149,-4.355 l -0.074,1.953 c -0.078,1.125 -0.75,1.426 -1.801,1.426 l -4.875,0 c -1.351,0 -1.875,-0.672 -1.875,-1.875 l 0,-32.704 c 0,-1.203 0.676,-1.796 1.797,-1.796 l 5.481,0 c 1.273,0 1.797,0.593 1.797,1.875 l 0,23.921 c 2.324,2.024 5.925,3.606 8.851,3.606 4.574,0 5.699,-2.93 5.699,-7.051 l 0,-20.398 c 0,-1.282 0.45,-1.953 1.801,-1.953 l 5.402,0 c 1.348,0 1.797,0.671 1.797,1.953 l 0,0 z m -45.148,-0.078 0,32.773 c 0,1.348 -0.68,1.727 -1.875,1.727 l -5.246,0 c -1.203,0 -1.953,-0.45 -1.953,-1.727 l 0,-32.773 c 0,-1.348 0.597,-1.875 1.953,-1.875 l 5.246,0 c 1.273,0 1.875,0.527 1.875,1.875 l 0,0 z m 0.449,44.023 c 0,2.996 -2.476,4.727 -5.023,4.727 -2.625,0 -5.102,-1.797 -5.102,-4.805 0,-3 2.625,-4.649 5.102,-4.649 2.476,0 5.023,1.805 5.023,4.727 l 0,0 z m -31.273,-35.02 c -1.5,-1.875 -4.801,-3.605 -7.727,-3.605 -2.023,0 -3.973,0.676 -5.324,2.023 -2.25,2.176 -3.0001,5.704 -3.0001,9 0,3.45 0.8981,7.278 3.2231,9.524 1.351,1.277 3.226,2.18 5.55,2.18 2.856,0 5.778,-1.653 7.278,-3.672 l 0,-15.45 z m 9.074,-8.41 0,32.102 c 0,1.277 -0.449,1.805 -1.801,1.805 l -4.949,0 c -1.121,0 -1.652,-0.379 -1.723,-1.348 l -0.152,-1.953 c -0.899,1.269 -2.399,2.402 -3.824,3 -1.727,0.75 -3.602,1.199 -5.399,1.199 -10.8748,0 -16.7263,-9.453 -16.7263,-19.5 0,-5.473 1.5742,-10.352 4.7226,-13.574 2.6289,-2.778 6.3787,-4.278 11.0277,-4.278 3.3,0 7.5,1.649 9.75,3.829 l 0,-3 c 0,-6.004 -1.578,-9.981 -9.078,-9.981 -2.622,0 -5.7,0.828 -8.3989,1.953 -0.375,0.149 -0.75,0.305 -1.1211,0.305 -0.5273,0 -0.8281,-0.527 -1.1289,-1.352 l -1.0508,-3.297 c -0.0742,-0.304 -0.2226,-0.605 -0.2226,-0.976 0,-0.676 0.375,-1.125 1.1992,-1.504 3.6015,-1.574 7.4301,-2.324 11.0981,-2.324 12.605,0 17.777,6.746 17.777,18.894 l 0,0 z m -44.4728,-0.515 0,21.968 c 0,8.176 -3.4492,13.43 -11.8515,13.43 -4.3516,0 -8.6954,-1.582 -12.1485,-4.355 l -0.0742,1.953 c -0.0781,1.125 -0.7539,1.426 -1.8008,1.426 l -4.875,0 c -1.3515,0 -1.8789,-0.672 -1.8789,-1.875 l 0,-32.704 c 0,-1.203 0.6797,-1.796 1.8008,-1.796 l 5.4727,0 c 1.2812,0 1.8046,0.593 1.8046,1.875 l 0,23.921 c 2.3243,2.024 5.9258,3.606 8.8516,3.606 4.5742,0 5.6992,-2.93 5.6992,-7.051 l 0,-20.398 c 0,-1.282 0.4492,-1.953 1.8008,-1.953 l 5.4023,0 c 1.3438,0 1.7969,0.671 1.7969,1.953 l 0,0 z m -43.1992,-0.157 0,4.278 c 0,1.199 -0.6016,1.726 -1.875,1.726 l -20.1016,0 0,15 17.3985,0 c 1.2773,0 1.7969,0.52 1.7969,1.797 l 0,4.278 c 0,1.046 -0.4454,1.652 -1.875,1.652 l -17.3204,0 0,13.57 18.8243,0 c 1.5742,0 2.3984,0.227 2.5507,1.574 l 0.5235,4.5 c 0,0.149 0,0.305 0,0.454 0,0.828 -0.3711,1.277 -1.5742,1.277 l -28.27348,0 c -1.20313,0 -1.72656,-0.672 -1.72656,-1.875 l 0,-48.008 c 0,-1.648 0.52343,-2.019 2.02734,-2.019 l 27.8242,0 c 1.2735,0 1.8008,0.593 1.8008,1.796 l 0,0" /><path
         id="path54"
         style="fill:#5f8ea2;fill-opacity:1;fill-rule:nonzero;stroke:none"
         d="m 471.035,154.309 c -1.5,2.175 -4.582,3.828 -7.43,3.828 -4.582,0 -8.484,-3.899 -8.484,-11.789 0,-6.297 2.402,-11.629 7.961,-11.629 3.676,0 6.828,2.769 7.953,5.105 l 0,14.485 z m 12.387,-24.7 c 0,-0.898 -0.602,-1.425 -1.496,-1.425 l -3.606,0 c -3.906,0 -5.629,1.875 -6.156,4.433 l -0.152,0 c -1.875,-2.781 -6.758,-5.332 -10.883,-5.332 -10.586,0 -15.391,8.699 -15.391,18.469 0,12.984 7.809,19.812 16.215,19.812 3.981,0 7.735,-1.796 9.61,-4.343 l 0.152,2.019 c 0.07,0.828 0.672,1.348 1.578,1.348 l 5.254,0 c 0.973,0 1.574,-0.52 1.574,-1.649 l 0,-26.046 c 0,-1.055 0.152,-1.805 0.449,-2.176 0.227,-0.227 0.528,-0.305 0.907,-0.305 l 0.593,0 c 0.903,0 1.352,-0.305 1.352,-1.277 l 0,-3.528" /><path
         id="path56"
         style="fill:#5f8ea2;fill-opacity:1;fill-rule:nonzero;stroke:none"
         d="m 524.824,130.137 c 0,-1.278 -0.449,-1.953 -1.801,-1.953 l -5.406,0 c -1.351,0 -1.801,0.675 -1.801,1.953 l 0,20.422 c 0,4.129 -1.128,7.05 -5.711,7.05 -2.921,0 -6.527,-1.574 -8.855,-3.593 l 0,-23.957 c 0,-1.282 -0.527,-1.875 -1.801,-1.875 l -5.48,0 c -1.125,0 -1.801,0.593 -1.801,1.804 l 0,32.727 c 0,1.203 0.523,1.875 1.875,1.875 l 4.879,0 c 1.055,0 1.726,-0.293 1.801,-1.426 l 0.078,-1.941 c 3.453,2.769 7.808,4.343 12.16,4.343 8.406,0 11.863,-5.253 11.863,-13.437 l 0,-21.992" /><path
         id="path58"
         style="fill:#5f8ea2;fill-opacity:1;fill-rule:nonzero;stroke:none"
         d="m 559.766,154.688 c -1.504,2.023 -4.356,3.671 -7.207,3.671 -6.082,0 -8.786,-5.703 -8.786,-11.855 0,-6.16 2.25,-11.863 8.336,-11.863 2.774,0 6.153,1.875 7.657,3.75 l 0,16.297 z m 9.082,-24.629 c 0,-1.282 -0.75,-1.875 -1.653,-1.875 l -4.875,0 c -1.203,0 -1.73,0.593 -1.8,1.504 l -0.153,2.023 c -2.105,-2.402 -6.308,-4.426 -10.211,-4.426 -10.886,0 -15.84,8.633 -15.84,18.692 0,10.507 5.856,19.668 16.442,19.668 3.379,0 6.902,-1.348 9.008,-3.528 l 0,16.887 c 0,1.355 0.375,1.887 1.578,2.031 l 6.301,0.828 c 0.906,0 1.203,-0.379 1.203,-1.504 l 0,-50.3" /></g></g></svg>