<?xml version="1.0" encoding="UTF-8" standalone="no"?>
<svg
   xmlns:dc="http://purl.org/dc/elements/1.1/"
   xmlns:cc="http://creativecommons.org/ns#"
   xmlns:rdf="http://www.w3.org/1999/02/22-rdf-syntax-ns#"
   xmlns:svg="http://www.w3.org/2000/svg"
   xmlns="http://www.w3.org/2000/svg"
   viewBox="0 0 159.41624 112.001"
   height="112.001"
   width="159.41624"
   xml:space="preserve"
   version="1.1"
   id="svg2"><metadata
     id="metadata8"><rdf:RDF><cc:Work
         rdf:about=""><dc:format>image/svg+xml</dc:format><dc:type
           rdf:resource="http://purl.org/dc/dcmitype/StillImage" /><dc:title></dc:title></cc:Work></rdf:RDF></metadata><defs
     id="defs6"><clipPath
       id="clipPath18"
       clipPathUnits="userSpaceOnUse"><path
         id="path20"
         d="m 0,0 1275.33,0 0,896.008 L 0,896.008 0,0 Z" /></clipPath></defs><g
     transform="matrix(1.25,0,0,-1.25,0,112.001)"
     id="g10"><g
       transform="scale(0.1,0.1)"
       id="g12"><g
         id="g14"><g
           clip-path="url(#clipPath18)"
           id="g16"><path
             id="path22"
             style="fill:#5f8ea2;fill-opacity:1;fill-rule:nonzero;stroke:none"
             d="M 24.1641,447.555 0,447.555 0,320 l 85.9727,0 0,23.027 c 0,0 -60.3633,0 -61.8086,0 0,1.465 0,104.528 0,104.528 l 0,0" /><path
             id="path24"
             style="fill:#5f8ea2;fill-opacity:1;fill-rule:nonzero;stroke:none"
             d="m 183.148,353.438 c 0,-0.782 -0.328,-1.536 -0.918,-2.129 l -7.371,-7.364 c -0.671,-0.664 -1.246,-0.918 -2.125,-0.918 l -28.164,0 c -0.879,0 -1.449,0.254 -2.121,0.918 l -7.371,7.364 c -0.59,0.593 -0.918,1.347 -0.918,2.129 l 0,94.117 -24.164,0 0,-97.907 c 0,-3.828 1.41,-7.187 4.188,-9.96 l 15.5,-15.508 c 2.777,-2.774 6.136,-4.18 9.972,-4.18 l 37.996,0 c 3.836,0 7.196,1.406 9.977,4.18 l 15.496,15.508 c 2.777,2.773 4.188,6.132 4.188,9.96 l 0,97.907 -24.165,0 0,-94.117" /><path
             id="path26"
             style="fill:#5f8ea2;fill-opacity:1;fill-rule:nonzero;stroke:none"
             d="m 722.93,447.555 c 0,0 0,-88.09 0,-94.828 -2.657,6.238 -40.364,94.828 -40.364,94.828 l -33.355,0 0,-127.555 23.594,0 c 0,0 0,88.086 0,94.824 C 675.461,408.586 713.152,320 713.152,320 l 33.371,0 0,127.555 -23.593,0 0,0" /><path
             id="path28"
             style="fill:#5f8ea2;fill-opacity:1;fill-rule:nonzero;stroke:none"
             d="m 265.609,357.324 c 0.012,0 63.145,35.989 63.145,35.989 4.996,2.839 8.062,7.136 8.195,12.773 l 0,41.469 -94.211,0 0,-23.032 70.039,0 0,-11.574 c 0,-1.152 -0.828,-2.148 -1.82,-2.715 -0.004,-0.007 -63.141,-36.191 -63.141,-36.191 -4.964,-2.844 -8.074,-7.141 -8.187,-12.773 l 0,-41.27 97.32,0 0,23.027 c 0,0 -71.707,0 -73.156,0 0,1.368 0,11.575 0,11.575 0,1.16 0.832,2.156 1.816,2.722 l 0,0" /><path
             id="path30"
             style="fill:#5f8ea2;fill-opacity:1;fill-rule:nonzero;stroke:none"
             d="m 536.586,392.734 0,31.789 c 1.434,0 41.789,0 41.789,0 0.879,0 1.449,-0.246 2.121,-0.918 l 4.156,-4.152 c 0.668,-0.676 0.918,-1.25 0.918,-2.129 l 0,-17.383 c 0,-0.886 -0.25,-1.464 -0.918,-2.128 l -4.156,-4.161 c -0.672,-0.664 -1.242,-0.918 -2.121,-0.918 0,0 -40.355,0 -41.789,0 l 0,0 z m 64.777,-49.707 c -8.375,10.696 -20.136,25.703 -20.898,26.68 1.344,0 3.012,0 3.012,0 3.714,0 6.949,1.348 9.597,3.992 l 12.473,12.485 c 2.82,2.808 4.187,6.082 4.187,9.968 l 0,24.953 c 0,3.895 -1.367,7.157 -4.187,9.969 l -12.473,12.481 c -2.652,2.656 -5.883,4 -9.597,4 l -86.582,0 0,-23.032 15.527,0 0,-104.523 24.164,0 c 0,0 0,48.262 0,49.707 1.328,0 13.059,0 13.059,0 1.097,0 1.996,-0.469 2.597,-1.367 0.028,-0.047 37.485,-48.34 37.485,-48.34 l 7.265,0 19.903,0 0,23.027 -15.532,0 0,0" /><path
             id="path32"
             style="fill:#5f8ea2;fill-opacity:1;fill-rule:nonzero;stroke:none"
             d="m 469.055,424.707 0,23.035 -101.504,0 0,-23.023 15.531,0 0,-104.531 85.973,0 0,23.027 c 0,0 -60.364,0 -61.809,0 l 0,29.324 c 1.445,0 46.277,0 46.277,0 l 0,23.027 c 0,0 -44.832,0 -46.277,0 l 0,29.141 c 1.445,0 61.809,0 61.809,0 l 0,0" /><path
             id="path34"
             style="fill:#2d3f4c;fill-opacity:1;fill-rule:nonzero;stroke:none"
             d="m 73.1484,638.891 c 0,0 0,-50.727 0,-52.172 l -48.9843,0 c 0,1.445 0,52.172 0,52.172 l -24.1641,0 0,-127.559 24.1641,0 c 0,0 0,50.918 0,52.359 l 48.9843,0 c 0,-1.441 0,-52.359 0,-52.359 l 24.168,0 0,127.559 -24.168,0 0,0" /><path
             id="path36"
             style="fill:#2d3f4c;fill-opacity:1;fill-rule:nonzero;stroke:none"
             d="m 219.648,605.449 0,-60.672 c 0,-0.777 -0.324,-1.535 -0.914,-2.125 l -7.371,-7.375 c -0.672,-0.664 -1.246,-0.914 -2.125,-0.914 l -39.508,0 c -0.875,0 -1.449,0.25 -2.117,0.914 l -7.375,7.375 c -0.59,0.59 -0.918,1.348 -0.918,2.125 l 0,60.672 c 0,0.778 0.328,1.535 0.918,2.125 l 7.375,7.371 c 0.668,0.664 1.242,0.914 2.117,0.914 l 39.508,0 c 0.879,0 1.453,-0.25 2.125,-0.914 l 7.371,-7.371 c 0.59,-0.59 0.914,-1.347 0.914,-2.125 l 0,0 z m 19.981,13.754 -15.496,15.504 c -2.781,2.777 -6.141,4.184 -9.977,4.184 l -49.336,0 c -3.843,0 -7.199,-1.407 -9.976,-4.184 l -15.496,-15.504 c -2.782,-2.777 -4.192,-6.133 -4.192,-9.973 l 0,-68.234 c 0,-3.844 1.41,-7.195 4.192,-9.976 l 15.496,-15.5 c 2.777,-2.778 6.133,-4.188 9.976,-4.188 l 49.336,0 c 3.84,0 7.196,1.41 9.977,4.188 l 15.496,15.5 c 2.777,2.773 4.184,6.132 4.184,9.976 l 0,68.234 c 0,3.84 -1.407,7.196 -4.184,9.973 l 0,0" /><path
             id="path38"
             style="fill:#2d3f4c;fill-opacity:1;fill-rule:nonzero;stroke:none"
             d="m 344.02,535.277 c -0.668,-0.664 -1.247,-0.914 -2.125,-0.914 l -31.188,0 c -0.879,0 -1.453,0.25 -2.121,0.914 l -7.375,7.375 c -0.59,0.59 -0.914,1.348 -0.914,2.125 l 0,60.672 c 0,0.778 0.324,1.535 0.914,2.125 l 7.375,7.371 c 0.668,0.664 1.242,0.914 2.121,0.914 l 31.188,0 c 0.878,0 1.457,-0.25 2.125,-0.914 l 13.375,-13.379 16.367,16.168 -16.977,16.973 c -2.777,2.777 -6.133,4.184 -9.976,4.184 l -41.02,0 c -3.836,0 -7.195,-1.407 -9.973,-4.184 l -15.5,-15.504 c -2.777,-2.777 -4.183,-6.133 -4.183,-9.973 l 0,-68.234 c 0,-3.844 1.406,-7.195 4.183,-9.976 l 15.5,-15.5 c 2.778,-2.778 6.137,-4.188 9.973,-4.188 l 41.02,0 c 3.843,0 7.199,1.41 9.976,4.188 l 16.977,16.968 -16.367,16.168 -13.375,-13.379 0,0" /><path
             id="path40"
             style="fill:#2d3f4c;fill-opacity:1;fill-rule:nonzero;stroke:none"
             d="m 476.461,638.891 c 0,0 0,-50.727 0,-52.172 l -48.984,0 c 0,1.445 0,52.172 0,52.172 l -24.164,0 0,-127.559 24.164,0 c 0,0 0,50.918 0,52.359 l 48.984,0 c 0,-1.441 0,-52.359 0,-52.359 l 24.164,0 0,127.559 -24.164,0 0,0" /><path
             id="path42"
             style="fill:#2d3f4c;fill-opacity:1;fill-rule:nonzero;stroke:none"
             d="m 738.691,535.277 c -0.671,-0.664 -1.242,-0.914 -2.128,-0.914 l -31.18,0 c -0.879,0 -1.457,0.25 -2.129,0.914 l -7.363,7.375 c -0.598,0.59 -0.918,1.348 -0.918,2.125 l 0,60.672 c 0,0.778 0.32,1.535 0.918,2.125 l 7.363,7.371 c 0.672,0.664 1.25,0.914 2.129,0.914 l 31.18,0 c 0.878,0 1.457,-0.25 2.128,-0.914 l 13.372,-13.379 16.367,16.168 -16.977,16.973 c -2.769,2.777 -6.133,4.184 -9.969,4.184 l -41.023,0 c -3.84,0 -7.199,-1.407 -9.973,-4.184 l -15.5,-15.504 c -2.781,-2.777 -4.187,-6.133 -4.187,-9.973 l 0,-68.234 c 0,-3.844 1.406,-7.203 4.187,-9.976 l 15.5,-15.5 c 2.774,-2.778 6.133,-4.188 9.973,-4.188 l 41.023,0 c 3.836,0 7.2,1.41 9.969,4.188 l 16.977,16.968 -16.367,16.168 -13.372,-13.379 0,0" /><path
             id="path44"
             style="fill:#2d3f4c;fill-opacity:1;fill-rule:nonzero;stroke:none"
             d="m 871.133,638.891 c 0,0 0,-50.727 0,-52.172 l -48.985,0 c 0,1.445 0,52.172 0,52.172 l -24.168,0 0,-127.559 24.168,0 c 0,0 0,50.918 0,52.359 l 48.985,0 c 0,-1.441 0,-52.359 0,-52.359 l 24.172,0 0,127.559 -24.172,0 0,0" /><path
             id="path46"
             style="fill:#2d3f4c;fill-opacity:1;fill-rule:nonzero;stroke:none"
             d="m 1009.06,638.891 0,-94.114 c 0,-0.777 -0.33,-1.535 -0.93,-2.125 l -7.36,-7.375 c -0.67,-0.664 -1.25,-0.914 -2.125,-0.914 l -28.165,0 c -0.878,0 -1.449,0.25 -2.121,0.914 l -7.375,7.375 c -0.586,0.59 -0.918,1.348 -0.918,2.125 l 0,94.114 -24.168,0 0,-97.895 c 0,-3.844 1.407,-7.195 4.192,-9.976 l 15.496,-15.5 c 2.773,-2.778 6.133,-4.188 9.973,-4.188 l 37.991,0 c 3.85,0 7.21,1.41 9.98,4.188 0,0 15.5,15.496 15.5,15.5 2.78,2.773 4.19,6.132 4.19,9.976 l 0,97.895 -24.16,0 0,0" /><path
             id="path48"
             style="fill:#2d3f4c;fill-opacity:1;fill-rule:nonzero;stroke:none"
             d="m 1097.99,534.363 c 0,1.461 0,104.528 0,104.528 l -24.16,0 0,-127.559 85.96,0 0,23.031 c 0,0 -60.35,0 -61.8,0 l 0,0" /><path
             id="path50"
             style="fill:#2d3f4c;fill-opacity:1;fill-rule:nonzero;stroke:none"
             d="m 627.559,581.234 -64.93,9.075 c -1.535,0.156 -2.762,1.515 -2.762,3.046 l 0,12.098 c 0,0.777 0.328,1.531 0.918,2.121 l 7.375,7.371 c 0.668,0.668 1.242,0.918 2.121,0.918 l 36.383,0 c 0.875,0 1.449,-0.25 2.121,-0.918 l 13.192,-13.191 16.164,16.367 -16.586,16.586 c -2.782,2.777 -6.133,4.191 -9.977,4.191 l -46.211,0 c -3.844,0 -7.199,-1.414 -9.976,-4.191 l -15.496,-15.496 c -2.782,-2.785 -4.192,-6.141 -4.192,-9.977 l 0,-24.761 c 0.188,-7.696 6.016,-14.496 13.692,-15.485 l 64.742,-9.066 c 1.586,-0.16 2.953,-1.582 2.953,-3.047 l 0,-12.098 c 0,-0.777 -0.332,-1.531 -0.918,-2.125 l -7.371,-7.371 c -0.672,-0.668 -1.246,-0.918 -2.125,-0.918 l -42.906,0 c -0.879,0 -1.457,0.25 -2.125,0.918 l -13.192,13.196 -16.164,-16.368 16.59,-16.586 c 2.777,-2.781 6.133,-4.191 9.973,-4.191 l 52.742,0 c 3.836,0 7.195,1.41 9.969,4.191 l 15.503,15.497 c 2.778,2.781 4.079,6.132 4.184,9.976 l 0,24.762 c 0,7.695 -6.012,14.496 -13.691,15.476 l 0,0" /><path
             id="path52"
             style="fill:#2d3f4c;fill-opacity:1;fill-rule:nonzero;stroke:none"
             d="m 1275.33,615.859 0,23.032 -101.5,0 0,-23.028 15.52,0 0,-104.531 85.98,0 0,23.031 c 0,0 -60.37,0 -61.81,0 l 0,29.328 c 1.44,0 46.27,0 46.27,0 l 0,23.028 c 0,0 -44.83,0 -46.27,0 l 0,29.14 c 1.44,0 61.81,0 61.81,0 l 0,0" /><path
             id="path54"
             style="fill:#2d3f4c;fill-opacity:1;fill-rule:nonzero;stroke:none"
             d="m 715.266,893.609 c 0,0.45 -0.149,0.825 -0.903,1.121 -1.875,0.754 -4.578,1.278 -6.824,1.278 -6.973,0 -10.945,-3.899 -11.848,-10.422 -0.156,-1.352 -0.3,-3.301 -0.3,-6.004 l 0,-1.422 -4.356,0 c -0.742,0 -1.047,-0.305 -1.047,-1.051 l 0,-2.324 c 0,-0.976 0.149,-1.129 0.981,-1.129 l 4.422,0 0,-30.148 c 0,-1.051 0.449,-1.574 1.425,-1.574 l 3.528,0 c 1.043,0 1.426,0.601 1.426,1.652 l 0,30.07 9.293,0 c 0.753,0 1.054,0.301 1.054,1.051 l 0,2.551 c 0,0.75 -0.379,0.902 -1.133,0.902 l -9.214,0 0,3.524 c 0,5.851 1.421,9.226 6.523,9.226 1.719,0 3.75,-0.527 4.949,-0.976 0.227,-0.075 0.449,-0.149 0.676,-0.149 0.367,0 0.594,0.227 0.75,0.746 l 0.52,2.324 c 0.078,0.305 0.078,0.528 0.078,0.754 l 0,0 z m -39.004,-33.597 c 0,-6.981 -2.778,-13.879 -10.649,-13.879 -7.945,0 -10.269,7.277 -10.269,14.176 0,6.601 2.469,13.726 10.574,13.726 7.793,0 10.344,-7.051 10.344,-14.023 l 0,0 z m 6.597,0.07 c 0,10.875 -5.242,18.902 -16.875,18.902 -11.171,0 -17.246,-8.25 -17.246,-18.828 0,-10.722 5.18,-18.972 16.797,-18.972 11.184,0 17.324,8.324 17.324,18.898 l 0,0 z m -60.144,17.324 c 0,0.449 -0.297,0.754 -0.973,0.754 l -4.125,0 c -0.902,0 -1.273,-0.305 -1.578,-1.129 l -9.445,-27.898 -9.754,28.051 c -0.223,0.671 -0.672,0.976 -1.426,0.976 l -4.949,0 c -0.602,0 -0.824,-0.305 -0.824,-0.754 0,-0.148 0,-0.375 0.078,-0.519 l 13.422,-35.555 -1.95,-4.797 c -1.578,-3.902 -4.05,-5.555 -8.171,-5.555 -0.754,0 -1.805,0.153 -2.629,0.227 -0.153,0 -0.223,0 -0.301,0 -0.676,0 -1.051,-0.297 -1.125,-1.051 l -0.375,-2.851 c 0,-0.145 0,-0.223 0,-0.371 0,-0.528 0.148,-0.977 0.824,-1.129 1.129,-0.223 2.25,-0.297 3.375,-0.297 8.102,0 11.852,3.148 15.149,12.004 l 14.628,39.222 c 0.075,0.223 0.149,0.45 0.149,0.672 l 0,0 z M 583.492,843.73 c 0,0.079 -0.074,0.153 -0.074,0.305 l -0.602,2.395 c -0.148,0.527 -0.527,0.754 -0.902,0.754 -0.144,0 -0.297,0 -0.449,-0.075 -1.199,-0.375 -2.996,-0.902 -4.723,-0.902 -1.953,0 -3.301,0.602 -4.125,1.5 -1.129,1.277 -1.273,3.227 -1.273,5.703 l 0,20.246 8.773,0 c 0.746,0 1.121,0.227 1.121,0.977 l 0,2.551 c 0,0.824 -0.375,0.976 -1.047,0.976 l -8.847,0 0,9.223 c 0,0.824 -0.375,1.351 -1.129,1.351 -0.074,0 -0.227,0 -0.297,0 l -3.68,-0.527 c -0.972,-0.148 -1.273,-0.449 -1.273,-1.496 l 0,-8.551 -4.277,0 c -0.672,0 -0.969,-0.305 -0.969,-1.051 l 0,-2.324 c 0,-0.976 0.144,-1.129 1.121,-1.129 l 4.125,0 0,-19.648 c 0,-4.653 0.152,-7.649 2.324,-10.051 1.727,-1.875 4.953,-2.773 8.176,-2.773 2.555,0 5.254,0.597 6.976,1.351 0.602,0.223 1.051,0.602 1.051,1.195 l 0,0 z m -33.527,-0.222 0,33.152 c 0,1.047 -0.449,1.5 -1.426,1.5 l -3.445,0 c -0.977,0 -1.504,-0.453 -1.504,-1.5 l 0,-33.152 c 0,-1.051 0.527,-1.574 1.504,-1.574 l 3.445,0 c 0.977,0 1.426,0.523 1.426,1.574 l 0,0 z m 0.676,43.5 c 0,2.176 -1.875,3.601 -3.903,3.601 -2.019,0 -3.824,-1.425 -3.824,-3.601 0,-2.172 1.805,-3.598 3.824,-3.598 1.953,0 3.903,1.426 3.903,3.598 l 0,0 z M 533.02,852.359 c 0,4.801 -3.379,7.797 -7.5,9.528 l -5.852,2.468 c -3.152,1.352 -4.652,2.555 -4.652,5.102 0,2.551 2.175,4.648 6.152,4.648 2.395,0 5.922,-0.898 7.875,-1.796 0.227,-0.079 0.449,-0.149 0.598,-0.149 0.375,0 0.675,0.223 0.824,0.75 l 0.824,2.621 c 0.078,0.227 0.152,0.449 0.152,0.602 0,0.297 -0.226,0.527 -0.675,0.754 -3.371,1.57 -6.524,2.097 -9.75,2.097 -6.602,0 -12.598,-3.375 -12.598,-9.976 0,-4.727 3.301,-7.723 7.727,-9.453 l 5.023,-1.946 c 3.445,-1.347 5.625,-2.925 5.625,-5.851 0,-3.524 -2.926,-5.625 -7.277,-5.625 -2.547,0 -6.153,1.051 -8.926,2.25 -0.152,0.074 -0.297,0.074 -0.449,0.074 -0.375,0 -0.672,-0.297 -0.825,-0.75 l -0.976,-2.695 c -0.074,-0.153 -0.074,-0.305 -0.074,-0.457 0,-0.375 0.226,-0.746 0.75,-0.969 2.472,-1.129 6.449,-2.402 10.277,-2.402 7.949,0 13.727,4.277 13.727,11.175 l 0,0 z m -30.754,25.125 c 0,0.149 0,0.223 0,0.371 0,0.45 -0.149,0.829 -0.602,0.907 -0.746,0.144 -1.644,0.222 -2.172,0.222 -3.972,0 -6.824,-2.25 -8.629,-4.726 l -0.07,2.551 c 0,0.976 -0.527,1.351 -1.5,1.351 l -3.23,0 c -0.895,0 -1.422,-0.375 -1.422,-1.5 l 0,-33.152 c 0,-1.051 0.453,-1.574 1.422,-1.574 l 3.527,0 c 0.976,0 1.426,0.601 1.426,1.574 l 0,25.574 c 1.953,2.773 4.875,4.504 7.5,4.504 0.754,0 1.504,-0.078 2.175,-0.227 0.075,0 0.149,0 0.227,0 0.449,0 0.746,0.227 0.824,0.746 l 0.524,3.379 0,0 z m -34.121,-14.027 -18.829,0 c 0.602,5.551 4.125,10.578 10.352,10.578 5.699,0 8.477,-4.426 8.477,-9.527 l 0,-1.051 z m 6.296,-2.25 0,1.273 c 0,4.879 -1.273,9.301 -4.273,12.379 -2.477,2.547 -5.926,4.125 -10.203,4.125 -10.801,0 -17.477,-8.179 -17.477,-18.902 0,-11.32 6.157,-18.898 17.703,-18.898 3.454,0 8.25,0.671 11.473,2.175 0.602,0.297 0.902,0.524 0.902,0.973 0,0.078 0,0.223 -0.078,0.375 l -0.824,2.773 c -0.144,0.528 -0.519,0.68 -0.898,0.68 -0.223,0 -0.45,-0.078 -0.746,-0.152 -2.477,-0.977 -5.926,-1.578 -9.004,-1.578 -7.575,0 -11.621,5.554 -11.852,12.675 l 23.027,0 c 1.95,0 2.25,0.379 2.25,2.102 l 0,0 z m -38.773,16.199 c 0,0.528 -0.375,0.754 -1.199,0.754 l -3.453,0 c -1.043,0 -1.575,-0.305 -1.875,-1.203 l -6.746,-20.398 c -0.903,-2.7 -1.805,-5.625 -2.254,-7.204 l -0.075,0 c -0.523,1.731 -1.421,4.43 -2.398,7.426 l -6.75,20.328 c -0.227,0.746 -0.676,1.051 -1.801,1.051 l -4.129,0 c -0.746,0 -1.121,-0.305 -1.121,-0.824 0,-0.152 0,-0.379 0.074,-0.527 l 12.297,-33.672 c 0.305,-0.832 0.828,-1.203 1.805,-1.203 l 3.301,0 c 0.824,0 1.347,0.296 1.722,1.203 l 12.454,33.672 c 0.078,0.222 0.148,0.449 0.148,0.597 l 0,0 z m -41.328,-33.898 0,33.152 c 0,1.047 -0.449,1.5 -1.426,1.5 l -3.445,0 c -0.977,0 -1.5,-0.453 -1.5,-1.5 l 0,-33.152 c 0,-1.051 0.523,-1.574 1.5,-1.574 l 3.445,0 c 0.977,0 1.426,0.523 1.426,1.574 l 0,0 z m 0.68,43.5 c 0,2.176 -1.875,3.601 -3.903,3.601 -2.023,0 -3.828,-1.425 -3.828,-3.601 0,-2.172 1.805,-3.598 3.828,-3.598 1.949,0 3.903,1.426 3.903,3.598 l 0,0 z m -20.403,-43.5 0,22.051 c 0,8.171 -3.301,13.425 -11.922,13.425 -4.351,0 -8.851,-1.578 -12.304,-4.5 l -0.075,2.325 c 0,0.976 -0.519,1.351 -1.425,1.351 l -3.301,0 c -1.047,0 -1.418,-0.453 -1.418,-1.5 l 0,-33.226 c 0,-0.977 0.519,-1.5 1.418,-1.5 l 3.527,0 c 0.977,0 1.426,0.523 1.426,1.574 l 0,25.801 c 2.625,2.402 6.898,4.347 10.352,4.347 6,0 7.347,-3.82 7.347,-9.148 l 0,-21 c 0,-1.051 0.453,-1.574 1.426,-1.574 l 3.523,0 c 1.051,0 1.426,0.523 1.426,1.574 l 0,0 z m -43.648,21 0,27.601 c 0,0.977 -0.371,1.5 -1.422,1.5 l -4.055,0 c -0.972,0 -1.5,-0.523 -1.5,-1.5 l 0,-26.402 c 0,-9.676 -1.496,-18.676 -13.5,-18.676 -12.449,0 -13.722,8.551 -13.722,18.606 l 0,26.472 c 0,0.977 -0.375,1.5 -1.426,1.5 l -4.121,0 c -0.981,0 -1.426,-0.523 -1.426,-1.5 l 0,-27.152 c 0,-14.625 4.348,-23.773 20.625,-23.773 14.848,0 20.547,9.597 20.547,23.324 l 0,0 z m -78.371,-1.051 -18.828,0 c 0.601,5.551 4.125,10.578 10.351,10.578 5.699,0 8.477,-4.426 8.477,-9.527 l 0,-1.051 z m 6.297,-2.25 0,1.273 c 0,4.879 -1.274,9.301 -4.278,12.379 -2.472,2.547 -5.922,4.125 -10.199,4.125 -10.801,0 -17.477,-8.179 -17.477,-18.902 0,-11.32 6.157,-18.898 17.704,-18.898 3.453,0 8.25,0.671 11.472,2.175 0.602,0.297 0.903,0.524 0.903,0.973 0,0.078 0,0.223 -0.079,0.375 l -0.824,2.773 c -0.144,0.528 -0.519,0.68 -0.898,0.68 -0.223,0 -0.449,-0.078 -0.746,-0.152 -2.477,-0.977 -5.926,-1.578 -9.004,-1.578 -7.574,0 -11.621,5.554 -11.852,12.675 l 23.028,0 c 1.949,0 2.25,0.379 2.25,2.102 l 0,0 z m -42.602,-17.699 0,22.051 c 0,8.171 -3.297,13.425 -11.922,13.425 -4.351,0 -8.848,-1.578 -12.301,-4.5 l -0.074,2.325 c 0,0.976 -0.527,1.351 -1.426,1.351 l -3.3,0 c -1.047,0 -1.426,-0.453 -1.426,-1.5 l 0,-33.226 c 0,-0.977 0.527,-1.5 1.426,-1.5 l 3.527,0 c 0.976,0 1.426,0.523 1.426,1.574 l 0,25.801 c 2.621,2.402 6.898,4.347 10.351,4.347 5.996,0 7.348,-3.82 7.348,-9.148 l 0,-21 c 0,-1.051 0.449,-1.574 1.426,-1.574 l 3.523,0 c 1.051,0 1.422,0.523 1.422,1.574 l 0,0 z m -39.07,33.976 c 0,0.149 0,0.223 0,0.371 0,0.45 -0.153,0.829 -0.602,0.907 -0.754,0.144 -1.648,0.222 -2.172,0.222 -3.98,0 -6.828,-2.25 -8.629,-4.726 l -0.074,2.551 c 0,0.976 -0.527,1.351 -1.5,1.351 l -3.226,0 c -0.899,0 -1.426,-0.375 -1.426,-1.5 l 0,-33.152 c 0,-1.051 0.449,-1.574 1.426,-1.574 l 3.527,0 c 0.976,0 1.426,0.601 1.426,1.574 l 0,25.574 c 1.949,2.773 4.871,4.504 7.5,4.504 0.746,0 1.5,-0.078 2.172,-0.227 0.078,0 0.152,0 0.222,0 0.457,0 0.754,0.227 0.828,0.746 l 0.528,3.379 0,0 z m -34.125,-14.027 -18.825,0 c 0.598,5.551 4.125,10.578 10.352,10.578 5.695,0 8.473,-4.426 8.473,-9.527 l 0,-1.051 z m 6.3,-2.25 0,1.273 c 0,4.879 -1.277,9.301 -4.277,12.379 -2.476,2.547 -5.922,4.125 -10.199,4.125 -10.801,0 -17.477,-8.179 -17.477,-18.902 0,-11.32 6.153,-18.898 17.7,-18.898 3.453,0 8.253,0.671 11.476,2.175 0.602,0.297 0.902,0.524 0.902,0.973 0,0.078 0,0.223 -0.078,0.375 l -0.824,2.773 c -0.144,0.528 -0.523,0.68 -0.898,0.68 -0.227,0 -0.45,-0.078 -0.75,-0.152 -2.477,-0.977 -5.926,-1.578 -9,-1.578 -7.575,0 -11.625,5.554 -11.852,12.675 l 23.027,0 c 1.95,0 2.25,0.379 2.25,2.102 l 0,0 z m -38.777,-16.875 c 0,0.223 -0.074,0.527 -0.148,0.824 l -0.676,2.102 c -0.149,0.527 -0.371,0.75 -0.75,0.75 -0.152,0 -0.375,-0.078 -0.602,-0.153 -2.398,-1.046 -5.175,-1.8 -8.394,-1.8 -8.0276,0 -11.3283,6.601 -11.3283,14.254 0,8.398 4.5,13.726 11.6253,13.726 2.922,0 5.472,-0.828 7.8,-1.875 0.227,-0.152 0.524,-0.226 0.676,-0.226 0.449,0 0.672,0.375 0.824,0.898 l 0.602,2.402 c 0.07,0.227 0.145,0.375 0.145,0.598 0,0.453 -0.223,0.75 -0.747,0.977 -2.628,1.351 -6.378,2.175 -9.597,2.175 -11.2541,0 -17.926,-7.949 -17.926,-18.972 0,-11.18 5.6992,-18.828 17.4727,-18.828 3.4493,0 6.9023,0.671 10.1253,2.175 0.672,0.297 0.898,0.524 0.898,0.973 l 0,0 z m -38.9999,-0.746 0,33.074 c 0,1.047 -0.4492,1.5 -1.4219,1.5 l -3.5234,0 c -0.9766,0 -1.4258,-0.453 -1.4258,-1.5 l 0,-25.574 c -2.4023,-2.254 -6.6016,-4.43 -9.9023,-4.43 -6.0039,0 -7.1993,3.75 -7.1993,9.078 l 0,20.926 c 0,1.047 -0.5273,1.5 -1.4961,1.5 l -3.3789,0 c -0.9726,0 -1.5,-0.453 -1.5,-1.5 l 0,-21.902 c 0,-8.024 3.1485,-13.574 11.7774,-13.574 4.3515,0 8.3984,1.574 11.8515,4.5 l 0.0704,-2.325 c 0,-0.902 0.5234,-1.425 1.4257,-1.425 l 3.2227,0 c 1.0508,0 1.5,0.523 1.5,1.652 l 0,0 z m -38.6953,-0.379 0,3.078 c 0,0.899 -0.3789,1.195 -1.4258,1.195 l -18.8281,0 0,44.551 c 0,1.129 -0.4492,1.578 -1.5,1.578 l -4.0469,0 c -0.97656,0 -1.42578,-0.601 -1.42578,-1.578 l 0,-48.445 c 0,-1.203 0.51953,-1.652 1.5,-1.652 l 24.45308,0 c 0.8946,0 1.2735,0.296 1.2735,1.273 l 0,0" /><path
             id="path56"
             style="fill:#2d3f4c;fill-opacity:1;fill-rule:nonzero;stroke:none"
             d="m 858.508,756.691 c 0,4.797 -3.371,7.797 -7.5,9.52 l -5.852,2.477 c -3.144,1.351 -4.648,2.55 -4.648,5.101 0,2.551 2.18,4.649 6.152,4.649 2.403,0 5.93,-0.899 7.871,-1.797 0.227,-0.078 0.457,-0.153 0.606,-0.153 0.371,0 0.676,0.227 0.82,0.746 l 0.828,2.629 c 0.078,0.227 0.149,0.45 0.149,0.602 0,0.297 -0.223,0.519 -0.672,0.746 -3.379,1.578 -6.528,2.105 -9.746,2.105 -6.606,0 -12.61,-3.378 -12.61,-9.976 0,-4.727 3.301,-7.727 7.727,-9.453 l 5.027,-1.949 c 3.445,-1.352 5.625,-2.922 5.625,-5.848 0,-3.527 -2.922,-5.625 -7.273,-5.625 -2.551,0 -6.157,1.051 -8.926,2.25 -0.148,0.074 -0.305,0.074 -0.449,0.074 -0.371,0 -0.676,-0.301 -0.824,-0.754 l -0.973,-2.699 c -0.078,-0.145 -0.078,-0.297 -0.078,-0.449 0,-0.371 0.222,-0.746 0.75,-0.973 2.468,-1.129 6.445,-2.402 10.273,-2.402 7.949,0 13.723,4.277 13.723,11.179 l 0,0 z m -30.598,-8.628 c 0,0.078 -0.078,0.152 -0.078,0.3 l -0.598,2.399 c -0.156,0.527 -0.523,0.754 -0.894,0.754 -0.156,0 -0.305,0 -0.449,-0.075 -1.203,-0.375 -3.008,-0.906 -4.731,-0.906 -1.949,0 -3.301,0.602 -4.129,1.5 -1.125,1.281 -1.269,3.231 -1.269,5.703 l 0,20.25 8.769,0 c 0.75,0 1.133,0.227 1.133,0.977 l 0,2.551 c 0,0.824 -0.383,0.972 -1.055,0.972 l -8.847,0 0,9.227 c 0,0.824 -0.379,1.348 -1.121,1.348 -0.078,0 -0.227,0 -0.305,0 l -3.672,-0.524 c -0.976,-0.152 -1.277,-0.449 -1.277,-1.5 l 0,-8.551 -4.282,0 c -0.671,0 -0.972,-0.3 -0.972,-1.047 l 0,-2.332 c 0,-0.968 0.152,-1.121 1.133,-1.121 l 4.121,0 0,-19.648 c 0,-4.652 0.144,-7.652 2.324,-10.055 1.727,-1.875 4.949,-2.773 8.172,-2.773 2.551,0 5.254,0.601 6.98,1.351 0.598,0.227 1.047,0.598 1.047,1.2 l 0,0 z m -28.43,33.75 c 0,0.152 0,0.222 0,0.375 0,0.449 -0.144,0.824 -0.593,0.898 -0.75,0.152 -1.653,0.23 -2.176,0.23 -3.977,0 -6.828,-2.25 -8.625,-4.726 l -0.078,2.547 c 0,0.976 -0.52,1.351 -1.492,1.351 l -3.235,0 c -0.898,0 -1.418,-0.375 -1.418,-1.504 l 0,-33.148 c 0,-1.051 0.45,-1.57 1.418,-1.57 l 3.528,0 c 0.972,0 1.421,0.597 1.421,1.57 l 0,25.578 c 1.958,2.774 4.883,4.5 7.5,4.5 0.754,0 1.504,-0.078 2.18,-0.223 0.078,0 0.149,0 0.227,0 0.449,0 0.75,0.223 0.816,0.747 l 0.527,3.375 0,0 z m -40.269,-15.075 -15.82,0 6.152,17.028 c 0.965,2.773 1.492,4.269 1.875,5.472 l 0.066,0 c 0.301,-1.05 0.829,-2.699 1.731,-5.328 l 5.996,-17.172 0,0 z m 14.551,-19.648 c 0,0.226 -0.071,0.449 -0.149,0.746 l -18.523,49.199 c -0.227,0.602 -0.676,0.906 -1.352,0.906 l -3.972,0 c -0.684,0 -1.133,-0.449 -1.36,-1.05 L 729.59,747.766 c -0.078,-0.305 -0.156,-0.532 -0.156,-0.754 0,-0.449 0.222,-0.746 0.832,-0.746 l 4.422,0 c 1.042,0 1.347,0.297 1.73,1.273 l 5.164,14.024 19.434,0 4.953,-13.95 c 0.371,-1.125 0.742,-1.347 2.019,-1.347 l 4.649,0 c 0.832,0 1.125,0.297 1.125,0.824 l 0,0 z m -78.449,8.473 c -1.875,-2.704 -5.926,-4.95 -9.454,-4.95 -6.523,0 -10.046,5.926 -10.046,13.875 0,8.25 3.906,13.797 10.652,13.797 3.672,0 7.273,-2.394 8.848,-5.25 l 0,-17.472 z m 6.375,-7.727 0,50.48 c 0,0.899 -0.379,1.274 -1.122,1.274 -0.156,0 -0.222,0 -0.378,0 l -3.672,-0.527 c -0.981,-0.153 -1.203,-0.602 -1.203,-1.571 l 0,-18.301 c -2.176,2.622 -6.297,4.2 -9.747,4.2 -9.902,0 -16.355,-8.176 -16.355,-19.2 0,-9.828 4.656,-18.679 15.445,-18.679 4.282,0 8.637,2.027 11.028,4.879 l 0.078,-2.7 c 0,-0.976 0.449,-1.425 1.574,-1.425 l 3.23,0 c 0.672,0 1.122,0.597 1.122,1.57 l 0,0 z m -42.821,0 0,22.051 c 0,8.176 -3.301,13.429 -11.929,13.429 -4.348,0 -8.848,-1.578 -12.297,-4.503 l -0.075,2.324 c 0,0.976 -0.527,1.351 -1.425,1.351 l -3.301,0 c -1.051,0 -1.426,-0.453 -1.426,-1.504 l 0,-33.218 c 0,-0.981 0.527,-1.5 1.426,-1.5 l 3.523,0 c 0.977,0 1.426,0.519 1.426,1.57 l 0,25.801 c 2.621,2.402 6.899,4.351 10.348,4.351 6,0 7.351,-3.824 7.351,-9.148 l 0,-21.004 c 0,-1.051 0.45,-1.57 1.43,-1.57 l 3.523,0 c 1.043,0 1.426,0.519 1.426,1.57 l 0,0 z m -49.652,10.578 c -1.348,-3.75 -5.176,-7.574 -9.977,-7.574 -5.398,0 -9.222,5.098 -9.222,13.351 0,8.922 4.347,14.024 10.121,14.024 3.601,0 7.273,-2.027 9.078,-5.402 l 0,-14.399 z m 9.598,-11.18 0,2.555 c 0,0.824 -0.375,0.973 -1.047,0.973 l -0.524,0 c -0.601,0 -0.976,0.152 -1.273,0.679 -0.305,0.45 -0.379,1.645 -0.379,3.375 l 0,26.25 c 0,0.969 -0.453,1.422 -1.352,1.422 l -3.375,0 c -0.824,0 -1.425,-0.375 -1.425,-1.277 l -0.075,-2.473 c -2.25,3 -6.297,4.578 -10.047,4.578 -8.554,0 -15.976,-7.05 -15.976,-19.578 0,-9.453 4.574,-18.226 14.922,-18.226 4.582,0 9.527,3.004 11.25,6.301 l 0.152,0 c 0,-3 1.574,-5.547 4.879,-5.547 l 3.148,0 c 0.747,0 1.122,0.222 1.122,0.968 l 0,0 z m -62.547,9.457 c 0,4.797 -3.375,7.797 -7.5,9.52 l -5.852,2.477 c -3.148,1.351 -4.648,2.55 -4.648,5.101 0,2.551 2.172,4.649 6.148,4.649 2.402,0 5.93,-0.899 7.875,-1.797 0.227,-0.078 0.449,-0.153 0.602,-0.153 0.375,0 0.672,0.227 0.824,0.746 l 0.828,2.629 c 0.07,0.227 0.145,0.45 0.145,0.602 0,0.297 -0.223,0.519 -0.672,0.746 -3.375,1.578 -6.528,2.105 -9.746,2.105 -6.602,0 -12.606,-3.378 -12.606,-9.976 0,-4.727 3.301,-7.727 7.727,-9.453 l 5.023,-1.949 c 3.453,-1.352 5.625,-2.922 5.625,-5.848 0,-3.527 -2.926,-5.625 -7.273,-5.625 -2.551,0 -6.149,1.051 -8.926,2.25 -0.149,0.074 -0.301,0.074 -0.449,0.074 -0.371,0 -0.676,-0.301 -0.828,-0.754 l -0.969,-2.699 c -0.078,-0.145 -0.078,-0.297 -0.078,-0.449 0,-0.371 0.222,-0.746 0.75,-0.973 2.476,-1.129 6.449,-2.402 10.273,-2.402 7.949,0 13.727,4.277 13.727,11.179 l 0,0 z m -38.328,11.098 -18.821,0 c 0.602,5.551 4.125,10.574 10.352,10.574 5.699,0 8.469,-4.422 8.469,-9.523 l 0,-1.051 z m 6.304,-2.254 0,1.278 c 0,4.878 -1.277,9.3 -4.277,12.378 -2.477,2.547 -5.922,4.125 -10.199,4.125 -10.801,0 -17.477,-8.179 -17.477,-18.902 0,-11.328 6.152,-18.902 17.699,-18.902 3.453,0 8.254,0.676 11.477,2.179 0.601,0.297 0.902,0.524 0.902,0.969 0,0.078 0,0.227 -0.078,0.379 l -0.824,2.774 c -0.149,0.527 -0.524,0.675 -0.899,0.675 -0.222,0 -0.449,-0.078 -0.753,-0.148 -2.473,-0.977 -5.922,-1.578 -8.997,-1.578 -7.574,0 -11.628,5.551 -11.851,12.676 l 23.027,0 c 1.949,0 2.25,0.375 2.25,2.097 l 0,0 z M 485.766,748.66 c 0,0.227 -0.075,0.531 -0.153,0.828 l -0.672,2.098 c -0.152,0.527 -0.375,0.754 -0.753,0.754 -0.145,0 -0.372,-0.074 -0.594,-0.152 -2.403,-1.051 -5.176,-1.797 -8.403,-1.797 -8.023,0 -11.324,6.597 -11.324,14.25 0,8.394 4.496,13.722 11.625,13.722 2.926,0 5.477,-0.824 7.801,-1.875 0.223,-0.148 0.523,-0.222 0.672,-0.222 0.449,0 0.676,0.375 0.824,0.898 l 0.602,2.402 c 0.078,0.223 0.152,0.372 0.152,0.594 0,0.453 -0.227,0.754 -0.754,0.977 -2.621,1.351 -6.371,2.179 -9.598,2.179 -11.25,0 -17.925,-7.957 -17.925,-18.98 0,-11.172 5.699,-18.824 17.476,-18.824 3.449,0 6.899,0.676 10.125,2.179 0.676,0.297 0.899,0.524 0.899,0.969 l 0,0 z m -38.7,-0.824 0,22.051 c 0,8.176 -3.296,13.429 -11.925,13.429 -4.348,0 -8.848,-1.578 -12.297,-4.503 l -0.074,2.324 c 0,0.976 -0.528,1.351 -1.426,1.351 l -3.301,0 c -1.051,0 -1.426,-0.453 -1.426,-1.504 l 0,-33.218 c 0,-0.981 0.528,-1.5 1.426,-1.5 l 3.523,0 c 0.977,0 1.426,0.519 1.426,1.57 l 0,25.801 c 2.621,2.402 6.903,4.351 10.348,4.351 6,0 7.351,-3.824 7.351,-9.148 l 0,-21.004 c 0,-1.051 0.454,-1.57 1.426,-1.57 l 3.528,0 c 1.05,0 1.421,0.519 1.421,1.57 l 0,0 z m -46.652,19.953 -18.82,0 c 0.597,5.551 4.125,10.574 10.347,10.574 5.7,0 8.473,-4.422 8.473,-9.523 l 0,-1.051 z m 6.305,-2.254 0,1.278 c 0,4.878 -1.274,9.3 -4.278,12.378 -2.476,2.547 -5.921,4.125 -10.199,4.125 -10.801,0 -17.476,-8.179 -17.476,-18.902 0,-11.328 6.152,-18.902 17.699,-18.902 3.453,0 8.254,0.676 11.476,2.179 0.602,0.297 0.903,0.524 0.903,0.969 0,0.078 0,0.227 -0.078,0.379 l -0.825,2.774 c -0.148,0.527 -0.523,0.675 -0.898,0.675 -0.227,0 -0.449,-0.078 -0.746,-0.148 -2.477,-0.977 -5.93,-1.578 -9.004,-1.578 -7.574,0 -11.629,5.551 -11.852,12.676 l 23.028,0 c 1.949,0 2.25,0.375 2.25,2.097 l 0,0 z m -43.051,-17.699 0,33.148 c 0,1.051 -0.449,1.504 -1.426,1.504 l -3.449,0 c -0.977,0 -1.504,-0.453 -1.504,-1.504 l 0,-33.148 c 0,-1.051 0.527,-1.57 1.504,-1.57 l 3.449,0 c 0.977,0 1.426,0.519 1.426,1.57 l 0,0 z m 0.672,43.504 c 0,2.176 -1.875,3.598 -3.895,3.598 -2.027,0 -3.828,-1.422 -3.828,-3.598 0,-2.176 1.801,-3.602 3.828,-3.602 1.95,0 3.895,1.426 3.895,3.602 l 0,0 z m -17.399,-42.68 c 0,0.227 -0.07,0.531 -0.148,0.828 l -0.676,2.098 c -0.148,0.527 -0.375,0.754 -0.75,0.754 -0.152,0 -0.371,-0.074 -0.601,-0.152 -2.399,-1.051 -5.176,-1.797 -8.399,-1.797 -8.027,0 -11.324,6.597 -11.324,14.25 0,8.394 4.5,13.722 11.629,13.722 2.918,0 5.473,-0.824 7.797,-1.875 0.222,-0.148 0.527,-0.222 0.672,-0.222 0.449,0 0.675,0.375 0.828,0.898 l 0.597,2.402 c 0.075,0.223 0.153,0.372 0.153,0.594 0,0.453 -0.227,0.754 -0.75,0.977 -2.629,1.351 -6.379,2.179 -9.602,2.179 -11.25,0 -17.926,-7.957 -17.926,-18.98 0,-11.172 5.7,-18.824 17.477,-18.824 3.445,0 6.898,0.676 10.129,2.179 0.672,0.297 0.894,0.524 0.894,0.969 l 0,0 z m -36.824,11.629 c 0,6.977 -4.351,10.727 -10.199,13.875 l -8.023,4.274 c -3.149,1.652 -5.848,3.828 -5.848,7.722 0,5.028 4.871,6.981 9.07,6.981 3.004,0 6.524,-0.907 9.528,-2.18 0.296,-0.145 0.597,-0.223 0.898,-0.223 0.449,0 0.824,0.223 1.051,0.825 l 1.125,3.078 c 0.074,0.222 0.148,0.449 0.148,0.672 0,0.601 -0.449,0.976 -1.195,1.273 -3.902,1.652 -7.5,2.254 -11.93,2.254 -7.871,0 -15.898,-4.649 -15.898,-13.277 0,-5.403 3.301,-9.45 8.25,-12.149 l 9.523,-5.098 c 3.676,-1.953 6.602,-4.351 6.602,-8.55 0,-5.926 -5.403,-8.325 -10.5,-8.325 -3.524,0 -7.274,0.969 -10.649,2.172 -0.375,0.153 -0.679,0.153 -0.902,0.153 -0.523,0 -0.824,-0.227 -1.051,-0.907 l -0.976,-3.371 c -0.075,-0.226 -0.075,-0.449 -0.075,-0.675 0,-0.598 0.305,-0.977 1.051,-1.2 4.125,-1.347 8.551,-2.101 12.602,-2.101 9.222,0 17.398,4.953 17.398,14.777 l 0,0 z m -68.551,-4.726 c -1.875,-2.704 -5.921,-4.95 -9.449,-4.95 -6.519,0 -10.047,5.926 -10.047,13.875 0,8.25 3.899,13.797 10.649,13.797 3.676,0 7.277,-2.394 8.847,-5.25 l 0,-17.472 z m 6.379,-7.727 0,50.48 c 0,0.899 -0.379,1.274 -1.125,1.274 -0.148,0 -0.226,0 -0.375,0 l -3.675,-0.527 c -0.977,-0.153 -1.204,-0.602 -1.204,-1.571 l 0,-18.301 c -2.171,2.622 -6.296,4.2 -9.746,4.2 -9.902,0 -16.351,-8.176 -16.351,-19.2 0,-9.828 4.648,-18.679 15.449,-18.679 4.277,0 8.629,2.027 11.023,4.879 l 0.079,-2.7 c 0,-0.976 0.453,-1.425 1.574,-1.425 l 3.226,0 c 0.676,0 1.125,0.597 1.125,1.57 l 0,0 z m -46.652,19.953 -18.82,0 c 0.597,5.551 4.125,10.574 10.347,10.574 5.7,0 8.473,-4.422 8.473,-9.523 l 0,-1.051 z m 6.305,-2.254 0,1.278 c 0,4.878 -1.282,9.3 -4.278,12.378 -2.476,2.547 -5.925,4.125 -10.199,4.125 -10.801,0 -17.476,-8.179 -17.476,-18.902 0,-11.328 6.148,-18.902 17.699,-18.902 3.453,0 8.254,0.676 11.476,2.179 0.602,0.297 0.903,0.524 0.903,0.969 0,0.078 0,0.227 -0.078,0.379 l -0.825,2.774 c -0.152,0.527 -0.523,0.675 -0.898,0.675 -0.227,0 -0.449,-0.078 -0.754,-0.148 -2.477,-0.977 -5.922,-1.578 -8.996,-1.578 -7.574,0 -11.629,5.551 -11.852,12.676 l 23.028,0 c 1.949,0 2.25,0.375 2.25,2.097 l 0,0 z m -43.051,-17.699 0,33.148 c 0,1.051 -0.449,1.504 -1.426,1.504 l -3.453,0 c -0.973,0 -1.5,-0.453 -1.5,-1.504 l 0,-33.148 c 0,-1.051 0.527,-1.57 1.5,-1.57 l 3.453,0 c 0.977,0 1.426,0.519 1.426,1.57 l 0,0 z m 0.672,43.504 c 0,2.176 -1.875,3.598 -3.903,3.598 -2.023,0 -3.82,-1.422 -3.82,-3.598 0,-2.176 1.797,-3.602 3.82,-3.602 1.954,0 3.903,1.426 3.903,3.602 l 0,0 z m -20.176,-43.504 0,50.48 c 0,0.973 -0.449,1.274 -1.121,1.274 -0.152,0 -0.227,0 -0.375,0 l -3.75,-0.527 c -0.902,-0.153 -1.125,-0.45 -1.125,-1.5 l 0,-49.797 c 0,-1.051 0.449,-1.5 1.348,-1.5 l 3.675,0 c 0.899,0 1.348,0.519 1.348,1.57 l 0,0 z m -23.398,16.73 c 0,-6.675 -2.7,-14.031 -10.422,-14.031 -3.672,0 -7.5,2.324 -9.075,5.25 l 0,17.629 c 1.875,2.699 5.997,4.801 9.524,4.801 7.801,0 9.973,-7.125 9.973,-13.649 l 0,0 z m 6.675,0.145 c 0,9.68 -4.726,18.605 -15.375,18.605 -4.273,0 -8.773,-1.953 -11.172,-4.8 l 0,2.621 c 0,1.051 -0.601,1.351 -1.722,1.351 l -2.8518,0 c -0.9765,0 -1.4258,-0.3 -1.4258,-1.351 l 0,-49.422 c 0,-1.051 0.4493,-1.578 1.4258,-1.578 l 3.2968,0 c 0.973,0 1.652,0.304 1.652,1.426 l 0,18.148 c 2.247,-2.773 6.219,-4.199 9.899,-4.199 10.875,0 16.273,9.222 16.273,19.199 l 0,0 z m -49.4958,-0.145 c 0,-6.675 -2.7031,-14.031 -10.4258,-14.031 -3.6757,0 -7.5,2.324 -9.0781,5.25 l 0,17.629 c 1.875,2.699 6.0039,4.801 9.5274,4.801 7.7968,0 9.9765,-7.125 9.9765,-13.649 l 0,0 z m 6.6719,0.145 c 0,9.68 -4.7227,18.605 -15.375,18.605 -4.2734,0 -8.7734,-1.953 -11.1758,-4.8 l 0,2.621 c 0,1.051 -0.5976,1.351 -1.7226,1.351 l -2.8516,0 c -0.9727,0 -1.4219,-0.3 -1.4219,-1.351 l 0,-49.422 c 0,-1.051 0.4492,-1.578 1.4219,-1.578 l 3.3008,0 c 0.9765,0 1.6484,0.304 1.6484,1.426 l 0,18.148 c 2.2539,-2.773 6.2266,-4.199 9.9024,-4.199 10.875,0 16.2734,9.222 16.2734,19.199 l 0,0 z m -55.125,2.027 -15.8242,0 6.1523,17.028 c 0.9766,2.773 1.5,4.269 1.875,5.472 l 0.0742,0 c 0.3008,-1.05 0.8243,-2.699 1.7266,-5.328 l 5.9961,-17.172 0,0 z M 44.9219,747.09 c 0,0.226 -0.0742,0.449 -0.1446,0.746 L 26.25,797.035 c -0.2227,0.602 -0.6797,0.906 -1.3516,0.906 l -3.9765,0 c -0.6719,0 -1.1211,-0.449 -1.3477,-1.05 L 0.746094,747.766 c -0.074219,-0.305 -0.152344,-0.532 -0.152344,-0.754 0,-0.449 0.230469,-0.746 0.82813,-0.746 l 4.42968,0 c 1.04688,0 1.34766,0.297 1.72266,1.273 l 5.17578,14.024 19.4219,0 4.9531,-13.95 c 0.375,-1.125 0.7461,-1.347 2.0273,-1.347 l 4.6446,0 c 0.8281,0 1.125,0.297 1.125,0.824 l 0,0" /><path
             id="path58"
             style="fill:#5f8ea2;fill-opacity:1;fill-rule:nonzero;stroke:none"
             d="m 609.141,1.875 0,2.40234 c 0,0.83204 -0.45,1.04297 -1.121,1.04297 l -18.157,0 0,0.08203 17.926,26.92186 c 0.527,0.75 0.68,1.2813 0.68,1.9531 l 0,1.4961 c 0,0.6797 -0.305,1.1993 -1.356,1.1993 l -22.195,0 c -0.824,0 -1.129,-0.4493 -1.129,-1.1211 l 0,-2.1016 c 0,-1.0469 0.375,-1.2695 1.274,-1.2695 l 15.753,0 0,-0.0782 -17.703,-26.69917 c -0.597,-0.82813 -0.75,-1.27735 -0.75,-2.17579 l 0,-1.42578 c 0,-0.67578 0.45,-1.347654 1.352,-1.347654 l 24.449,0 c 0.754,0 0.977,0.445314 0.977,1.121094 l 0,0 z m -36.828,0.44922 0,33.15628 c 0,1.0429 -0.45,1.4922 -1.422,1.4922 l -3.45,0 c -0.976,0 -1.503,-0.4493 -1.503,-1.4922 l 0,-33.15628 c 0,-1.05469 0.527,-1.570314 1.503,-1.570314 l 3.45,0 c 0.972,0 1.422,0.515624 1.422,1.570314 l 0,0 z m 0.675,43.50388 c 0,2.1719 -1.875,3.5977 -3.894,3.5977 -2.028,0 -3.828,-1.4258 -3.828,-3.5977 0,-2.1758 1.8,-3.6015 3.828,-3.6015 1.945,0 3.894,1.4257 3.894,3.6015 l 0,0 z m -24.148,-23.5508 -18.824,0 c 0.597,5.543 4.125,10.5743 10.351,10.5743 5.696,0 8.473,-4.4219 8.473,-9.5235 l 0,-1.0508 z m 6.301,-2.2578 0,1.2813 c 0,4.8711 -1.274,9.3047 -4.278,12.3711 -2.472,2.5586 -5.922,4.1328 -10.199,4.1328 -10.801,0 -17.476,-8.1758 -17.476,-18.8984 C 523.188,7.56641 529.34,0 540.891,0 c 3.449,0 8.25,0.675781 11.472,2.17969 0.602,0.29297 0.903,0.52344 0.903,0.97265 0,0.07032 0,0.21485 -0.078,0.375 l -0.825,2.77344 c -0.144,0.52344 -0.523,0.67188 -0.898,0.67188 -0.227,0 -0.449,-0.07032 -0.746,-0.14844 -2.477,-0.97266 -5.93,-1.57031 -9.004,-1.57031 -7.574,0 -11.625,5.54689 -11.852,12.66799 l 23.028,0 c 1.949,0 2.25,0.3789 2.25,2.0976 l 0,0 z m -38.852,15.9883 c 0,0.5156 -0.226,0.9649 -0.898,0.9649 l -3.598,0 c -1.051,0 -1.578,-0.4493 -1.805,-1.2696 l -7.05,-27.22654 -0.145,0 -7.949,27.59764 c -0.231,0.75 -0.68,0.8985 -1.352,0.8985 l -3.078,0 c -0.746,0 -1.273,-0.293 -1.496,-1.1211 l -7.801,-27.29691 -0.148,0 -7.125,27.37501 c -0.153,0.6719 -0.68,1.043 -1.801,1.043 l -3.977,0 c -0.824,0 -1.125,-0.3711 -1.125,-0.8985 0,-0.1445 0,-0.3711 0.075,-0.5937 l 9.976,-33.37894 c 0.227,-0.83203 0.824,-1.347654 1.797,-1.347654 l 3.75,0 c 0.902,0 1.578,0.300784 1.875,1.269534 l 7.051,25.12496 0.078,0 7.195,-25.04684 c 0.227,-0.90234 0.754,-1.347654 1.805,-1.347654 l 3.82,0 c 0.903,0 1.5,0.445314 1.805,1.347654 l 10.047,33.37894 c 0.074,0.1445 0.074,0.3711 0.074,0.5273 l 0,0 z M 458.09,2.17969 l 0,22.19531 c 0,8.1758 -3.149,13.4297 -11.774,13.4297 -4.199,0 -9.003,-1.5039 -12.3,-4.4258 l 0,19.4258 c 0,0.9726 -0.453,1.2773 -1.125,1.2773 -0.223,0 -0.45,-0.0781 -0.672,-0.0781 l -3.153,-0.4492 c -0.902,-0.1563 -1.425,-0.5274 -1.425,-1.5703 l 0,-49.88284 c 0,-0.90234 0.379,-1.347654 1.203,-1.347654 l 3.894,0 c 0.907,0 1.278,0.445314 1.278,1.425784 l 0,25.94531 c 2.625,2.4023 6.976,4.3555 10.425,4.3555 5.926,0 7.278,-3.9063 7.278,-9.1524 l 0,-21.14841 c 0,-0.98047 0.371,-1.425784 1.273,-1.425784 l 3.903,0 c 0.898,0 1.195,0.445314 1.195,1.425784 l 0,0 z m -39.223,0.97265 c 0,0.21485 -0.074,0.51954 -0.152,0.82422 l -0.672,2.09766 c -0.152,0.52734 -0.375,0.75 -0.754,0.75 -0.144,0 -0.371,-0.06641 -0.594,-0.15234 C 414.293,5.625 411.52,4.875 408.293,4.875 c -8.023,0 -11.324,6.6016 -11.324,14.2461 0,8.4062 4.496,13.7305 11.625,13.7305 2.926,0 5.472,-0.8282 7.797,-1.875 0.226,-0.1485 0.527,-0.2227 0.675,-0.2227 0.454,0 0.676,0.3711 0.825,0.8984 l 0.601,2.4024 c 0.078,0.2226 0.153,0.3711 0.153,0.5937 0,0.4493 -0.227,0.7539 -0.754,0.9766 -2.621,1.3477 -6.371,2.1797 -9.598,2.1797 -11.25,0 -17.926,-7.9492 -17.926,-18.9883 C 390.367,7.65625 396.07,0 407.844,0 c 3.449,0 6.898,0.675781 10.125,2.17969 0.676,0.29297 0.898,0.52344 0.898,0.97265 l 0,0 z m -36.152,8.01956 c 0,4.8047 -3.375,7.8047 -7.5,9.5312 l -5.852,2.4727 c -3.148,1.3476 -4.644,2.5469 -4.644,5.0976 0,2.5547 2.176,4.6563 6.148,4.6563 2.399,0 5.926,-0.9063 7.871,-1.8047 0.227,-0.0703 0.457,-0.1484 0.602,-0.1484 0.379,0 0.68,0.2226 0.828,0.7539 l 0.824,2.625 c 0.078,0.2226 0.153,0.4492 0.153,0.5937 0,0.3047 -0.227,0.5313 -0.676,0.7539 -3.379,1.5742 -6.528,2.1016 -9.75,2.1016 -6.602,0 -12.606,-3.3789 -12.606,-9.9844 0,-4.7148 3.305,-7.7109 7.727,-9.4531 l 5.027,-1.9414 c 3.449,-1.3594 5.625,-2.918 5.625,-5.8516 0,-3.52342 -2.922,-5.62498 -7.273,-5.62498 -2.555,0 -6.153,1.05859 -8.926,2.25781 -0.152,0.07031 -0.305,0.07031 -0.449,0.07031 -0.375,0 -0.68,-0.30468 -0.824,-0.7539 l -0.977,-2.70703 c -0.074,-0.14453 -0.074,-0.28907 -0.074,-0.44922 0,-0.35938 0.222,-0.73828 0.746,-0.96485 C 361.191,1.26953 365.168,0 368.992,0 c 7.949,0 13.723,4.27734 13.723,11.1719 l 0,0 z m -34.793,-8.84768 0,50.48048 c 0,0.9726 -0.457,1.2773 -1.129,1.2773 -0.152,0 -0.227,0 -0.375,0 l -3.75,-0.5273 c -0.898,-0.1563 -1.125,-0.4492 -1.125,-1.5039 l 0,-49.79299 c 0,-1.05859 0.449,-1.503904 1.348,-1.503904 l 3.675,0 c 0.899,0 1.356,0.515624 1.356,1.570314 l 0,0 z M 322.117,12.9023 c -1.351,-3.74996 -5.176,-7.58199 -9.972,-7.58199 -5.403,0 -9.223,5.10159 -9.223,13.35159 0,8.9258 4.344,14.0312 10.121,14.0312 3.598,0 7.273,-2.0273 9.074,-5.3984 l 0,-14.4024 z m 9.602,-11.18355 0,2.55859 c 0,0.83204 -0.375,0.97657 -1.051,0.97657 l -0.527,0 c -0.598,0 -0.969,0.14843 -1.274,0.67578 -0.297,0.44922 -0.375,1.63672 -0.375,3.3789 l 0,26.23831 c 0,0.9765 -0.449,1.4258 -1.347,1.4258 l -3.375,0 c -0.825,0 -1.426,-0.3711 -1.426,-1.2696 l -0.078,-2.4804 c -2.246,3.0078 -6.297,4.582 -10.047,4.582 -8.551,0 -15.973,-7.0508 -15.973,-19.582 C 296.246,8.76953 300.82,0 311.168,0 c 4.574,0 9.523,3.00781 11.25,6.30078 l 0.148,0 c 0,-3 1.575,-5.546874 4.875,-5.546874 l 3.149,0 c 0.754,0 1.129,0.222657 1.129,0.964844 l 0,0 z M 290.02,36.3008 c 0,0.1523 0,0.2226 0,0.3789 0,0.4492 -0.153,0.8203 -0.602,0.8984 -0.75,0.1485 -1.648,0.2266 -2.172,0.2266 -3.976,0 -6.824,-2.2578 -8.629,-4.7305 l -0.07,2.5508 c 0,0.9766 -0.527,1.3477 -1.5,1.3477 l -3.231,0 c -0.894,0 -1.421,-0.3711 -1.421,-1.4922 l 0,-33.15628 c 0,-1.05469 0.449,-1.570314 1.421,-1.570314 l 3.528,0 c 0.976,0 1.426,0.605474 1.426,1.570314 l 0,25.57808 c 1.949,2.7735 4.875,4.5 7.5,4.5 0.75,0 1.5,-0.0781 2.171,-0.2226 0.079,0 0.153,0 0.227,0 0.453,0 0.75,0.2226 0.824,0.75 l 0.528,3.3711 0,0 z M 263.695,2.55078 c 0,0.07813 -0.078,0.15235 -0.078,0.30078 l -0.597,2.40235 c -0.149,0.51953 -0.524,0.7539 -0.903,0.7539 -0.148,0 -0.297,0 -0.445,-0.07812 -1.203,-0.3711 -3.004,-0.91016 -4.731,-0.91016 -1.945,0 -3.296,0.60547 -4.125,1.50391 -1.121,1.28125 -1.273,3.23437 -1.273,5.70316 l 0,20.2539 8.773,0 c 0.754,0 1.129,0.2226 1.129,0.9765 l 0,2.5508 c 0,0.8164 -0.375,0.9649 -1.05,0.9649 l -8.852,0 0,9.2265 c 0,0.8242 -0.375,1.3516 -1.121,1.3516 -0.078,0 -0.227,0 -0.305,0 l -3.672,-0.5274 c -0.976,-0.1484 -1.273,-0.4414 -1.273,-1.4961 l 0,-8.5546 -4.277,0 c -0.676,0 -0.977,-0.293 -0.977,-1.043 l 0,-2.3242 c 0,-0.9766 0.148,-1.125 1.129,-1.125 l 4.125,0 0,-19.6602 c 0,-4.64452 0.144,-7.64452 2.324,-10.04686 C 249.219,0.90625 252.445,0 255.668,0 c 2.551,0 5.25,0.605469 6.977,1.35938 0.597,0.21093 1.05,0.59375 1.05,1.1914 l 0,0 z m -32.699,-0.22656 0,22.05078 c 0,8.1758 -3.301,13.4297 -11.926,13.4297 -4.347,0 -8.851,-1.5742 -12.3,-4.5039 l -0.075,2.3242 c 0,0.9766 -0.523,1.3477 -1.425,1.3477 l -3.297,0 c -1.055,0 -1.426,-0.4493 -1.426,-1.4922 l 0,-33.22269 c 0,-0.98828 0.523,-1.503904 1.426,-1.503904 l 3.519,0 c 0.977,0 1.426,0.515624 1.426,1.570314 l 0,25.80078 c 2.629,2.4023 6.898,4.3555 10.352,4.3555 6,0 7.347,-3.8282 7.347,-9.1524 l 0,-21.00388 c 0,-1.05469 0.449,-1.570314 1.43,-1.570314 l 3.523,0 c 1.051,0 1.426,0.515624 1.426,1.570314 l 0,0 z m -46.875,19.95308 -18.828,0 c 0.602,5.543 4.125,10.5743 10.352,10.5743 5.703,0 8.476,-4.4219 8.476,-9.5235 l 0,-1.0508 z m 6.301,-2.2578 0,1.2813 c 0,4.8711 -1.277,9.3047 -4.274,12.3711 -2.476,2.5586 -5.929,4.1328 -10.203,4.1328 -10.8,0 -17.472,-8.1758 -17.472,-18.8984 C 158.473,7.56641 164.617,0 176.172,0 c 3.445,0 8.246,0.675781 11.473,2.17969 0.601,0.29297 0.902,0.52344 0.902,0.97265 0,0.07032 0,0.21485 -0.074,0.375 l -0.828,2.77344 c -0.149,0.52344 -0.528,0.67188 -0.899,0.67188 -0.223,0 -0.453,-0.07032 -0.75,-0.14844 -2.476,-0.97266 -5.922,-1.57031 -9,-1.57031 -7.578,0 -11.625,5.54689 -11.851,12.66799 l 23.023,0 c 1.953,0 2.254,0.3789 2.254,2.0976 l 0,0 z m -39.524,-17.99606 0,2.99609 c 0,0.91016 -0.375,1.20313 -1.351,1.20313 l -26.625,0 0,0.07812 26.703,41.25002 c 0.602,0.9062 0.602,1.582 0.602,2.3984 l 0,1.2813 c 0,0.8203 -0.379,1.2031 -1.426,1.2031 l -31.203,0 c -0.977,0 -1.203,-0.3047 -1.203,-1.1328 l 0,-3.1485 c 0,-0.9726 0.304,-1.1992 1.652,-1.1992 l 23.254,0 0,-0.0781 L 114.672,5.46875 C 114.145,4.72656 114.07,4.19922 114.07,3.52734 l 0,-1.65234 c 0,-0.67578 0.301,-1.121094 1.051,-1.121094 l 34.504,0 c 0.973,0 1.273,0.371094 1.273,1.269534 l 0,0 z m -66.9761,0.30078 0,48.60548 c 0,1.0547 -0.4492,1.5039 -1.4219,1.5039 l -4.0508,0 c -0.9804,0 -1.5,-0.4492 -1.5,-1.5039 l 0,-20.4024 -24.1523,0 0,20.4024 c 0,1.0547 -0.5274,1.5039 -1.5,1.5039 l -3.9727,0 c -0.9765,0 -1.5039,-0.4492 -1.5039,-1.5039 l 0,-48.60548 c 0,-1.05469 0.5274,-1.570314 1.5039,-1.570314 l 3.9727,0 c 0.9726,0 1.5,0.515624 1.5,1.570314 l 0,22.80468 24.1523,0 0,-22.80468 c 0,-1.05469 0.5196,-1.570314 1.5,-1.570314 l 4.0508,0 c 0.9727,0 1.4219,0.515624 1.4219,1.570314 l 0,0 z M 34.7227,51.0742 c 0,0.0781 0,0.1563 0,0.2266 0,0.75 -0.3789,1.1328 -1.1954,1.1328 l -26.4023,0 c -1.05078,0 -1.42578,-0.4492 -1.42578,-1.5039 l 0,-48.52736 c 0,-1.425777 0.375,-1.648434 1.57422,-1.648434 l 3.89846,0 c 1.1289,0 1.5,0.300784 1.5,1.570314 l 0,22.80468 17.6992,0 c 1.0508,0 1.4258,0.3008 1.4258,1.3477 l 0,2.7031 c 0,0.8984 -0.4492,1.3476 -1.5,1.3476 l -17.625,0 0,16.4258 19.7265,0 c 1.2735,0 1.9454,0.1485 2.0235,1.1992 l 0.3008,2.9219 0,0" /><path
             id="path60"
             style="fill:#5f8ea2;fill-opacity:1;fill-rule:nonzero;stroke:none"
             d="m 25.7539,175.449 c 0,-1.199 -0.5234,-1.57 -1.5781,-1.57 l -4.2774,0 0,-39.336 4.0508,0 c 1.0508,0 1.5781,-0.684 1.5781,-1.582 l 0,-3.227 c 0,-0.906 -0.375,-1.5 -1.3515,-1.5 l -17.86721,0 c -0.97656,0 -1.5,0.594 -1.5,1.422 l 0,3.379 c 0,1.047 0.44922,1.508 1.5,1.508 l 3.98051,0 0,39.336 -4.35551,0 c -1.05078,0 -1.5,0.523 -1.5,1.504 l 0,3.301 c 0,0.82 0.44922,1.504 1.34766,1.504 l 18.39455,0 c 1.0547,0 1.5781,-0.684 1.5781,-1.438 l 0,-3.301" /><path
             id="path62"
             style="fill:#5f8ea2;fill-opacity:1;fill-rule:nonzero;stroke:none"
             d="m 68.7383,130.188 c 0,-1.29 -0.4492,-1.954 -1.8008,-1.954 l -5.4062,0 c -1.3516,0 -1.8008,0.664 -1.8008,1.954 l 0,20.41 c 0,4.129 -1.1289,7.058 -5.7071,7.058 -2.9257,0 -6.5273,-1.57 -8.8593,-3.601 l 0,-23.946 c 0,-1.281 -0.5235,-1.875 -1.8008,-1.875 l -5.4766,0 c -1.1289,0 -1.8008,0.594 -1.8008,1.793 l 0,32.739 c 0,1.187 0.5196,1.875 1.875,1.875 l 4.875,0 c 1.0547,0 1.7305,-0.305 1.8047,-1.426 l 0.0782,-1.953 c 3.4492,2.769 7.8046,4.351 12.1562,4.351 8.4063,0 11.8633,-5.254 11.8633,-13.433 l 0,-21.992" /><path
             id="path64"
             style="fill:#5f8ea2;fill-opacity:1;fill-rule:nonzero;stroke:none"
             d="m 102.703,181.301 c 1.277,-0.528 0.981,-1.574 0.828,-2.696 l -0.527,-3.156 c -0.152,-0.672 -0.375,-1.125 -0.977,-1.125 -0.297,0 -0.523,0.078 -0.828,0.149 -1.4959,0.527 -3.2967,0.976 -5.1013,0.976 -4.5039,0 -5.4844,-3 -5.4844,-7.351 l 0,-3.457 8.3359,0 c 0.8985,0 1.4998,-0.305 1.4998,-1.274 l 0,-3.531 c 0,-0.977 -0.6013,-1.43 -1.4998,-1.43 l -8.3359,0 0,-28.086 c 0,-1.343 -0.4492,-2.086 -1.875,-2.086 l -5.4024,0 c -1.2773,0 -1.8007,0.664 -1.8007,1.954 l 0,28.218 -4.0547,0 c -1.3516,0 -1.5782,0.293 -1.5782,1.875 l 0,2.856 c 0,0.894 0.4493,1.504 1.4258,1.504 l 4.2071,0 0,2.031 c 0,2.469 0.2226,4.422 0.5234,6.07 1.2031,6.313 5.1758,10.141 12.6875,10.141 2.4766,0 5.7809,-0.606 7.9569,-1.582" /><path
             id="path66"
             style="fill:#5f8ea2;fill-opacity:1;fill-rule:nonzero;stroke:none"
             d="m 121.578,158.484 c -6.683,0 -8.859,-5.781 -8.859,-11.793 0,-6.156 1.875,-12.226 8.554,-12.226 6.61,0 8.864,5.848 8.864,12.012 0,6.152 -1.953,12.007 -8.559,12.007 z m -0.379,-31.148 c -12.234,0 -17.863,8.25 -17.863,19.219 0,10.8 6.605,19.058 18.312,19.058 12.239,0 17.872,-8.101 17.872,-19.136 0,-10.825 -6.61,-19.141 -18.321,-19.141" /><path
             id="path68"
             style="fill:#5f8ea2;fill-opacity:1;fill-rule:nonzero;stroke:none"
             d="m 167.703,165.313 c 0.524,-0.145 0.75,-0.379 0.75,-0.977 0,-0.227 -0.226,-1.648 -0.898,-6.008 -0.153,-0.894 -0.602,-1.121 -1.356,-0.973 -0.597,0.157 -1.351,0.235 -2.023,0.235 -2.555,0 -5.332,-1.36 -7.207,-3.613 l 0,-23.868 c 0,-1.211 -0.528,-1.875 -1.805,-1.875 l -5.476,0 c -1.204,0 -1.801,0.594 -1.801,1.875 l 0,32.657 c 0,1.504 0.746,1.875 1.875,1.875 l 4.804,0 c 1.2,0 1.875,-0.371 1.875,-1.426 l 0.079,-2.402 c 2.324,2.925 4.875,4.8 9.082,4.8 0.597,0 1.425,-0.078 2.101,-0.3" /><path
             id="path70"
             style="fill:#5f8ea2;fill-opacity:1;fill-rule:nonzero;stroke:none"
             d="m 229.238,130.109 c 0,-1.347 -0.527,-1.875 -1.8,-1.875 l -5.254,0 c -1.356,0 -1.954,0.528 -1.954,1.875 l 0,20.567 c 0,4.051 -1.05,7.129 -5.628,7.129 -2.856,0 -6.161,-1.504 -8.485,-3.379 0.149,-0.664 0.297,-10.735 0.297,-11.778 l 0,-12.539 c 0,-1.347 -0.523,-1.875 -1.801,-1.875 l -4.957,0 c -1.343,0 -1.945,0.528 -1.945,1.875 l 0,20.567 c 0,3.98 -0.824,7.129 -5.406,7.129 -2.93,0 -5.934,-1.645 -8.336,-3.75 l 0,-23.946 c 0,-1.347 -0.602,-1.875 -1.875,-1.875 l -5.258,0 c -1.348,0 -1.949,0.528 -1.949,1.875 l 0,32.801 c 0,1.199 0.676,1.731 1.801,1.731 l 4.878,0 c 1.129,0 1.801,-0.371 1.875,-1.426 l 0.079,-1.875 c 3.078,2.691 7.128,4.273 11.035,4.273 4.582,0 7.808,-2.027 9.539,-4.879 3.371,3.219 8.254,4.879 12.836,4.879 5.476,0 8.929,-2.703 10.508,-5.625 1.425,-2.781 1.8,-6.09 1.8,-10.894 l 0,-18.985" /><path
             id="path72"
             style="fill:#5f8ea2;fill-opacity:1;fill-rule:nonzero;stroke:none"
             d="m 262.73,154.348 c -1.5,2.183 -4.578,3.836 -7.433,3.836 -4.578,0 -8.481,-3.907 -8.481,-11.786 0,-6.308 2.403,-11.64 7.957,-11.64 3.68,0 6.832,2.769 7.957,5.105 l 0,14.485 z m 12.387,-24.692 c 0,-0.894 -0.601,-1.422 -1.5,-1.422 l -3.601,0 c -3.907,0 -5.629,1.875 -6.161,4.422 l -0.148,0 c -1.875,-2.781 -6.754,-5.32 -10.887,-5.32 -10.586,0 -15.386,8.699 -15.386,18.457 0,12.984 7.804,19.82 16.214,19.82 3.981,0 7.735,-1.797 9.61,-4.351 l 0.148,2.031 c 0.074,0.816 0.676,1.348 1.578,1.348 l 5.254,0 c 0.977,0 1.578,-0.532 1.578,-1.653 l 0,-26.047 c 0,-1.05 0.149,-1.812 0.45,-2.183 0.222,-0.215 0.527,-0.293 0.898,-0.293 l 0.606,0 c 0.898,0 1.347,-0.305 1.347,-1.281 l 0,-3.528" /><path
             id="path74"
             style="fill:#5f8ea2;fill-opacity:1;fill-rule:nonzero;stroke:none"
             d="m 302.852,135.441 c 0.3,0.067 0.601,0.145 0.824,0.145 0.457,0 0.754,-0.227 0.902,-0.906 l 0.754,-3.75 c 0.148,-0.903 -0.152,-1.504 -1.055,-1.875 -2.324,-0.981 -5.406,-1.719 -8.41,-1.719 -3.828,0 -7.129,0.965 -9.008,3.144 -2.324,2.625 -2.402,5.704 -2.402,11.192 l 0,16.734 -3.523,0 c -1.43,0 -1.657,0.293 -1.657,1.875 l 0,2.856 c 0,0.894 0.453,1.504 1.352,1.504 l 3.828,0 0,8.179 c 0,1.274 0.68,1.653 1.883,1.797 l 5.777,0.688 c 0.973,0 1.43,-0.528 1.43,-1.66 l 0,-9.004 8.48,0 c 0.903,0 1.426,-0.305 1.426,-1.274 l 0,-3.531 c 0,-0.898 -0.601,-1.43 -1.5,-1.43 l -8.406,0 0,-17.183 c 0,-2.258 0.144,-3.907 0.973,-5.118 0.675,-0.976 1.726,-1.562 3.527,-1.562 1.875,0 3.453,0.445 4.805,0.898" /><path
             id="path76"
             style="fill:#5f8ea2;fill-opacity:1;fill-rule:nonzero;stroke:none"
             d="m 322.043,130.109 c 0,-1.347 -0.602,-1.875 -1.875,-1.875 l -5.262,0 c -1.347,0 -1.945,0.528 -1.945,1.875 l 0,32.801 c 0,1.281 0.746,1.731 1.945,1.731 l 5.262,0 c 1.199,0 1.875,-0.371 1.875,-1.731 l 0,-32.801 z m -4.582,39.332 c -2.477,0 -5.102,1.653 -5.102,4.653 0,3.008 2.477,4.804 5.102,4.804 2.555,0 5.027,-1.718 5.027,-4.726 0,-2.934 -2.547,-4.731 -5.027,-4.731" /><path
             id="path78"
             style="fill:#5f8ea2;fill-opacity:1;fill-rule:nonzero;stroke:none"
             d="m 362.031,128.234 -6.457,0 c -1.351,0 -2.25,0.371 -3,1.571 l -9.609,15.769 -0.824,-0.758 0,-14.707 c 0,-1.281 -0.532,-1.875 -1.731,-1.875 l -5.629,0 c -1.125,0 -1.722,0.664 -1.722,1.793 l 0,49.25 c 0,1.203 0.449,1.653 1.57,1.809 l 6.008,0.816 c 0.902,0 1.504,-0.449 1.504,-1.714 l 0,-30.122 0.148,0 9.836,13.52 c 0.602,0.828 1.051,1.055 2.023,1.055 l 6.68,0 c 0.602,0 0.981,-0.305 0.981,-0.754 0,-0.227 -0.075,-0.52 -0.301,-0.828 l -10.738,-13.516 12.164,-18.984 c 0.296,-0.45 0.523,-0.981 0.523,-1.426 0,-0.688 -0.676,-0.899 -1.426,-0.899" /></g></g></g></g></svg>