<?xml version="1.0" encoding="UTF-8" standalone="no"?>
<!-- Created with Inkscape (http://www.inkscape.org/) -->

<svg
   xmlns:dc="http://purl.org/dc/elements/1.1/"
   xmlns:cc="http://creativecommons.org/ns#"
   xmlns:rdf="http://www.w3.org/1999/02/22-rdf-syntax-ns#"
   xmlns:svg="http://www.w3.org/2000/svg"
   xmlns="http://www.w3.org/2000/svg"
   xmlns:sodipodi="http://sodipodi.sourceforge.net/DTD/sodipodi-0.dtd"
   xmlns:inkscape="http://www.inkscape.org/namespaces/inkscape"
   id="svg3336"
   version="1.1"
   inkscape:version="0.91 r13725"
   xml:space="preserve"
   width="200"
   height="68.75"
   viewBox="0 0 200 68.75"
   sodipodi:docname="hsr_logo.svg"><metadata
     id="metadata3342"><rdf:RDF><cc:Work
         rdf:about=""><dc:format>image/svg+xml</dc:format><dc:type
           rdf:resource="http://purl.org/dc/dcmitype/StillImage" /><dc:title></dc:title></cc:Work></rdf:RDF></metadata><defs
     id="defs3340" /><sodipodi:namedview
     pagecolor="#ffffff"
     bordercolor="#666666"
     borderopacity="1"
     objecttolerance="10"
     gridtolerance="10"
     guidetolerance="10"
     inkscape:pageopacity="0"
     inkscape:pageshadow="2"
     inkscape:window-width="1680"
     inkscape:window-height="1001"
     id="namedview3338"
     showgrid="false"
     inkscape:zoom="7.75"
     inkscape:cx="100"
     inkscape:cy="34.375"
     inkscape:window-x="0"
     inkscape:window-y="0"
     inkscape:window-maximized="1"
     inkscape:current-layer="g3344" /><g
     id="g3344"
     inkscape:groupmode="layer"
     inkscape:label="ink_ext_XXXXXX"
     transform="matrix(1.25,0,0,-1.25,0,68.75)"><g
       id="g3346"
       transform="scale(0.1,0.1)"><path
         d="m 5.78125,403.328 124.77,0 0,124.801 -124.77,0 0,-124.801 z"
         style="fill:#0f65a6;fill-opacity:1;fill-rule:nonzero;stroke:none"
         id="path3348"
         inkscape:connector-curvature="0" /><path
         d="m 5.78125,177.57 124.77,0 0,124.77 -124.77,0 0,-124.77 z"
         style="fill:#0f65a6;fill-opacity:1;fill-rule:nonzero;stroke:none"
         id="path3350"
         inkscape:connector-curvature="0" /><path
         d="m 221.371,177.57 124.801,0 0,124.77 -124.801,0 0,-124.77 z"
         style="fill:#0f65a6;fill-opacity:1;fill-rule:nonzero;stroke:none"
         id="path3352"
         inkscape:connector-curvature="0" /><path
         d="M 355.781,417.969 233.32,393.871 209.18,516.25 331.602,540.391 355.781,417.969"
         style="fill:#bdbcbc;fill-opacity:1;fill-rule:nonzero;stroke:none"
         id="path3354"
         inkscape:connector-curvature="0" /><path
         d="m 470.941,59.1016 26.008,0 0,-6.1719 -18.98,0 0,-14.3008 18.16,0 0,-6.1289 -18.16,0 0,-22.3008 -7.028,0 0,48.9024"
         style="fill:#231f20;fill-opacity:1;fill-rule:nonzero;stroke:none"
         id="path3356"
         inkscape:connector-curvature="0" /><path
         d="m 509.57,59.1016 7.032,0 0,-20.4727 23.359,0 0,20.4727 7.027,0 0,-48.9024 -7.027,0 0,22.3008 -23.359,0 0,-22.3008 -7.032,0 0,48.9024"
         style="fill:#231f20;fill-opacity:1;fill-rule:nonzero;stroke:none"
         id="path3358"
         inkscape:connector-curvature="0" /><path
         d="m 583.672,59.9609 c 14.848,0 23.519,-10.8203 23.519,-25.3125 0,-14.8476 -8.601,-25.30856 -23.519,-25.30856 -14.961,0 -23.551,10.46096 -23.551,25.30856 0,14.4922 8.668,25.3125 23.551,25.3125 m 0,-44.4101 c 11.25,0 16.098,9.3711 16.098,19.0976 0,9.961 -5.321,19.1797 -16.098,19.1407 -10.82,0.039 -16.133,-9.1797 -16.133,-19.1407 0,-9.7265 4.84,-19.0976 16.133,-19.0976"
         style="fill:#231f20;fill-opacity:1;fill-rule:nonzero;stroke:none"
         id="path3360"
         inkscape:connector-curvature="0" /><path
         d="m 641.84,59.1016 26.012,0 0,-6.1719 -18.981,0 0,-14.3008 18.117,0 0,-6.1289 -18.117,0 0,-22.3008 -7.031,0 0,48.9024"
         style="fill:#231f20;fill-opacity:1;fill-rule:nonzero;stroke:none"
         id="path3362"
         inkscape:connector-curvature="0" /><path
         d="m 681.172,43.3984 c 3.277,1.9922 7.187,3.3633 11.758,3.3633 10.23,0 14.371,-5.0429 14.371,-14.7734 l 0,-14.7969 c 0,-4.0312 0.121,-5.9414 0.277,-6.9922 l -6.168,0 0,4.6016 -0.16,0 c -1.52,-2.1406 -5.039,-5.46096 -11.051,-5.46096 -7.699,0 -13.09,3.35936 -13.09,11.17186 0,8.9375 9.801,11.7578 16.602,11.7578 2.578,0 4.418,0 6.988,-0.1601 0,6.1719 -2.219,9.3398 -8.82,9.3398 -3.719,0 -7.699,-1.4101 -10.359,-3.6406 l -0.348,5.5898 z m 19.527,-16.1679 c -1.398,0 -2.769,0.1093 -4.179,0.1093 -3.59,0 -12.418,-0.539 -12.418,-6.8281 0,-3.7929 3.628,-5.8203 6.679,-5.8203 6.489,0 9.918,4.0586 9.918,9.3672 l 0,3.1719"
         style="fill:#231f20;fill-opacity:1;fill-rule:nonzero;stroke:none"
         id="path3364"
         inkscape:connector-curvature="0" /><path
         d="m 743.949,39.8789 c -2.5,1.0625 -5.039,1.5703 -7.148,1.5703 -7.352,0 -11.492,-6.6094 -11.492,-13.3594 0,-6.4101 3.441,-13.3984 11.921,-13.3984 2.219,0 5.04,0.6992 7.071,2.0274 l 0.5,-5.8985 C 742.07,9.57031 738.91,9.33984 736.52,9.33984 c -10.782,0 -18.2,8.46876 -18.2,18.74996 0,10.8204 7.27,18.6719 18.2,18.6719 2.66,0 6.101,-0.6328 8.011,-1.3711 l -0.582,-5.5117"
         style="fill:#231f20;fill-opacity:1;fill-rule:nonzero;stroke:none"
         id="path3366"
         inkscape:connector-curvature="0" /><path
         d="m 755.199,62.7305 6.563,0 0,-21.9102 0.148,0 c 2.391,3.7891 6.531,5.9414 11.488,5.9414 9.262,0 13.403,-5.7422 13.403,-15.3515 l 0,-21.211 -6.602,0 0,18.4727 c 0,8.3594 -1.84,12.4179 -7.578,12.7773 -7.5,0 -10.859,-6.0195 -10.859,-14.7304 l 0,-16.5196 -6.563,0 0,52.5313"
         style="fill:#231f20;fill-opacity:1;fill-rule:nonzero;stroke:none"
         id="path3368"
         inkscape:connector-curvature="0" /><path
         d="m 800.82,62.7305 6.559,0 0,-21.9102 0.16,0 c 2.383,3.7891 6.52,5.9414 11.481,5.9414 9.261,0 13.359,-5.7422 13.359,-15.3515 l 0,-21.211 -6.559,0 0,18.4727 c 0,8.3594 -1.84,12.4179 -7.582,12.7773 -7.457,0 -10.859,-6.0195 -10.859,-14.7304 l 0,-16.5196 -6.559,0 0,52.5313"
         style="fill:#231f20;fill-opacity:1;fill-rule:nonzero;stroke:none"
         id="path3370"
         inkscape:connector-curvature="0" /><path
         d="m 862.27,46.7617 c 10.859,0 18.16,-7.8515 18.16,-18.6719 0,-10.2812 -7.461,-18.74996 -18.16,-18.74996 -10.79,0 -18.211,8.46876 -18.211,18.74996 0,10.8204 7.269,18.6719 18.211,18.6719 m 0,-32.0703 c 7.691,0 11.171,6.9883 11.171,13.3984 0,6.75 -4.179,13.3594 -11.171,13.3594 -7.071,0 -11.219,-6.6094 -11.219,-13.3594 0,-6.4101 3.437,-13.3984 11.219,-13.3984"
         style="fill:#231f20;fill-opacity:1;fill-rule:nonzero;stroke:none"
         id="path3372"
         inkscape:connector-curvature="0" /><path
         d="m 914.77,39.8789 c -2.5,1.0625 -5.04,1.5703 -7.149,1.5703 -7.351,0 -11.492,-6.6094 -11.492,-13.3594 0,-6.4101 3.441,-13.3984 11.922,-13.3984 2.219,0 5.039,0.6992 7.07,2.0274 l 0.469,-5.8985 c -2.738,-1.24999 -5.86,-1.48046 -8.289,-1.48046 -10.742,0 -18.16,8.46876 -18.16,18.74996 0,10.8204 7.269,18.6719 18.16,18.6719 2.699,0 6.14,-0.6328 8.008,-1.3711 l -0.539,-5.5117"
         style="fill:#231f20;fill-opacity:1;fill-rule:nonzero;stroke:none"
         id="path3374"
         inkscape:connector-curvature="0" /><path
         d="m 926.02,62.7305 6.562,0 0,-21.9102 0.117,0 c 2.422,3.7891 6.52,5.9414 11.52,5.9414 9.261,0 13.402,-5.7422 13.402,-15.3515 l 0,-21.211 -6.641,0 0,18.4727 c 0,8.3594 -1.761,12.4179 -7.539,12.7773 -7.5,0 -10.859,-6.0195 -10.859,-14.7304 l 0,-16.5196 -6.562,0 0,52.5313"
         style="fill:#231f20;fill-opacity:1;fill-rule:nonzero;stroke:none"
         id="path3376"
         inkscape:connector-curvature="0" /><path
         d="m 968.949,17.1914 c 2.61,-1.6406 6.321,-2.5 8.199,-2.5 3.051,0 6.762,1.25 6.762,5.1094 0,6.5273 -15.512,5.9375 -15.512,15.9805 0,7.4179 5.551,10.9804 12.622,10.9804 3.082,0 5.582,-0.6328 8.16,-1.3711 l -0.551,-5.7812 c -1.438,0.9414 -5.391,1.8398 -6.91,1.8398 -3.36,0 -6.328,-1.4101 -6.328,-4.3398 0,-7.3086 15.507,-5.1992 15.507,-16.5977 0,-7.6601 -6.097,-11.17186 -12.457,-11.17186 -3.359,0 -6.839,0.39063 -9.851,1.98826 l 0.359,5.8633"
         style="fill:#231f20;fill-opacity:1;fill-rule:nonzero;stroke:none"
         id="path3378"
         inkscape:connector-curvature="0" /><path
         d="m 1024.38,39.8789 c -2.5,1.0625 -5,1.5703 -7.11,1.5703 -7.39,0 -11.53,-6.6094 -11.53,-13.3594 0,-6.4101 3.44,-13.3984 11.96,-13.3984 2.18,0 5,0.6992 7.03,2.0274 l 0.5,-5.8985 c -2.73,-1.24999 -5.85,-1.48046 -8.28,-1.48046 -10.78,0 -18.2,8.46876 -18.2,18.74996 0,10.8204 7.3,18.6719 18.2,18.6719 2.7,0 6.1,-0.6328 8.01,-1.3711 l -0.58,-5.5117"
         style="fill:#231f20;fill-opacity:1;fill-rule:nonzero;stroke:none"
         id="path3380"
         inkscape:connector-curvature="0" /><path
         d="m 1035.63,62.7305 6.6,0 0,-21.9102 0.11,0 c 2.39,3.7891 6.53,5.9414 11.49,5.9414 9.26,0 13.4,-5.7422 13.4,-15.3515 l 0,-21.211 -6.6,0 0,18.4727 c 0,8.3594 -1.8,12.4179 -7.54,12.7773 -7.54,0 -10.86,-6.0195 -10.86,-14.7304 l 0,-16.5196 -6.6,0 0,52.5313"
         style="fill:#231f20;fill-opacity:1;fill-rule:nonzero;stroke:none"
         id="path3382"
         inkscape:connector-curvature="0" /><path
         d="m 1112.81,10.1992 -6.36,0 0,5.6602 -0.08,0 c -1.99,-4.0586 -6.76,-6.51956 -11.76,-6.51956 -9.26,0 -13.36,5.78126 -13.36,15.35156 l 0,21.25 6.56,0 0,-18.5195 c 0,-8.3203 1.84,-12.3828 7.58,-12.7305 7.46,0 10.86,6.0078 10.86,14.7188 l 0,16.5312 6.56,0 0,-35.7422"
         style="fill:#231f20;fill-opacity:1;fill-rule:nonzero;stroke:none"
         id="path3384"
         inkscape:connector-curvature="0" /><path
         d="m 1127.7,10.1914 6.6016,0 0,52.5391 -6.6016,0 0,-52.5391 z"
         style="fill:#231f20;fill-opacity:1;fill-rule:nonzero;stroke:none"
         id="path3386"
         inkscape:connector-curvature="0" /><path
         d="m 1176.52,11.6797 c -2.5,-0.9414 -5.39,-2.33986 -11.29,-2.33986 -12.65,0 -18.47,7.73046 -18.47,19.33206 0,10.6289 6.68,18.0898 16.76,18.0898 11.91,0 15.74,-8.6719 15.74,-20.1601 l -25.47,0 c 0,-7.0703 5.55,-11.9102 11.76,-11.9102 4.33,0 9.37,2.2188 10.97,3.5469 l 0,-6.5586 z m -4.22,19.8008 c 0,5.4687 -3.28,9.9687 -8.9,9.9687 -6.49,0 -9.14,-5.3203 -9.61,-9.9687 l 18.51,0"
         style="fill:#231f20;fill-opacity:1;fill-rule:nonzero;stroke:none"
         id="path3388"
         inkscape:connector-curvature="0" /><path
         d="m 1234.84,59.9609 c 14.89,0 23.56,-10.8203 23.56,-25.3125 0,-14.8476 -8.6,-25.30856 -23.56,-25.30856 -14.92,0 -23.51,10.46096 -23.51,25.30856 0,14.4922 8.71,25.3125 23.51,25.3125 m 0,-44.4101 c 11.29,0 16.14,9.3711 16.14,19.0976 0,9.961 -5.32,19.1797 -16.14,19.1407 -10.78,0.039 -16.09,-9.1797 -16.09,-19.1407 0,-9.7265 4.84,-19.0976 16.09,-19.0976"
         style="fill:#231f20;fill-opacity:1;fill-rule:nonzero;stroke:none"
         id="path3390"
         inkscape:connector-curvature="0" /><path
         d="m 1267.89,17.1914 c 2.62,-1.6406 6.33,-2.5 8.2,-2.5 3.01,0 6.72,1.25 6.72,5.1094 0,6.5273 -15.51,5.9375 -15.51,15.9805 0,7.4179 5.55,10.9804 12.62,10.9804 3.13,0 5.63,-0.6328 8.21,-1.3711 l -0.55,-5.7812 c -1.49,0.9414 -5.39,1.8398 -6.95,1.8398 -3.33,0 -6.29,-1.4101 -6.29,-4.3398 0,-7.3086 15.46,-5.1992 15.46,-16.5977 0,-7.6601 -6.09,-11.17186 -12.46,-11.17186 -3.36,0 -6.75,0.39063 -9.8,1.98826 l 0.35,5.8633"
         style="fill:#231f20;fill-opacity:1;fill-rule:nonzero;stroke:none"
         id="path3392"
         inkscape:connector-curvature="0" /><path
         d="m 1319.61,40.6289 -9.45,0 0,-19.5781 c 0,-4.1406 2.54,-6.3594 5.54,-6.3594 2,0 3.52,0.6172 4.5,1.25 l 0,-5.5898 c -1.49,-0.42972 -3.56,-1.01176 -5.63,-1.01176 -6.8,0 -11.02,3.23826 -11.02,10.39066 l 0,20.8984 -8,0 0,5.3125 8,0 0,8.2383 6.61,2.1094 0,-10.3477 9.45,0 0,-5.3125"
         style="fill:#231f20;fill-opacity:1;fill-rule:nonzero;stroke:none"
         id="path3394"
         inkscape:connector-curvature="0" /><path
         d="m 1328.05,17.1914 c 2.58,-1.6406 6.29,-2.5 8.16,-2.5 3.05,0 6.76,1.25 6.76,5.1094 0,6.5273 -15.51,5.9375 -15.51,15.9805 0,7.4179 5.55,10.9804 12.62,10.9804 3.08,0 5.58,-0.6328 8.2,-1.3711 l -0.58,-5.7812 c -1.45,0.9414 -5.36,1.8398 -6.92,1.8398 -3.4,0 -6.33,-1.4101 -6.33,-4.3398 0,-7.3086 15.51,-5.1992 15.51,-16.5977 0,-7.6601 -6.09,-11.17186 -12.46,-11.17186 -3.4,0 -6.84,0.39063 -9.8,1.98826 l 0.35,5.8633"
         style="fill:#231f20;fill-opacity:1;fill-rule:nonzero;stroke:none"
         id="path3396"
         inkscape:connector-curvature="0" /><path
         d="m 1383.48,39.8789 c -2.54,1.0625 -5.08,1.5703 -7.15,1.5703 -7.38,0 -11.53,-6.6094 -11.53,-13.3594 0,-6.4101 3.44,-13.3984 11.96,-13.3984 2.19,0 5.04,0.6992 7.07,2.0274 l 0.47,-5.8985 c -2.74,-1.24999 -5.9,-1.48046 -8.28,-1.48046 -10.79,0 -18.21,8.46876 -18.21,18.74996 0,10.8204 7.31,18.6719 18.21,18.6719 2.65,0 6.09,-0.6328 8,-1.3711 l -0.54,-5.5117"
         style="fill:#231f20;fill-opacity:1;fill-rule:nonzero;stroke:none"
         id="path3398"
         inkscape:connector-curvature="0" /><path
         d="m 1394.69,62.7305 6.6,0 0,-21.9102 0.12,0 c 2.38,3.7891 6.52,5.9414 11.48,5.9414 9.26,0 13.4,-5.7422 13.4,-15.3515 l 0,-21.211 -6.6,0 0,18.4727 c 0,8.3594 -1.84,12.4179 -7.54,12.7773 -7.5,0 -10.86,-6.0195 -10.86,-14.7304 l 0,-16.5196 -6.6,0 0,52.5313"
         style="fill:#231f20;fill-opacity:1;fill-rule:nonzero;stroke:none"
         id="path3400"
         inkscape:connector-curvature="0" /><path
         d="m 1480.74,10.1992 -7.65,0 -9.22,30 -0.16,0 -9.02,-30 -7.66,0 -11.48,35.7422 7.22,0 8.17,-29.5703 0.15,0 9.11,29.5703 7.81,0 8.9,-29.5703 0.2,0 8.67,29.5703 6.45,0 -11.49,-35.7422"
         style="fill:#231f20;fill-opacity:1;fill-rule:nonzero;stroke:none"
         id="path3402"
         inkscape:connector-curvature="0" /><path
         d="m 1528.91,11.6797 c -2.54,-0.9414 -5.39,-2.33986 -11.29,-2.33986 -12.7,0 -18.52,7.73046 -18.52,19.33206 0,10.6289 6.64,18.0898 16.76,18.0898 11.91,0 15.74,-8.6719 15.74,-20.1601 l -25.47,0 c 0,-7.0703 5.51,-11.9102 11.76,-11.9102 4.38,0 9.41,2.2188 11.02,3.5469 l 0,-6.5586 z m -4.3,19.8008 c 0,5.4687 -3.2,9.9687 -8.91,9.9687 -6.4,0 -9.1,-5.3203 -9.57,-9.9687 l 18.48,0"
         style="fill:#231f20;fill-opacity:1;fill-rule:nonzero;stroke:none"
         id="path3404"
         inkscape:connector-curvature="0" /><path
         d="m 1543.71,53.9102 7.38,0 0,7.4609 -7.38,0 0,-7.4609 z m 0.39,-43.711 6.6,0 0,35.7422 -6.6,0 0,-35.7422"
         style="fill:#231f20;fill-opacity:1;fill-rule:nonzero;stroke:none"
         id="path3406"
         inkscape:connector-curvature="0" /><path
         d="m 1562.97,15.9414 20.58,24.6875 -19.6,0 0,5.3125 27.22,0 0,-5.7422 -20.54,-24.6484 21.32,0 0,-5.3516 -28.98,0 0,5.7422"
         style="fill:#231f20;fill-opacity:1;fill-rule:nonzero;stroke:none"
         id="path3408"
         inkscape:connector-curvature="0" /><path
         d="m 471.48,528.199 25.079,0 0,-50.539 50.203,0 0,50.539 25.117,0 0,-125.148 -25.117,0 0,54.879 -50.203,0 0,-54.879 -25.079,0 0,125.148"
         style="fill:#231f20;fill-opacity:1;fill-rule:nonzero;stroke:none"
         id="path3410"
         inkscape:connector-curvature="0" /><path
         d="m 689.531,505.27 c -7.89,3.402 -16.679,5.359 -25.472,5.359 -8.59,0 -19.68,-3.789 -19.68,-17.348 0,-21.722 54.84,-12.543 54.84,-54.492 0,-27.461 -21.719,-37.848 -46.989,-37.848 -13.601,0 -19.691,1.789 -32.031,4.84 l 2.301,22.578 c 8.59,-4.687 18.441,-7.699 28.32,-7.699 9.489,0 22.231,4.809 22.231,16.102 0,23.867 -54.852,13.976 -54.852,55.386 0,27.973 21.68,38.204 43.75,38.204 10.75,0 20.75,-1.481 29.93,-4.493 l -2.348,-20.589"
         style="fill:#231f20;fill-opacity:1;fill-rule:nonzero;stroke:none"
         id="path3412"
         inkscape:connector-curvature="0" /><path
         d="m 766.371,474.77 8.238,0 c 12.379,0 26.52,1.832 26.52,17.378 0,15.082 -13.938,16.332 -26.52,16.332 l -8.238,0 0,-33.71 z m -25.082,53.429 27.031,0 c 26.91,0 58.981,0.903 58.981,-33.859 0,-14.731 -9.879,-26.918 -25.781,-29.07 l 0,-0.348 c 6.8,-0.512 10.75,-7.383 13.21,-12.891 l 20.11,-48.98 -27.961,0 -15.039,39.097 c -3.602,9.332 -6.84,12.891 -17.391,12.891 l -8.078,0 0,-51.988 -25.082,0 0,125.148"
         style="fill:#231f20;fill-opacity:1;fill-rule:nonzero;stroke:none"
         id="path3414"
         inkscape:connector-curvature="0" /><path
         d="m 471.211,342.809 7.539,0 0,-21.989 25.121,0 0,21.989 7.539,0 0,-52.579 -7.539,0 0,23.989 -25.121,0 0,-23.989 -7.539,0 0,52.579"
         style="fill:#231f20;fill-opacity:1;fill-rule:nonzero;stroke:none"
         id="path3416"
         inkscape:connector-curvature="0" /><path
         d="m 555.27,295.98 c 12.109,0 17.308,10.071 17.308,20.54 0,10.671 -5.699,20.671 -17.308,20.55 -11.598,0.121 -17.34,-9.879 -17.34,-20.55 0,-10.469 5.23,-20.54 17.34,-20.54 m 0,47.731 c 15.941,0 25.32,-11.602 25.32,-27.191 0,-15.969 -9.262,-27.18 -25.32,-27.18 -16.051,0 -25.309,11.211 -25.309,27.18 0,15.589 9.34,27.191 25.309,27.191"
         style="fill:#231f20;fill-opacity:1;fill-rule:nonzero;stroke:none"
         id="path3418"
         inkscape:connector-curvature="0" /><path
         d="m 635.039,334.141 c -3.32,1.949 -6.988,2.968 -10.82,2.968 -12.11,0 -20.16,-8.711 -20.16,-20.589 0,-12.34 8.832,-20.54 19.769,-20.54 3.75,0 8.793,0.969 11.442,2.54 l 0.429,-7.231 c -3.98,-1.68 -8.859,-1.988 -11.949,-1.988 -16.641,0 -27.699,10.699 -27.699,27.461 0,16.168 11.758,26.949 27.777,26.949 4.063,0 8.082,-0.551 11.832,-2.262 l -0.621,-7.308"
         style="fill:#231f20;fill-opacity:1;fill-rule:nonzero;stroke:none"
         id="path3420"
         inkscape:connector-curvature="0" /><path
         d="m 652.621,342.809 7.539,0 0,-21.989 25.149,0 0,21.989 7.5,0 0,-52.579 -7.5,0 0,23.989 -25.149,0 0,-23.989 -7.539,0 0,52.579"
         style="fill:#231f20;fill-opacity:1;fill-rule:nonzero;stroke:none"
         id="path3422"
         inkscape:connector-curvature="0" /><path
         d="m 737.969,334.879 c -3.828,1.531 -5.938,2.23 -9.879,2.23 -4.18,0 -9.141,-1.558 -9.141,-7.031 0,-10.078 22.571,-7.777 22.571,-25.078 0,-11.211 -8.668,-15.699 -19.18,-15.699 -3.711,0 -7.34,1.09 -10.82,2.219 l 0.781,7 c 2.539,-1.059 7.109,-2.54 10.937,-2.54 4.301,0 10.313,2.379 10.313,8.508 0,11.801 -22.571,8.563 -22.571,24.922 0,9.34 7.34,14.301 16.829,14.301 3.48,0 7.621,-0.582 11.211,-1.91 l -1.051,-6.922"
         style="fill:#231f20;fill-opacity:1;fill-rule:nonzero;stroke:none"
         id="path3424"
         inkscape:connector-curvature="0" /><path
         d="m 795.551,334.141 c -3.321,1.949 -7,2.968 -10.821,2.968 -12.152,0 -20.199,-8.711 -20.199,-20.589 0,-12.34 8.91,-20.54 19.848,-20.54 3.75,0 8.781,0.969 11.402,2.54 l 0.469,-7.231 c -4.02,-1.68 -8.91,-1.988 -11.988,-1.988 -16.641,0 -27.703,10.699 -27.703,27.461 0,16.168 11.722,26.949 27.82,26.949 4.019,0 8,-0.551 11.75,-2.262 l -0.578,-7.308"
         style="fill:#231f20;fill-opacity:1;fill-rule:nonzero;stroke:none"
         id="path3426"
         inkscape:connector-curvature="0" /><path
         d="m 813.16,342.809 7.539,0 0,-21.989 25.121,0 0,21.989 7.539,0 0,-52.579 -7.539,0 0,23.989 -25.121,0 0,-23.989 -7.539,0 0,52.579"
         style="fill:#231f20;fill-opacity:1;fill-rule:nonzero;stroke:none"
         id="path3428"
         inkscape:connector-curvature="0" /><path
         d="m 915.512,312.031 c 0,-14.761 -7.422,-22.691 -20.391,-22.691 -12.93,0 -20.391,7.93 -20.391,22.691 l 0,30.778 7.54,0 0,-29.84 c 0,-10.117 3.121,-16.989 12.851,-16.989 9.68,0 12.891,6.872 12.891,16.989 l 0,29.84 7.5,0 0,-30.778"
         style="fill:#231f20;fill-opacity:1;fill-rule:nonzero;stroke:none"
         id="path3430"
         inkscape:connector-curvature="0" /><path
         d="m 936.449,342.809 7.5,0 0,-45.93 21.992,0 0,-6.649 -29.492,0 0,52.579"
         style="fill:#231f20;fill-opacity:1;fill-rule:nonzero;stroke:none"
         id="path3432"
         inkscape:connector-curvature="0" /><path
         d="m 981.988,342.809 29.462,0 0,-6.598 -21.919,0 0,-15.391 19.999,0 0,-6.601 -19.999,0 0,-17.34 21.919,0 0,-6.649 -29.462,0 0,52.579"
         style="fill:#231f20;fill-opacity:1;fill-rule:nonzero;stroke:none"
         id="path3434"
         inkscape:connector-curvature="0" /><path
         d="m 1058.98,342.809 27.93,0 0,-6.598 -20.39,0 0,-15.391 19.53,0 0,-6.601 -19.53,0 0,-23.989 -7.54,0 0,52.579"
         style="fill:#231f20;fill-opacity:1;fill-rule:nonzero;stroke:none"
         id="path3436"
         inkscape:connector-curvature="0" /><path
         d="m 1127.73,354.691 7.07,0 0,-7.5 -7.07,0 0,7.5 z m -12.38,0 7.07,0 0,-7.5 -7.07,0 0,7.5 z m 30.16,-42.66 c 0,-14.761 -7.46,-22.73 -20.39,-22.73 -12.97,0 -20.43,7.969 -20.43,22.73 l 0,30.778 7.54,0 0,-29.84 c 0,-10.117 3.12,-16.989 12.89,-16.989 9.68,0 12.85,6.872 12.85,16.989 l 0,29.84 7.54,0 0,-30.778"
         style="fill:#231f20;fill-opacity:1;fill-rule:nonzero;stroke:none"
         id="path3438"
         inkscape:connector-curvature="0" /><path
         d="m 1173.55,320.199 6.41,0 c 7.15,0 11.41,3.199 11.41,8.242 0,4.719 -3.67,7.77 -10.59,7.77 l -7.23,0 0,-16.012 z m -7.5,22.61 12.86,0 c 10.39,0 20.39,-1.68 20.39,-14.258 0,-6.403 -4.73,-10.891 -10.82,-11.949 l 0,-0.122 c 2.3,-0.929 3.43,-2.031 5.07,-5.308 l 9.97,-20.942 -8.6,0 -8.04,18.25 c -2.35,5.149 -4.81,5.149 -8.83,5.149 l -4.5,0 0,-23.399 -7.5,0 0,52.579"
         style="fill:#231f20;fill-opacity:1;fill-rule:nonzero;stroke:none"
         id="path3440"
         inkscape:connector-curvature="0" /><path
         d="m 1258.91,336.211 -16.33,0 0,6.598 40.19,0 0,-6.598 -16.32,0 0,-45.981 -7.54,0 0,45.981"
         style="fill:#231f20;fill-opacity:1;fill-rule:nonzero;stroke:none"
         id="path3442"
         inkscape:connector-curvature="0" /><path
         d="m 1298.16,342.809 29.46,0 0,-6.598 -21.96,0 0,-15.391 20,0 0,-6.601 -20,0 0,-17.34 21.96,0 0,-6.649 -29.46,0 0,52.579"
         style="fill:#231f20;fill-opacity:1;fill-rule:nonzero;stroke:none"
         id="path3444"
         inkscape:connector-curvature="0" /><path
         d="m 1383.48,334.141 c -3.32,1.949 -7.03,2.968 -10.82,2.968 -12.19,0 -20.28,-8.711 -20.28,-20.589 0,-12.34 8.91,-20.54 19.89,-20.54 3.71,0 8.78,0.969 11.36,2.54 l 0.47,-7.231 c -3.94,-1.68 -8.9,-1.988 -11.95,-1.988 -16.64,0 -27.7,10.699 -27.7,27.461 0,16.168 11.72,26.949 27.82,26.949 4.06,0 8,-0.551 11.75,-2.262 l -0.54,-7.308"
         style="fill:#231f20;fill-opacity:1;fill-rule:nonzero;stroke:none"
         id="path3446"
         inkscape:connector-curvature="0" /><path
         d="m 1401.02,342.809 7.53,0 0,-21.989 25.16,0 0,21.989 7.5,0 0,-52.579 -7.5,0 0,23.989 -25.16,0 0,-23.989 -7.53,0 0,52.579"
         style="fill:#231f20;fill-opacity:1;fill-rule:nonzero;stroke:none"
         id="path3448"
         inkscape:connector-curvature="0" /><path
         d="m 1462.42,342.809 10.28,0 23.16,-42.34 0.16,0 0,42.34 7.53,0 0,-52.579 -9.64,0 -23.79,43.25 -0.16,0 0,-43.25 -7.54,0 0,52.579"
         style="fill:#231f20;fill-opacity:1;fill-rule:nonzero;stroke:none"
         id="path3450"
         inkscape:connector-curvature="0" /><path
         d="m 1524.38,290.23 7.5,0 0,52.5781 -7.5,0 0,-52.5781 z"
         style="fill:#231f20;fill-opacity:1;fill-rule:nonzero;stroke:none"
         id="path3452"
         inkscape:connector-curvature="0" /><path
         d="m 1553.16,342.809 7.54,0 0,-23.118 22.46,23.118 10,0 -24.64,-24.84 26.64,-27.739 -11.02,0 -23.44,25.79 0,-25.79 -7.54,0 0,52.579"
         style="fill:#231f20;fill-opacity:1;fill-rule:nonzero;stroke:none"
         id="path3454"
         inkscape:connector-curvature="0" /><path
         d="m 478.871,207.109 6.399,0 c 7.109,0 11.332,3.161 11.332,8.161 0,4.769 -3.633,7.781 -10.551,7.781 l -7.18,0 0,-15.942 z m -7.582,22.582 12.891,0 c 10.39,0 20.429,-1.679 20.429,-14.261 0,-6.371 -4.769,-10.899 -10.859,-11.95 l 0,-0.16 c 2.34,-0.898 3.48,-2.031 5.121,-5.269 l 9.957,-20.942 -8.598,0 -8.039,18.243 c -2.351,5.117 -4.851,5.117 -8.832,5.117 l -4.488,0 0,-23.36 -7.582,0 0,52.582"
         style="fill:#231f20;fill-opacity:1;fill-rule:nonzero;stroke:none"
         id="path3456"
         inkscape:connector-curvature="0" /><path
         d="m 545.59,222.578 -10.469,-26.019 20.93,0 -10.461,26.019 z m -3.68,7.113 7.891,0 22.23,-52.582 -8.203,0 -5.348,13.243 -25.75,0 -5.351,-13.243 -7.93,0 22.461,52.582"
         style="fill:#231f20;fill-opacity:1;fill-rule:nonzero;stroke:none"
         id="path3458"
         inkscape:connector-curvature="0" /><path
         d="m 594.219,204.73 7.422,0 c 4.687,0 10.55,2.379 10.55,9.29 0,6.64 -6.921,9.031 -11.601,9.031 l -6.371,0 0,-18.321 z m -7.539,24.961 13.75,0 c 10.781,0 19.769,-3.832 19.769,-15.742 0,-11.679 -9.148,-15.789 -18.597,-15.789 l -7.383,0 0,-21.051 -7.539,0 0,52.582"
         style="fill:#231f20;fill-opacity:1;fill-rule:nonzero;stroke:none"
         id="path3460"
         inkscape:connector-curvature="0" /><path
         d="m 643.551,204.73 7.469,0 c 4.679,0 10.539,2.379 10.539,9.29 0,6.64 -6.911,9.031 -11.559,9.031 l -6.449,0 0,-18.321 z m -7.5,24.961 13.75,0 c 10.789,0 19.73,-3.832 19.73,-15.742 0,-11.679 -9.101,-15.789 -18.59,-15.789 l -7.39,0 0,-21.051 -7.5,0 0,52.582"
         style="fill:#231f20;fill-opacity:1;fill-rule:nonzero;stroke:none"
         id="path3462"
         inkscape:connector-curvature="0" /><path
         d="m 686.211,229.691 29.449,0 0,-6.64 -21.871,0 0,-15.352 19.922,0 0,-6.648 -19.922,0 0,-17.301 21.871,0 0,-6.641 -29.449,0 0,52.582"
         style="fill:#231f20;fill-opacity:1;fill-rule:nonzero;stroke:none"
         id="path3464"
         inkscape:connector-curvature="0" /><path
         d="m 742.27,207.109 6.441,0 c 7.148,0 11.328,3.161 11.328,8.161 0,4.769 -3.59,7.781 -10.508,7.781 l -7.261,0 0,-15.942 z m -7.5,22.582 12.851,0 c 10.43,0 20.43,-1.679 20.43,-14.261 0,-6.371 -4.731,-10.899 -10.821,-11.95 l 0,-0.16 c 2.34,-0.898 3.43,-2.031 5.11,-5.269 l 9.93,-20.942 -8.598,0 -8.043,18.243 c -2.309,5.117 -4.809,5.117 -8.828,5.117 l -4.531,0 0,-23.36 -7.5,0 0,52.582"
         style="fill:#231f20;fill-opacity:1;fill-rule:nonzero;stroke:none"
         id="path3466"
         inkscape:connector-curvature="0" /><path
         d="m 812.621,221.801 c -3.832,1.48 -5.98,2.148 -9.891,2.148 -4.21,0 -9.179,-1.488 -9.179,-7 0,-10.109 22.578,-7.769 22.578,-25.039 0,-11.25 -8.668,-15.699 -19.219,-15.699 -3.672,0 -7.262,1.019 -10.738,2.187 l 0.738,6.993 c 2.539,-1.051 7.11,-2.539 10.942,-2.539 4.296,0 10.308,2.418 10.308,8.597 0,11.711 -22.609,8.473 -22.609,24.801 0,9.379 7.379,14.262 16.871,14.262 3.476,0 7.617,-0.551 11.207,-1.84 l -1.008,-6.871"
         style="fill:#231f20;fill-opacity:1;fill-rule:nonzero;stroke:none"
         id="path3468"
         inkscape:connector-curvature="0" /><path
         d="m 827.301,229.691 8.289,0 12.609,-45 0.121,0 11.25,45 10.66,0 11.372,-45 0.16,0 12.578,45 7.961,0 -16.172,-52.582 -9.719,0 -11.449,45.942 -0.16,0 -11.52,-45.942 -10.082,0 -15.898,52.582"
         style="fill:#231f20;fill-opacity:1;fill-rule:nonzero;stroke:none"
         id="path3470"
         inkscape:connector-curvature="0" /><path
         d="m 916.641,177.109 7.53906,0 0,52.582 -7.53906,0 0,-52.582 z"
         style="fill:#231f20;fill-opacity:1;fill-rule:nonzero;stroke:none"
         id="path3472"
         inkscape:connector-curvature="0" /><path
         d="m 945,229.691 7.582,0 0,-45.941 21.988,0 0,-6.641 -29.57,0 0,52.582"
         style="fill:#231f20;fill-opacity:1;fill-rule:nonzero;stroke:none"
         id="path3474"
         inkscape:connector-curvature="0" /></g></g></svg>