<?xml version="1.0" encoding="UTF-8"?>
<svg height="147.68pt" xmlns="http://www.w3.org/2000/svg" xmlns:inkscape="http://www.inkscape.org/namespaces/inkscape" width="566.93pt" version="1.1" viewBox="0 0 566.93 147.68" xmlns:xlink="http://www.w3.org/1999/xlink">
 <title>RZ_InfoGuard_Logo_CMYK_Positiv.eps</title>
 <defs>
  <clipPath id="Clip0">
   <path d="M566.929 0.004 L566.929 147.684 L0 147.684 L0 0.004 L566.929 0.004 Z"/>
  </clipPath>
 </defs>
 <g inkscape:groupmode="layer" inkscape:label="Background" id="Background">
  <g style="fill:none; stroke:none" clip-rule="evenodd" clip-path="url(#Clip0)" transform="translate(0, -0.004) scale(1, 1)" id="Group1">
   <path style="fill:#ffdb00; fill-rule:nonzero;stroke:none;" transform="translate(0, 0.784)" d="M0 0 L0 25.064 L17.0824 25.064 L17.0824 0 L0 0 "/>
   <path style="fill:#545556; fill-rule:nonzero;stroke:none;" transform="translate(0, 120.997)" d="M552.111 16.0723 L541.863 0.443 L547.245 0.443 L554.433 11.832 L561.731 0.443 L566.929 0.443 L556.682 15.9609 L556.682 26.2449 L552.111 26.2449 L552.111 16.0723 Z M521.627 4.6441 L513.444 4.6441 L513.444 0.443 L534.381 0.443 L534.381 4.6441 L526.197 4.6441 L526.197 26.2449 L521.627 26.2449 L521.627 4.6441 Z M498.515 0.443 L503.049 0.443 L503.049 26.2449 L498.515 26.2449 L498.515 0.443 Z M477.43 13.2332 C480.673 13.2332 482.738 11.5371 482.738 8.9199 L482.738 8.8473 C482.738 6.0812 480.748 4.5711 477.392 4.5711 L470.794 4.5711 L470.794 13.2332 L477.43 13.2332 Z M466.26 0.443 L477.761 0.443 C481.005 0.443 483.549 1.4 485.208 3.023 C486.572 4.423 487.345 6.3402 487.345 8.5883 L487.345 8.6633 C487.345 12.9012 484.801 15.4441 481.226 16.4769 L488.193 26.2449 L482.811 26.2449 L476.472 17.2512 L470.794 17.2512 L470.794 26.2449 L466.26 26.2449 L466.26 0.443 Z M432.606 15.2973 L432.606 0.443 L437.141 0.443 L437.141 15.1133 C437.141 19.9039 439.61 22.448 443.665 22.448 C447.683 22.448 450.153 20.0519 450.153 15.2973 L450.153 0.443 L454.687 0.443 L454.687 15.0762 C454.687 22.7801 450.336 26.65 443.591 26.65 C436.882 26.65 432.606 22.7801 432.606 15.2973 Z M399.322 13.4172 L399.322 13.3441 C399.322 6.0082 404.814 0 412.628 0 C417.383 0 420.258 1.659 422.728 4.018 L419.816 7.3723 C417.752 5.4551 415.54 4.166 412.592 4.166 C407.689 4.166 404.076 8.2191 404.076 13.2699 L404.076 13.3441 C404.076 18.3941 407.651 22.4851 412.592 22.4851 C415.761 22.4851 417.788 21.232 420.001 19.168 L422.913 22.1172 C420.222 24.918 417.273 26.6871 412.444 26.6871 C404.924 26.6871 399.322 20.8262 399.322 13.4172 Z M370.421 0.443 L389.552 0.443 L389.552 4.4973 L374.955 4.4973 L374.955 11.2062 L387.894 11.2062 L387.894 15.2609 L374.955 15.2609 L374.955 22.1902 L389.737 22.1902 L389.737 26.2449 L370.421 26.2449 L370.421 0.443 Z M339.753 22.4851 L342.481 19.241 C344.95 21.3789 347.456 22.5949 350.626 22.5949 C353.428 22.5949 355.197 21.268 355.197 19.3519 L355.197 19.2781 C355.197 17.4352 354.166 16.4402 349.373 15.334 C343.881 14.007 340.785 12.3851 340.785 7.6301 L340.785 7.5562 C340.785 3.1332 344.471 0.0742 349.594 0.0742 C353.354 0.0742 356.34 1.216 358.957 3.3172 L356.525 6.7461 C354.202 5.0133 351.88 4.091 349.521 4.091 C346.867 4.091 345.318 5.4551 345.318 7.1512 L345.318 7.2242 C345.318 9.216 346.498 10.1 351.475 11.2789 C356.93 12.6062 359.731 14.5601 359.731 18.8359 L359.731 18.909 C359.731 23.7383 355.935 26.6141 350.516 26.6141 C346.572 26.6141 342.849 25.25 339.753 22.4851 Z M304.254 13.2332 C307.498 13.2332 309.563 11.5371 309.563 8.9199 L309.563 8.8473 C309.563 6.0812 307.572 4.5711 304.217 4.5711 L297.619 4.5711 L297.619 13.2332 L304.254 13.2332 Z M293.085 0.443 L304.586 0.443 C307.83 0.443 310.374 1.4 312.032 3.023 C313.396 4.423 314.17 6.3402 314.17 8.5883 L314.17 8.6633 C314.17 12.9012 311.626 15.4441 308.051 16.4769 L315.018 26.2449 L309.636 26.2449 L303.296 17.2512 L297.619 17.2512 L297.619 26.2449 L293.085 26.2449 L293.085 0.443 Z M263.043 0.443 L282.174 0.443 L282.174 4.4973 L267.577 4.4973 L267.577 11.2062 L280.515 11.2062 L280.515 15.2609 L267.577 15.2609 L267.577 22.1902 L282.359 22.1902 L282.359 26.2449 L263.043 26.2449 L263.043 0.443 Z M242.733 15.15 L235.546 15.15 L235.546 22.2269 L243.065 22.2269 C246.161 22.2269 248.042 21.0109 248.042 18.6883 L248.042 18.6152 C248.042 16.4402 246.309 15.15 242.733 15.15 Z M246.603 7.741 C246.603 5.7141 244.982 4.4601 242.07 4.4601 L235.546 4.4601 L235.546 11.316 L241.738 11.316 C244.65 11.316 246.603 10.173 246.603 7.8141 L246.603 7.741 Z M231.085 0.443 L242.659 0.443 C245.608 0.443 247.931 1.2531 249.405 2.7269 C250.548 3.8699 251.138 5.2711 251.138 7.0031 L251.138 7.0781 C251.138 10.173 249.369 11.832 247.452 12.8269 C250.474 13.859 252.575 15.5922 252.575 19.0941 L252.575 19.168 C252.575 23.775 248.779 26.2449 243.028 26.2449 L231.085 26.2449 L231.085 0.443 Z M206.941 16.0723 L196.693 0.443 L202.075 0.443 L209.263 11.832 L216.561 0.443 L221.759 0.443 L211.511 15.9609 L211.511 26.2449 L206.941 26.2449 L206.941 16.0723 Z M166.025 13.4172 L166.025 13.3441 C166.025 6.0082 171.517 0 179.331 0 C184.086 0 186.961 1.659 189.431 4.018 L186.519 7.3723 C184.455 5.4551 182.243 4.166 179.295 4.166 C174.391 4.166 170.779 8.2191 170.779 13.2699 L170.779 13.3441 C170.779 18.3941 174.354 22.4851 179.295 22.4851 C182.464 22.4851 184.491 21.232 186.704 19.168 L189.616 22.1172 C186.925 24.918 183.976 26.6871 179.147 26.6871 C171.627 26.6871 166.025 20.8262 166.025 13.4172 Z M120.096 22.4851 L122.824 19.241 C125.293 21.3789 127.799 22.5949 130.97 22.5949 C133.771 22.5949 135.54 21.268 135.54 19.3519 L135.54 19.2781 C135.54 17.4352 134.509 16.4402 129.716 15.334 C124.224 14.007 121.128 12.3851 121.128 7.6301 L121.128 7.5562 C121.128 3.1332 124.814 0.0742 129.937 0.0742 C133.698 0.0742 136.683 1.216 139.3 3.3172 L136.868 6.7461 C134.545 5.0133 132.223 4.091 129.864 4.091 C127.21 4.091 125.661 5.4551 125.661 7.1512 L125.661 7.2242 C125.661 9.216 126.841 10.1 131.818 11.2789 C137.273 12.6062 140.074 14.5601 140.074 18.8359 L140.074 18.909 C140.074 23.7383 136.278 26.6141 130.859 26.6141 C126.915 26.6141 123.192 25.25 120.096 22.4851 Z M91.527 22.4851 L94.2551 19.241 C96.7246 21.3789 99.2305 22.5949 102.401 22.5949 C105.202 22.5949 106.971 21.268 106.971 19.3519 L106.971 19.2781 C106.971 17.4352 105.94 16.4402 101.147 15.334 C95.6551 14.007 92.5594 12.3851 92.5594 7.6301 L92.5594 7.5562 C92.5594 3.1332 96.2453 0.0742 101.368 0.0742 C105.129 0.0742 108.114 1.216 110.732 3.3172 L108.299 6.7461 C105.976 5.0133 103.654 4.091 101.295 4.091 C98.6414 4.091 97.0926 5.4551 97.0926 7.1512 L97.0926 7.2242 C97.0926 9.216 98.2727 10.1 103.249 11.2789 C108.704 12.6062 111.506 14.5601 111.506 18.8359 L111.506 18.909 C111.506 23.7383 107.709 26.6141 102.29 26.6141 C98.3461 26.6141 94.6227 25.25 91.527 22.4851 Z M76.4879 0.443 L81.0223 0.443 L81.0223 26.2449 L76.4879 26.2449 L76.4879 0.443 Z M27.7566 0.443 L32.6598 0.443 L38.8152 19.573 L45.1547 0.368 L48.9887 0.368 L55.3293 19.573 L61.4848 0.443 L66.2402 0.443 L57.282 26.4289 L53.3379 26.4289 L46.9984 7.8883 L40.6578 26.4289 L36.7508 26.4289 L27.7566 0.443 Z M0 22.4851 L2.72813 19.241 C5.19766 21.3789 7.70352 22.5949 10.8738 22.5949 C13.6754 22.5949 15.4441 21.268 15.4441 19.3519 L15.4441 19.2781 C15.4441 17.4352 14.4129 16.4402 9.62031 15.334 C4.12813 14.007 1.03242 12.3851 1.03242 7.6301 L1.03242 7.5562 C1.03242 3.1332 4.71836 0.0742 9.84141 0.0742 C13.602 0.0742 16.5871 1.216 19.2047 3.3172 L16.7723 6.7461 C14.4492 5.0133 12.1273 4.091 9.76797 4.091 C7.11445 4.091 5.56563 5.4551 5.56563 7.1512 L5.56563 7.2242 C5.56563 9.216 6.7457 10.1 11.7223 11.2789 C17.1773 12.6062 19.9785 14.5601 19.9785 18.8359 L19.9785 18.909 C19.9785 23.7383 16.182 26.6141 10.7633 26.6141 C6.81914 26.6141 3.0957 25.25 0 22.4851 Z"/>
   <path style="fill:#545556; fill-rule:nonzero;stroke:none;" transform="translate(0, 0)" d="M290.618 42.874 L290.618 80.902 L290.262 81.2102 C282.903 87.4988 270.517 94.9985 253.309 94.9985 C241.259 94.9985 230.717 91.3172 222.562 84.3535 C226.13 78.7156 228.478 72.2391 229.284 65.2402 C234.091 73.7793 242.864 79.0379 253.813 79.0379 C261.129 79.0379 268.375 76.8235 273.786 72.9563 L273.786 58.2152 L251.545 58.2152 L251.545 42.874 L290.618 42.874 Z M224.8 38.939 C227.584 25.72 239.97 16.088 252.903 16.088 C263.764 16.088 270.02 19.562 276.599 25.163 L277.383 25.831 L278.045 25.041 L287.739 13.488 L288.391 12.712 L287.614 12.052 C277.513 3.489 267.639 0 253.526 0 C236.947 0 220.206 9.618 212.113 23.468 C217.431 27.618 221.773 32.884 224.8 38.939 Z M130.692 0 C123.97 0 118.896 1.806 115.178 5.52 C111.435 9.268 109.539 14.945 109.539 22.398 L109.539 26.22 L101.211 26.22 L101.211 40.818 L109.539 40.818 L109.539 93.5098 L126.617 93.5098 L126.617 40.818 L143.765 40.818 L143.765 26.346 L126.369 26.346 L126.369 23.764 C126.369 17.679 128.809 14.844 134.046 14.844 C137.206 14.844 139.73 15.469 142.546 16.411 L143.895 16.856 L143.895 1.998 L143.161 1.782 C140.184 0.9 136.376 0 130.692 0 Z M163.426 59.8035 C163.426 71.0098 171.763 79.7828 182.411 79.7828 C193.342 79.7828 201.272 71.4836 201.272 60.0492 L201.272 59.8035 C201.272 48.3426 193.058 39.699 182.164 39.699 C171.307 39.699 163.426 48.0516 163.426 59.5551 L163.426 59.8035 Z M218.348 59.5551 L218.348 59.8035 C218.348 79.5418 202.457 94.9988 182.164 94.9988 C162.077 94.9988 146.344 79.6473 146.344 60.0492 L146.344 59.8035 C146.344 39.998 162.187 24.481 182.411 24.481 C202.567 24.481 218.348 39.887 218.348 59.5551 Z M68.6035 24.481 C60.7445 24.481 54.3457 27.567 49.1191 33.896 L49.1191 25.848 L32.0367 25.848 L32.0367 93.5098 L49.1191 93.5098 L49.1191 55.4531 C49.1191 46.184 54.5219 40.193 62.8871 40.193 C71.282 40.193 75.9086 45.523 75.9086 55.2063 L75.9086 93.5098 L92.9863 93.5098 L92.9863 50.6067 C92.9863 34.494 83.6445 24.481 68.6035 24.481 Z M0 25.848 L0 93.5098 L17.0824 93.5098 L17.0824 25.848 L0 25.848 Z M550.098 59.8035 L550.098 59.5551 C550.098 48.1613 542.362 39.57 532.105 39.57 C521.585 39.57 514.237 47.7895 514.237 59.5551 L514.237 59.8035 C514.237 71.1938 521.918 79.7828 532.105 79.7828 C540.95 79.7828 550.098 72.3074 550.098 59.8035 Z M566.929 0.745 L566.929 93.5098 L549.847 93.5098 L549.847 84.5645 C544.1 91.4949 537.09 94.8699 528.503 94.8699 C513.245 94.8699 497.031 82.584 497.031 59.8035 L497.031 59.5551 C497.031 36.53 512.866 24.481 528.503 24.481 C537.058 24.481 544.068 27.669 549.847 34.204 L549.847 0.745 L566.929 0.745 Z M491.636 24.607 L492.614 24.65 L492.614 42.557 L490.722 42.557 C477.156 42.557 469.377 51.6477 469.377 67.5031 L469.377 93.5098 L452.296 93.5098 L452.296 25.848 L469.377 25.848 L469.377 37.245 C474.095 28.938 481.296 24.581 490.402 24.581 C490.81 24.581 491.22 24.589 491.636 24.607 Z M421.784 68.8746 L421.784 65.109 C418.749 64.009 414.037 62.8125 407.894 62.8125 C398.75 62.8125 393.507 66.4274 393.507 72.7293 L393.507 72.9758 C393.507 78.391 398.131 81.8938 405.285 81.8938 C414.847 81.8938 421.784 76.4184 421.784 68.8746 Z M430.729 32.604 C435.635 37.382 438.119 44.442 438.119 53.5902 L438.119 93.5098 L421.412 93.5098 L421.412 86.9035 C416.14 92.1289 409.156 94.8699 401.06 94.8699 C389.379 94.8699 376.802 88.2129 376.802 73.5957 L376.802 73.3481 C376.802 59.4813 387.311 51.2027 404.914 51.2027 C412.208 51.2027 417.415 52.343 421.538 53.575 L421.538 53.3434 C421.538 42.371 413.241 40.07 406.282 40.07 C399.044 40.07 393.701 41.677 387.91 44.094 L386.897 44.513 L386.549 43.48 L382.571 31.673 L382.271 30.793 L383.119 30.416 C389.41 27.593 396.812 24.978 408.269 24.978 C418.105 24.978 425.879 27.62 430.729 32.604 Z M366.29 25.848 L366.29 93.5098 L349.084 93.5098 L349.084 85.3832 C343.902 91.7625 337.502 94.8699 329.602 94.8699 C314.559 94.8699 305.216 84.8145 305.216 68.6254 L305.216 25.848 L322.298 25.848 L322.298 64.1531 C322.298 73.7496 326.925 79.0379 335.319 79.0379 C343.808 79.0379 349.084 73.2391 349.084 63.9024 L349.084 25.848 L366.29 25.848 Z"/>
  </g>
 </g>
</svg>
