<?xml version="1.0" encoding="UTF-8" standalone="no"?>
<svg
   xmlns:dc="http://purl.org/dc/elements/1.1/"
   xmlns:cc="http://creativecommons.org/ns#"
   xmlns:rdf="http://www.w3.org/1999/02/22-rdf-syntax-ns#"
   xmlns:svg="http://www.w3.org/2000/svg"
   xmlns="http://www.w3.org/2000/svg"
   viewBox="0 0 425.32501 105.425"
   height="105.425"
   width="425.32501"
   xml:space="preserve"
   version="1.1"
   id="svg2"><metadata
     id="metadata8"><rdf:RDF><cc:Work
         rdf:about=""><dc:format>image/svg+xml</dc:format><dc:type
           rdf:resource="http://purl.org/dc/dcmitype/StillImage" /><dc:title></dc:title></cc:Work></rdf:RDF></metadata><defs
     id="defs6" /><g
     transform="matrix(1.25,0,0,-1.25,0,105.425)"
     id="g10"><g
       transform="scale(0.1,0.1)"
       id="g12"><path
         id="path14"
         style="fill:#4f4c4c;fill-opacity:1;fill-rule:nonzero;stroke:none"
         d="m 309.703,431.645 c 0,53.265 16.981,138.058 95.309,138.058 69.437,0 70.273,-68.629 70.273,-119.508 l 0,-168.734 108.219,0 0,209.125 c 0,93.66 -42.805,163.109 -141.32,163.109 -56.524,0 -102.579,-18.597 -136.485,-66.238 l -1.605,0 0,55.906 -102.531,0 0,-361.902 108.14,0 0,150.184" /><path
         id="path16"
         style="fill:#4f4c4c;fill-opacity:1;fill-rule:nonzero;stroke:none"
         d="m 819.758,564.863 94.441,0 0.074,78.883 -94.437,0 -0.078,51.918 c 0,32.313 11.285,63.82 47.64,63.82 23.399,0 37.153,-8.882 46.801,-14.558 l 8.887,89.637 c -20.953,4.855 -51.648,8.871 -79.117,8.871 -85.567,0 -132.403,-58.118 -132.403,-141.301 l 0.075,-58.387 -79.957,0 -0.079,-78.883 79.961,0 0,-283.402 108.192,0 0,283.402" /><path
         id="path18"
         style="fill:#918f90;fill-opacity:1;fill-rule:nonzero;stroke:none"
         d="m 2220.4,281.461 0,362.516 -108.21,0 0,-203.454 c 0,-53.304 -16.95,-138.105 -95.24,-138.105 -69.45,0 -70.28,68.656 -70.28,119.516 l 0,222.043 -108.22,0 0,-262.407 c 0,-38.578 7.4,-72.902 22.8,-100.109 l 359.15,0" /><path
         id="path20"
         style="fill:#918f90;fill-opacity:1;fill-rule:nonzero;stroke:none"
         d="m 2456.99,297.59 c -38.78,0 -68.59,15.34 -68.59,50.863 0,63.805 71.83,71.902 120.29,71.902 l 46.84,0 c 0,-32.324 -4.88,-62.179 -22.63,-85.628 -17,-22.594 -42.76,-37.137 -75.91,-37.137 z m 200.16,-16.129 c -0.62,13.031 -1.16,26.066 -1.5,39.559 -0.83,30.679 -1.62,62.156 -1.62,104.164 l 0,53.261 c 0,122.762 -52.46,175.25 -179.28,175.25 -46.01,0 -102.56,-12.136 -144.52,-31.476 l 3.21,-92.871 c 36.34,27.429 82.38,45.195 128.39,45.195 63.82,0 93.7,-22.605 93.7,-89.633 l -59.79,0 c -45.19,0 -98.47,-4.035 -139.67,-24.211 -41.18,-20.176 -71.05,-56.527 -71.05,-118.722 0,-23.305 6.35,-43.493 17.02,-60.516 l 355.11,0" /><path
         id="path22"
         style="fill:#918f90;fill-opacity:1;fill-rule:nonzero;stroke:none"
         d="m 2840.19,380.746 c 0,59.777 0,169.574 88.01,169.574 19.38,0 38.76,-3.215 48.46,-8.875 l 0,108.989 c -11.32,3.261 -22.63,3.261 -33.12,3.261 -64.59,0 -109,-65.41 -113.85,-104.175 l -1.62,0 0,94.457 -96.07,0 0,-362.516 108.19,0 0,99.285" /><path
         id="path24"
         style="fill:#918f90;fill-opacity:1;fill-rule:nonzero;stroke:none"
         d="m 3194.97,302.418 c -71.08,0 -91.25,77.539 -91.25,134.852 0,55.726 19.35,132.433 89.62,132.433 69.42,0 96.92,-74.289 96.92,-132.433 0,-58.93 -23.44,-134.852 -95.29,-134.852 z m 204.27,534.223 -108.2,0 0,-241.094 -1.64,0 c -32.32,39.551 -70.24,58.148 -124.33,58.148 -127.58,0 -174.4,-101.757 -174.4,-216.425 0,-58.707 12.5,-115.008 42.07,-155.809 l 366.5,0 0,555.18" /><path
         id="path26"
         style="fill:#918f90;fill-opacity:1;fill-rule:nonzero;stroke:none"
         d="m 1382.63,540.918 c 10.64,101.91 81.74,185.375 203,185.375 45.19,0 101.7,-9.668 145.3,-29.875 l 7.25,95.262 c -48.37,14.562 -100.06,23.437 -165.5,23.437 -138.56,0 -238.5,-64.82 -283.27,-169.101 41.78,-23.637 73.99,-59.828 93.22,-105.098" /><path
         id="path28"
         style="fill:#918f90;fill-opacity:1;fill-rule:nonzero;stroke:none"
         d="m 1755.14,281.461 0,283.195 -81.51,0 0,0.024 -136.55,0 0,-102.153 109.96,0 0,-71.175 -0.04,0 0,-76 c -19.39,-4.844 -43.61,-8.047 -74.32,-8.047 -82.28,0 -141.48,40.3 -170.8,102.351 -3.84,-48.465 -20.23,-91.004 -46.48,-125.008 -0.25,-0.312 -2.55,-2.832 -2.81,-3.148 l 402.55,-0.039" /><path
         id="path30"
         style="fill:#4f4c4c;fill-opacity:1;fill-rule:nonzero;stroke:none"
         d="m 1142.86,302.418 c -82.36,0 -104.16,75.117 -104.16,143.734 0,62.188 33.89,123.551 104.16,123.551 71.04,0 104.96,-59.742 104.96,-123.551 0,-69.453 -21.79,-143.734 -104.96,-143.734 z m 218.01,130.801 c 0,137.304 -94.5,220.476 -218.01,220.476 -122.74,0 -217.196,-83.172 -217.196,-220.476 0,-59.524 19.856,-113.035 56.75,-151.758 l 321.606,0 c 36.98,38.723 56.85,92.234 56.85,151.758" /><path
         id="path32"
         style="fill:#231f20;fill-opacity:1;fill-rule:nonzero;stroke:none"
         d="m 1336.97,39.0039 -2.61,0 c -15.81,0 -34.65,-1.5976 -34.65,-17.8359 0,-9.7149 6.96,-13.33987 15.37,-13.33987 21.46,0 21.89,18.70317 21.89,26.67967 l 0,4.4961 z m 0.87,-25.375 -0.29,0 C 1333.49,4.78516 1323.2,0 1314.06,0 c -21.02,0 -24.36,14.2109 -24.36,20.8789 0,24.7969 26.39,25.9531 45.53,25.9531 l 1.74,0 0,3.7735 c 0,12.6133 -4.49,18.9922 -16.82,18.9922 -7.68,0 -14.93,-1.7422 -21.75,-6.0899 l 0,8.8438 c 5.66,2.7539 15.23,5.0742 21.75,5.0742 18.27,0 25.95,-8.2617 25.95,-27.5469 l 0,-32.6289 c 0,-5.9414 0,-10.4375 0.73,-15.51172 l -8.99,0 0,11.89062" /><path
         id="path34"
         style="fill:#231f20;fill-opacity:1;fill-rule:nonzero;stroke:none"
         d="m 1371.48,58.2852 c 0,5.6601 0,11.457 -0.58,17.4023 l 8.85,0 0,-13.1914 0.28,0 c 3.05,6.668 8.56,14.9297 23.93,14.9297 18.27,0 25.23,-12.1758 25.23,-28.418 l 0,-47.26952 -9.14,0 0,44.94922 c 0,13.918 -4.93,22.9102 -17.54,22.9102 -16.67,0 -21.89,-14.6485 -21.89,-26.9688 l 0,-40.89062 -9.14,0 0,56.54692" /><path
         id="path36"
         style="fill:#231f20;fill-opacity:1;fill-rule:nonzero;stroke:none"
         d="m 1483.28,7.82813 c 16.24,0 21.89,17.40237 21.89,30.88277 0,13.4844 -5.65,30.8868 -21.89,30.8868 -17.4,0 -21.9,-16.5313 -21.9,-30.8868 0,-14.3515 4.5,-30.88277 21.9,-30.88277 z m 31.03,-6.08985 -9.14,0 0,11.74222 -0.29,0 C 1499.95,4.05859 1492.41,0 1481.83,0 c -20.3,0 -30.45,16.8164 -30.45,38.7109 0,22.4766 8.7,38.7149 30.45,38.7149 14.5,0 21.75,-10.586 23.05,-14.207 l 0.29,0 0,47.2692 9.14,0 0,-108.74972" /><path
         id="path38"
         style="fill:#231f20;fill-opacity:1;fill-rule:nonzero;stroke:none"
         d="m 1583.91,75.6875 9.13,0 0,-73.94922 -9.13,0 0,73.94922 z m 9.13,19.7227 -9.13,0 0,12.1798 9.13,0 0,-12.1798" /><path
         id="path40"
         style="fill:#231f20;fill-opacity:1;fill-rule:nonzero;stroke:none"
         d="m 1619.72,58.2852 c 0,5.6601 0,11.457 -0.58,17.4023 l 8.84,0 0,-13.1914 0.29,0 c 3.05,6.668 8.56,14.9297 23.93,14.9297 18.26,0 25.23,-12.1758 25.23,-28.418 l 0,-47.26952 -9.14,0 0,44.94922 c 0,13.918 -4.93,22.9102 -17.54,22.9102 -16.68,0 -21.9,-14.6485 -21.9,-26.9688 l 0,-40.89062 -9.13,0 0,56.54692" /><path
         id="path42"
         style="fill:#231f20;fill-opacity:1;fill-rule:nonzero;stroke:none"
         d="m 1710.2,67.8555 -14.94,0 0,7.832 14.94,0 0,5.3672 c 0,15.5117 0.58,31.1723 19.57,31.1723 2.9,0 6.82,-0.434 8.56,-1.45 l -0.58,-7.972 c -1.89,1.011 -4.64,1.593 -7.25,1.593 -12.47,0 -11.17,-13.4839 -11.17,-22.3277 l 0,-6.3828 16.68,0 0,-7.832 -16.68,0 0,-66.11722 -9.13,0 0,66.11722" /><path
         id="path44"
         style="fill:#231f20;fill-opacity:1;fill-rule:nonzero;stroke:none"
         d="m 1784.73,7.82813 c 15.95,0 24.5,13.77347 24.5,30.88277 0,17.1133 -8.55,30.8868 -24.5,30.8868 -15.96,0 -24.51,-13.7735 -24.51,-30.8868 0,-17.1093 8.55,-30.88277 24.51,-30.88277 z m 0,69.59767 c 23.93,0 34.51,-18.5586 34.51,-38.7149 C 1819.24,18.5586 1808.66,0 1784.73,0 c -23.92,0 -34.51,18.5586 -34.51,38.7109 0,20.1563 10.59,38.7149 34.51,38.7149" /><path
         id="path46"
         style="fill:#231f20;fill-opacity:1;fill-rule:nonzero;stroke:none"
         d="m 1840.12,59.1602 c 0,8.1211 0,11.1601 -0.57,16.5273 l 9.13,0 0,-14.207 0.29,0 c 3.33,8.2617 9.57,15.9453 18.99,15.9453 2.17,0 4.79,-0.4336 6.38,-0.8672 l 0,-9.5703 c -1.88,0.5781 -4.34,0.8672 -6.67,0.8672 -14.5,0 -18.42,-16.2383 -18.42,-29.5782 l 0,-36.53902 -9.13,0 0,57.42192" /><path
         id="path48"
         style="fill:#231f20;fill-opacity:1;fill-rule:nonzero;stroke:none"
         d="m 1981.34,1.73828 0,49.15622 c 0,10.4375 -3.91,18.7032 -15.65,18.7032 -10.01,0 -19.86,-8.5508 -19.86,-26.9688 l 0,-40.89062 -9.15,0 0,49.15622 c 0,10.4375 -3.91,18.7032 -15.65,18.7032 -10.01,0 -19.87,-8.5508 -19.87,-26.9688 l 0,-40.89062 -9.13,0 0,56.54692 c 0,5.6601 0,11.457 -0.58,17.4023 l 8.84,0 0,-12.4687 0.29,-0.1485 c 2.9,5.0781 7.25,14.3555 23.06,14.3555 6.52,0 17.25,-2.7539 19.57,-15.6602 l 0.29,0 c 3.33,8.7032 12.03,15.6602 23.63,15.6602 14.95,0 23.35,-10.4375 23.35,-24.793 l 0,-50.89452 -9.14,0" /><path
         id="path50"
         style="fill:#231f20;fill-opacity:1;fill-rule:nonzero;stroke:none"
         d="m 2058.04,39.0039 -2.61,0 c -15.8,0 -34.65,-1.5976 -34.65,-17.8359 0,-9.7149 6.96,-13.33987 15.37,-13.33987 21.46,0 21.89,18.70317 21.89,26.67967 l 0,4.4961 z m 0.87,-25.375 -0.28,0 C 2054.57,4.78516 2044.27,0 2035.13,0 c -21.02,0 -24.35,14.2109 -24.35,20.8789 0,24.7969 26.38,25.9531 45.52,25.9531 l 1.74,0 0,3.7735 c 0,12.6133 -4.49,18.9922 -16.81,18.9922 -7.69,0 -14.94,-1.7422 -21.75,-6.0899 l 0,8.8438 c 5.65,2.7539 15.22,5.0742 21.75,5.0742 18.27,0 25.95,-8.2617 25.95,-27.5469 l 0,-32.6289 c 0,-5.9414 0,-10.4375 0.73,-15.51172 l -9,0 0,11.89062" /><path
         id="path52"
         style="fill:#231f20;fill-opacity:1;fill-rule:nonzero;stroke:none"
         d="m 2124.47,67.8555 -16.83,0 0,-47.8438 c 0,-6.6719 2.47,-12.18357 9.86,-12.18357 3.48,0 5.81,0.72656 8.41,1.74218 l 0.58,-7.54297 C 2124.32,1.15625 2119.82,0 2115.33,0 c -16.24,0 -16.82,11.1602 -16.82,24.6484 l 0,43.2071 -14.5,0 0,7.832 14.5,0 0,17.832 9.13,3.1953 0,-21.0273 16.83,0 0,-7.832" /><path
         id="path54"
         style="fill:#231f20;fill-opacity:1;fill-rule:nonzero;stroke:none"
         d="m 2144.47,75.6875 9.13,0 0,-73.94922 -9.13,0 0,73.94922 z m 9.13,19.7227 -9.13,0 0,12.1798 9.13,0 0,-12.1798" /><path
         id="path56"
         style="fill:#231f20;fill-opacity:1;fill-rule:nonzero;stroke:none"
         d="m 2209.14,7.82813 c 15.94,0 24.5,13.77347 24.5,30.88277 0,17.1133 -8.56,30.8868 -24.5,30.8868 -15.96,0 -24.52,-13.7735 -24.52,-30.8868 0,-17.1093 8.56,-30.88277 24.52,-30.88277 z m 0,69.59767 c 23.92,0 34.51,-18.5586 34.51,-38.7149 C 2243.65,18.5586 2233.06,0 2209.14,0 c -23.93,0 -34.52,18.5586 -34.52,38.7109 0,20.1563 10.59,38.7149 34.52,38.7149" /><path
         id="path58"
         style="fill:#231f20;fill-opacity:1;fill-rule:nonzero;stroke:none"
         d="m 2264.53,58.2852 c 0,5.6601 0,11.457 -0.58,17.4023 l 8.84,0 0,-13.1914 0.29,0 c 3.05,6.668 8.56,14.9297 23.93,14.9297 18.27,0 25.22,-12.1758 25.22,-28.418 l 0,-47.26952 -9.13,0 0,44.94922 c 0,13.918 -4.93,22.9102 -17.55,22.9102 -16.67,0 -21.89,-14.6485 -21.89,-26.9688 l 0,-40.89062 -9.13,0 0,56.54692" /><path
         id="path60"
         style="fill:#231f20;fill-opacity:1;fill-rule:nonzero;stroke:none"
         d="m 2422.87,69.5977 c -16.67,0 -21.9,-17.4024 -21.9,-30.8868 0,-13.4804 5.66,-30.88277 21.9,-30.88277 17.4,0 21.89,16.53127 21.89,30.88277 0,14.3555 -4.49,30.8868 -21.89,30.8868 z m -31.03,40.8903 9.13,0 0,-47.2692 0.29,0 c 1.31,3.621 8.56,14.207 23.06,14.207 21.75,0 30.45,-16.2383 30.45,-38.7149 C 2454.77,16.8164 2444.62,0 2424.32,0 c -10.58,0 -18.12,4.05859 -23.06,13.4805 l -0.29,0 0,-11.74222 -9.13,0 0,108.74972" /><path
         id="path62"
         style="fill:#231f20;fill-opacity:1;fill-rule:nonzero;stroke:none"
         d="m 2522.05,43.9336 c 0,12.9023 -5.23,25.6641 -18.86,25.6641 -13.48,0 -21.75,-13.4844 -21.75,-25.6641 l 40.61,0 z m 4.49,-39.87501 C 2520.16,1.44922 2511.89,0 2505.07,0 c -24.5,0 -33.63,16.5273 -33.63,38.7109 0,22.6211 12.47,38.7149 31.17,38.7149 20.88,0 29.44,-16.8203 29.44,-36.6836 l 0,-4.6406 -50.61,0 c 0,-15.6563 8.41,-28.27347 24.37,-28.27347 6.67,0 16.38,2.75387 20.73,5.51167 l 0,-9.28121" /><path
         id="path64"
         style="fill:#231f20;fill-opacity:1;fill-rule:nonzero;stroke:none"
         d="m 2601.22,65.8281 c -4.93,2.1758 -10.87,3.7696 -15.8,3.7696 -17.84,0 -27.85,-12.9024 -27.85,-30.8868 0,-16.8164 10.16,-30.88277 26.83,-30.88277 5.8,0 11.16,1.30468 16.68,3.33207 l 0.87,-8.55473 C 2595.71,0.433594 2589.91,0 2582.95,0 c -23.77,0 -35.38,18.125 -35.38,38.7109 0,22.7696 14.64,38.7149 36.54,38.7149 8.84,0 15.22,-2.0313 17.84,-2.8985 l -0.73,-8.6992" /><path
         id="path66"
         style="fill:#231f20;fill-opacity:1;fill-rule:nonzero;stroke:none"
         d="m 2649.94,7.82813 c 15.94,0 24.5,13.77347 24.5,30.88277 0,17.1133 -8.56,30.8868 -24.5,30.8868 -15.96,0 -24.52,-13.7735 -24.52,-30.8868 0,-17.1093 8.56,-30.88277 24.52,-30.88277 z m 0,69.59767 c 23.92,0 34.51,-18.5586 34.51,-38.7149 C 2684.45,18.5586 2673.86,0 2649.94,0 c -23.93,0 -34.52,18.5586 -34.52,38.7109 0,20.1563 10.59,38.7149 34.52,38.7149" /><path
         id="path68"
         style="fill:#231f20;fill-opacity:1;fill-rule:nonzero;stroke:none"
         d="m 2794.64,1.73828 0,49.15622 c 0,10.4375 -3.91,18.7032 -15.65,18.7032 -10.01,0 -19.86,-8.5508 -19.86,-26.9688 l 0,-40.89062 -9.14,0 0,49.15622 c 0,10.4375 -3.92,18.7032 -15.66,18.7032 -10.01,0 -19.87,-8.5508 -19.87,-26.9688 l 0,-40.89062 -9.13,0 0,56.54692 c 0,5.6601 0,11.457 -0.58,17.4023 l 8.84,0 0,-12.4687 0.29,-0.1485 c 2.9,5.0781 7.25,14.3555 23.06,14.3555 6.52,0 17.25,-2.7539 19.57,-15.6602 l 0.29,0 c 3.33,8.7032 12.03,15.6602 23.63,15.6602 14.95,0 23.35,-10.4375 23.35,-24.793 l 0,-50.89452 -9.14,0" /><path
         id="path70"
         style="fill:#231f20;fill-opacity:1;fill-rule:nonzero;stroke:none"
         d="m 2874.83,43.9336 c 0,12.9023 -5.23,25.6641 -18.86,25.6641 -13.47,0 -21.75,-13.4844 -21.75,-25.6641 l 40.61,0 z m 4.49,-39.87501 C 2872.94,1.44922 2864.67,0 2857.86,0 c -24.51,0 -33.64,16.5273 -33.64,38.7109 0,22.6211 12.47,38.7149 31.18,38.7149 20.87,0 29.43,-16.8203 29.43,-36.6836 l 0,-4.6406 -50.61,0 c 0,-15.6563 8.41,-28.27347 24.37,-28.27347 6.67,0 16.39,2.75387 20.73,5.51167 l 0,-9.28121" /><path
         id="path72"
         style="fill:#231f20;fill-opacity:1;fill-rule:nonzero;stroke:none"
         d="m 2900.2,12.4727 c 5.51,-2.76176 12.18,-4.64457 19.29,-4.64457 8.7,0 16.37,4.78517 16.37,13.19527 0,17.5469 -35.51,14.793 -35.51,36.25 0,14.6446 11.88,20.1524 24.06,20.1524 3.92,0 11.75,-0.8672 18.27,-3.332 l -0.87,-7.9766 c -4.78,2.1758 -11.31,3.4805 -16.39,3.4805 -9.42,0 -15.94,-2.8985 -15.94,-12.3243 0,-13.7773 36.39,-12.0351 36.39,-36.25 C 2945.87,5.35938 2931.23,0 2920.06,0 c -7.1,0 -14.21,0.867188 -20.73,3.47656 l 0.87,8.99614" /><path
         id="path74"
         style="fill:#231f20;fill-opacity:1;fill-rule:nonzero;stroke:none"
         d="m 3004.16,12.4727 c 5.51,-2.76176 12.18,-4.64457 19.29,-4.64457 8.7,0 16.38,4.78517 16.38,13.19527 0,17.5469 -35.52,14.793 -35.52,36.25 0,14.6446 11.89,20.1524 24.06,20.1524 3.92,0 11.75,-0.8672 18.28,-3.332 l -0.87,-7.9766 c -4.79,2.1758 -11.31,3.4805 -16.39,3.4805 -9.42,0 -15.95,-2.8985 -15.95,-12.3243 0,-13.7773 36.4,-12.0351 36.4,-36.25 C 3049.84,5.35938 3035.19,0 3024.03,0 c -7.1,0 -14.21,0.867188 -20.73,3.47656 l 0.86,8.99614" /><path
         id="path76"
         style="fill:#231f20;fill-opacity:1;fill-rule:nonzero;stroke:none"
         d="m 3114.95,43.9336 c 0,12.9023 -5.23,25.6641 -18.86,25.6641 -13.48,0 -21.75,-13.4844 -21.75,-25.6641 l 40.61,0 z m 4.49,-39.87501 C 3113.06,1.44922 3104.79,0 3097.97,0 c -24.5,0 -33.63,16.5273 -33.63,38.7109 0,22.6211 12.47,38.7149 31.17,38.7149 20.88,0 29.44,-16.8203 29.44,-36.6836 l 0,-4.6406 -50.61,0 c 0,-15.6563 8.41,-28.27347 24.37,-28.27347 6.67,0 16.38,2.75387 20.73,5.51167 l 0,-9.28121" /><path
         id="path78"
         style="fill:#231f20;fill-opacity:1;fill-rule:nonzero;stroke:none"
         d="m 3194.11,65.8281 c -4.93,2.1758 -10.87,3.7696 -15.8,3.7696 -17.84,0 -27.85,-12.9024 -27.85,-30.8868 0,-16.8164 10.16,-30.88277 26.83,-30.88277 5.8,0 11.16,1.30468 16.68,3.33207 l 0.87,-8.55473 C 3188.6,0.433594 3182.8,0 3175.84,0 c -23.77,0 -35.38,18.125 -35.38,38.7109 0,22.7696 14.64,38.7149 36.54,38.7149 8.84,0 15.22,-2.0313 17.84,-2.8985 l -0.73,-8.6992" /><path
         id="path80"
         style="fill:#231f20;fill-opacity:1;fill-rule:nonzero;stroke:none"
         d="m 3271.68,19.1406 c 0,-5.6601 0,-11.45701 0.59,-17.40232 l -8.85,0 0,13.19142 -0.29,0 C 3260.09,8.26172 3254.58,0 3239.21,0 c -18.27,0 -25.23,12.1797 -25.23,28.418 l 0,47.2695 9.13,0 0,-44.9492 c 0,-13.9219 4.93,-22.91017 17.55,-22.91017 16.68,0 21.89,14.64457 21.89,26.97267 l 0,40.8867 9.13,0 0,-56.5469" /><path
         id="path82"
         style="fill:#231f20;fill-opacity:1;fill-rule:nonzero;stroke:none"
         d="m 3298.23,59.1602 c 0,8.1211 0,11.1601 -0.58,16.5273 l 9.13,0 0,-14.207 0.3,0 c 3.33,8.2617 9.57,15.9453 18.99,15.9453 2.17,0 4.78,-0.4336 6.38,-0.8672 l 0,-9.5703 c -1.89,0.5781 -4.35,0.8672 -6.67,0.8672 -14.51,0 -18.42,-16.2383 -18.42,-29.5782 l 0,-36.53902 -9.13,0 0,57.42192" /><path
         id="path84"
         style="fill:#231f20;fill-opacity:1;fill-rule:nonzero;stroke:none"
         d="m 3392.64,43.9336 c 0,12.9023 -5.22,25.6641 -18.86,25.6641 -13.47,0 -21.74,-13.4844 -21.74,-25.6641 l 40.6,0 z m 4.49,-39.87501 C 3390.76,1.44922 3382.49,0 3375.67,0 c -24.5,0 -33.63,16.5273 -33.63,38.7109 0,22.6211 12.47,38.7149 31.17,38.7149 20.88,0 29.43,-16.8203 29.43,-36.6836 l 0,-4.6406 -50.6,0 c 0,-15.6563 8.4,-28.27347 24.36,-28.27347 6.67,0 16.39,2.75387 20.73,5.51167 l 0,-9.28121" /><path
         id="path86"
         style="fill:#4f4c4c;fill-opacity:1;fill-rule:nonzero;stroke:none"
         d="m 0,281.461 113.051,0 0,361.703 -113.051,0 0,-361.703 z" /><path
         id="path88"
         style="fill:#fddd04;fill-opacity:1;fill-rule:nonzero;stroke:none"
         d="m 0,643.164 113.051,0 0,193.215 -113.051,0 0,-193.215 z" /></g></g></svg>