<?xml version="1.0" encoding="UTF-8" standalone="no"?>
<!-- Created with Inkscape (http://www.inkscape.org/) -->

<svg
   xmlns:dc="http://purl.org/dc/elements/1.1/"
   xmlns:cc="http://creativecommons.org/ns#"
   xmlns:rdf="http://www.w3.org/1999/02/22-rdf-syntax-ns#"
   xmlns:svg="http://www.w3.org/2000/svg"
   xmlns="http://www.w3.org/2000/svg"
   xmlns:sodipodi="http://sodipodi.sourceforge.net/DTD/sodipodi-0.dtd"
   xmlns:inkscape="http://www.inkscape.org/namespaces/inkscape"
   id="svg4171"
   version="1.1"
   inkscape:version="0.91 r13725"
   xml:space="preserve"
   width="145.89999"
   height="87.875"
   viewBox="0 0 145.89999 87.875"
   sodipodi:docname="Logo_ICT_BBCH_CMYK_new.svg"><metadata
     id="metadata4177"><rdf:RDF><cc:Work
         rdf:about=""><dc:format>image/svg+xml</dc:format><dc:type
           rdf:resource="http://purl.org/dc/dcmitype/StillImage" /><dc:title></dc:title></cc:Work></rdf:RDF></metadata><defs
     id="defs4175" /><sodipodi:namedview
     pagecolor="#ffffff"
     bordercolor="#666666"
     borderopacity="1"
     objecttolerance="10"
     gridtolerance="10"
     guidetolerance="10"
     inkscape:pageopacity="0"
     inkscape:pageshadow="2"
     inkscape:window-width="1280"
     inkscape:window-height="751"
     id="namedview4173"
     showgrid="false"
     inkscape:zoom="4.5510626"
     inkscape:cx="72.949997"
     inkscape:cy="43.9375"
     inkscape:window-x="0"
     inkscape:window-y="0"
     inkscape:window-maximized="1"
     inkscape:current-layer="g4179" /><g
     id="g4179"
     inkscape:groupmode="layer"
     inkscape:label="ink_ext_XXXXXX"
     transform="matrix(1.25,0,0,-1.25,0,87.875)"><g
       id="g4181"
       transform="scale(0.1,0.1)"><path
         d="m 374.059,504.75 23.855,-62.391 -59.391,-29.058 -23.867,62.39 59.403,29.059"
         style="fill:#8cc11d;fill-opacity:1;fill-rule:nonzero;stroke:none"
         id="path4183"
         inkscape:connector-curvature="0" /><path
         d="m 338.523,413.301 -34.074,11.211 -23.859,62.398 34.066,-11.219 23.867,-62.39"
         style="fill:#557510;fill-opacity:1;fill-rule:nonzero;stroke:none"
         id="path4185"
         inkscape:connector-curvature="0" /><path
         d="m 314.656,475.691 -34.066,11.219 59.39,29.059 34.079,-11.219 -59.403,-29.059"
         style="fill:#658c14;fill-opacity:1;fill-rule:nonzero;stroke:none"
         id="path4187"
         inkscape:connector-curvature="0" /><path
         d="m 350.191,567.148 23.868,-62.398 -59.403,-29.059 -23.859,62.407 59.394,29.05"
         style="fill:#d91921;fill-opacity:1;fill-rule:nonzero;stroke:none"
         id="path4189"
         inkscape:connector-curvature="0" /><path
         d="m 314.656,475.691 -34.066,11.219 -23.867,62.403 34.074,-11.215 23.859,-62.407"
         style="fill:#870e12;fill-opacity:1;fill-rule:nonzero;stroke:none"
         id="path4191"
         inkscape:connector-curvature="0" /><path
         d="m 290.797,538.098 -34.074,11.215 59.394,29.054 34.074,-11.219 -59.394,-29.05"
         style="fill:#9f1116;fill-opacity:1;fill-rule:nonzero;stroke:none"
         id="path4193"
         inkscape:connector-curvature="0" /><path
         d="m 266.934,600.492 59.457,28.883 23.8,-62.227 -59.394,-29.05 -23.863,62.394"
         style="fill:#4094cd;fill-opacity:1;fill-rule:nonzero;stroke:none"
         id="path4195"
         inkscape:connector-curvature="0" /><path
         d="m 266.934,600.492 -34.079,11.219 59.465,28.875 34.071,-11.211 -59.457,-28.883"
         style="fill:#2f6a95;fill-opacity:1;fill-rule:nonzero;stroke:none"
         id="path4197"
         inkscape:connector-curvature="0" /><path
         d="m 290.797,538.098 -34.074,11.215 -23.868,62.398 34.079,-11.219 23.863,-62.394"
         style="fill:#28597e;fill-opacity:1;fill-rule:nonzero;stroke:none"
         id="path4199"
         inkscape:connector-curvature="0" /><path
         d="m 302.523,691.773 23.868,-62.398 -59.395,-29.055 -23.863,62.399 59.39,29.054"
         style="fill:#e17b10;fill-opacity:1;fill-rule:nonzero;stroke:none"
         id="path4201"
         inkscape:connector-curvature="0" /><path
         d="m 266.996,600.32 -34.078,11.219 -23.855,62.391 34.07,-11.211 23.863,-62.399"
         style="fill:#8a4a09;fill-opacity:1;fill-rule:nonzero;stroke:none"
         id="path4203"
         inkscape:connector-curvature="0" /><path
         d="m 243.133,662.719 -34.07,11.211 59.394,29.062 34.066,-11.219 -59.39,-29.054"
         style="fill:#a4580b;fill-opacity:1;fill-rule:nonzero;stroke:none"
         id="path4205"
         inkscape:connector-curvature="0" /><path
         d="m 255.176,446.598 -34.067,11.215 59.387,29.058 34.074,-11.219 -59.394,-29.054"
         style="fill:#a4580b;fill-opacity:1;fill-rule:nonzero;stroke:none"
         id="path4207"
         inkscape:connector-curvature="0" /><path
         d="m 279.039,384.199 -34.074,11.223 -23.856,62.391 34.067,-11.215 23.863,-62.399"
         style="fill:#8a4a09;fill-opacity:1;fill-rule:nonzero;stroke:none"
         id="path4209"
         inkscape:connector-curvature="0" /><path
         d="m 314.57,475.652 23.868,-62.394 -59.399,-29.059 -23.863,62.399 59.394,29.054"
         style="fill:#e17b10;fill-opacity:1;fill-rule:nonzero;stroke:none"
         id="path4211"
         inkscape:connector-curvature="0" /><path
         d="m 290.703,538.051 23.867,-62.399 -59.394,-29.054 -23.863,62.394 59.39,29.059"
         style="fill:#9c191e;fill-opacity:1;fill-rule:nonzero;stroke:none"
         id="path4213"
         inkscape:connector-curvature="0" /><path
         d="m 255.176,446.598 -34.067,11.215 -23.875,62.402 34.079,-11.223 23.863,-62.394"
         style="fill:#721114;fill-opacity:1;fill-rule:nonzero;stroke:none"
         id="path4215"
         inkscape:connector-curvature="0" /><path
         d="m 231.313,508.992 -34.079,11.223 59.407,29.051 34.062,-11.215 -59.39,-29.059"
         style="fill:#7e1317;fill-opacity:1;fill-rule:nonzero;stroke:none"
         id="path4217"
         inkscape:connector-curvature="0" /><path
         d="m 195.781,417.539 -34.066,11.223 59.394,29.051 34.067,-11.215 -59.395,-29.059"
         style="fill:#a00250;fill-opacity:1;fill-rule:nonzero;stroke:none"
         id="path4219"
         inkscape:connector-curvature="0" /><path
         d="m 219.648,355.145 -34.078,11.218 -23.855,62.399 34.066,-11.223 23.867,-62.394"
         style="fill:#880141;fill-opacity:1;fill-rule:nonzero;stroke:none"
         id="path4221"
         inkscape:connector-curvature="0" /><path
         d="m 255.176,446.598 23.863,-62.399 -59.391,-29.054 -23.867,62.394 59.395,29.059"
         style="fill:#d90375;fill-opacity:1;fill-rule:nonzero;stroke:none"
         id="path4223"
         inkscape:connector-curvature="0" /><path
         d="m 207.445,571.402 59.465,28.875 23.793,-62.226 -59.39,-29.059 -23.868,62.41"
         style="fill:#33aa7b;fill-opacity:1;fill-rule:nonzero;stroke:none"
         id="path4225"
         inkscape:connector-curvature="0" /><path
         d="m 207.445,571.402 -34.07,11.211 59.461,28.879 34.074,-11.215 -59.465,-28.875"
         style="fill:#257a59;fill-opacity:1;fill-rule:nonzero;stroke:none"
         id="path4227"
         inkscape:connector-curvature="0" /><path
         d="m 231.313,508.992 -34.079,11.223 -23.859,62.398 34.07,-11.211 23.868,-62.41"
         style="fill:#1f674a;fill-opacity:1;fill-rule:nonzero;stroke:none"
         id="path4229"
         inkscape:connector-curvature="0" /><path
         d="m 243.043,662.676 23.867,-62.399 -59.394,-29.054 -23.864,62.394 59.391,29.059"
         style="fill:#d90375;fill-opacity:1;fill-rule:nonzero;stroke:none"
         id="path4231"
         inkscape:connector-curvature="0" /><path
         d="m 207.516,571.223 -34.075,11.218 -23.863,62.399 34.074,-11.223 23.864,-62.394"
         style="fill:#880141;fill-opacity:1;fill-rule:nonzero;stroke:none"
         id="path4233"
         inkscape:connector-curvature="0" /><path
         d="m 183.652,633.617 -34.074,11.223 59.391,29.047 34.074,-11.211 -59.391,-29.059"
         style="fill:#a00250;fill-opacity:1;fill-rule:nonzero;stroke:none"
         id="path4235"
         inkscape:connector-curvature="0" /><path
         d="m 160.254,326.09 -34.074,11.219 -23.86,62.386 34.067,-11.211 23.867,-62.394"
         style="fill:#918f90;fill-opacity:1;fill-rule:nonzero;stroke:none"
         id="path4237"
         inkscape:connector-curvature="0" /><path
         d="m 136.387,388.484 -34.067,11.211 59.395,29.067 34.066,-11.223 -59.394,-29.055"
         style="fill:#aba9aa;fill-opacity:1;fill-rule:nonzero;stroke:none"
         id="path4239"
         inkscape:connector-curvature="0" /><path
         d="m 195.781,417.539 -34.066,11.223 -23.867,62.394 34.074,-11.215 23.859,-62.402"
         style="fill:#918f90;fill-opacity:1;fill-rule:nonzero;stroke:none"
         id="path4241"
         inkscape:connector-curvature="0" /><path
         d="m 171.922,479.941 -34.074,11.215 59.386,29.059 34.079,-11.223 -59.391,-29.051"
         style="fill:#aba9aa;fill-opacity:1;fill-rule:nonzero;stroke:none"
         id="path4243"
         inkscape:connector-curvature="0" /><path
         d="m 136.387,388.484 -34.067,11.211 -23.8747,62.41 34.0777,-11.214 23.864,-62.407"
         style="fill:#918f90;fill-opacity:1;fill-rule:nonzero;stroke:none"
         id="path4245"
         inkscape:connector-curvature="0" /><path
         d="m 112.523,450.891 -34.0777,11.214 59.4027,29.051 34.074,-11.215 -59.399,-29.05"
         style="fill:#aba9aa;fill-opacity:1;fill-rule:nonzero;stroke:none"
         id="path4247"
         inkscape:connector-curvature="0" /><path
         d="m 207.516,571.223 23.797,-62.231 -59.391,-29.051 -23.809,62.223 59.403,29.059"
         style="fill:#8cc11d;fill-opacity:1;fill-rule:nonzero;stroke:none"
         id="path4249"
         inkscape:connector-curvature="0" /><path
         d="m 171.922,479.941 -34.074,11.215 -23.801,62.223 34.066,-11.215 23.809,-62.223"
         style="fill:#557510;fill-opacity:1;fill-rule:nonzero;stroke:none"
         id="path4251"
         inkscape:connector-curvature="0" /><path
         d="m 148.113,542.164 -34.066,11.215 59.394,29.062 34.075,-11.218 -59.403,-29.059"
         style="fill:#658c14;fill-opacity:1;fill-rule:nonzero;stroke:none"
         id="path4253"
         inkscape:connector-curvature="0" /><path
         d="m 183.652,633.617 23.864,-62.394 -59.403,-29.059 -23.859,62.406 59.398,29.047"
         style="fill:#d91921;fill-opacity:1;fill-rule:nonzero;stroke:none"
         id="path4255"
         inkscape:connector-curvature="0" /><path
         d="m 148.113,542.164 -34.066,11.215 -23.8673,62.402 34.0743,-11.211 23.859,-62.406"
         style="fill:#870e12;fill-opacity:1;fill-rule:nonzero;stroke:none"
         id="path4257"
         inkscape:connector-curvature="0" /><path
         d="M 124.254,604.57 90.1797,615.781 149.578,644.84 183.652,633.617 124.254,604.57"
         style="fill:#9f1116;fill-opacity:1;fill-rule:nonzero;stroke:none"
         id="path4259"
         inkscape:connector-curvature="0" /><path
         d="m 88.6563,513.281 -34.0665,11.223 59.4572,28.875 34.066,-11.215 -59.4567,-28.883"
         style="fill:#aba9aa;fill-opacity:1;fill-rule:nonzero;stroke:none"
         id="path4261"
         inkscape:connector-curvature="0" /><path
         d="m 112.523,450.891 -34.0777,11.214 -23.8555,62.399 34.0665,-11.223 23.8667,-62.39"
         style="fill:#918f90;fill-opacity:1;fill-rule:nonzero;stroke:none"
         id="path4263"
         inkscape:connector-curvature="0" /><path
         d="M 124.254,604.57 148.113,542.164 88.7266,513.109 64.8633,575.508 124.254,604.57"
         style="fill:#9c191e;fill-opacity:1;fill-rule:nonzero;stroke:none"
         id="path4265"
         inkscape:connector-curvature="0" /><path
         d="M 88.7266,513.109 54.6523,524.324 30.7852,586.727 64.8633,575.508 88.7266,513.109"
         style="fill:#721114;fill-opacity:1;fill-rule:nonzero;stroke:none"
         id="path4267"
         inkscape:connector-curvature="0" /><path
         d="M 64.8633,575.508 30.7852,586.727 90.1797,615.781 124.254,604.57 64.8633,575.508"
         style="fill:#7e1317;fill-opacity:1;fill-rule:nonzero;stroke:none"
         id="path4269"
         inkscape:connector-curvature="0" /><path
         d="m 255.176,446.598 -23.863,62.394 -59.391,-29.051 -23.809,62.223 -59.4567,-28.883 23.8667,-62.39 -59.3902,-29.059 23.8633,-62.398 59.3909,29.05 23.867,-62.394 59.394,29.055 -23.867,62.394 59.395,29.059"
         style="fill:#eae9ea;fill-opacity:1;fill-rule:nonzero;stroke:none"
         id="path4271"
         inkscape:connector-curvature="0" /><path
         d="M 76.9961,359.434 42.9258,370.648 19.0625,433.047 53.1328,421.832 76.9961,359.434"
         style="fill:#918f90;fill-opacity:1;fill-rule:nonzero;stroke:none"
         id="path4273"
         inkscape:connector-curvature="0" /><path
         d="M 53.1328,421.832 19.0625,433.047 78.4453,462.105 112.523,450.891 53.1328,421.832"
         style="fill:#aba9aa;fill-opacity:1;fill-rule:nonzero;stroke:none"
         id="path4275"
         inkscape:connector-curvature="0" /><path
         d="m 15.0391,267.617 15.789,0 -15.0468,-65.176 -15.7813,0 15.0391,65.176"
         style="fill:#231f20;fill-opacity:1;fill-rule:nonzero;stroke:none"
         id="path4277"
         inkscape:connector-curvature="0" /><path
         d="m 77.5859,242.875 -15.1367,0 1.75,7.66 c 0.1836,0.649 0.2813,1.391 0.2813,2.125 0,3.692 -2.7696,4.156 -4.8907,4.156 -3.789,0 -4.5234,-1.843 -5.2656,-3.878 L 46.5703,219.52 c -0.2734,-1.114 -0.5547,-2.301 -0.5547,-3.418 0,-3.231 3.1446,-3.59 4.5196,-3.59 4.0625,0 5.0781,2.761 5.5507,4.058 1.1016,3.125 1.9297,6.922 2.6719,10.426 l 16.1524,0 -2.3047,-9.406 c -2.8594,-11.731 -6.9219,-16.449 -22.8985,-16.449 -4.1523,0 -7.9414,0.375 -11.1718,1.672 -3.2227,1.289 -8.3985,4.523 -8.3985,11.257 0,1.02 0,3.047 1.4727,9.145 l 6.2812,27.414 c 2.0313,8.957 4.5196,12.281 7.293,14.312 4.3359,3.227 11.6328,3.786 15.6953,3.786 3.9727,0 8.957,-0.559 12.1875,-1.942 3.1328,-1.387 7.0117,-4.246 7.0117,-11.262 0,-1.382 -0.1875,-2.957 -0.5468,-4.617 l -1.9454,-8.031"
         style="fill:#231f20;fill-opacity:1;fill-rule:nonzero;stroke:none"
         id="path4279"
         inkscape:connector-curvature="0" /><path
         d="m 86.9141,267.617 38.5819,0 -2.578,-11.265 -10.898,0 -12.4614,-53.911 -15.8789,0 12.4609,53.911 -11.9023,0 2.6758,11.265"
         style="fill:#231f20;fill-opacity:1;fill-rule:nonzero;stroke:none"
         id="path4281"
         inkscape:connector-curvature="0" /><path
         d="m 168.426,255.895 -3.328,-14.219 5.632,0 c 3.692,0 5.997,0.648 7.012,4.984 l 1.016,4.34 c 0.097,0.555 0.187,1.109 0.187,1.66 0,3.235 -2.675,3.235 -5.254,3.235 l -5.265,0 z m -5.906,-25.297 -3.79,-16.711 6.836,0 c 4.61,0 5.262,2.402 6.094,6.004 l 1.289,5.539 c 0.184,0.55 0.274,1.289 0.274,2.031 0,2.398 -2.032,3.137 -4.524,3.137 l -6.179,0 z m -7.297,37.019 18.742,0 c 9.14,0 19.941,0 19.941,-10.527 0,-3.598 -1.476,-9.692 -2.129,-11.629 -1.75,-5.168 -4.336,-7.02 -11.445,-8.121 2.859,-0.742 8.035,-2.125 8.035,-8.313 0,-3.047 -2.683,-15.14 -4.531,-19.203 -2.578,-5.636 -7.938,-7.383 -15.875,-7.383 l -27.688,0 14.95,65.176"
         style="fill:#231f20;fill-opacity:1;fill-rule:nonzero;stroke:none"
         id="path4283"
         inkscape:connector-curvature="0" /><path
         d="m 223.719,232.719 c 0.371,1.574 1.289,5.449 1.289,6.738 0,0.926 -0.184,1.852 -0.731,2.496 -0.929,1.11 -2.589,1.293 -3.507,1.293 -4.532,0 -5.176,-3.324 -6.559,-10.527 l 9.508,0 z m 11.914,-14.313 c -0.926,-3.687 -1.942,-8.023 -4.988,-11.347 -2.95,-3.418 -7.844,-5.918 -16.524,-5.918 -2.492,0 -9.414,0.375 -13.762,3.793 -2.117,1.66 -4.062,4.246 -4.062,9.507 0,6.555 4.719,24.743 6.281,28.434 1.66,3.973 5.535,10.25 19.024,10.25 5.906,0 17.441,-1.109 17.441,-12.094 0,-2.031 -0.371,-4.156 -0.832,-6.281 -0.731,-3.598 -1.473,-6.922 -2.402,-11.078 l -23.633,0 c -0.731,-2.863 -1.66,-6.922 -1.66,-9.043 0,-0.457 0.097,-1.016 0.285,-1.477 0.644,-1.109 2.117,-1.851 4.062,-1.851 4.149,0 4.707,2.871 5.723,7.105 l 15.047,0"
         style="fill:#231f20;fill-opacity:1;fill-rule:nonzero;stroke:none"
         id="path4285"
         inkscape:connector-curvature="0" /><path
         d="m 265.926,242.047 c 4.054,7.754 7.101,9.508 14.855,10.707 L 277.09,239 c -1.016,0.094 -2.031,0.094 -3.047,0.094 -8.117,0 -9.602,-3.512 -11.719,-12.555 l -5.539,-24.098 -14.59,0 11.446,49.485 14.589,0 -2.304,-9.879"
         style="fill:#231f20;fill-opacity:1;fill-rule:nonzero;stroke:none"
         id="path4287"
         inkscape:connector-curvature="0" /><path
         d="m 301.855,251.926 -7.48,-32.309 c -0.559,-2.312 -0.832,-3.609 -0.832,-4.715 0,-2.492 1.758,-3.601 3.508,-3.601 3.972,0 5.176,4.707 5.91,7.949 l 7.477,32.676 14.863,0 -11.446,-49.485 -14.773,0 1.113,5.164 c -2.316,-2.402 -5.91,-6.089 -12.558,-6.089 -3.606,0 -9.699,1.297 -9.699,8.961 0,0.918 0.097,2.851 0.742,5.531 l 8.215,35.918 14.96,0"
         style="fill:#231f20;fill-opacity:1;fill-rule:nonzero;stroke:none"
         id="path4289"
         inkscape:connector-curvature="0" /><path
         d="m 340.242,256.723 c 1.848,7.476 2.863,11.261 15.508,11.261 2.773,0 5.539,-0.089 8.684,-0.273 l -2.129,-9.051 c -5.168,0.094 -6.282,-0.09 -7.11,-1.937 -0.371,-0.828 -1.015,-3.598 -1.289,-4.797 l 6.465,0 -2.129,-8.863 -6.465,0 -9.316,-40.622 -14.777,0 9.328,40.622 -5.91,0 2.031,8.863 5.996,0 1.113,4.797"
         style="fill:#231f20;fill-opacity:1;fill-rule:nonzero;stroke:none"
         id="path4291"
         inkscape:connector-curvature="0" /><path
         d="m 372.605,219.336 c -0.457,-1.477 -1.015,-3.234 -1.015,-4.895 0,-2.586 2.129,-3.14 3.703,-3.14 0.457,0 1.66,0 2.676,0.64 1.746,1.211 2.117,3.704 2.117,4.993 0,1.843 -0.731,2.586 -1.844,3.504 -1.387,1.203 -9.23,6.835 -9.414,7.023 -3.418,2.676 -5.449,5.352 -5.449,9.137 0,2.859 1.387,7.109 2.488,9.14 2.688,4.797 8.957,7.293 16.992,7.293 9.688,0 17.168,-3.789 17.168,-11.355 0,-1.754 -0.371,-3.414 -0.742,-5.078 l -13.933,0 c 0.273,0.922 0.828,2.953 0.828,3.968 0,0.372 -0.086,2.77 -3.692,2.77 -4.433,0 -4.433,-4.613 -4.433,-4.801 0,-1.754 1.015,-2.676 2.863,-4.062 0.098,-0.086 4.617,-3.227 5.176,-3.692 6.269,-4.336 9.414,-6.554 9.414,-11.902 0,-3.051 -1.297,-8.598 -3.789,-11.645 -2.403,-2.949 -7.473,-5.808 -16.153,-5.808 -7.011,0 -10.058,1.297 -11.445,1.941 -4.707,2.121 -6.836,5.078 -6.836,9.875 0,2.317 0.555,4.149 1.113,6.094 l 14.207,0"
         style="fill:#231f20;fill-opacity:1;fill-rule:nonzero;stroke:none"
         id="path4293"
         inkscape:connector-curvature="0" /><path
         d="m 433.563,235.676 c 0.648,2.679 0.648,3.324 0.648,3.781 0,1.758 -1.02,3.695 -3.969,3.695 -0.926,0 -3.875,0 -4.804,-3.875 l -5.254,-22.617 c -0.098,-0.558 -0.184,-1.199 -0.184,-1.758 0,-2.304 1.563,-3.691 3.875,-3.691 2.578,0 4.523,1.848 5.254,5.262 l 4.434,19.203 z M 432,267.617 427.195,246.66 c 2.032,2.676 5.078,6.465 11.446,6.465 5.078,0 10.343,-2.773 10.343,-10.344 0,-4.707 -2.961,-17.629 -4.25,-22.984 -1.757,-7.285 -4.433,-18.559 -16.621,-18.559 -7.011,0 -9.129,4.985 -9.871,6.739 l -1.289,-5.536 -14.961,0 15.051,65.176 14.957,0"
         style="fill:#231f20;fill-opacity:1;fill-rule:nonzero;stroke:none"
         id="path4295"
         inkscape:connector-curvature="0" /><path
         d="m 481.316,267.617 -2.488,-11.078 -14.68,0 2.579,11.078 14.589,0 z m -18.281,-15.691 14.68,0 -11.445,-49.485 -14.582,0 11.347,49.485"
         style="fill:#231f20;fill-opacity:1;fill-rule:nonzero;stroke:none"
         id="path4297"
         inkscape:connector-curvature="0" /><path
         d="m 493.074,267.617 14.778,0 -15.051,-65.176 -14.766,0 15.039,65.176"
         style="fill:#231f20;fill-opacity:1;fill-rule:nonzero;stroke:none"
         id="path4299"
         inkscape:connector-curvature="0" /><path
         d="m 535.574,236.875 c 0.188,0.828 0.371,1.566 0.371,2.402 0,2.211 -1.199,3.969 -3.875,3.969 -3.879,0 -4.804,-3.789 -5.359,-6.371 l -4.25,-18.469 c -0.273,-1.101 -0.645,-2.945 -0.645,-3.965 0,-2.769 2.032,-3.601 3.789,-3.601 3.965,0 4.891,4.148 5.536,6.926 l 4.433,19.109 z m 7.11,30.742 14.863,0 -15.047,-65.176 -14.863,0 1.472,6.004 c -2.117,-2.586 -5.535,-6.836 -11.902,-6.836 -2.59,0 -10.527,1.02 -10.527,10.063 0,4.898 5.261,25.848 5.808,27.422 1.856,6.457 4.434,14.031 14.407,14.031 3.144,0 9.05,-1.199 10.984,-6.371 l 4.805,20.863"
         style="fill:#231f20;fill-opacity:1;fill-rule:nonzero;stroke:none"
         id="path4301"
         inkscape:connector-curvature="0" /><path
         d="m 580.195,251.926 -7.48,-32.309 c -0.559,-2.312 -0.832,-3.609 -0.832,-4.715 0,-2.492 1.758,-3.601 3.508,-3.601 3.972,0 5.175,4.707 5.906,7.949 l 7.48,32.676 14.864,0 -11.446,-49.485 -14.773,0 1.113,5.164 c -2.316,-2.402 -5.91,-6.089 -12.558,-6.089 -3.606,0 -9.7,1.297 -9.7,8.961 0,0.918 0.098,2.851 0.743,5.531 l 8.214,35.918 14.961,0"
         style="fill:#231f20;fill-opacity:1;fill-rule:nonzero;stroke:none"
         id="path4303"
         inkscape:connector-curvature="0" /><path
         d="m 641.902,202.441 -14.675,0 7.941,34.805 c 0.27,1.109 0.27,1.938 0.27,2.305 0,3.512 -3.047,3.512 -3.418,3.512 -4.239,0 -5.254,-4.434 -5.536,-5.911 l -8.027,-34.711 -14.406,0 11.359,49.485 14.492,0 -1.203,-4.895 c 5.539,5.817 11.543,6 13.106,6 2.773,0 9.238,-0.922 9.238,-8.953 0,-1.754 -0.281,-3.324 -0.645,-4.801 l -8.496,-36.836"
         style="fill:#231f20;fill-opacity:1;fill-rule:nonzero;stroke:none"
         id="path4305"
         inkscape:connector-curvature="0" /><path
         d="m 684.695,237.984 c 0.098,0.457 0.188,1.016 0.188,1.473 0,3.234 -2.492,3.789 -3.965,3.789 -2.129,0 -4.523,-0.922 -5.723,-6 l -4.062,-17.449 c -0.274,-1.195 -0.645,-3.137 -0.645,-4.438 0,-3.777 2.676,-3.964 3.692,-3.964 3.504,0 5.164,3.148 5.808,6.093 l 4.707,20.496 z m -6.824,-29.539 c -2.031,-2.586 -5.449,-6.836 -12.004,-6.836 -2.304,0 -4.98,0.649 -7.012,2.407 -2.214,2.031 -3.046,4.879 -3.046,8.496 0,5.808 3.507,19.285 5.254,25.191 2.589,8.586 6.093,15.328 15.234,15.328 7.207,0 10.156,-5.261 10.156,-7.109 l 1.477,6.004 14.863,0 -11.535,-50.039 c -1.844,-7.754 -2.957,-12.649 -6.649,-16.426 -4.062,-4.16 -10.156,-5.356 -15.968,-5.356 -3.692,0 -18.094,0.278 -18.094,12.27 0,1.852 0.371,3.328 0.828,4.988 l 14.68,0 c -0.93,-3.691 -0.93,-4.062 -0.93,-4.707 0,-3.418 3.234,-3.418 4.16,-3.418 1.387,0 4.063,0 5.539,6.184 l 3.047,13.023"
         style="fill:#231f20;fill-opacity:1;fill-rule:nonzero;stroke:none"
         id="path4307"
         inkscape:connector-curvature="0" /><path
         d="m 167.07,175.305 -2.492,-11.078 -17.078,0 -3.418,-14.864 16.434,0 -2.586,-11.172 -16.426,0 -6.465,-28.062 -15.695,0 15.051,65.176 32.675,0"
         style="fill:#231f20;fill-opacity:1;fill-rule:nonzero;stroke:none"
         id="path4309"
         inkscape:connector-curvature="0" /><path
         d="m 191.16,145.398 c 0.176,0.649 0.274,1.29 0.274,1.938 0.089,2.398 -1.758,3.687 -3.973,3.687 -3.965,0 -4.797,-3.418 -5.254,-5.625 l -4.621,-19.761 c -0.184,-0.824 -0.371,-1.836 -0.371,-2.856 0,-1.941 1.113,-3.789 3.976,-3.789 3.965,0 4.707,3.235 5.536,6.645 l 4.433,19.761 z m 14.582,1.938 c 0,-5.18 -3.965,-21.606 -5.351,-25.852 -1.758,-5.168 -4.621,-12.461 -19.387,-12.461 -11.082,0 -18.191,3.692 -18.191,13.387 0,5.356 4.16,21.692 4.988,24.278 1.574,5.265 4.707,14.218 18.926,14.218 7.382,0 19.015,-1.199 19.015,-13.57"
         style="fill:#231f20;fill-opacity:1;fill-rule:nonzero;stroke:none"
         id="path4311"
         inkscape:connector-curvature="0" /><path
         d="m 232.52,149.734 c 4.05,7.754 7.097,9.516 14.851,10.704 l -3.691,-13.75 c -1.016,0.097 -2.032,0.097 -3.047,0.097 -8.113,0 -9.598,-3.515 -11.719,-12.558 l -5.535,-24.098 -14.59,0 11.445,49.488 14.59,0 -2.304,-9.883"
         style="fill:#231f20;fill-opacity:1;fill-rule:nonzero;stroke:none"
         id="path4313"
         inkscape:connector-curvature="0" /><path
         d="m 267.293,153.973 c 4.531,6.293 11.543,6.75 13.301,6.75 3.41,0 8.672,-1.387 9.316,-6.828 3.606,4.511 8.684,6.914 14.504,6.914 3.594,0 10.145,-1.289 10.145,-8.496 0,-1.465 -0.274,-2.848 -0.547,-4.239 l -8.77,-37.945 -14.961,0 8.125,35.074 c 0.098,0.656 0.188,1.215 0.188,1.856 0,1.933 -1.016,3.879 -3.789,3.879 -4.055,0 -4.981,-3.973 -5.352,-5.633 l -8.125,-35.176 -15.051,0 8.223,35.641 c 0.188,0.648 0.273,1.195 0.273,1.75 0,2.316 -1.57,3.781 -3.875,3.781 -3.046,0 -4.796,-2.207 -5.539,-5.442 l -8.211,-35.73 -14.777,0 11.359,49.488 14.864,0 -1.301,-5.644"
         style="fill:#231f20;fill-opacity:1;fill-rule:nonzero;stroke:none"
         id="path4315"
         inkscape:connector-curvature="0" /><path
         d="m 344.637,133.301 c -3.328,-1.016 -7.578,-2.305 -9.324,-3.692 -2.403,-1.941 -3.047,-7.199 -3.047,-8.125 0,-1.66 0.742,-3.039 3.23,-3.039 2.578,0 4.524,1.567 6.094,2.95 l 3.047,11.906 z m 9.875,-17.539 c -0.09,-0.735 -0.274,-1.477 -0.274,-2.215 0,-2.207 0.645,-2.68 1.387,-3.418 l -16.809,0 1.289,5.176 c -3.32,-2.864 -7.468,-6.465 -13.289,-6.465 -1.015,0 -9.785,0 -9.785,8.953 0,3.047 1.942,11.727 4.989,15.234 3.046,3.504 7.472,4.793 24.738,9.786 0.457,1.945 1.101,5.078 1.101,5.812 0,2.586 -2.39,2.77 -3.964,2.77 -4.149,0 -4.891,-2.215 -6.278,-7.207 l -14.031,0 c 2.125,8.593 3.23,11.457 7.75,13.761 3.418,1.758 8.125,2.586 13.301,2.586 8.488,0 17.258,-2.129 17.258,-10.801 0,-1.843 -0.364,-3.687 -0.832,-5.546 l -6.551,-28.426"
         style="fill:#231f20;fill-opacity:1;fill-rule:nonzero;stroke:none"
         id="path4317"
         inkscape:connector-curvature="0" /><path
         d="m 381.348,175.398 14.492,0 -3.692,-15.781 6.551,0 -2.117,-8.863 -6.465,0 -6.008,-25.766 c -0.183,-0.816 -0.359,-2.027 -0.359,-2.847 0,-2.598 1.844,-2.598 5.996,-2.598 l -2.121,-9.414 c -12.93,0 -19.664,0 -19.664,7.391 0,1.574 0.269,2.761 0.828,4.793 l 6.836,28.441 -5.91,0 2.031,8.863 5.996,0 3.606,15.781"
         style="fill:#231f20;fill-opacity:1;fill-rule:nonzero;stroke:none"
         id="path4319"
         inkscape:connector-curvature="0" /><path
         d="m 425.438,175.305 -2.489,-11.078 -14.679,0 2.578,11.078 14.59,0 z m -18.282,-15.688 14.68,0 -11.445,-49.488 -14.582,0 11.347,49.488"
         style="fill:#231f20;fill-opacity:1;fill-rule:nonzero;stroke:none"
         id="path4321"
         inkscape:connector-curvature="0" /><path
         d="m 453.211,145.398 c 0.176,0.649 0.273,1.29 0.273,1.938 0.09,2.398 -1.757,3.687 -3.972,3.687 -3.965,0 -4.797,-3.418 -5.254,-5.625 l -4.621,-19.761 c -0.184,-0.824 -0.371,-1.836 -0.371,-2.856 0,-1.941 1.113,-3.789 3.976,-3.789 3.965,0 4.707,3.235 5.535,6.645 l 4.434,19.761 z m 14.582,1.938 c 0,-5.18 -3.965,-21.606 -5.352,-25.852 -1.757,-5.168 -4.621,-12.461 -19.386,-12.461 -11.082,0 -18.192,3.692 -18.192,13.387 0,5.356 4.16,21.692 4.989,24.278 1.574,5.265 4.707,14.218 18.925,14.218 7.383,0 19.016,-1.199 19.016,-13.57"
         style="fill:#231f20;fill-opacity:1;fill-rule:nonzero;stroke:none"
         id="path4323"
         inkscape:connector-curvature="0" /><path
         d="m 508.691,110.129 -14.679,0 7.941,34.805 c 0.274,1.113 0.274,1.941 0.274,2.3 0,3.52 -3.047,3.52 -3.418,3.52 -4.239,0 -5.254,-4.438 -5.539,-5.91 l -8.028,-34.715 -14.402,0 11.355,49.488 14.493,0 -1.2,-4.898 c 5.535,5.816 11.543,6.004 13.106,6.004 2.773,0 9.238,-0.926 9.238,-8.957 0,-1.754 -0.285,-3.321 -0.644,-4.801 l -8.497,-36.836"
         style="fill:#231f20;fill-opacity:1;fill-rule:nonzero;stroke:none"
         id="path4325"
         inkscape:connector-curvature="0" /><path
         d="m 575.156,143.367 c 0.371,1.567 0.742,3.051 0.742,4.153 0,2.492 -1.574,3.781 -3.789,3.781 -3.691,0 -4.707,-2.766 -5.078,-4.516 l -4.707,-20.406 c -0.273,-1.195 -0.558,-2.777 -0.558,-3.695 0,-2.774 2.031,-3.875 3.879,-3.875 2.5,0 4.246,1.574 5.078,5.261 l 4.433,19.297 z m 10.34,-19.394 c -2.215,-9.688 -6.367,-14.95 -14.402,-14.95 -5.625,0 -9.602,2.762 -10.703,6.739 -0.188,0.461 -0.098,1.758 -0.286,1.015 l -5.625,-24.4645 -14.863,0 15.508,67.3045 14.863,0 -1.66,-6.289 c 2.578,3.242 5.91,7.395 12.735,7.395 5.636,0 9.972,-3.332 9.972,-9.969 0,-1.938 -0.273,-3.789 -0.742,-5.91 l -4.797,-20.871"
         style="fill:#231f20;fill-opacity:1;fill-rule:nonzero;stroke:none"
         id="path4327"
         inkscape:connector-curvature="0" /><path
         d="m 617.188,149.734 c 4.05,7.754 7.097,9.516 14.855,10.704 l -3.695,-13.75 c -1.012,0.097 -2.032,0.097 -3.047,0.097 -8.113,0 -9.598,-3.515 -11.715,-12.558 l -5.539,-24.098 -14.59,0 11.445,49.488 14.59,0 -2.304,-9.883"
         style="fill:#231f20;fill-opacity:1;fill-rule:nonzero;stroke:none"
         id="path4329"
         inkscape:connector-curvature="0" /><path
         d="m 658.281,145.398 c 0.176,0.649 0.274,1.29 0.274,1.938 0.086,2.398 -1.758,3.687 -3.977,3.687 -3.965,0 -4.793,-3.418 -5.254,-5.625 l -4.617,-19.761 c -0.187,-0.824 -0.371,-1.836 -0.371,-2.856 0,-1.941 1.113,-3.789 3.973,-3.789 3.964,0 4.707,3.235 5.539,6.645 l 4.433,19.761 z m 14.578,1.938 c 0,-5.18 -3.964,-21.606 -5.351,-25.852 -1.758,-5.168 -4.617,-12.461 -19.383,-12.461 -11.082,0 -18.195,3.692 -18.195,13.387 0,5.356 4.16,21.692 4.992,24.278 1.57,5.265 4.707,14.218 18.926,14.218 7.382,0 19.011,-1.199 19.011,-13.57"
         style="fill:#231f20;fill-opacity:1;fill-rule:nonzero;stroke:none"
         id="path4331"
         inkscape:connector-curvature="0" /><path
         d="m 690.398,164.414 c 1.848,7.473 2.864,11.262 15.508,11.262 2.774,0 5.539,-0.09 8.684,-0.278 l -2.129,-9.043 c -5.168,0.09 -6.281,-0.093 -7.109,-1.941 -0.372,-0.828 -1.016,-3.605 -1.289,-4.797 l 6.464,0 -2.129,-8.863 -6.464,0 -9.317,-40.625 -14.777,0 9.328,40.625 -5.91,0 2.035,8.863 5.992,0 1.113,4.797"
         style="fill:#231f20;fill-opacity:1;fill-rule:nonzero;stroke:none"
         id="path4333"
         inkscape:connector-curvature="0" /><path
         d="m 736.836,140.41 c 0.371,1.57 1.289,5.449 1.289,6.738 0,0.926 -0.187,1.844 -0.734,2.493 -0.926,1.113 -2.586,1.297 -3.504,1.297 -4.532,0 -5.176,-3.333 -6.563,-10.528 l 9.512,0 z m 11.902,-14.308 c -0.918,-3.692 -1.933,-8.028 -4.98,-11.356 -2.949,-3.406 -7.84,-5.906 -16.524,-5.906 -2.488,0 -9.414,0.371 -13.757,3.789 -2.122,1.656 -4.063,4.234 -4.063,9.512 0,6.543 4.715,24.734 6.277,28.425 1.661,3.977 5.539,10.243 19.024,10.243 5.91,0 17.441,-1.102 17.441,-12.086 0,-2.035 -0.371,-4.164 -0.828,-6.282 -0.734,-3.601 -1.476,-6.925 -2.402,-11.086 l -23.633,0 c -0.734,-2.847 -1.66,-6.914 -1.66,-9.042 0,-0.458 0.097,-1.012 0.285,-1.473 0.641,-1.106 2.117,-1.848 4.059,-1.848 4.152,0 4.707,2.863 5.722,7.11 l 15.039,0"
         style="fill:#231f20;fill-opacity:1;fill-rule:nonzero;stroke:none"
         id="path4335"
         inkscape:connector-curvature="0" /><path
         d="m 771.23,127.02 c -0.46,-1.473 -1.015,-3.219 -1.015,-4.879 0,-2.598 2.129,-3.149 3.703,-3.149 0.457,0 1.656,0 2.672,0.649 1.75,1.199 2.121,3.687 2.121,4.976 0,1.856 -0.734,2.602 -1.848,3.52 -1.386,1.199 -9.226,6.836 -9.414,7.008 -3.418,2.675 -5.449,5.355 -5.449,9.14 0,2.863 1.387,7.11 2.492,9.145 2.684,4.8 8.953,7.293 16.992,7.293 9.688,0 17.168,-3.789 17.168,-11.36 0,-1.758 -0.371,-3.418 -0.742,-5.078 l -13.937,0 c 0.273,0.918 0.832,2.949 0.832,3.969 0,0.371 -0.09,2.769 -3.692,2.769 -4.433,0 -4.433,-4.605 -4.433,-4.8 0,-1.75 1.015,-2.676 2.863,-4.067 0.094,-0.078 4.617,-3.222 5.172,-3.687 6.269,-4.336 9.414,-6.543 9.414,-11.906 0,-3.047 -1.297,-8.586 -3.789,-11.629 -2.402,-2.954 -7.469,-5.825 -16.152,-5.825 -7.012,0 -10.059,1.301 -11.446,1.946 -4.707,2.121 -6.836,5.078 -6.836,9.875 0,2.312 0.559,4.16 1.114,6.09 l 14.21,0"
         style="fill:#231f20;fill-opacity:1;fill-rule:nonzero;stroke:none"
         id="path4337"
         inkscape:connector-curvature="0" /><path
         d="m 816.738,127.02 c -0.461,-1.473 -1.015,-3.219 -1.015,-4.879 0,-2.598 2.129,-3.149 3.699,-3.149 0.461,0 1.664,0 2.676,0.649 1.75,1.199 2.121,3.687 2.121,4.976 0,1.856 -0.735,2.602 -1.848,3.52 -1.387,1.199 -9.226,6.836 -9.41,7.008 -3.418,2.675 -5.453,5.355 -5.453,9.14 0,2.863 1.387,7.11 2.492,9.145 2.684,4.8 8.953,7.293 16.992,7.293 9.688,0 17.168,-3.789 17.168,-11.36 0,-1.758 -0.371,-3.418 -0.742,-5.078 l -13.938,0 c 0.274,0.918 0.833,2.949 0.833,3.969 0,0.371 -0.09,2.769 -3.692,2.769 -4.433,0 -4.433,-4.605 -4.433,-4.8 0,-1.75 1.015,-2.676 2.859,-4.067 0.098,-0.078 4.621,-3.222 5.176,-3.687 6.269,-4.336 9.414,-6.543 9.414,-11.906 0,-3.047 -1.297,-8.586 -3.789,-11.629 -2.403,-2.954 -7.469,-5.825 -16.153,-5.825 -7.011,0 -10.058,1.301 -11.445,1.946 -4.707,2.121 -6.832,5.078 -6.832,9.875 0,2.312 0.555,4.16 1.109,6.09 l 14.211,0"
         style="fill:#231f20;fill-opacity:1;fill-rule:nonzero;stroke:none"
         id="path4339"
         inkscape:connector-curvature="0" /><path
         d="m 875.887,175.305 -2.489,-11.078 -14.679,0 2.578,11.078 14.59,0 z m -18.282,-15.688 14.68,0 -11.445,-49.488 -14.582,0 11.347,49.488"
         style="fill:#231f20;fill-opacity:1;fill-rule:nonzero;stroke:none"
         id="path4341"
         inkscape:connector-curvature="0" /><path
         d="m 903.66,145.398 c 0.176,0.649 0.274,1.29 0.274,1.938 0.089,2.398 -1.758,3.687 -3.973,3.687 -3.965,0 -4.793,-3.418 -5.254,-5.625 l -4.621,-19.761 c -0.184,-0.824 -0.371,-1.836 -0.371,-2.856 0,-1.941 1.113,-3.789 3.976,-3.789 3.965,0 4.707,3.235 5.536,6.645 l 4.433,19.761 z m 14.582,1.938 c 0,-5.18 -3.965,-21.606 -5.351,-25.852 -1.758,-5.168 -4.621,-12.461 -19.387,-12.461 -11.082,0 -18.191,3.692 -18.191,13.387 0,5.356 4.16,21.692 4.988,24.278 1.574,5.265 4.707,14.218 18.926,14.218 7.382,0 19.015,-1.199 19.015,-13.57"
         style="fill:#231f20;fill-opacity:1;fill-rule:nonzero;stroke:none"
         id="path4343"
         inkscape:connector-curvature="0" /><path
         d="m 959.141,110.129 -14.68,0 7.941,34.805 c 0.274,1.113 0.274,1.941 0.274,2.3 0,3.52 -3.047,3.52 -3.418,3.52 -4.238,0 -5.254,-4.438 -5.539,-5.91 l -8.028,-34.715 -14.402,0 11.356,49.488 14.492,0 -1.199,-4.898 c 5.535,5.816 11.542,6.004 13.105,6.004 2.773,0 9.238,-0.926 9.238,-8.957 0,-1.754 -0.285,-3.321 -0.644,-4.801 l -8.496,-36.836"
         style="fill:#231f20;fill-opacity:1;fill-rule:nonzero;stroke:none"
         id="path4345"
         inkscape:connector-curvature="0" /><path
         d="m 1008.7,110.129 -14.677,0 7.937,34.805 c 0.28,1.113 0.28,1.941 0.28,2.3 0,3.52 -3.052,3.52 -3.424,3.52 -4.238,0 -5.253,-4.438 -5.535,-5.91 l -8.027,-34.715 -14.406,0 11.359,49.488 14.492,0 -1.203,-4.898 c 5.544,5.816 11.544,6.004 13.104,6.004 2.78,0 9.24,-0.926 9.24,-8.957 0,-1.754 -0.28,-3.321 -0.64,-4.801 l -8.5,-36.836"
         style="fill:#231f20;fill-opacity:1;fill-rule:nonzero;stroke:none"
         id="path4347"
         inkscape:connector-curvature="0" /><path
         d="m 1050.49,140.41 c 0.37,1.57 1.29,5.449 1.29,6.738 0,0.926 -0.19,1.844 -0.74,2.493 -0.92,1.113 -2.58,1.297 -3.5,1.297 -4.53,0 -5.18,-3.333 -6.56,-10.528 l 9.51,0 z m 11.9,-14.308 c -0.92,-3.692 -1.93,-8.028 -4.98,-11.356 -2.95,-3.406 -7.84,-5.906 -16.52,-5.906 -2.49,0 -9.42,0.371 -13.76,3.789 -2.12,1.656 -4.06,4.234 -4.06,9.512 0,6.543 4.71,24.734 6.27,28.425 1.66,3.977 5.54,10.243 19.03,10.243 5.91,0 17.44,-1.102 17.44,-12.086 0,-2.035 -0.37,-4.164 -0.83,-6.282 -0.73,-3.601 -1.48,-6.925 -2.4,-11.086 l -23.63,0 c -0.74,-2.847 -1.66,-6.914 -1.66,-9.042 0,-0.458 0.09,-1.012 0.28,-1.473 0.64,-1.106 2.12,-1.848 4.06,-1.848 4.15,0 4.71,2.863 5.72,7.11 l 15.04,0"
         style="fill:#231f20;fill-opacity:1;fill-rule:nonzero;stroke:none"
         id="path4349"
         inkscape:connector-curvature="0" /><path
         d="m 1083.96,175.305 14.78,0 -15.05,-65.176 -14.77,0 15.04,65.176"
         style="fill:#231f20;fill-opacity:1;fill-rule:nonzero;stroke:none"
         id="path4351"
         inkscape:connector-curvature="0" /><path
         d="m 1110.4,175.305 14.77,0 -15.04,-65.176 -14.77,0 15.04,65.176"
         style="fill:#231f20;fill-opacity:1;fill-rule:nonzero;stroke:none"
         id="path4353"
         inkscape:connector-curvature="0" /><path
         d="m 1151.91,140.41 c 0.38,1.57 1.29,5.449 1.29,6.738 0,0.926 -0.18,1.844 -0.73,2.493 -0.93,1.113 -2.59,1.297 -3.51,1.297 -4.53,0 -5.17,-3.333 -6.56,-10.528 l 9.51,0 z m 11.91,-14.308 c -0.92,-3.692 -1.94,-8.028 -4.98,-11.356 -2.95,-3.406 -7.84,-5.906 -16.53,-5.906 -2.49,0 -9.41,0.371 -13.76,3.789 -2.12,1.656 -4.06,4.234 -4.06,9.512 0,6.543 4.72,24.734 6.28,28.425 1.66,3.977 5.54,10.243 19.02,10.243 5.91,0 17.45,-1.102 17.45,-12.086 0,-2.035 -0.37,-4.164 -0.83,-6.282 -0.74,-3.601 -1.48,-6.925 -2.41,-11.086 l -23.63,0 c -0.73,-2.847 -1.66,-6.914 -1.66,-9.042 0,-0.458 0.1,-1.012 0.28,-1.473 0.65,-1.106 2.12,-1.848 4.07,-1.848 4.15,0 4.7,2.863 5.72,7.11 l 15.04,0"
         style="fill:#231f20;fill-opacity:1;fill-rule:nonzero;stroke:none"
         id="path4355"
         inkscape:connector-curvature="0" /><path
         d="m 145.594,83 -2.489,-11.0859 -17.082,0 -3.418,-14.8633 16.438,0 -2.59,-11.1719 -16.426,0 -6.464,-28.0586 -15.6919,0 L 112.918,83 l 32.676,0"
         style="fill:#231f20;fill-opacity:1;fill-rule:nonzero;stroke:none"
         id="path4357"
         inkscape:connector-curvature="0" /><path
         d="m 169.676,53.0742 c 0.176,0.6563 0.273,1.3008 0.273,1.9453 0.09,2.4024 -1.758,3.6914 -3.972,3.6914 -3.965,0 -4.797,-3.4062 -5.254,-5.6367 l -4.621,-19.7461 c -0.184,-0.8398 -0.372,-1.8554 -0.372,-2.8672 0,-1.9375 1.114,-3.7812 3.977,-3.7812 3.965,0 4.707,3.2305 5.535,6.6484 l 4.434,19.7461 z m 14.582,1.9453 c 0,-5.1679 -3.965,-21.6015 -5.352,-25.8476 -1.758,-5.168 -4.621,-12.461 -19.386,-12.461 -11.082,0 -18.192,3.6875 -18.192,13.3868 0,5.3515 4.16,21.6875 4.988,24.2773 1.575,5.2656 4.707,14.2109 18.926,14.2109 7.383,0 19.016,-1.1953 19.016,-13.5664"
         style="fill:#231f20;fill-opacity:1;fill-rule:nonzero;stroke:none"
         id="path4359"
         inkscape:connector-curvature="0" /><path
         d="m 211.035,57.4219 c 4.051,7.7539 7.098,9.5039 14.852,10.7148 L 222.195,54.375 c -1.015,0.0898 -2.031,0.0898 -3.047,0.0898 -8.113,0 -9.597,-3.5078 -11.718,-12.5507 l -5.535,-24.0938 -14.59,0 11.445,49.4766 14.59,0 -2.305,-9.875"
         style="fill:#231f20;fill-opacity:1;fill-rule:nonzero;stroke:none"
         id="path4361"
         inkscape:connector-curvature="0" /><path
         d="m 245.809,61.6719 c 4.531,6.2656 11.543,6.7344 13.3,6.7344 3.411,0 8.672,-1.3868 9.317,-6.836 3.605,4.5313 8.683,6.9375 14.504,6.9375 3.593,0 10.144,-1.3008 10.144,-8.4961 0,-1.4883 -0.273,-2.8711 -0.547,-4.2578 l -8.769,-37.9336 -14.961,0 8.125,35.0781 c 0.098,0.6485 0.187,1.1954 0.187,1.8477 0,1.9414 -1.015,3.8789 -3.789,3.8789 -4.054,0 -4.98,-3.9687 -5.351,-5.6367 l -8.125,-35.168 -15.051,0 8.223,35.625 c 0.187,0.6485 0.273,1.211 0.273,1.7578 0,2.3086 -1.57,3.7891 -3.875,3.7891 -3.047,0 -4.797,-2.2266 -5.539,-5.4453 l -8.211,-35.7266 -14.777,0 11.359,49.4766 14.863,0 -1.3,-5.625"
         style="fill:#231f20;fill-opacity:1;fill-rule:nonzero;stroke:none"
         id="path4363"
         inkscape:connector-curvature="0" /><path
         d="m 323.164,40.9844 c -3.328,-1.0117 -7.578,-2.3008 -9.328,-3.6875 -2.402,-1.9375 -3.047,-7.1992 -3.047,-8.125 0,-1.6602 0.742,-3.0469 3.234,-3.0469 2.579,0 4.52,1.5703 6.094,2.957 l 3.047,11.9024 z m 9.871,-17.5391 c -0.086,-0.7422 -0.273,-1.4726 -0.273,-2.207 0,-2.2227 0.644,-2.6836 1.386,-3.418 l -16.804,0 1.289,5.168 c -3.32,-2.8594 -7.473,-6.4649 -13.293,-6.4649 -1.016,0 -9.785,0 -9.785,8.9532 0,3.0468 1.945,11.7187 4.992,15.2382 3.047,3.504 7.469,4.8008 24.734,9.7852 0.461,1.9336 1.114,5.0742 1.114,5.8164 0,2.5781 -2.403,2.7656 -3.973,2.7656 -4.152,0 -4.895,-2.2187 -6.281,-7.1953 l -14.032,0 c 2.129,8.5821 3.231,11.4414 7.754,13.75 3.418,1.7539 8.125,2.586 13.301,2.586 8.484,0 17.254,-2.1211 17.254,-10.8008 0,-1.8477 -0.359,-3.6914 -0.828,-5.5352 l -6.555,-28.4414"
         style="fill:#231f20;fill-opacity:1;fill-rule:nonzero;stroke:none"
         id="path4365"
         inkscape:connector-curvature="0" /><path
         d="m 352.129,67.2969 34.16,0 -2.129,-9.043 -24.465,-30.4726 19.024,0 -2.313,-9.961 -36.738,0 2.117,9.4141 24.934,30.832 -16.711,0 2.121,9.2305"
         style="fill:#231f20;fill-opacity:1;fill-rule:nonzero;stroke:none"
         id="path4367"
         inkscape:connector-curvature="0" /><path
         d="m 414.004,83 -2.492,-11.0859 -14.676,0 2.578,11.0859 14.59,0 z m -18.281,-15.7031 14.675,0 -11.445,-49.4766 -14.578,0 11.348,49.4766"
         style="fill:#231f20;fill-opacity:1;fill-rule:nonzero;stroke:none"
         id="path4369"
         inkscape:connector-curvature="0" /><path
         d="m 441.816,53.0742 c 0.176,0.6563 0.274,1.3008 0.274,1.9453 0.086,2.4024 -1.758,3.6914 -3.977,3.6914 -3.965,0 -4.793,-3.4062 -5.254,-5.6367 l -4.617,-19.7461 c -0.187,-0.8398 -0.371,-1.8554 -0.371,-2.8672 0,-1.9375 1.113,-3.7812 3.973,-3.7812 3.965,0 4.707,3.2305 5.539,6.6484 l 4.433,19.7461 z m 14.579,1.9453 c 0,-5.1679 -3.965,-21.6015 -5.352,-25.8476 -1.758,-5.168 -4.617,-12.461 -19.383,-12.461 -11.086,0 -18.195,3.6875 -18.195,13.3868 0,5.3515 4.16,21.6875 4.992,24.2773 1.57,5.2656 4.707,14.2109 18.926,14.2109 7.383,0 19.012,-1.1953 19.012,-13.5664"
         style="fill:#231f20;fill-opacity:1;fill-rule:nonzero;stroke:none"
         id="path4371"
         inkscape:connector-curvature="0" /><path
         d="m 497.305,17.8203 -14.68,0 7.941,34.8086 c 0.274,1.1016 0.274,1.9297 0.274,2.3047 0,3.5039 -3.047,3.5039 -3.418,3.5039 -4.238,0 -5.254,-4.4336 -5.539,-5.9102 l -8.028,-34.707 -14.402,0 11.356,49.4766 14.492,0 -1.199,-4.8867 c 5.535,5.8125 11.543,5.9961 13.105,5.9961 2.773,0 9.238,-0.918 9.238,-8.9532 0,-1.7578 -0.285,-3.3281 -0.644,-4.7968 l -8.496,-36.836"
         style="fill:#231f20;fill-opacity:1;fill-rule:nonzero;stroke:none"
         id="path4373"
         inkscape:connector-curvature="0" /><path
         d="m 539.121,48.0977 c 0.371,1.5703 1.289,5.4492 1.289,6.7382 0,0.918 -0.187,1.8516 -0.734,2.5 -0.926,1.1016 -2.586,1.2891 -3.504,1.2891 -4.531,0 -5.176,-3.3203 -6.563,-10.5273 l 9.512,0 z m 11.902,-14.3086 c -0.918,-3.6914 -1.933,-8.0352 -4.98,-11.3555 -2.949,-3.418 -7.84,-5.9102 -16.523,-5.9102 -2.489,0 -9.415,0.3711 -13.758,3.7813 -2.121,1.668 -4.063,4.2539 -4.063,9.5078 0,6.5664 4.719,24.7461 6.278,28.4414 1.66,3.9649 5.539,10.2539 19.023,10.2539 5.91,0 17.441,-1.1172 17.441,-12.1015 0,-2.0313 -0.371,-4.1485 -0.828,-6.2774 -0.734,-3.5976 -1.476,-6.9258 -2.402,-11.0742 l -23.633,0 c -0.734,-2.8711 -1.66,-6.9375 -1.66,-9.043 0,-0.4687 0.098,-1.0195 0.281,-1.4883 0.645,-1.1132 2.121,-1.8437 4.063,-1.8437 4.152,0 4.707,2.8633 5.722,7.1094 l 15.039,0"
         style="fill:#231f20;fill-opacity:1;fill-rule:nonzero;stroke:none"
         id="path4375"
         inkscape:connector-curvature="0" /><path
         d="m 612.871,51.0469 c 0.371,1.582 0.742,3.0469 0.742,4.1562 0,2.4922 -1.57,3.7891 -3.789,3.7891 -3.691,0 -4.707,-2.7695 -5.078,-4.5274 l -4.707,-20.4023 c -0.273,-1.2031 -0.559,-2.7617 -0.559,-3.6914 0,-2.7656 2.032,-3.8789 3.879,-3.8789 2.5,0 4.246,1.5742 5.079,5.2656 l 4.433,19.2891 z m 10.34,-19.375 c -2.215,-9.6992 -6.367,-14.961 -14.402,-14.961 -5.625,0 -9.598,2.7696 -10.704,6.7344 -0.187,0.4727 -0.097,1.7578 -0.285,1.0195 L 592.195,0 l -14.859,0 15.504,67.2969 14.863,0 -1.66,-6.2735 c 2.578,3.2266 5.91,7.3829 12.734,7.3829 5.637,0 9.973,-3.3165 9.973,-9.9688 0,-1.9453 -0.273,-3.7812 -0.742,-5.9102 l -4.797,-20.8554"
         style="fill:#231f20;fill-opacity:1;fill-rule:nonzero;stroke:none"
         id="path4377"
         inkscape:connector-curvature="0" /><path
         d="m 654.902,57.4219 c 4.051,7.7539 7.098,9.5039 14.852,10.7148 L 666.063,54.375 c -1.016,0.0898 -2.032,0.0898 -3.047,0.0898 -8.114,0 -9.598,-3.5078 -11.719,-12.5507 l -5.535,-24.0938 -14.59,0 11.445,49.4766 14.59,0 -2.305,-9.875"
         style="fill:#231f20;fill-opacity:1;fill-rule:nonzero;stroke:none"
         id="path4379"
         inkscape:connector-curvature="0" /><path
         d="m 696.004,53.0742 c 0.176,0.6563 0.273,1.3008 0.273,1.9453 0.09,2.4024 -1.757,3.6914 -3.972,3.6914 -3.965,0 -4.797,-3.4062 -5.254,-5.6367 L 682.43,33.3281 c -0.184,-0.8398 -0.371,-1.8554 -0.371,-2.8672 0,-1.9375 1.113,-3.7812 3.976,-3.7812 3.965,0 4.707,3.2305 5.535,6.6484 l 4.434,19.7461 z m 14.582,1.9453 c 0,-5.1679 -3.965,-21.6015 -5.352,-25.8476 -1.757,-5.168 -4.621,-12.461 -19.386,-12.461 -11.082,0 -18.192,3.6875 -18.192,13.3868 0,5.3515 4.16,21.6875 4.989,24.2773 1.574,5.2656 4.707,14.2109 18.925,14.2109 7.383,0 19.016,-1.1953 19.016,-13.5664"
         style="fill:#231f20;fill-opacity:1;fill-rule:nonzero;stroke:none"
         id="path4381"
         inkscape:connector-curvature="0" /><path
         d="m 728.125,72.0977 c 1.844,7.4804 2.859,11.2617 15.508,11.2617 2.773,0 5.535,-0.0899 8.68,-0.2735 l -2.129,-9.0546 c -5.164,0.1015 -6.278,-0.086 -7.11,-1.9336 -0.371,-0.8282 -1.015,-3.5899 -1.289,-4.8008 l 6.465,0 -2.129,-8.8594 -6.465,0 -9.316,-40.6172 -14.774,0 9.325,40.6172 -5.907,0 2.032,8.8594 5.996,0 1.113,4.8008"
         style="fill:#231f20;fill-opacity:1;fill-rule:nonzero;stroke:none"
         id="path4383"
         inkscape:connector-curvature="0" /><path
         d="m 774.559,48.0977 c 0.371,1.5703 1.289,5.4492 1.289,6.7382 0,0.918 -0.184,1.8516 -0.731,2.5 -0.929,1.1016 -2.59,1.2891 -3.508,1.2891 -4.531,0 -5.175,-3.3203 -6.562,-10.5273 l 9.512,0 z m 11.914,-14.3086 c -0.926,-3.6914 -1.942,-8.0352 -4.989,-11.3555 -2.949,-3.418 -7.843,-5.9102 -16.523,-5.9102 -2.492,0 -9.414,0.3711 -13.762,3.7813 -2.117,1.668 -4.062,4.2539 -4.062,9.5078 0,6.5664 4.718,24.7461 6.281,28.4414 1.66,3.9649 5.535,10.2539 19.023,10.2539 5.907,0 17.442,-1.1172 17.442,-12.1015 0,-2.0313 -0.371,-4.1485 -0.832,-6.2774 -0.731,-3.5976 -1.473,-6.9258 -2.403,-11.0742 l -23.632,0 c -0.731,-2.8711 -1.661,-6.9375 -1.661,-9.043 0,-0.4687 0.098,-1.0195 0.286,-1.4883 0.644,-1.1132 2.117,-1.8437 4.062,-1.8437 4.149,0 4.707,2.8633 5.723,7.1094 l 15.047,0"
         style="fill:#231f20;fill-opacity:1;fill-rule:nonzero;stroke:none"
         id="path4385"
         inkscape:connector-curvature="0" /><path
         d="m 808.953,34.7188 c -0.457,-1.4883 -1.015,-3.2461 -1.015,-4.9063 0,-2.5781 2.128,-3.1328 3.703,-3.1328 0.457,0 1.66,0 2.675,0.6445 1.747,1.1992 2.118,3.6992 2.118,4.9883 0,1.8359 -0.731,2.5781 -1.844,3.5078 -1.387,1.1992 -9.231,6.8242 -9.414,7.0235 -3.418,2.6718 -5.449,5.3476 -5.449,9.1289 0,2.8632 1.386,7.1093 2.488,9.1406 2.687,4.793 8.957,7.293 16.996,7.293 9.684,0 17.164,-3.7891 17.164,-11.3555 0,-1.7461 -0.371,-3.4102 -0.742,-5.0781 l -13.934,0 c 0.274,0.9257 0.828,2.9609 0.828,3.9726 0,0.3711 -0.086,2.7656 -3.691,2.7656 -4.434,0 -4.434,-4.6171 -4.434,-4.7929 0,-1.7617 1.016,-2.6797 2.864,-4.0664 0.097,-0.0938 4.617,-3.2305 5.175,-3.6914 6.27,-4.336 9.414,-6.5625 9.414,-11.9102 0,-3.0508 -1.3,-8.5859 -3.789,-11.6328 -2.402,-2.9609 -7.472,-5.8086 -16.152,-5.8086 -7.012,0 -10.059,1.2891 -11.445,1.9297 -4.707,2.1289 -6.836,5.0781 -6.836,9.8867 0,2.3047 0.555,4.1484 1.113,6.0938 l 14.207,0"
         style="fill:#231f20;fill-opacity:1;fill-rule:nonzero;stroke:none"
         id="path4387"
         inkscape:connector-curvature="0" /><path
         d="m 854.461,34.7188 c -0.457,-1.4883 -1.016,-3.2461 -1.016,-4.9063 0,-2.5781 2.129,-3.1328 3.703,-3.1328 0.457,0 1.661,0 2.676,0.6445 1.746,1.1992 2.117,3.6992 2.117,4.9883 0,1.8359 -0.73,2.5781 -1.843,3.5078 -1.387,1.1992 -9.231,6.8242 -9.414,7.0235 -3.418,2.6718 -5.45,5.3476 -5.45,9.1289 0,2.8632 1.387,7.1093 2.489,9.1406 2.687,4.793 8.957,7.293 16.992,7.293 9.687,0 17.168,-3.7891 17.168,-11.3555 0,-1.7461 -0.371,-3.4102 -0.742,-5.0781 l -13.934,0 c 0.273,0.9257 0.828,2.9609 0.828,3.9726 0,0.3711 -0.086,2.7656 -3.691,2.7656 -4.434,0 -4.434,-4.6171 -4.434,-4.7929 0,-1.7617 1.016,-2.6797 2.863,-4.0664 0.098,-0.0938 4.618,-3.2305 5.176,-3.6914 6.27,-4.336 9.414,-6.5625 9.414,-11.9102 0,-3.0508 -1.3,-8.5859 -3.789,-11.6328 -2.402,-2.9609 -7.472,-5.8086 -16.152,-5.8086 -7.012,0 -10.059,1.2891 -11.445,1.9297 -4.707,2.1289 -6.836,5.0781 -6.836,9.8867 0,2.3047 0.554,4.1484 1.113,6.0938 l 14.207,0"
         style="fill:#231f20;fill-opacity:1;fill-rule:nonzero;stroke:none"
         id="path4389"
         inkscape:connector-curvature="0" /><path
         d="m 913.613,83 -2.492,-11.0859 -14.676,0 2.578,11.0859 14.59,0 z m -18.281,-15.7031 14.676,0 -11.445,-49.4766 -14.579,0 11.348,49.4766"
         style="fill:#231f20;fill-opacity:1;fill-rule:nonzero;stroke:none"
         id="path4391"
         inkscape:connector-curvature="0" /><path
         d="m 941.387,53.0742 c 0.176,0.6563 0.273,1.3008 0.273,1.9453 0.086,2.4024 -1.758,3.6914 -3.976,3.6914 -3.965,0 -4.793,-3.4062 -5.254,-5.6367 l -4.617,-19.7461 c -0.188,-0.8398 -0.372,-1.8554 -0.372,-2.8672 0,-1.9375 1.114,-3.7812 3.977,-3.7812 3.961,0 4.703,3.2305 5.535,6.6484 l 4.434,19.7461 z m 14.578,1.9453 c 0,-5.1679 -3.965,-21.6015 -5.352,-25.8476 -1.758,-5.168 -4.617,-12.461 -19.383,-12.461 -11.085,0 -18.195,3.6875 -18.195,13.3868 0,5.3515 4.16,21.6875 4.992,24.2773 1.571,5.2656 4.707,14.2109 18.926,14.2109 7.383,0 19.012,-1.1953 19.012,-13.5664"
         style="fill:#231f20;fill-opacity:1;fill-rule:nonzero;stroke:none"
         id="path4393"
         inkscape:connector-curvature="0" /><path
         d="m 996.863,17.8203 -14.675,0 7.937,34.8086 c 0.273,1.1016 0.273,1.9297 0.273,2.3047 0,3.5039 -3.046,3.5039 -3.418,3.5039 -4.238,0 -5.253,-4.4336 -5.535,-5.9102 l -8.027,-34.707 -14.406,0 11.359,49.4766 14.492,0 -1.203,-4.8867 c 5.539,5.8125 11.543,5.9961 13.106,5.9961 2.777,0 9.234,-0.918 9.234,-8.9532 0,-1.7578 -0.28,-3.3281 -0.64,-4.7968 l -8.497,-36.836"
         style="fill:#231f20;fill-opacity:1;fill-rule:nonzero;stroke:none"
         id="path4395"
         inkscape:connector-curvature="0" /><path
         d="m 1036.08,40.9844 c -3.33,-1.0117 -7.58,-2.3008 -9.32,-3.6875 -2.4,-1.9375 -3.05,-7.1992 -3.05,-8.125 0,-1.6602 0.74,-3.0469 3.23,-3.0469 2.58,0 4.52,1.5703 6.1,2.957 l 3.04,11.9024 z m 9.88,-17.5391 c -0.09,-0.7422 -0.28,-1.4726 -0.28,-2.207 0,-2.2227 0.65,-2.6836 1.39,-3.418 l -16.81,0 1.29,5.168 c -3.32,-2.8594 -7.47,-6.4649 -13.29,-6.4649 -1.01,0 -9.78,0 -9.78,8.9532 0,3.0468 1.94,11.7187 4.99,15.2382 3.04,3.504 7.47,4.8008 24.73,9.7852 0.46,1.9336 1.11,5.0742 1.11,5.8164 0,2.5781 -2.4,2.7656 -3.97,2.7656 -4.15,0 -4.89,-2.2187 -6.28,-7.1953 l -14.03,0 c 2.13,8.5821 3.23,11.4414 7.75,13.75 3.42,1.7539 8.13,2.586 13.3,2.586 8.49,0 17.26,-2.1211 17.26,-10.8008 0,-1.8477 -0.36,-3.6914 -0.83,-5.5352 l -6.55,-28.4414"
         style="fill:#231f20;fill-opacity:1;fill-rule:nonzero;stroke:none"
         id="path4397"
         inkscape:connector-curvature="0" /><path
         d="m 1071.1,83 14.78,0 -15.05,-65.1797 -14.77,0 L 1071.1,83"
         style="fill:#231f20;fill-opacity:1;fill-rule:nonzero;stroke:none"
         id="path4399"
         inkscape:connector-curvature="0" /><path
         d="m 1112.62,48.0977 c 0.37,1.5703 1.29,5.4492 1.29,6.7382 0,0.918 -0.19,1.8516 -0.74,2.5 -0.92,1.1016 -2.59,1.2891 -3.5,1.2891 -4.53,0 -5.18,-3.3203 -6.57,-10.5273 l 9.52,0 z m 11.9,-14.3086 c -0.92,-3.6914 -1.93,-8.0352 -4.98,-11.3555 -2.95,-3.418 -7.84,-5.9102 -16.52,-5.9102 -2.49,0 -9.42,0.3711 -13.76,3.7813 -2.12,1.668 -4.06,4.2539 -4.06,9.5078 0,6.5664 4.71,24.7461 6.27,28.4414 1.66,3.9649 5.54,10.2539 19.03,10.2539 5.91,0 17.44,-1.1172 17.44,-12.1015 0,-2.0313 -0.37,-4.1485 -0.83,-6.2774 -0.73,-3.5976 -1.48,-6.9258 -2.4,-11.0742 l -23.64,0 c -0.73,-2.8711 -1.66,-6.9375 -1.66,-9.043 0,-0.4687 0.1,-1.0195 0.29,-1.4883 0.64,-1.1132 2.12,-1.8437 4.06,-1.8437 4.15,0 4.71,2.8633 5.72,7.1094 l 15.04,0"
         style="fill:#231f20;fill-opacity:1;fill-rule:nonzero;stroke:none"
         id="path4401"
         inkscape:connector-curvature="0" /></g></g></svg>