<?xml version="1.0" encoding="UTF-8" standalone="no"?>
<svg
   xmlns:dc="http://purl.org/dc/elements/1.1/"
   xmlns:cc="http://creativecommons.org/ns#"
   xmlns:rdf="http://www.w3.org/1999/02/22-rdf-syntax-ns#"
   xmlns:svg="http://www.w3.org/2000/svg"
   xmlns="http://www.w3.org/2000/svg"
   id="svg8"
   version="1.1"
   viewBox="0 0 179.99988 32.517643"
   height="32.517643mm"
   width="179.99988mm">
  <defs
     id="defs2">
    <clipPath
       clipPathUnits="userSpaceOnUse"
       id="clipPath3696">
      <path
         d="M 0,612.288 H 858.897 V 0 H 0 Z"
         id="path3694" />
    </clipPath>
  </defs>
  <metadata
     id="metadata5">
    <rdf:RDF>
      <cc:Work
         rdf:about="">
        <dc:format>image/svg+xml</dc:format>
        <dc:type
           rdf:resource="http://purl.org/dc/dcmitype/StillImage" />
        <dc:title></dc:title>
      </cc:Work>
    </rdf:RDF>
  </metadata>
  <g
     transform="translate(-19.613159,-25.229268)"
     id="layer1">
    <g
       id="g3688"
       transform="matrix(0.35277777,0,0,-0.35277777,-56.995956,182.61726)">
      <g
         id="g3690">
        <g
           id="g3692"
           clip-path="url(#clipPath3696)">
          <g
             id="g3698"
             transform="translate(277.6777,446.1392)">
            <path
               d="M 0,0 C -4.403,0 -8.742,-0.957 -11.802,-2.211 -14.859,-0.957 -19.199,0 -23.601,0 c -19.401,0 -36.917,-18.347 -36.917,-43.516 0,-27.439 22.422,-48.66 48.716,-48.66 26.296,0 48.718,21.221 48.718,48.66 C 36.916,-18.347 19.399,0 0,0 m -11.802,-14.946 c 3.74,-2.221 8.678,-8.663 8.678,-15.935 0,-5.33 -3.522,-9.525 -8.678,-9.525 -5.155,0 -8.676,4.195 -8.676,9.525 0,7.272 4.939,13.714 8.676,15.935 m 0,-65.244 c -20.107,0 -36.743,16.174 -36.743,36.912 0,18.937 13.668,31.876 24.407,31.395 -5.086,-5.072 -8.173,-12.452 -8.173,-19.599 0,-12.299 9.76,-20.921 20.509,-20.921 10.751,0 20.511,8.622 20.511,20.921 0,7.147 -3.088,14.527 -8.172,19.599 10.737,0.481 24.403,-12.458 24.403,-31.395 0,-20.738 -16.635,-36.912 -36.742,-36.912"
               style="fill:#0068b7;fill-opacity:1;fill-rule:nonzero;stroke:none"
               id="path3700" />
          </g>
          <g
             id="g3702"
             transform="translate(511.0361,415.6025)">
            <path
               d="m 0,0 c -3.38,1.81 -7.284,3.057 -11.142,3.057 -4.364,0 -6.966,-2.151 -6.966,-5.208 0,-9.7 21.563,-4.1 21.563,-22.114 0,-9.473 -7.566,-14.809 -17.467,-14.809 -5.638,0 -9.928,0.996 -14.782,3.186 l 1.634,8.85 c 3.909,-2.233 7.667,-3.58 12.437,-3.58 4.593,0 7.706,2.511 7.706,6.075 0,9.209 -21.14,4.168 -21.14,21.261 0,8.989 6.893,14.698 16.275,14.698 4.73,0 9.649,-1.276 12.979,-2.784 z"
               style="fill:#231916;fill-opacity:1;fill-rule:nonzero;stroke:none"
               id="path3704" />
          </g>
          <g
             id="g3706"
             transform="translate(539.8213,398.9731)">
            <path
               d="M 0,0 C 0.016,2.648 -0.806,7.074 -5.309,7.074 -9.49,7.074 -10.94,2.927 -11.216,0 Z m -11.134,-7.325 c 0.061,-4.634 4.111,-6.941 8.729,-6.941 3.349,0 6.594,0.678 9.261,1.678 l 0.576,-7.964 c -3.553,-1.376 -7.009,-1.892 -11.275,-1.892 -11.436,0 -17.221,6.978 -17.221,18.003 0,8.989 4.637,18.928 16.29,18.928 10.319,0 14.461,-8.911 14.461,-17.666 0,-1.916 -0.166,-3.078 -0.308,-4.146 z"
               style="fill:#231916;fill-opacity:1;fill-rule:nonzero;stroke:none"
               id="path3708" />
          </g>
          <g
             id="g3710"
             transform="translate(579.9863,378.3735)">
            <path
               d="m 0,0 c -1.782,-0.917 -5.104,-1.646 -8.867,-1.646 -10.288,0 -16.987,6.347 -16.987,18.104 0,10.993 6.514,18.798 18.348,18.798 2.621,0 5.491,-0.526 7.557,-1.395 L -1.491,25.69 c -1.197,0.59 -2.932,1.129 -5.54,1.129 -5.232,0 -8.407,-3.957 -8.407,-9.917 0,-6.754 3.779,-9.943 8.57,-9.943 2.365,0 4.18,0.463 5.701,1.151 z"
               style="fill:#231916;fill-opacity:1;fill-rule:nonzero;stroke:none"
               id="path3712" />
          </g>
          <g
             id="g3714"
             transform="translate(615.6611,388.6631)">
            <path
               d="m 0,0 c 0,-4.601 0.121,-8.398 0.259,-11.34 h -8.94 l -0.453,4.994 h -0.208 c -1.243,-2.187 -4.211,-5.788 -9.923,-5.788 -6.25,0 -11.181,3.765 -11.181,13.448 v 22.724 h 10.265 V 3.101 c 0,-4.669 1.39,-6.35 4.633,-6.35 2.689,0 5.282,2.458 5.282,6.203 V 24.038 H 0 Z"
               style="fill:#231916;fill-opacity:1;fill-rule:nonzero;stroke:none"
               id="path3716" />
          </g>
          <g
             id="g3718"
             transform="translate(623.0137,401.0396)">
            <path
               d="M 0,0 C 0,5.194 -0.084,8.616 -0.258,11.663 H 8.683 L 9.046,5.115 h 0.242 c 1.636,5.175 5.508,7.344 8.594,7.344 1.131,0 2.413,-0.162 3.15,-0.34 L 19.995,1.911 c -0.831,0.179 -1.628,0.308 -2.74,0.308 -4.39,0 -6.969,-3.076 -6.969,-7.545 V -23.715 H -0.016 Z"
               style="fill:#231916;fill-opacity:1;fill-rule:nonzero;stroke:none"
               id="path3720" />
          </g>
          <g
             id="g3722"
             transform="translate(658.5156,417.3018)">
            <path
               d="m 0,0 h 0.065 c 3.423,0 5.848,2.33 5.831,5.878 -0.042,3.6 -2.415,5.849 -5.808,5.849 -3.367,0 -5.831,-2.261 -5.817,-5.849 C -5.743,2.33 -3.326,0 0,0"
               style="fill:#231916;fill-opacity:1;fill-rule:nonzero;stroke:none"
               id="path3724" />
          </g>
          <g
             id="g3726"
             transform="translate(647.7432,412.7012)">
            <path
               d="M 0,0 V -8.11 H 5.753 V -35.377 H 16.007 V 0 Z"
               style="fill:#231916;fill-opacity:1;fill-rule:nonzero;stroke:none"
               id="path3728" />
          </g>
          <g
             id="g3730"
             transform="translate(683.374,421.7197)">
            <path
               d="m 0,0 v -9.053 h 7.517 l -1.22,-8.113 H 0 v -12.818 c 0,-4.265 0.613,-6.232 3.565,-6.232 1.392,0 1.974,0.095 2.776,0.297 l 0.622,-8.334 c -1.675,-0.518 -4.017,-0.938 -6.787,-0.938 -5.408,0 -10.443,2.933 -10.443,12.795 v 15.23 h -3.986 v 8.113 h 3.986 v 7.679 z"
               style="fill:#231916;fill-opacity:1;fill-rule:nonzero;stroke:none"
               id="path3732" />
          </g>
          <g
             id="g3734"
             transform="translate(705.1416,412.7021)">
            <path
               d="m 0,0 4.755,-17.388 c 0.542,-2.077 1.062,-4.185 1.456,-6.013 h 0.207 c 0.301,1.936 0.887,3.974 1.351,6.029 L 11.693,0 H 22.254 L 11.174,-34.342 C 8.067,-44.261 2.865,-49.635 -5.867,-51.319 l -2.437,8.441 c 4.688,0.933 7.906,2.952 9.624,7.907 L -11.248,0 Z"
               style="fill:#231916;fill-opacity:1;fill-rule:nonzero;stroke:none"
               id="path3736" />
          </g>
          <g
             id="g3738"
             transform="translate(359.8398,426.145)">
            <path
               d="M 0,0 V -9.63 H 5.382 V -27.354 L -9.073,0 h -16.686 v -9.63 h 5.381 v -29.483 h -5.381 v -9.631 h 22.064 v 9.631 h -5.378 v 17.721 L 5.382,-48.744 H 16.687 V -9.63 h 5.38 V 0 Z"
               style="fill:#231916;fill-opacity:1;fill-rule:nonzero;stroke:none"
               id="path3740" />
          </g>
          <g
             id="g3742"
             transform="translate(427.7529,407.4268)">
            <path
               d="M 0,0 V 18.718 H -42.432 V 0 h 9.634 v 9.088 h 5.187 v -29.483 h -7.042 v -9.63 h 26.875 v 9.63 h -7.039 V 9.088 h 5.185 V 0 Z"
               style="fill:#231916;fill-opacity:1;fill-rule:nonzero;stroke:none"
               id="path3744" />
          </g>
          <g
             id="g3746"
             transform="translate(473.4736,407.4268)">
            <path
               d="M 0,0 V 18.718 H -42.433 V 0 h 9.635 v 9.088 h 5.186 v -29.483 h -7.039 v -9.63 h 26.876 v 9.63 h -7.04 V 9.088 h 5.186 V 0 Z"
               style="fill:#231916;fill-opacity:1;fill-rule:nonzero;stroke:none"
               id="path3748" />
          </g>
        </g>
      </g>
    </g>
  </g>
</svg>
