<?xml version="1.0" encoding="UTF-8" standalone="no"?>
<!-- Created with Inkscape (http://www.inkscape.org/) -->

<svg
   xmlns:dc="http://purl.org/dc/elements/1.1/"
   xmlns:cc="http://creativecommons.org/ns#"
   xmlns:rdf="http://www.w3.org/1999/02/22-rdf-syntax-ns#"
   xmlns:svg="http://www.w3.org/2000/svg"
   xmlns="http://www.w3.org/2000/svg"
   xmlns:sodipodi="http://sodipodi.sourceforge.net/DTD/sodipodi-0.dtd"
   xmlns:inkscape="http://www.inkscape.org/namespaces/inkscape"
   id="svg4155"
   version="1.1"
   inkscape:version="0.91 r13725"
   xml:space="preserve"
   width="142.1875"
   height="34"
   viewBox="0 0 142.1875 34"
   sodipodi:docname="oneconsult_logo_payoff_CMYK.svg"><metadata
     id="metadata4161"><rdf:RDF><cc:Work
         rdf:about=""><dc:format>image/svg+xml</dc:format><dc:type
           rdf:resource="http://purl.org/dc/dcmitype/StillImage" /><dc:title></dc:title></cc:Work></rdf:RDF></metadata><defs
     id="defs4159" /><sodipodi:namedview
     pagecolor="#ffffff"
     bordercolor="#666666"
     borderopacity="1"
     objecttolerance="10"
     gridtolerance="10"
     guidetolerance="10"
     inkscape:pageopacity="0"
     inkscape:pageshadow="2"
     inkscape:window-width="1280"
     inkscape:window-height="751"
     id="namedview4157"
     showgrid="false"
     inkscape:zoom="4.6698901"
     inkscape:cx="71.09375"
     inkscape:cy="17"
     inkscape:window-x="0"
     inkscape:window-y="0"
     inkscape:window-maximized="1"
     inkscape:current-layer="g4163" /><g
     id="g4163"
     inkscape:groupmode="layer"
     inkscape:label="ink_ext_XXXXXX"
     transform="matrix(1.25,0,0,-1.25,0,34)"><g
       id="g4165"
       transform="scale(0.1,0.1)"><path
         d="m 836.449,125.629 -44.574,0 0,22.508 44.574,0 c 7.664,0 13.895,4.922 13.895,11.211 0,6.285 -6.231,11.304 -13.895,11.304 l -12.043,0 c -19.961,0 -36.199,15.223 -36.199,33.817 0,18.594 16.238,33.726 36.199,33.726 l 37.426,0 0,-22.515 -37.426,0 c -7.664,0.332 -13.894,-4.922 -13.894,-11.211 0,-6.289 6.23,-11.305 13.894,-11.305 l 12.043,0 c 19.961,0 36.199,-15.223 36.199,-33.816 0,-18.594 -16.238,-33.719 -36.199,-33.719"
         style="fill:#231f20;fill-opacity:1;fill-rule:nonzero;stroke:none"
         id="path4167"
         inkscape:connector-curvature="0" /><path
         d="m 0,125.629 121.105,0 0,22.5078 -121.105,0 0,-22.5078 z"
         style="fill:#307fcb;fill-opacity:1;fill-rule:nonzero;stroke:none"
         id="path4169"
         inkscape:connector-curvature="0" /><path
         d="m 0,193.164 121.105,0 0,22.5156 -121.105,0 0,-22.5156 z"
         style="fill:#307fcb;fill-opacity:1;fill-rule:nonzero;stroke:none"
         id="path4171"
         inkscape:connector-curvature="0" /><path
         d="m 0,159.395 121.105,0 0,22.5156 -121.105,0 0,-22.5156 z"
         style="fill:#307fcb;fill-opacity:1;fill-rule:nonzero;stroke:none"
         id="path4173"
         inkscape:connector-curvature="0" /><path
         d="m 239.758,238.191 -14.899,0 c -19.972,0 -36.222,-16.246 -36.222,-36.218 l 0,-40.129 c 0,-19.973 16.25,-36.215 36.222,-36.215 l 14.899,0 c 19.965,0 36.215,16.242 36.215,36.215 l 0,40.129 c 0,19.972 -16.25,36.218 -36.215,36.218 m 13.769,-76.226 c 0,-7.621 -6.199,-13.813 -13.816,-13.813 l -14.809,0 c -7.617,0 -13.812,6.192 -13.812,13.813 l 0,39.887 c 0,7.621 6.195,13.82 13.812,13.82 l 14.809,0 c 7.617,0 13.816,-6.199 13.816,-13.82 l 0,-39.887"
         style="fill:#307fcb;fill-opacity:1;fill-rule:nonzero;stroke:none"
         id="path4175"
         inkscape:connector-curvature="0" /><path
         d="m 574.672,238.191 -39.836,0 c -19.973,0 -36.219,-16.246 -36.219,-36.218 l 0,-40.129 c 0,-19.973 16.246,-36.215 36.219,-36.215 l 39.836,0 0,22.523 -39.789,0 c -7.621,0 -13.817,6.192 -13.817,13.813 l 0,39.887 c 0,7.621 6.196,13.82 13.817,13.82 l 39.789,0 0,22.519"
         style="fill:#231f20;fill-opacity:1;fill-rule:nonzero;stroke:none"
         id="path4177"
         inkscape:connector-curvature="0" /><path
         d="m 313.813,201.852 c 0,7.617 6.199,13.812 13.808,13.812 l 14.813,0 c 7.621,0 13.816,-6.195 13.816,-13.812 l 0,-74.95 22.445,0 0,75.071 c 0,19.972 -16.25,36.222 -36.215,36.222 l -14.902,0 c -19.965,0 -36.215,-16.25 -36.215,-36.222 l 0,-75.071 22.45,0 0,74.95"
         style="fill:#307fcb;fill-opacity:1;fill-rule:nonzero;stroke:none"
         id="path4179"
         inkscape:connector-curvature="0" /><path
         d="m 445.238,238.191 -14.894,0 c -19.973,0 -36.219,-16.246 -36.219,-36.218 l 0,-40.129 c 0,-19.973 16.246,-36.215 36.219,-36.215 l 49.855,0 0,22.523 -49.812,0 c -7.614,0 -13.813,6.192 -13.813,13.813 l 0,8.687 64.879,0 0,31.321 c 0,19.972 -16.242,36.218 -36.215,36.218 m -28.664,-45.027 0,8.688 c 0,7.621 6.199,13.82 13.813,13.82 l 14.808,0 c 7.618,0 13.813,-6.199 13.813,-13.82 l 0,-8.688 -42.434,0"
         style="fill:#307fcb;fill-opacity:1;fill-rule:nonzero;stroke:none"
         id="path4181"
         inkscape:connector-curvature="0" /><path
         d="m 637.262,238.191 -14.899,0 c -19.968,0 -36.218,-16.246 -36.218,-36.218 l 0,-40.129 c 0,-19.973 16.25,-36.215 36.218,-36.215 l 14.899,0 c 19.965,0 36.215,16.242 36.215,36.215 l 0,40.129 c 0,19.972 -16.25,36.218 -36.215,36.218 m 13.769,-76.226 c 0,-7.621 -6.195,-13.813 -13.812,-13.813 l -14.813,0 c -7.617,0 -13.812,6.192 -13.812,13.813 l 0,39.887 c 0,7.621 6.195,13.82 13.812,13.82 l 14.813,0 c 7.617,0 13.812,-6.199 13.812,-13.82 l 0,-39.887"
         style="fill:#231f20;fill-opacity:1;fill-rule:nonzero;stroke:none"
         id="path4183"
         inkscape:connector-curvature="0" /><path
         d="m 711.367,201.852 c 0,7.617 6.196,13.812 13.813,13.812 l 14.812,0 c 7.617,0 13.813,-6.195 13.813,-13.812 l 0,-74.95 22.445,0 0,75.071 c 0,19.972 -16.246,36.222 -36.215,36.222 l -14.898,0 c -19.969,0 -36.215,-16.25 -36.215,-36.222 l 0,-75.071 22.445,0 0,74.95"
         style="fill:#231f20;fill-opacity:1;fill-rule:nonzero;stroke:none"
         id="path4185"
         inkscape:connector-curvature="0" /><path
         d="m 949.84,161.965 c 0,-7.617 -6.192,-13.813 -13.809,-13.813 l -14.808,0 c -7.618,0 -13.817,6.196 -13.817,13.813 l 0,74.957 -22.449,0 0,-75.078 c 0,-19.965 16.25,-36.215 36.215,-36.215 l 14.902,0 c 19.965,0 36.215,16.25 36.215,36.215 l 0,75.078 -22.449,0 0,-74.957"
         style="fill:#231f20;fill-opacity:1;fill-rule:nonzero;stroke:none"
         id="path4187"
         inkscape:connector-curvature="0" /><path
         d="m 989.449,126.902 22.4492,0 0,145.063 -22.4492,0 0,-145.063 z"
         style="fill:#231f20;fill-opacity:1;fill-rule:nonzero;stroke:none"
         id="path4189"
         inkscape:connector-curvature="0" /><path
         d="m 1082.82,215.68 0,22.511 -31.31,0 0,33.774 -22.45,0 0,-110.125 c 0,-19.969 16.25,-36.219 36.22,-36.219 l 17.54,0 0,22.531 -17.5,0 c -7.61,0 -13.81,6.196 -13.81,13.813 l 0,53.715 31.31,0"
         style="fill:#231f20;fill-opacity:1;fill-rule:nonzero;stroke:none"
         id="path4191"
         inkscape:connector-curvature="0" /><path
         d="m 39.3359,235.625 c 0,7.613 6.1914,13.809 13.8086,13.809 l 14.8086,0 c 7.6172,0 13.8164,-6.196 13.8164,-13.809 l 0,-8.691 22.4495,0 0,8.808 c 0,19.973 -16.2502,36.223 -36.2151,36.223 l -14.9023,0 c -19.9649,0 -36.2149,-16.25 -36.2149,-36.223 l 0,-8.808 22.4492,0 0,8.691"
         style="fill:#307fcb;fill-opacity:1;fill-rule:nonzero;stroke:none"
         id="path4193"
         inkscape:connector-curvature="0" /><path
         d="m 1117.81,248.164 c 3.34,0.363 5.92,2.063 5.92,6.125 0,4.32 -2.53,6.434 -7.88,6.434 l -8.69,0 0,-22.485 3.5,0 0,9.672 3.7,0 6.13,-9.672 3.75,0 -6.43,9.926 z m -3.5,2.574 -3.65,0 0,7.153 4.63,0 c 2.37,0 4.93,-0.461 4.93,-3.446 0,-3.55 -2.82,-3.707 -5.91,-3.707"
         style="fill:#231f20;fill-opacity:1;fill-rule:nonzero;stroke:none"
         id="path4195"
         inkscape:connector-curvature="0" /><path
         d="m 1115,271.91 c -12.42,0 -22.49,-10.066 -22.49,-22.48 0,-12.418 10.07,-22.485 22.49,-22.485 12.41,0 22.48,10.067 22.48,22.485 0,12.414 -10.07,22.48 -22.48,22.48 m 0,-41.922 c -10.74,0 -19.45,8.7 -19.45,19.442 0,10.738 8.71,19.449 19.45,19.449 10.74,0 19.44,-8.711 19.44,-19.449 0,-10.742 -8.7,-19.442 -19.44,-19.442"
         style="fill:#231f20;fill-opacity:1;fill-rule:nonzero;stroke:none"
         id="path4197"
         inkscape:connector-curvature="0" /><path
         d="m 1081.55,33.9961 c -0.84,1.3477 -2.1,2.5664 -3.79,3.6328 -1.68,1.0625 -4.37,2.2656 -8.06,3.6016 -4.42,1.5742 -7.39,3.0078 -8.91,4.2968 -1.52,1.2813 -2.28,2.9805 -2.28,5.1172 0,1.9649 0.98,3.4961 2.94,4.6016 1.96,1.1055 4.61,1.6602 7.95,1.6602 3.44,0 7.17,-0.8321 11.19,-2.4922 l 1.4,3.3906 c -3.97,1.6601 -8.17,2.4922 -12.59,2.4922 -4.62,0 -8.22,-0.8906 -10.8,-2.6797 -2.57,-1.7852 -3.86,-4.207 -3.86,-7.2734 0,-1.9336 0.42,-3.5743 1.26,-4.9102 0.85,-1.3477 2.09,-2.5508 3.75,-3.625 1.66,-1.0664 4.54,-2.3438 8.63,-3.8203 3.82,-1.3555 6.57,-2.7422 8.24,-4.1485 1.67,-1.4062 2.5,-3.1367 2.5,-5.1953 0,-2.2382 -1.05,-4.0351 -3.14,-5.3789 -2.1,-1.3398 -5.17,-2.0117 -9.22,-2.0117 -4.57,0 -8.92,1.0313 -13.04,3.0938 l 0,-4.0352 c 3.22,-1.6875 7.56,-2.5273 13.04,-2.5273 5.13,0 9.09,0.9843 11.87,2.957 2.79,1.9766 4.19,4.7969 4.19,8.457 0,1.836 -0.43,3.4414 -1.27,4.7969"
         style="fill:#231f20;fill-opacity:1;fill-rule:nonzero;stroke:none"
         id="path4199"
         inkscape:connector-curvature="0" /><path
         d="m 1028.96,23.3594 c -1.11,1.5156 -1.66,3.8398 -1.66,6.9765 l 0,25.9258 12.03,0 0,3.2422 -12.03,0 0,9.9102 -1.92,0 -1.88,-9.2657 -6.07,-1.6992 0,-2.1875 6.07,0 0,-26.4531 c 0,-4.1445 0.86,-7.1797 2.58,-9.125 1.72,-1.9297 4.39,-2.8984 8.01,-2.8984 2.36,0 4.45,0.3046 6.25,0.9062 l 0,3.0078 c -1.76,-0.3984 -3.82,-0.5937 -6.18,-0.5937 -2.36,0 -4.1,0.75 -5.2,2.2539"
         style="fill:#231f20;fill-opacity:1;fill-rule:nonzero;stroke:none"
         id="path4201"
         inkscape:connector-curvature="0" /><path
         d="m 992.789,58.4688 c -1.91,-1.2227 -3.707,-3.3399 -5.391,-6.3477 l -0.265,0 -0.375,7.3828 -3.164,0 0,-40.9687 3.73,0 0,22.6171 c 0,4.5235 1.117,8.2618 3.356,11.2344 2.234,2.9571 5.097,4.4414 8.59,4.4414 1.83,0 3.6,-0.2148 5.32,-0.6445 l 0.71,3.582 c -1.98,0.3516 -3.84,0.5313 -5.577,0.5313 -2.711,0 -5.024,-0.6094 -6.934,-1.8281"
         style="fill:#231f20;fill-opacity:1;fill-rule:nonzero;stroke:none"
         id="path4203"
         inkscape:connector-curvature="0" /><path
         d="m 936.285,41.8281 c 0.406,4.9024 1.797,8.6524 4.184,11.25 2.386,2.5977 5.551,3.9063 9.496,3.9063 3.644,0 6.496,-1.3477 8.555,-4.0235 2.062,-2.664 3.093,-6.375 3.093,-11.1328 l -25.328,0 z m 29.285,-0.3047 c 0,5.7852 -1.394,10.3555 -4.183,13.7227 -2.789,3.3672 -6.598,5.0508 -11.422,5.0508 -5.453,0 -9.785,-1.9649 -12.996,-5.9024 -3.219,-3.9336 -4.824,-9.1601 -4.824,-15.6914 0,-6.6093 1.66,-11.75 4.988,-15.4101 3.332,-3.6719 7.976,-5.5078 13.926,-5.5078 2.363,0 4.523,0.1875 6.484,0.5468 1.961,0.3594 4.094,1.0469 6.406,2.0586 l 0,3.3907 c -2.715,-1.086 -4.953,-1.7891 -6.726,-2.1094 -1.774,-0.3321 -3.825,-0.4883 -6.164,-0.4883 -4.797,0 -8.485,1.4727 -11.059,4.4453 -2.574,2.957 -3.891,7.2539 -3.941,12.8789 l 29.511,0 0,3.0156"
         style="fill:#231f20;fill-opacity:1;fill-rule:nonzero;stroke:none"
         id="path4205"
         inkscape:connector-curvature="0" /><path
         d="m 909.047,25.7734 c -2.301,-3.1171 -5.547,-4.6679 -9.734,-4.6679 -4.856,0 -8.352,1.3672 -10.5,4.1133 -2.149,2.7304 -3.223,7.3007 -3.223,13.7109 l 0,1.2109 c 0,5.9258 1.121,10.2032 3.355,12.8203 2.239,2.6289 5.743,3.9454 10.512,3.9454 8.691,0 13.039,-6.0157 13.039,-18.0547 0,-5.6094 -1.148,-9.961 -3.449,-13.0782 z m 3.055,29.0821 c -2.903,3.6211 -7.118,5.4414 -12.645,5.4414 -6.18,0 -10.676,-2.2071 -13.488,-6.6328 l -0.227,0 -0.719,5.8398 -3.164,0 0,-59.49999375 3.731,0 0,15.59379375 c 0,2.2148 -0.047,4.25 -0.149,6.1015 l -0.113,3.1758 0.262,0 c 2.887,-4.7266 7.488,-7.0898 13.789,-7.0898 5.281,0 9.445,1.8554 12.496,5.5586 3.059,3.7109 4.578,8.9335 4.578,15.664 0,6.9297 -1.449,12.2149 -4.351,15.8477"
         style="fill:#231f20;fill-opacity:1;fill-rule:nonzero;stroke:none"
         id="path4207"
         inkscape:connector-curvature="0" /><path
         d="m 831.918,18.5352 4.109,0 12.961,18.2812 12.891,-18.2812 4.332,0 -15.074,21.0742 14.058,19.8945 -4.109,0 -12.098,-17.2578 -12.211,17.2578 -4.297,0 14.29,-19.8945 -14.852,-21.0742"
         style="fill:#231f20;fill-opacity:1;fill-rule:nonzero;stroke:none"
         id="path4209"
         inkscape:connector-curvature="0" /><path
         d="m 787.902,41.8281 c 0.395,4.9024 1.789,8.6524 4.176,11.25 2.391,2.5977 5.555,3.9063 9.5,3.9063 3.641,0 6.492,-1.3477 8.555,-4.0235 2.055,-2.664 3.09,-6.375 3.09,-11.1328 l -25.321,0 z m 29.278,-0.3047 c 0,5.7852 -1.395,10.3555 -4.184,13.7227 -2.793,3.3672 -6.594,5.0508 -11.418,5.0508 -5.449,0 -9.793,-1.9649 -13.004,-5.9024 -3.219,-3.9336 -4.82,-9.1601 -4.82,-15.6914 0,-6.6093 1.668,-11.75 4.992,-15.4101 3.328,-3.6719 7.969,-5.5078 13.926,-5.5078 2.359,0 4.519,0.1875 6.484,0.5468 1.953,0.3594 4.09,1.0469 6.403,2.0586 l 0,3.3907 c -2.711,-1.086 -4.957,-1.7891 -6.731,-2.1094 -1.765,-0.3321 -3.824,-0.4883 -6.156,-0.4883 -4.801,0 -8.488,1.4727 -11.059,4.4453 -2.578,2.957 -3.894,7.2539 -3.941,12.8789 l 29.508,0 0,3.0156"
         style="fill:#231f20;fill-opacity:1;fill-rule:nonzero;stroke:none"
         id="path4211"
         inkscape:connector-curvature="0" /><path
         d="m 724.035,18.5352 c -0.301,-0.8164 -0.972,-2.6133 -2.019,-5.3594 -1.039,-2.7539 -1.957,-4.76564 -2.746,-6.03517 -0.793,-1.26954 -1.68,-2.20704 -2.657,-2.8125 -0.984,-0.59766 -2.109,-0.89844 -3.394,-0.89844 -1.68,0 -3.254,0.19531 -4.707,0.60547 l 0,-3.242191 c 1.754,-0.527344 3.347,-0.78906275 4.785,-0.78906275 1.906,0 3.535,0.33984375 4.879,1.01172375 1.34,0.68359 2.519,1.70312 3.523,3.04687 1,1.35938 2.246,3.97656 3.731,7.8438 l 18.355,47.5976 -3.847,0 -8.668,-22.7656 c -2.383,-6.4258 -4.106,-11.2578 -5.161,-14.5117 l -0.226,0 c -0.707,2.4726 -2.375,7.2265 -5.012,14.289 l -8.668,22.9883 -3.844,0 15.676,-40.9687"
         style="fill:#231f20;fill-opacity:1;fill-rule:nonzero;stroke:none"
         id="path4213"
         inkscape:connector-curvature="0" /><path
         d="m 683.762,23.3594 c -1.106,1.5156 -1.657,3.8398 -1.657,6.9765 l 0,25.9258 12.02,0 0,3.2422 -12.02,0 0,9.9102 -1.925,0 -1.883,-9.2657 -6.067,-1.6992 0,-2.1875 6.067,0 0,-26.4531 c 0,-4.1445 0.863,-7.1797 2.582,-9.125 1.719,-1.9297 4.391,-2.8984 8.008,-2.8984 2.363,0 4.449,0.3046 6.254,0.9062 l 0,3.0078 c -1.758,-0.3984 -3.817,-0.5937 -6.18,-0.5937 -2.359,0 -4.094,0.75 -5.199,2.2539"
         style="fill:#231f20;fill-opacity:1;fill-rule:nonzero;stroke:none"
         id="path4215"
         inkscape:connector-curvature="0" /><path
         d="m 652.324,67.2266 c 0.781,0 1.391,0.332 1.832,0.9765 0.438,0.6641 0.66,1.5547 0.66,2.6797 0,1.1602 -0.222,2.0508 -0.66,2.6758 -0.441,0.6328 -1.051,0.9453 -1.832,0.9453 -1.578,0 -2.367,-1.2109 -2.367,-3.6211 0,-2.4336 0.789,-3.6562 2.367,-3.6562"
         style="fill:#231f20;fill-opacity:1;fill-rule:nonzero;stroke:none"
         id="path4217"
         inkscape:connector-curvature="0" /><path
         d="m 650.48,18.5352 3.73047,0 0,40.9688 -3.73047,0 0,-40.9688 z"
         style="fill:#231f20;fill-opacity:1;fill-rule:nonzero;stroke:none"
         id="path4219"
         inkscape:connector-curvature="0" /><path
         d="m 622.422,58.4688 c -1.91,-1.2227 -3.707,-3.3399 -5.387,-6.3477 l -0.262,0 -0.375,7.3828 -3.171,0 0,-40.9687 3.73,0 0,22.6171 c 0,4.5235 1.121,8.2618 3.356,11.2344 2.23,2.9571 5.097,4.4414 8.593,4.4414 1.832,0 3.606,-0.2148 5.313,-0.6445 l 0.719,3.582 c -1.989,0.3516 -3.848,0.5313 -5.579,0.5313 -2.718,0 -5.027,-0.6094 -6.937,-1.8281"
         style="fill:#231f20;fill-opacity:1;fill-rule:nonzero;stroke:none"
         id="path4221"
         inkscape:connector-curvature="0" /><path
         d="m 559.535,59.5039 0,-26.7578 c 0,-9.9727 4.66,-14.9609 13.981,-14.9609 6.808,0 11.543,2.1406 14.211,6.4062 l 0.218,0 0.684,-5.6562 3.164,0 0,40.9687 -3.691,0 0,-22.6094 c 0,-5.5547 -1.153,-9.5586 -3.454,-12.0195 -2.3,-2.4727 -5.882,-3.6914 -10.757,-3.6914 -3.649,0 -6.332,0.9258 -8.067,2.8008 -1.726,1.875 -2.597,4.8672 -2.597,8.9883 l 0,26.5312 -3.692,0"
         style="fill:#231f20;fill-opacity:1;fill-rule:nonzero;stroke:none"
         id="path4223"
         inkscape:connector-curvature="0" /><path
         d="m 542.242,19.7109 0,3.4649 c -3.187,-1.3281 -6.64,-1.9922 -10.363,-1.9922 -4.649,0 -8.266,1.5625 -10.852,4.6875 -2.589,3.125 -3.882,7.4492 -3.882,12.9805 0,5.8281 1.293,10.3007 3.882,13.3945 2.586,3.1055 6.391,4.6602 11.418,4.6602 2.614,0 5.692,-0.5977 9.235,-1.7774 l 1.015,3.3203 c -3.242,1.2305 -6.629,1.8477 -10.175,1.8477 -5.977,0 -10.688,-1.8985 -14.129,-5.6758 -3.446,-3.7773 -5.164,-9.0625 -5.164,-15.8398 0,-6.6094 1.656,-11.7579 4.972,-15.4493 3.317,-3.6992 7.906,-5.5468 13.754,-5.5468 4.242,0 7.676,0.6445 10.289,1.9257"
         style="fill:#231f20;fill-opacity:1;fill-rule:nonzero;stroke:none"
         id="path4225"
         inkscape:connector-curvature="0" /><path
         d="m 470.293,41.8281 c 0.402,4.9024 1.797,8.6524 4.184,11.25 2.382,2.5977 5.554,3.9063 9.5,3.9063 3.636,0 6.488,-1.3477 8.546,-4.0235 2.063,-2.664 3.098,-6.375 3.098,-11.1328 l -25.328,0 z m 29.281,-0.3047 c 0,5.7852 -1.39,10.3555 -4.179,13.7227 -2.793,3.3672 -6.594,5.0508 -11.418,5.0508 -5.457,0 -9.793,-1.9649 -13.004,-5.9024 -3.219,-3.9336 -4.821,-9.1601 -4.821,-15.6914 0,-6.6093 1.661,-11.75 4.993,-15.4101 3.328,-3.6719 7.968,-5.5078 13.925,-5.5078 2.356,0 4.52,0.1875 6.477,0.5468 1.961,0.3594 4.098,1.0469 6.406,2.0586 l 0,3.3907 c -2.711,-1.086 -4.957,-1.7891 -6.726,-2.1094 -1.77,-0.3321 -3.825,-0.4883 -6.157,-0.4883 -4.8,0 -8.488,1.4727 -11.066,4.4453 -2.574,2.957 -3.887,7.2539 -3.934,12.8789 l 29.504,0 0,3.0156"
         style="fill:#231f20;fill-opacity:1;fill-rule:nonzero;stroke:none"
         id="path4227"
         inkscape:connector-curvature="0" /><path
         d="m 451.488,33.9961 c -0.843,1.3477 -2.101,2.5664 -3.789,3.6328 -1.679,1.0625 -4.371,2.2656 -8.058,3.6016 -4.426,1.5742 -7.395,3.0078 -8.914,4.2968 -1.516,1.2813 -2.278,2.9805 -2.278,5.1172 0,1.9649 0.981,3.4961 2.938,4.6016 1.957,1.1055 4.609,1.6602 7.953,1.6602 3.437,0 7.168,-0.8321 11.191,-2.4922 l 1.395,3.3906 c -3.973,1.6601 -8.164,2.4922 -12.586,2.4922 -4.621,0 -8.227,-0.8906 -10.801,-2.6797 -2.578,-1.7852 -3.859,-4.207 -3.859,-7.2734 0,-1.9336 0.418,-3.5743 1.258,-4.9102 0.843,-1.3477 2.093,-2.5508 3.753,-3.625 1.657,-1.0664 4.532,-2.3438 8.629,-3.8203 3.821,-1.3555 6.563,-2.7422 8.235,-4.1485 1.668,-1.4062 2.504,-3.1367 2.504,-5.1953 0,-2.2382 -1.047,-4.0351 -3.145,-5.3789 -2.101,-1.3398 -5.172,-2.0117 -9.215,-2.0117 -4.57,0 -8.922,1.0313 -13.043,3.0938 l 0,-4.0352 c 3.219,-1.6875 7.567,-2.5273 13.043,-2.5273 5.121,0 9.082,0.9843 11.871,2.957 2.789,1.9766 4.184,4.7969 4.184,8.457 0,1.836 -0.426,3.4414 -1.266,4.7969"
         style="fill:#231f20;fill-opacity:1;fill-rule:nonzero;stroke:none"
         id="path4229"
         inkscape:connector-curvature="0" /><path
         d="m 367.523,58.4688 c -1.902,-1.2227 -3.699,-3.3399 -5.382,-6.3477 l -0.266,0 -0.375,7.3828 -3.164,0 0,-40.9687 3.727,0 0,22.6171 c 0,4.5235 1.121,8.2618 3.359,11.2344 2.234,2.9571 5.098,4.4414 8.586,4.4414 1.836,0 3.609,-0.2148 5.312,-0.6445 l 0.719,3.582 c -1.98,0.3516 -3.844,0.5313 -5.574,0.5313 -2.711,0 -5.027,-0.6094 -6.942,-1.8281"
         style="fill:#231f20;fill-opacity:1;fill-rule:nonzero;stroke:none"
         id="path4231"
         inkscape:connector-curvature="0" /><path
         d="m 311.527,41.8281 c 0.403,4.9024 1.797,8.6524 4.188,11.25 2.387,2.5977 5.551,3.9063 9.488,3.9063 3.649,0 6.5,-1.3477 8.563,-4.0235 2.058,-2.664 3.086,-6.375 3.086,-11.1328 l -25.325,0 z m 29.286,-0.3047 c 0,5.7852 -1.399,10.3555 -4.188,13.7227 -2.785,3.3672 -6.594,5.0508 -11.422,5.0508 -5.445,0 -9.777,-1.9649 -12.996,-5.9024 -3.219,-3.9336 -4.824,-9.1601 -4.824,-15.6914 0,-6.6093 1.664,-11.75 4.988,-15.4101 3.332,-3.6719 7.977,-5.5078 13.93,-5.5078 2.359,0 4.523,0.1875 6.484,0.5468 1.957,0.3594 4.094,1.0469 6.406,2.0586 l 0,3.3907 c -2.714,-1.086 -4.957,-1.7891 -6.73,-2.1094 -1.766,-0.3321 -3.824,-0.4883 -6.16,-0.4883 -4.797,0 -8.485,1.4727 -11.063,4.4453 -2.578,2.957 -3.886,7.2539 -3.933,12.8789 l 29.508,0 0,3.0156"
         style="fill:#231f20;fill-opacity:1;fill-rule:nonzero;stroke:none"
         id="path4233"
         inkscape:connector-curvature="0" /><path
         d="m 285.348,25.793 c -2.262,-3.125 -5.629,-4.6875 -10.098,-4.6875 -4.602,0 -7.984,1.3476 -10.156,4.0351 -2.172,2.6836 -3.262,7.1172 -3.262,13.2969 l 0,0.6484 c 0,6.3477 1.043,10.9063 3.129,13.6719 2.078,2.7695 5.535,4.1485 10.363,4.1485 8.946,0 13.418,-5.918 13.418,-17.754 0,-5.7695 -1.133,-10.2226 -3.394,-13.3593 z m 2.996,29.0937 c -2.903,3.6016 -7.215,5.4102 -12.942,5.4102 -3.097,0 -5.738,-0.5781 -7.941,-1.7305 -2.191,-1.1641 -4.07,-2.9687 -5.629,-5.4297 l -0.266,0 0.114,3.2031 c 0.097,1.8555 0.152,3.8946 0.152,6.1016 l 0,14.7383 -3.73,0 0,-58.6445 2.332,0 1.054,6.1836 0.344,0 c 1.356,-2.2071 3.203,-3.9141 5.539,-5.125 2.336,-1.2032 4.957,-1.8086 7.879,-1.8086 5.527,0 9.813,1.8476 12.867,5.5468 3.055,3.6914 4.578,8.9453 4.578,15.7539 0,6.9219 -1.449,12.1954 -4.351,15.8008"
         style="fill:#231f20;fill-opacity:1;fill-rule:nonzero;stroke:none"
         id="path4235"
         inkscape:connector-curvature="0" /><path
         d="m 225.273,18.5352 c -0.296,-0.8164 -0.972,-2.6133 -2.015,-5.3594 -1.039,-2.7539 -1.957,-4.76564 -2.75,-6.03517 -0.789,-1.26954 -1.676,-2.20704 -2.656,-2.8125 -0.981,-0.59766 -2.11,-0.89844 -3.395,-0.89844 -1.684,0 -3.25,0.19531 -4.707,0.60547 l 0,-3.242191 c 1.758,-0.527344 3.355,-0.78906275 4.785,-0.78906275 1.91,0 3.535,0.33984375 4.879,1.01172375 1.344,0.68359 2.52,1.70312 3.527,3.04687 1.004,1.35938 2.247,3.97656 3.731,7.8438 l 18.351,47.5976 -3.847,0 -8.664,-22.7656 c -2.391,-6.4258 -4.11,-11.2578 -5.164,-14.5117 l -0.223,0 c -0.703,2.4726 -2.379,7.2265 -5.016,14.289 l -8.668,22.9883 -3.839,0 15.671,-40.9687"
         style="fill:#231f20;fill-opacity:1;fill-rule:nonzero;stroke:none"
         id="path4237"
         inkscape:connector-curvature="0" /><path
         d="m 197.219,19.7109 0,3.4649 c -3.196,-1.3281 -6.649,-1.9922 -10.367,-1.9922 -4.649,0 -8.262,1.5625 -10.852,4.6875 -2.586,3.125 -3.887,7.4492 -3.887,12.9805 0,5.8281 1.301,10.3007 3.887,13.3945 2.59,3.1055 6.395,4.6602 11.418,4.6602 2.613,0 5.687,-0.5977 9.234,-1.7774 l 1.012,3.3203 c -3.234,1.2305 -6.629,1.8477 -10.172,1.8477 -5.984,0 -10.691,-1.8985 -14.133,-5.6758 -3.441,-3.7773 -5.16,-9.0625 -5.16,-15.8398 0,-6.6094 1.656,-11.7579 4.969,-15.4493 3.32,-3.6992 7.902,-5.5468 13.762,-5.5468 4.242,0 7.675,0.6445 10.289,1.9257"
         style="fill:#231f20;fill-opacity:1;fill-rule:nonzero;stroke:none"
         id="path4239"
         inkscape:connector-curvature="0" /><path
         d="m 94.5039,41.8281 c 0.3984,4.9024 1.7891,8.6524 4.1797,11.25 2.3864,2.5977 5.5504,3.9063 9.4964,3.9063 3.64,0 6.5,-1.3477 8.554,-4.0235 2.059,-2.664 3.09,-6.375 3.09,-11.1328 l -25.3201,0 z m 29.2811,-0.3047 c 0,5.7852 -1.398,10.3555 -4.183,13.7227 -2.789,3.3672 -6.598,5.0508 -11.422,5.0508 -5.45,0 -9.7855,-1.9649 -13.0003,-5.9024 -3.2149,-3.9336 -4.8242,-9.1601 -4.8242,-15.6914 0,-6.6093 1.6679,-11.75 4.9922,-15.4101 3.3281,-3.6719 7.9723,-5.5078 13.9253,-5.5078 2.364,0 4.52,0.1875 6.485,0.5468 1.957,0.3594 4.09,1.0469 6.402,2.0586 l 0,3.3907 c -2.711,-1.086 -4.953,-1.7891 -6.726,-2.1094 -1.774,-0.3321 -3.829,-0.4883 -6.161,-0.4883 -4.796,0 -8.488,1.4727 -11.0582,4.4453 -2.5781,2.957 -3.8867,7.2539 -3.9375,12.8789 l 29.5077,0 0,3.0156"
         style="fill:#231f20;fill-opacity:1;fill-rule:nonzero;stroke:none"
         id="path4241"
         inkscape:connector-curvature="0" /><path
         d="m 73.7852,18.5352 0,26.8007 c 0,9.9688 -4.6485,14.961 -13.9414,14.961 -3.4649,0 -6.3711,-0.5508 -8.7071,-1.6602 -2.3359,-1.1054 -4.2695,-2.8945 -5.8047,-5.3437 l -0.2617,0 0.1875,5.2343 0,18.6524 -3.7305,0 0,-58.6445 3.7305,0 0,22.6171 c 0,5.5469 1.1406,9.5625 3.4102,12.043 2.2812,2.4688 5.8633,3.711 10.7617,3.711 3.6406,0 6.332,-0.9375 8.0664,-2.8125 1.7266,-1.8672 2.5977,-4.8633 2.5977,-8.9844 l 0,-26.5742 3.6914,0"
         style="fill:#231f20;fill-opacity:1;fill-rule:nonzero;stroke:none"
         id="path4243"
         inkscape:connector-curvature="0" /><path
         d="M 11.5352,23.3594 C 10.4297,24.875 9.875,27.1992 9.875,30.3359 l 0,25.9258 12.0195,0 0,3.2422 -12.0195,0 0,9.9102 -1.92578,0 L 6.07031,60.1484 0,58.4492 l 0,-2.1875 6.07031,0 0,-26.4531 c 0,-4.1445 0.85938,-7.1797 2.57813,-9.125 1.71876,-1.9297 4.39456,-2.8984 8.00786,-2.8984 2.3632,0 4.4492,0.3046 6.2539,0.9062 l 0,3.0078 c -1.7539,-0.3984 -3.8164,-0.5937 -6.1758,-0.5937 -2.3633,0 -4.0977,0.75 -5.1992,2.2539"
         style="fill:#231f20;fill-opacity:1;fill-rule:nonzero;stroke:none"
         id="path4245"
         inkscape:connector-curvature="0" /></g></g></svg>