<?xml version="1.0" encoding="UTF-8" standalone="no"?>
<svg
   xmlns:dc="http://purl.org/dc/elements/1.1/"
   xmlns:cc="http://creativecommons.org/ns#"
   xmlns:rdf="http://www.w3.org/1999/02/22-rdf-syntax-ns#"
   xmlns:svg="http://www.w3.org/2000/svg"
   xmlns="http://www.w3.org/2000/svg"
   viewBox="0 0 548.90002 70.612503"
   height="70.612503"
   width="548.90002"
   xml:space="preserve"
   version="1.1"
   id="svg2"><metadata
     id="metadata8"><rdf:RDF><cc:Work
         rdf:about=""><dc:format>image/svg+xml</dc:format><dc:type
           rdf:resource="http://purl.org/dc/dcmitype/StillImage" /><dc:title></dc:title></cc:Work></rdf:RDF></metadata><defs
     id="defs6" /><g
     transform="matrix(1.25,0,0,-1.25,0,70.6125)"
     id="g10"><g
       transform="scale(0.1,0.1)"
       id="g12"><path
         id="path14"
         style="fill:#231f20;fill-opacity:1;fill-rule:nonzero;stroke:none"
         d="m 3229.05,0 -172.07,0 0,86.9141 172.07,0 c 29.57,0 53.63,18.9919 53.63,43.2699 0,24.269 -24.06,43.64 -53.63,43.64 l -46.5,0 c -77.06,0 -139.73,58.774 -139.73,130.555 0,71.773 62.67,130.176 139.73,130.176 l 144.48,0 0,-86.907 -144.48,0 c -29.57,1.29 -53.63,-19 -53.63,-43.269 0,-24.277 24.06,-43.645 53.63,-43.645 l 46.5,0 c 77.06,0 139.74,-58.777 139.74,-130.55 C 3368.79,58.3984 3306.11,0 3229.05,0" /><path
         id="path16"
         style="fill:#1476c6;fill-opacity:1;fill-rule:nonzero;stroke:none"
         d="m 0,0.00390625 467.508,0 0,86.91019975 -467.508,0 0,-86.91019975 z" /><path
         id="path18"
         style="fill:#1476c6;fill-opacity:1;fill-rule:nonzero;stroke:none"
         d="m 0,260.734 467.508,0 0,86.9141 -467.508,0 0,-86.9141 z" /><path
         id="path20"
         style="fill:#1476c6;fill-opacity:1;fill-rule:nonzero;stroke:none"
         d="m 0,130.367 467.508,0 0,86.9141 -467.508,0 0,-86.9141 z" /><path
         id="path22"
         style="fill:#1476c6;fill-opacity:1;fill-rule:nonzero;stroke:none"
         d="m 978.707,140.285 c 0,-29.41 -23.922,-53.3319 -53.324,-53.3319 l -57.164,0 c -29.406,0 -53.324,23.9219 -53.324,53.3319 l 0,153.992 c 0,29.407 23.918,53.325 53.324,53.325 l 57.164,0 c 29.402,0 53.324,-23.918 53.324,-53.325 l 0,-153.992 z m -53.152,294.274 -57.512,0 c -77.086,0 -139.813,-62.723 -139.813,-139.813 l 0,-154.926 C 728.23,62.7227 790.957,0 868.043,0 l 57.512,0 c 77.085,0 139.815,62.7227 139.815,139.82 l 0,154.926 c 0,77.09 -62.73,139.813 -139.815,139.813" /><path
         id="path24"
         style="fill:#231f20;fill-opacity:1;fill-rule:nonzero;stroke:none"
         d="m 2218.48,434.559 -153.79,0 c -77.09,0 -139.81,-62.723 -139.81,-139.813 l 0,-154.926 C 1924.88,62.7227 1987.6,0 2064.69,0 l 153.79,0 0,86.9531 -153.62,0 c -29.4,0 -53.32,23.9219 -53.32,53.3319 l 0,153.992 c 0,29.407 23.92,53.325 53.32,53.325 l 153.62,0 0,86.957" /><path
         id="path26"
         style="fill:#1476c6;fill-opacity:1;fill-rule:nonzero;stroke:none"
         d="m 1211.45,294.277 c 0,29.407 23.92,53.325 53.32,53.325 l 57.17,0 c 29.4,0 53.32,-23.918 53.32,-53.325 l 0,-289.35903 86.66,0 0,289.82803 c 0,77.09 -62.72,139.813 -139.81,139.813 l -57.51,0 c -77.09,0 -139.81,-62.723 -139.81,-139.813 l 0,-289.82803 86.66,0 0,289.35903" /><path
         id="path28"
         style="fill:#1476c6;fill-opacity:1;fill-rule:nonzero;stroke:none"
         d="m 1608.15,260.734 0,33.543 c 0,29.407 23.92,53.325 53.33,53.325 l 57.16,0 c 29.4,0 53.33,-23.918 53.33,-53.325 l 0,-33.543 -163.82,0 z m 110.66,173.825 -57.51,0 c -77.09,0 -139.81,-62.723 -139.81,-139.813 l 0,-154.926 C 1521.49,62.7227 1584.21,0 1661.3,0 l 192.47,0 0,86.9531 -192.29,0 c -29.41,0 -53.33,23.9219 -53.33,53.3319 l 0,33.539 250.48,0 0,120.922 c 0,77.09 -62.73,139.813 -139.82,139.813" /><path
         id="path30"
         style="fill:#231f20;fill-opacity:1;fill-rule:nonzero;stroke:none"
         d="m 2513.24,140.285 c 0,-29.41 -23.92,-53.3319 -53.32,-53.3319 l -57.17,0 c -29.4,0 -53.32,23.9219 -53.32,53.3319 l 0,153.992 c 0,29.407 23.92,53.325 53.32,53.325 l 57.17,0 c 29.4,0 53.32,-23.918 53.32,-53.325 l 0,-153.992 z m -53.15,294.274 -57.51,0 c -77.09,0 -139.81,-62.723 -139.81,-139.813 l 0,-154.926 C 2262.77,62.7227 2325.49,0 2402.58,0 l 57.51,0 c 77.09,0 139.81,62.7227 139.81,139.82 l 0,154.926 c 0,77.09 -62.72,139.813 -139.81,139.813" /><path
         id="path32"
         style="fill:#231f20;fill-opacity:1;fill-rule:nonzero;stroke:none"
         d="m 2746.18,294.277 c 0,29.407 23.92,53.325 53.33,53.325 l 57.16,0 c 29.41,0 53.33,-23.918 53.33,-53.325 l 0,-289.35903 86.66,0 0,289.82803 c 0,77.09 -62.73,139.813 -139.81,139.813 l -57.52,0 c -77.09,0 -139.81,-62.723 -139.81,-139.813 l 0,-289.82803 86.66,0 0,289.35903" /><path
         id="path34"
         style="fill:#231f20;fill-opacity:1;fill-rule:nonzero;stroke:none"
         d="m 3666.79,140.277 c 0,-29.402 -23.92,-53.3239 -53.33,-53.3239 l -57.16,0 c -29.41,0 -53.33,23.9219 -53.33,53.3239 l 0,289.364 -86.66,0 0,-289.828 C 3416.31,62.7227 3479.04,0 3556.13,0 l 57.51,0 c 77.09,0 139.81,62.7227 139.81,139.813 l 0,289.828 -86.66,0 0,-289.364" /><path
         id="path36"
         style="fill:#231f20;fill-opacity:1;fill-rule:nonzero;stroke:none"
         d="m 3819.7,4.91797 86.6602,0 0,560.008 -86.6602,0 0,-560.008 z" /><path
         id="path38"
         style="fill:#231f20;fill-opacity:1;fill-rule:nonzero;stroke:none"
         d="m 4180.13,347.648 0,86.911 -120.86,0 0,130.367 -86.66,0 0,-425.113 C 3972.61,62.7227 4035.33,0 4112.42,0 l 67.71,0 0,86.9531 -67.53,0 c -29.41,0 -53.33,23.9219 -53.33,53.3239 l 0,207.371 120.86,0" /><path
         id="path40"
         style="fill:#1476c6;fill-opacity:1;fill-rule:nonzero;stroke:none"
         d="m 151.844,424.648 c 0,29.403 23.922,53.325 53.324,53.325 l 57.164,0 c 29.406,0 53.328,-23.922 53.328,-53.325 l 0,-33.543 86.66,0 0,34.008 c 0,77.09 -62.722,139.813 -139.812,139.813 l -57.512,0 c -77.09,0 -139.8124,-62.723 -139.8124,-139.813 l 0,-34.008 86.6604,0 0,33.543" /><path
         id="path42"
         style="fill:#231f20;fill-opacity:1;fill-rule:nonzero;stroke:none"
         d="m 4301.71,483 -14.1,0 0,27.609 17.88,0 c 9.13,0 19.06,-1.789 19.06,-13.312 0,-13.699 -10.92,-14.297 -22.84,-14.297 z m 13.51,-9.937 c 12.91,1.394 22.83,7.953 22.83,23.644 0,16.68 -9.73,24.824 -30.38,24.824 l -33.57,0 0,-86.797 13.51,0 0,37.344 14.3,0 23.64,-37.344 14.5,0 -24.83,38.329" /><path
         id="path44"
         style="fill:#231f20;fill-opacity:1;fill-rule:nonzero;stroke:none"
         d="m 4304.35,402.867 c -41.46,0 -75.07,33.61 -75.07,75.071 0,41.46 33.61,75.074 75.07,75.074 41.47,0 75.08,-33.614 75.08,-75.074 0,-41.461 -33.61,-75.071 -75.08,-75.071 z m 0,161.867 c -47.93,0 -86.79,-38.859 -86.79,-86.796 0,-47.934 38.86,-86.797 86.79,-86.797 47.94,0 86.8,38.863 86.8,86.797 0,47.937 -38.86,86.796 -86.8,86.796" /></g></g></svg>