<?xml version="1.0" encoding="UTF-8" standalone="no"?>
<svg
   xmlns:dc="http://purl.org/dc/elements/1.1/"
   xmlns:cc="http://creativecommons.org/ns#"
   xmlns:rdf="http://www.w3.org/1999/02/22-rdf-syntax-ns#"
   xmlns:svg="http://www.w3.org/2000/svg"
   xmlns="http://www.w3.org/2000/svg"
   viewBox="0 0 354.32501 354.32501"
   height="354.32501"
   width="354.32501"
   xml:space="preserve"
   version="1.1"
   id="svg2"><metadata
     id="metadata8"><rdf:RDF><cc:Work
         rdf:about=""><dc:format>image/svg+xml</dc:format><dc:type
           rdf:resource="http://purl.org/dc/dcmitype/StillImage" /><dc:title></dc:title></cc:Work></rdf:RDF></metadata><defs
     id="defs6" /><g
     transform="matrix(1.25,0,0,-1.25,0,354.325)"
     id="g10"><g
       transform="scale(0.1,0.1)"
       id="g12"><path
         id="path14"
         style="fill:#b2b2b2;fill-opacity:1;fill-rule:nonzero;stroke:none"
         d="m 69.1406,2696.37 c 38.1834,0 69.1214,30.95 69.1214,69.14 0,38.2 -30.938,69.14 -69.1214,69.14 C 30.9961,2834.65 0,2803.71 0,2765.51 c 0,-38.19 30.9961,-69.14 69.1406,-69.14" /><path
         id="path16"
         style="fill:#b2b2b2;fill-opacity:1;fill-rule:nonzero;stroke:none"
         d="m 483.965,2696.37 c 38.183,0 69.14,30.95 69.14,69.14 0,38.2 -30.957,69.14 -69.14,69.14 -38.184,0 -69.141,-30.94 -69.141,-69.14 0,-38.19 30.957,-69.14 69.141,-69.14" /><path
         id="path18"
         style="fill:#b2b2b2;fill-opacity:1;fill-rule:nonzero;stroke:none"
         d="m 483.965,2696.37 c 38.183,0 69.14,30.95 69.14,69.14 0,38.2 -30.957,69.14 -69.14,69.14 -38.184,0 -69.141,-30.94 -69.141,-69.14 0,-38.19 30.957,-69.14 69.141,-69.14" /><path
         id="path20"
         style="fill:#b2b2b2;fill-opacity:1;fill-rule:nonzero;stroke:none"
         d="m 691.387,2696.37 c 38.183,0 69.121,30.95 69.121,69.14 0,38.2 -30.938,69.14 -69.121,69.14 -38.203,0 -69.141,-30.94 -69.141,-69.14 0,-38.19 30.938,-69.14 69.141,-69.14" /><path
         id="path22"
         style="fill:#b2b2b2;fill-opacity:1;fill-rule:nonzero;stroke:none"
         d="m 898.789,2696.37 c 38.203,0 69.141,30.95 69.141,69.14 0,38.2 -30.938,69.14 -69.141,69.14 -38.184,0 -69.141,-30.94 -69.141,-69.14 0,-38.19 30.957,-69.14 69.141,-69.14" /><path
         id="path24"
         style="fill:#b2b2b2;fill-opacity:1;fill-rule:nonzero;stroke:none"
         d="m 1106.21,2696.37 c 38.15,0 69.12,30.95 69.12,69.14 0,38.2 -30.97,69.14 -69.12,69.14 -38.22,0 -69.14,-30.94 -69.14,-69.14 0,-38.19 30.92,-69.14 69.14,-69.14" /><path
         id="path26"
         style="fill:#b2b2b2;fill-opacity:1;fill-rule:nonzero;stroke:none"
         d="m 1313.63,2696.37 c 38.13,0 69.12,30.95 69.12,69.14 0,38.2 -30.99,69.14 -69.12,69.14 -38.22,0 -69.14,-30.94 -69.14,-69.14 0,-38.19 30.92,-69.14 69.14,-69.14" /><path
         id="path28"
         style="fill:#b2b2b2;fill-opacity:1;fill-rule:nonzero;stroke:none"
         d="m 1521.04,2696.37 c 38.16,0 69.1,30.95 69.1,69.14 0,38.2 -30.94,69.14 -69.1,69.14 -38.21,0 -69.15,-30.94 -69.15,-69.14 0,-38.19 30.94,-69.14 69.15,-69.14" /><path
         id="path30"
         style="fill:#b2b2b2;fill-opacity:1;fill-rule:nonzero;stroke:none"
         d="m 1728.42,2696.37 c 38.16,0 69.14,30.95 69.14,69.14 0,38.2 -30.98,69.14 -69.14,69.14 -38.13,0 -69.16,-30.94 -69.16,-69.14 0,-38.19 31.03,-69.14 69.16,-69.14" /><path
         id="path32"
         style="fill:#b2b2b2;fill-opacity:1;fill-rule:nonzero;stroke:none"
         d="m 1935.8,2696.37 c 38.2,0 69.18,30.95 69.18,69.14 0,38.2 -30.98,69.14 -69.18,69.14 -38.18,0 -69.12,-30.94 -69.12,-69.14 0,-38.19 30.94,-69.14 69.12,-69.14" /><path
         id="path34"
         style="fill:#b2b2b2;fill-opacity:1;fill-rule:nonzero;stroke:none"
         d="m 2143.24,2696.37 c 38.19,0 69.12,30.95 69.12,69.14 0,38.2 -30.93,69.14 -69.12,69.14 -38.18,0 -69.12,-30.94 -69.12,-69.14 0,-38.19 30.94,-69.14 69.12,-69.14" /><path
         id="path36"
         style="fill:#b2b2b2;fill-opacity:1;fill-rule:nonzero;stroke:none"
         d="m 2350.66,2696.37 c 38.19,0 69.13,30.95 69.13,69.14 0,38.2 -30.94,69.14 -69.13,69.14 -38.18,0 -69.16,-30.94 -69.16,-69.14 0,-38.19 30.98,-69.14 69.16,-69.14" /><path
         id="path38"
         style="fill:#b2b2b2;fill-opacity:1;fill-rule:nonzero;stroke:none"
         d="m 2558.09,2696.37 c 38.18,0 69.12,30.95 69.12,69.14 0,38.2 -30.94,69.14 -69.12,69.14 -38.21,0 -69.22,-30.94 -69.22,-69.14 0,-38.19 31.01,-69.14 69.22,-69.14" /><path
         id="path40"
         style="fill:#b2b2b2;fill-opacity:1;fill-rule:nonzero;stroke:none"
         d="m 2765.41,2696.37 c 38.18,0 69.24,30.95 69.24,69.14 0,38.2 -31.06,69.14 -69.24,69.14 -38.18,0 -69.1,-30.94 -69.1,-69.14 0,-38.19 30.92,-69.14 69.1,-69.14" /><path
         id="path42"
         style="fill:#b2b2b2;fill-opacity:1;fill-rule:nonzero;stroke:none"
         d="m 276.563,2696.37 c 38.183,0 69.121,30.95 69.121,69.14 0,38.2 -30.938,69.14 -69.121,69.14 -38.204,0 -69.141,-30.94 -69.141,-69.14 0,-38.19 30.937,-69.14 69.141,-69.14" /><path
         id="path44"
         style="fill:#b2b2b2;fill-opacity:1;fill-rule:nonzero;stroke:none"
         d="m 69.1406,0 c 38.1834,0 69.1214,31.0352 69.1214,69.2188 0,38.1442 -30.938,69.0822 -69.1214,69.0822 C 30.9961,138.301 0,107.363 0,69.2188 0,31.0352 30.9961,0 69.1406,0" /><path
         id="path46"
         style="fill:#b2b2b2;fill-opacity:1;fill-rule:nonzero;stroke:none"
         d="m 483.965,0 c 38.183,0 69.14,31.0352 69.14,69.2188 0,38.1442 -30.957,69.0822 -69.14,69.0822 -38.184,0 -69.141,-30.938 -69.141,-69.0822 C 414.824,31.0352 445.781,0 483.965,0" /><path
         id="path48"
         style="fill:#b2b2b2;fill-opacity:1;fill-rule:nonzero;stroke:none"
         d="m 483.965,0 c 38.183,0 69.14,31.0352 69.14,69.2188 0,38.1442 -30.957,69.0822 -69.14,69.0822 -38.184,0 -69.141,-30.938 -69.141,-69.0822 C 414.824,31.0352 445.781,0 483.965,0" /><path
         id="path50"
         style="fill:#b2b2b2;fill-opacity:1;fill-rule:nonzero;stroke:none"
         d="m 691.387,0 c 38.183,0 69.121,31.0352 69.121,69.2188 0,38.1442 -30.938,69.0822 -69.121,69.0822 -38.203,0 -69.141,-30.938 -69.141,-69.0822 C 622.246,31.0352 653.184,0 691.387,0" /><path
         id="path52"
         style="fill:#b2b2b2;fill-opacity:1;fill-rule:nonzero;stroke:none"
         d="m 898.789,0 c 38.203,0 69.141,31.0352 69.141,69.2188 0,38.1442 -30.938,69.0822 -69.141,69.0822 -38.184,0 -69.141,-30.938 -69.141,-69.0822 C 829.648,31.0352 860.605,0 898.789,0" /><path
         id="path54"
         style="fill:#b2b2b2;fill-opacity:1;fill-rule:nonzero;stroke:none"
         d="m 1106.21,0 c 38.15,0 69.12,31.0352 69.12,69.2188 0,38.1442 -30.97,69.0822 -69.12,69.0822 -38.22,0 -69.14,-30.938 -69.14,-69.0822 C 1037.07,31.0352 1067.99,0 1106.21,0" /><path
         id="path56"
         style="fill:#b2b2b2;fill-opacity:1;fill-rule:nonzero;stroke:none"
         d="m 1313.63,0 c 38.13,0 69.12,31.0352 69.12,69.2188 0,38.1442 -30.99,69.0822 -69.12,69.0822 -38.22,0 -69.14,-30.938 -69.14,-69.0822 C 1244.49,31.0352 1275.41,0 1313.63,0" /><path
         id="path58"
         style="fill:#b2b2b2;fill-opacity:1;fill-rule:nonzero;stroke:none"
         d="m 1521.04,0 c 38.16,0 69.1,31.0352 69.1,69.2188 0,38.1442 -30.94,69.0822 -69.1,69.0822 -38.23,0 -69.15,-30.938 -69.15,-69.0822 C 1451.89,31.0352 1482.81,0 1521.04,0" /><path
         id="path60"
         style="fill:#b2b2b2;fill-opacity:1;fill-rule:nonzero;stroke:none"
         d="m 1728.42,0 c 38.16,0 69.14,31.0352 69.14,69.2188 0,38.1442 -30.98,69.0822 -69.14,69.0822 -38.13,0 -69.16,-30.938 -69.16,-69.0822 C 1659.26,31.0352 1690.29,0 1728.42,0" /><path
         id="path62"
         style="fill:#b2b2b2;fill-opacity:1;fill-rule:nonzero;stroke:none"
         d="m 1935.8,0 c 38.2,0 69.18,31.0352 69.18,69.2188 0,38.1442 -30.98,69.0822 -69.18,69.0822 -38.18,0 -69.12,-30.938 -69.12,-69.0822 C 1866.68,31.0352 1897.62,0 1935.8,0" /><path
         id="path64"
         style="fill:#b2b2b2;fill-opacity:1;fill-rule:nonzero;stroke:none"
         d="m 2143.24,0 c 38.19,0 69.12,31.0352 69.12,69.2188 0,38.1442 -30.93,69.0822 -69.12,69.0822 -38.18,0 -69.12,-30.938 -69.12,-69.0822 C 2074.12,31.0352 2105.06,0 2143.24,0" /><path
         id="path66"
         style="fill:#b2b2b2;fill-opacity:1;fill-rule:nonzero;stroke:none"
         d="m 2350.66,0 c 38.19,0 69.13,31.0352 69.13,69.2188 0,38.1442 -30.94,69.0822 -69.13,69.0822 -38.18,0 -69.16,-30.938 -69.16,-69.0822 C 2281.5,31.0352 2312.48,0 2350.66,0" /><path
         id="path68"
         style="fill:#b2b2b2;fill-opacity:1;fill-rule:nonzero;stroke:none"
         d="m 2558.09,0 c 38.18,0 69.12,31.0352 69.12,69.2188 0,38.1442 -30.94,69.0822 -69.12,69.0822 -38.21,0 -69.22,-30.938 -69.22,-69.0822 C 2488.87,31.0352 2519.88,0 2558.09,0" /><path
         id="path70"
         style="fill:#b2b2b2;fill-opacity:1;fill-rule:nonzero;stroke:none"
         d="m 2765.41,0 c 38.18,0 69.24,31.0352 69.24,69.2188 0,38.1442 -31.06,69.0822 -69.24,69.0822 -38.18,0 -69.1,-30.938 -69.1,-69.0822 C 2696.31,31.0352 2727.23,0 2765.41,0" /><path
         id="path72"
         style="fill:#b2b2b2;fill-opacity:1;fill-rule:nonzero;stroke:none"
         d="m 276.563,0 c 38.183,0 69.121,31.0352 69.121,69.2188 0,38.1442 -30.938,69.0822 -69.121,69.0822 -38.204,0 -69.141,-30.938 -69.141,-69.0822 C 207.422,31.0352 238.359,0 276.563,0" /><path
         id="path74"
         style="fill:#b2b2b2;fill-opacity:1;fill-rule:nonzero;stroke:none"
         d="m 138.262,483.984 c 0,38.184 -30.938,69.121 -69.1214,69.121 C 30.9961,553.105 0,522.168 0,483.984 c 0,-38.183 30.9961,-69.121 69.1406,-69.121 38.1834,0 69.1214,30.938 69.1214,69.121" /><path
         id="path76"
         style="fill:#b2b2b2;fill-opacity:1;fill-rule:nonzero;stroke:none"
         d="m 138.262,483.984 c 0,38.184 -30.938,69.121 -69.1214,69.121 C 30.9961,553.105 0,522.168 0,483.984 c 0,-38.183 30.9961,-69.121 69.1406,-69.121 38.1834,0 69.1214,30.938 69.1214,69.121" /><path
         id="path78"
         style="fill:#b2b2b2;fill-opacity:1;fill-rule:nonzero;stroke:none"
         d="m 138.262,691.406 c 0,38.184 -30.938,69.121 -69.1214,69.121 C 30.9961,760.527 0,729.59 0,691.406 c 0,-38.183 30.9961,-69.218 69.1406,-69.218 38.1834,0 69.1214,31.035 69.1214,69.218" /><path
         id="path80"
         style="fill:#b2b2b2;fill-opacity:1;fill-rule:nonzero;stroke:none"
         d="m 138.262,898.75 c 0,38.184 -30.938,69.219 -69.1214,69.219 C 30.9961,967.969 0,936.934 0,898.75 c 0,-38.086 30.9961,-69.121 69.1406,-69.121 38.1834,0 69.1214,31.035 69.1214,69.121" /><path
         id="path82"
         style="fill:#b2b2b2;fill-opacity:1;fill-rule:nonzero;stroke:none"
         d="m 138.262,1106.17 c 0,38.22 -30.938,69.12 -69.1214,69.12 C 30.9961,1175.29 0,1144.39 0,1106.17 c 0,-38.18 30.9961,-69.06 69.1406,-69.06 38.1834,0 69.1214,30.88 69.1214,69.06" /><path
         id="path84"
         style="fill:#b2b2b2;fill-opacity:1;fill-rule:nonzero;stroke:none"
         d="m 138.262,1313.61 c 0,38.23 -30.938,69.14 -69.1214,69.14 C 30.9961,1382.75 0,1351.84 0,1313.61 c 0,-38.16 30.9961,-69.08 69.1406,-69.08 38.1834,0 69.1214,30.92 69.1214,69.08" /><path
         id="path86"
         style="fill:#b2b2b2;fill-opacity:1;fill-rule:nonzero;stroke:none"
         d="m 138.262,1521.04 c 0,38.22 -30.938,69.14 -69.1214,69.14 C 30.9961,1590.18 0,1559.26 0,1521.04 c 0,-38.17 30.9961,-69.16 69.1406,-69.16 38.1834,0 69.1214,30.99 69.1214,69.16" /><path
         id="path88"
         style="fill:#b2b2b2;fill-opacity:1;fill-rule:nonzero;stroke:none"
         d="m 138.262,1728.44 c 0,38.18 -30.938,69.14 -69.1214,69.14 C 30.9961,1797.58 0,1766.62 0,1728.44 c 0,-38.19 30.9961,-69.12 69.1406,-69.12 38.1834,0 69.1214,30.93 69.1214,69.12" /><path
         id="path90"
         style="fill:#b2b2b2;fill-opacity:1;fill-rule:nonzero;stroke:none"
         d="m 138.262,1935.86 c 0,38.18 -30.938,69.16 -69.1214,69.16 C 30.9961,2005.02 0,1974.04 0,1935.86 c 0,-38.18 30.9961,-69.08 69.1406,-69.08 38.1834,0 69.1214,30.9 69.1214,69.08" /><path
         id="path92"
         style="fill:#b2b2b2;fill-opacity:1;fill-rule:nonzero;stroke:none"
         d="m 138.262,2143.26 c 0,38.19 -30.938,69.14 -69.1214,69.14 C 30.9961,2212.4 0,2181.45 0,2143.26 c 0,-38.16 30.9961,-69.14 69.1406,-69.14 38.1834,0 69.1214,30.98 69.1214,69.14" /><path
         id="path94"
         style="fill:#b2b2b2;fill-opacity:1;fill-rule:nonzero;stroke:none"
         d="m 138.262,2350.68 c 0,38.19 -30.938,69.14 -69.1214,69.14 C 30.9961,2419.82 0,2388.87 0,2350.68 c 0,-38.16 30.9961,-69.14 69.1406,-69.14 38.1834,0 69.1214,30.98 69.1214,69.14" /><path
         id="path96"
         style="fill:#b2b2b2;fill-opacity:1;fill-rule:nonzero;stroke:none"
         d="m 138.262,2558.09 c 0,38.2 -30.938,69.14 -69.1214,69.14 C 30.9961,2627.23 0,2596.29 0,2558.09 c 0,-38.15 30.9961,-69.13 69.1406,-69.13 38.1834,0 69.1214,30.98 69.1214,69.13" /><path
         id="path98"
         style="fill:#b2b2b2;fill-opacity:1;fill-rule:nonzero;stroke:none"
         d="m 138.262,276.543 c 0,38.184 -30.938,69.219 -69.1214,69.219 C 30.9961,345.762 0,314.727 0,276.543 0,238.34 30.9961,207.422 69.1406,207.422 c 38.1834,0 69.1214,30.918 69.1214,69.121" /><path
         id="path100"
         style="fill:#b2b2b2;fill-opacity:1;fill-rule:nonzero;stroke:none"
         d="m 2834.65,483.984 c 0,38.184 -31.06,69.121 -69.24,69.121 -38.18,0 -69.1,-30.937 -69.1,-69.121 0,-38.183 30.92,-69.121 69.1,-69.121 38.18,0 69.24,30.938 69.24,69.121" /><path
         id="path102"
         style="fill:#b2b2b2;fill-opacity:1;fill-rule:nonzero;stroke:none"
         d="m 2834.65,483.984 c 0,38.184 -31.06,69.121 -69.24,69.121 -38.18,0 -69.1,-30.937 -69.1,-69.121 0,-38.183 30.92,-69.121 69.1,-69.121 38.18,0 69.24,30.938 69.24,69.121" /><path
         id="path104"
         style="fill:#b2b2b2;fill-opacity:1;fill-rule:nonzero;stroke:none"
         d="m 2834.65,691.406 c 0,38.184 -31.06,69.121 -69.24,69.121 -38.18,0 -69.1,-30.937 -69.1,-69.121 0,-38.183 30.92,-69.218 69.1,-69.218 38.18,0 69.24,31.035 69.24,69.218" /><path
         id="path106"
         style="fill:#b2b2b2;fill-opacity:1;fill-rule:nonzero;stroke:none"
         d="m 2834.65,898.75 c 0,38.184 -31.06,69.219 -69.24,69.219 -38.18,0 -69.1,-31.035 -69.1,-69.219 0,-38.086 30.92,-69.121 69.1,-69.121 38.18,0 69.24,31.035 69.24,69.121" /><path
         id="path108"
         style="fill:#b2b2b2;fill-opacity:1;fill-rule:nonzero;stroke:none"
         d="m 2834.65,1106.17 c 0,38.22 -31.06,69.12 -69.24,69.12 -38.18,0 -69.1,-30.9 -69.1,-69.12 0,-38.18 30.92,-69.06 69.1,-69.06 38.18,0 69.24,30.88 69.24,69.06" /><path
         id="path110"
         style="fill:#b2b2b2;fill-opacity:1;fill-rule:nonzero;stroke:none"
         d="m 2834.65,1313.61 c 0,38.23 -31.06,69.14 -69.24,69.14 -38.18,0 -69.1,-30.91 -69.1,-69.14 0,-38.16 30.92,-69.08 69.1,-69.08 38.18,0 69.24,30.92 69.24,69.08" /><path
         id="path112"
         style="fill:#b2b2b2;fill-opacity:1;fill-rule:nonzero;stroke:none"
         d="m 2834.65,1521.04 c 0,38.22 -31.06,69.14 -69.24,69.14 -38.18,0 -69.1,-30.92 -69.1,-69.14 0,-38.17 30.92,-69.16 69.1,-69.16 38.18,0 69.24,30.99 69.24,69.16" /><path
         id="path114"
         style="fill:#b2b2b2;fill-opacity:1;fill-rule:nonzero;stroke:none"
         d="m 2834.65,1728.44 c 0,38.18 -31.06,69.14 -69.24,69.14 -38.18,0 -69.1,-30.96 -69.1,-69.14 0,-38.19 30.92,-69.12 69.1,-69.12 38.18,0 69.24,30.93 69.24,69.12" /><path
         id="path116"
         style="fill:#b2b2b2;fill-opacity:1;fill-rule:nonzero;stroke:none"
         d="m 2834.65,1935.86 c 0,38.18 -31.06,69.16 -69.24,69.16 -38.18,0 -69.1,-30.98 -69.1,-69.16 0,-38.18 30.92,-69.08 69.1,-69.08 38.18,0 69.24,30.9 69.24,69.08" /><path
         id="path118"
         style="fill:#b2b2b2;fill-opacity:1;fill-rule:nonzero;stroke:none"
         d="m 2834.65,2143.26 c 0,38.19 -31.06,69.14 -69.24,69.14 -38.18,0 -69.1,-30.95 -69.1,-69.14 0,-38.16 30.92,-69.14 69.1,-69.14 38.18,0 69.24,30.98 69.24,69.14" /><path
         id="path120"
         style="fill:#b2b2b2;fill-opacity:1;fill-rule:nonzero;stroke:none"
         d="m 2834.65,2350.68 c 0,38.19 -31.06,69.14 -69.24,69.14 -38.18,0 -69.1,-30.95 -69.1,-69.14 0,-38.16 30.92,-69.14 69.1,-69.14 38.18,0 69.24,30.98 69.24,69.14" /><path
         id="path122"
         style="fill:#b2b2b2;fill-opacity:1;fill-rule:nonzero;stroke:none"
         d="m 2834.65,2558.09 c 0,38.2 -31.06,69.14 -69.24,69.14 -38.18,0 -69.1,-30.94 -69.1,-69.14 0,-38.15 30.92,-69.13 69.1,-69.13 38.18,0 69.24,30.98 69.24,69.13" /><path
         id="path124"
         style="fill:#b2b2b2;fill-opacity:1;fill-rule:nonzero;stroke:none"
         d="m 2834.65,276.543 c 0,38.184 -31.06,69.219 -69.24,69.219 -38.18,0 -69.1,-31.035 -69.1,-69.219 0,-38.203 30.92,-69.121 69.1,-69.121 38.18,0 69.24,30.918 69.24,69.121" /><path
         id="path126"
         style="fill:#000000;fill-opacity:1;fill-rule:nonzero;stroke:none"
         d="m 482.09,2006.19 c 73.203,0 131.836,-48.83 131.836,-124.47 0,-75.67 -58.633,-124.55 -131.836,-124.55 -73.242,0 -131.817,48.88 -131.817,124.55 0,75.64 58.575,124.47 131.817,124.47 z m 0,-184.59 c 36.621,0 58.594,24.44 58.594,60.12 0,35.64 -21.973,60.06 -58.594,60.06 -36.621,0 -58.594,-24.42 -58.594,-60.06 0,-35.68 21.973,-60.12 58.594,-60.12" /><path
         id="path128"
         style="fill:#000000;fill-opacity:1;fill-rule:nonzero;stroke:none"
         d="m 653.789,2000.33 67.363,0 0,-31.25 0.996,0 c 11.231,17.13 39.532,37.11 72.754,37.11 70.293,0 116.68,-50.74 116.68,-122.52 0,-65.96 -40.996,-126.5 -108.398,-126.5 -30.254,0 -58.575,8.32 -75.176,31.23 l -0.996,0 0,-136.64 -73.223,0 0,348.57 z M 779.766,1821.6 c 36.601,0 58.574,24.44 58.574,60.12 0,35.64 -21.973,60.06 -58.574,60.06 -36.641,0 -58.614,-24.42 -58.614,-60.06 0,-35.68 21.973,-60.12 58.614,-60.12" /><path
         id="path130"
         style="fill:#000000;fill-opacity:1;fill-rule:nonzero;stroke:none"
         d="m 1174.12,1804.08 c -23.44,-29.76 -62.01,-46.91 -100.1,-46.91 -73.24,0 -131.832,48.88 -131.832,124.55 0,75.64 58.592,124.47 131.832,124.47 68.36,0 111.33,-48.83 111.33,-124.47 l 0,-22.93 -169.94,0 c 5.88,-27.87 26.88,-45.96 55.2,-45.96 23.9,0 40.02,12.19 52.24,28.83 l 51.27,-37.58 z m -62.01,104.51 c 0.47,24.36 -18.56,44.87 -44.92,44.87 -32.23,0 -49.83,-21.96 -51.78,-44.87 l 96.7,0" /><path
         id="path132"
         style="fill:#000000;fill-opacity:1;fill-rule:nonzero;stroke:none"
         d="m 1229.69,2000.33 70.29,0 0,-32.22 1,0 c 9.76,18.53 33.67,38.08 69.33,38.08 74.2,0 87.87,-48.83 87.87,-112.3 l 0,-130.78 -73.24,0 0,116.17 c 0,27.34 -0.49,62.5 -38.06,62.5 -38.09,0 -43.97,-29.77 -43.97,-60.59 l 0,-118.08 -73.22,0 0,237.22" /><path
         id="path134"
         style="fill:#000000;fill-opacity:1;fill-rule:nonzero;stroke:none"
         d="m 501.055,1515.68 c -10.742,13.17 -24.883,20.04 -42.461,20.04 -12.207,0 -26.856,-5.43 -26.856,-19.51 0,-35.17 123.535,-5.41 123.535,-95.68 0,-60.63 -58.593,-78.17 -109.375,-78.17 -33.203,0 -69.824,8.32 -93.261,32.19 l 44.453,49.4 c 13.652,-16.63 29.765,-25.96 51.738,-25.96 16.602,0 33.184,4.47 33.184,17.13 0,38.08 -123.516,5.84 -123.516,96.21 0,55.58 49.805,80.1 99.59,80.1 31.269,0 65.918,-7.89 87.891,-31.35 l -44.922,-44.4" /><path
         id="path136"
         style="fill:#000000;fill-opacity:1;fill-rule:nonzero;stroke:none"
         d="m 719.688,1309.69 c -19.532,-50.33 -30.762,-78.64 -100.586,-78.64 -18.555,0 -37.11,2.88 -54.688,8.79 l 9.785,60.1 c 11.231,-4.96 21.973,-7.38 34.18,-7.38 33.184,0 38.555,14.14 48.809,40.06 l 5.371,13.69 -104.004,239.22 79.101,0 61.035,-156.7 0.997,0 52.226,156.7 75.195,0 -107.421,-275.84" /><path
         id="path138"
         style="fill:#000000;fill-opacity:1;fill-rule:nonzero;stroke:none"
         d="m 973.965,1515.68 c -10.781,13.17 -24.922,20.04 -42.52,20.04 -12.207,0 -26.816,-5.43 -26.816,-19.51 0,-35.17 123.511,-5.41 123.511,-95.68 0,-60.63 -58.589,-78.17 -109.39,-78.17 -33.184,0 -69.785,8.32 -93.223,32.19 l 44.414,49.4 c 13.653,-16.63 29.766,-25.96 51.739,-25.96 16.601,0 33.222,4.47 33.222,17.13 0,38.08 -123.554,5.84 -123.554,96.21 0,55.58 49.804,80.1 99.648,80.1 31.211,0 65.899,-7.89 87.894,-31.35 l -44.925,-44.4" /><path
         id="path140"
         style="fill:#000000;fill-opacity:1;fill-rule:nonzero;stroke:none"
         d="m 1227.23,1526.88 -64.46,0 0,-79.05 c 0,-25.35 2.95,-43.92 34.67,-43.92 7.81,0 23.42,0.95 29.79,6.83 l 0,-61.11 c -16.12,-5.8 -34.16,-7.27 -51.27,-7.27 -48.83,0 -86.41,20.04 -86.41,71.8 l 0,112.72 -46.89,0 0,58.65 46.89,0 0,70.31 73.22,0 0,-70.31 64.46,0 0,-58.65" /><path
         id="path142"
         style="fill:#000000;fill-opacity:1;fill-rule:nonzero;stroke:none"
         d="m 1488.85,1389.28 c -23.42,-29.79 -61.99,-46.92 -100.08,-46.92 -73.24,0 -131.84,48.79 -131.84,124.55 0,75.65 58.6,124.52 131.84,124.52 68.36,0 111.33,-48.87 111.33,-124.52 l 0,-22.95 -169.89,0 c 5.81,-27.89 26.82,-45.97 55.14,-45.97 23.91,0 40.04,12.26 52.25,28.85 l 51.25,-37.56 z m -61.99,104.41 c 0.48,24.47 -18.56,44.92 -44.95,44.92 -32.22,0 -49.78,-21.89 -51.7,-44.92 l 96.65,0" /><path
         id="path144"
         style="fill:#000000;fill-opacity:1;fill-rule:nonzero;stroke:none"
         d="m 1544.41,1585.53 70.32,0 0,-32.19 0.95,0 c 9.79,18.46 33.71,38.09 69.36,38.09 33.2,0 60.55,-13.7 73.22,-42.54 17.11,30.29 40.04,42.54 75.22,42.54 64.45,0 83.92,-45.45 83.92,-103.05 l 0,-140.2 -73.18,0 0,138.25 c 0,21.99 -8.3,40.45 -32.23,40.45 -33.71,0 -44.41,-23.87 -44.41,-53.13 l 0,-125.57 -73.24,0 0,125.57 c 0,17.54 0.93,53.13 -32.74,53.13 -38.03,0 -43.96,-29.75 -43.96,-60.49 l 0,-118.21 -73.23,0 0,237.35" /><path
         id="path146"
         style="fill:#000000;fill-opacity:1;fill-rule:nonzero;stroke:none"
         d="m 2103.28,1515.68 c -10.8,13.17 -24.9,20.04 -42.48,20.04 -12.19,0 -26.82,-5.43 -26.82,-19.51 0,-35.17 123.46,-5.41 123.46,-95.68 0,-60.63 -58.55,-78.17 -109.37,-78.17 -33.17,0 -69.79,8.32 -93.23,32.19 l 44.48,49.4 c 13.65,-16.63 29.78,-25.96 51.73,-25.96 16.59,0 33.21,4.47 33.21,17.13 0,38.08 -123.54,5.84 -123.54,96.21 0,55.58 49.81,80.1 99.61,80.1 31.25,0 65.86,-7.89 87.89,-31.35 l -44.94,-44.4" /></g></g></svg>