<?xml version="1.0" encoding="UTF-8" standalone="no"?>
<svg
   xmlns:dc="http://purl.org/dc/elements/1.1/"
   xmlns:cc="http://creativecommons.org/ns#"
   xmlns:rdf="http://www.w3.org/1999/02/22-rdf-syntax-ns#"
   xmlns:svg="http://www.w3.org/2000/svg"
   xmlns="http://www.w3.org/2000/svg"
   viewBox="0 0 411.02499 92.300003"
   height="92.300003"
   width="411.02499"
   xml:space="preserve"
   version="1.1"
   id="svg2"><metadata
     id="metadata8"><rdf:RDF><cc:Work
         rdf:about=""><dc:format>image/svg+xml</dc:format><dc:type
           rdf:resource="http://purl.org/dc/dcmitype/StillImage" /><dc:title></dc:title></cc:Work></rdf:RDF></metadata><defs
     id="defs6" /><g
     transform="matrix(1.25,0,0,-1.25,0,92.3)"
     id="g10"><g
       transform="scale(0.1,0.1)"
       id="g12"><path
         id="path14"
         style="fill:#5b90d2;fill-opacity:1;fill-rule:nonzero;stroke:none"
         d="m 1179.57,594.285 -422.172,0 c -11.328,0 -20.918,-3.953 -28.828,-11.863 -7.925,-7.93 -11.871,-17.52 -11.871,-28.828 0,-11.321 3.946,-20.899 11.871,-28.821 7.91,-7.937 17.5,-11.863 28.828,-11.863 l 422.172,0 c 11.3,0 20.89,3.926 28.82,11.863 7.91,7.922 11.88,17.5 11.88,28.821 0,11.308 -3.97,20.898 -11.88,28.828 -7.93,7.91 -17.52,11.863 -28.82,11.863 m 1351.19,0 -422.17,0 c -11.31,0 -20.92,-3.953 -28.83,-11.863 -7.93,-7.93 -11.87,-17.52 -11.87,-28.828 0,-11.321 3.94,-20.899 11.87,-28.821 7.91,-7.937 17.52,-11.863 28.83,-11.863 l 422.17,0 c 11.31,0 20.91,3.926 28.82,11.863 7.9,7.922 11.86,17.5 11.86,28.821 0,11.308 -3.96,20.898 -11.86,28.828 -7.91,7.91 -17.51,11.863 -28.82,11.863" /><path
         id="path16"
         style="fill:#5b90d2;fill-opacity:1;fill-rule:nonzero;stroke:none"
         d="m 1179.78,738.406 -422.186,0 c -11.309,0 -20.899,-3.965 -28.821,-11.883 -7.918,-7.91 -11.863,-17.519 -11.863,-28.808 0,-11.32 3.945,-20.918 11.863,-28.828 7.922,-7.922 17.512,-11.875 28.821,-11.875 l 422.186,0 c 11.3,0 20.89,3.953 28.83,11.875 7.91,7.91 11.85,17.508 11.85,28.828 0,11.289 -3.94,20.898 -11.85,28.808 -7.94,7.918 -17.53,11.883 -28.83,11.883" /><path
         id="path18"
         style="fill:#5b90d2;fill-opacity:1;fill-rule:nonzero;stroke:none"
         d="m 2527.87,738.406 -422.19,0 c -11.31,0 -20.92,-3.965 -28.83,-11.883 -7.93,-7.91 -11.87,-17.519 -11.87,-28.808 0,-11.32 3.94,-20.918 11.87,-28.828 7.91,-7.922 17.52,-11.875 28.83,-11.875 l 422.19,0 c 11.29,0 20.88,3.953 28.8,11.875 7.91,7.91 11.88,17.508 11.88,28.828 0,11.289 -3.97,20.898 -11.88,28.808 -7.92,7.918 -17.51,11.883 -28.8,11.883" /><path
         id="path20"
         style="fill:#5b90d2;fill-opacity:1;fill-rule:nonzero;stroke:none"
         d="m 1179.78,450.156 -422.186,0 c -11.309,0 -20.899,-3.945 -28.821,-11.855 -7.918,-7.918 -11.863,-17.52 -11.863,-28.821 0,-11.316 3.945,-20.917 11.863,-28.835 7.922,-7.93 17.512,-11.856 28.821,-11.856 l 422.186,0 c 11.3,0 20.89,3.926 28.83,11.856 7.91,7.918 11.85,17.519 11.85,28.835 0,11.301 -3.94,20.903 -11.85,28.821 -7.94,7.91 -17.53,11.855 -28.83,11.855" /><path
         id="path22"
         style="fill:#5b90d2;fill-opacity:1;fill-rule:nonzero;stroke:none"
         d="m 2527.87,450.156 -422.19,0 c -11.31,0 -20.92,-3.945 -28.83,-11.855 -7.93,-7.918 -11.87,-17.52 -11.87,-28.821 0,-11.316 3.94,-20.917 11.87,-28.835 7.91,-7.93 17.52,-11.856 28.83,-11.856 l 422.19,0 c 11.29,0 20.88,3.926 28.8,11.856 7.91,7.918 11.88,17.519 11.88,28.835 0,11.301 -3.97,20.903 -11.88,28.821 -7.92,7.91 -17.51,11.855 -28.8,11.855" /><path
         id="path24"
         style="fill:#223368;fill-opacity:1;fill-rule:nonzero;stroke:none"
         d="m 40.6875,738.406 c -11.3125,0 -20.9062,-3.965 -28.8242,-11.883 C 3.94531,718.613 0,709.004 0,697.715 c 0,-11.32 3.94531,-20.918 11.8633,-28.828 7.918,-7.922 17.5117,-11.875 28.8242,-11.875 l 278.0665,0 c -9.043,-15.821 -15.824,-32.637 -20.352,-50.43 -4.535,-17.812 -6.781,-35.48 -6.781,-52.988 l 0,-144.114 c 0,-11.316 3.945,-20.917 11.863,-28.835 7.922,-7.93 17.512,-11.856 28.836,-11.856 11.297,0 20.895,3.926 28.825,11.856 7.91,7.918 11.863,17.519 11.863,28.835 l 0,144.114 c 0,9.609 1.129,20.34 3.394,32.207 2.243,11.875 6.485,22.89 12.715,33.078 6.215,10.164 14.828,18.777 25.844,25.848 11.023,7.058 25.019,11.14 41.973,12.285 l 170.402,0 c 10.164,1.133 18.93,5.508 26.273,13.133 7.332,7.636 11.02,16.828 11.02,27.57 0,11.289 -3.953,20.898 -11.863,28.808 -7.93,7.918 -17.528,11.883 -28.825,11.883 l -583.2535,0" /><path
         id="path26"
         style="fill:#223368;fill-opacity:1;fill-rule:nonzero;stroke:none"
         d="m 3247.46,738.406 c 11.3,0 20.91,-3.965 28.82,-11.883 7.93,-7.91 11.88,-17.519 11.88,-28.808 0,-11.32 -3.95,-20.918 -11.88,-28.828 -7.91,-7.922 -17.52,-11.875 -28.82,-11.875 l -278.07,0 c 9.04,-15.821 15.84,-32.637 20.35,-50.43 4.55,-17.812 6.78,-35.48 6.78,-52.988 l 0,-144.114 c 0,-11.316 -3.93,-20.917 -11.86,-28.835 -7.93,-7.93 -17.5,-11.856 -28.83,-11.856 -11.3,0 -20.89,3.926 -28.82,11.856 -7.91,7.918 -11.86,17.519 -11.86,28.835 l 0,144.114 c 0,9.609 -1.13,20.34 -3.4,32.207 -2.26,11.875 -6.48,22.89 -12.71,33.078 -6.21,10.164 -14.83,18.777 -25.86,25.848 -11.04,7.058 -25,11.14 -41.97,12.285 l -170.39,0 c -10.18,1.133 -18.93,5.508 -26.27,13.133 -7.35,7.636 -11.04,16.828 -11.04,27.57 0,11.289 3.97,20.898 11.9,28.808 7.91,7.918 17.5,11.883 28.8,11.883 l 583.25,0" /><path
         id="path28"
         style="fill:#223368;fill-opacity:1;fill-rule:nonzero;stroke:none"
         d="m 1366.15,409.48 0,200.911 c 25.43,-20.352 49.59,-37.297 72.47,-50.86 22.89,-13.574 45.5,-24.453 67.82,-32.636 22.32,-8.204 44.65,-13.985 66.97,-17.383 22.33,-3.391 45.65,-5.086 69.94,-5.086 22.6,0 44.93,1.695 66.98,5.086 22.05,3.398 44.22,9.179 66.54,17.383 22.32,8.183 45.21,19.062 68.67,32.636 23.46,13.563 47.91,30.508 73.32,50.86 l 0,-200.911 c 0,-11.316 3.95,-20.917 11.88,-28.835 7.91,-7.93 17.52,-11.856 28.83,-11.856 11.28,0 20.89,3.926 28.82,11.856 7.91,7.918 11.88,17.519 11.88,28.835 l 0,288.235 c 0,11.289 -3.97,20.898 -11.88,28.808 -7.93,7.918 -17.54,11.883 -28.82,11.883 -9.61,0 -19.2,-3.965 -28.83,-11.883 -36.74,-32.207 -68.26,-57.355 -94.51,-75.429 -26.27,-18.117 -50.02,-31.66 -71.23,-40.703 -21.2,-9.043 -41.25,-14.551 -60.18,-16.524 -18.95,-1.992 -39.43,-2.969 -61.47,-2.969 -22.03,0 -42.67,1.122 -61.88,3.387 -19.21,2.258 -39.71,7.922 -61.47,16.945 -21.75,9.043 -45.78,22.598 -72.06,40.704 -26.27,18.086 -57.51,42.929 -93.67,74.589 -4.53,3.399 -9.04,6.219 -13.55,8.485 -4.53,2.258 -9.63,3.398 -15.27,3.398 -11.31,0 -20.9,-3.965 -28.81,-11.883 -7.93,-7.91 -11.88,-17.519 -11.88,-28.808 l 0,-288.235 c 0,-11.316 3.95,-20.917 11.88,-28.835 7.91,-7.93 17.5,-11.856 28.81,-11.856 11.31,0 20.91,3.926 28.82,11.856 7.92,7.918 11.88,17.519 11.88,28.835" /><path
         id="path30"
         style="fill:#5b90d2;fill-opacity:1;fill-rule:nonzero;stroke:none"
         d="m 366.406,121.289 c -2.019,24.258 -12.886,37.41 -30.824,37.41 -17.437,0 -28.555,-12.898 -32.098,-37.41 l 62.922,0 z m -63.422,-13.887 c 0.754,-29.0739 12.883,-44.7379 34.618,-44.7379 13.136,0 20.972,5.0507 27.793,18.2031 L 381.82,78.8398 C 374.492,58.1133 359.332,47.5 337.348,47.5 c -32.09,0 -52.559,24.0234 -52.559,61.66 0,38.914 20.215,64.434 51.551,64.434 29.562,0 48.515,-24.004 48.515,-61.145 0,-0.75 0,-2.781 -0.253,-5.047 l -81.618,0" /><path
         id="path32"
         style="fill:#5b90d2;fill-opacity:1;fill-rule:nonzero;stroke:none"
         d="m 452.555,170.32 c 1.765,-5.066 2.527,-9.859 2.527,-17.449 8.086,13.914 20.215,20.723 36.133,20.723 16.426,0 29.058,-7.317 34.367,-19.446 3.281,-7.832 3.789,-11.121 3.789,-34.871 l 0,-68.7418 -17.687,0 0,67.7348 c 0,18.183 -0.508,22.472 -3.286,28.3 -3.793,7.325 -10.863,11.368 -20.722,11.368 -10.863,0 -20.719,-5.567 -26.281,-14.911 -3.536,-6.328 -5.305,-14.16 -5.305,-25.527 l 0,-66.9648 -17.688,0 0,79.0938 c 0,28.562 0,29.57 -2.777,40.691 l 16.93,0" /><path
         id="path34"
         style="fill:#5b90d2;fill-opacity:1;fill-rule:nonzero;stroke:none"
         d="m 600.855,110.176 c 0,-29.0549 12.129,-47.2541 31.333,-47.2541 19.457,0 31.585,18.4453 31.585,47.5001 0,29.07 -12.128,47.769 -31.082,47.769 -19.707,0 -31.836,-18.203 -31.836,-48.015 z m 80.352,-24.258 c 0,-21.2227 0.508,-28.3008 2.273,-35.3828 l -17.429,0 c -1.266,4.8164 -1.774,8.3437 -1.774,12.9023 0,1.2578 0,2.2656 0.254,4.2773 C 655.941,53.3281 646.086,47.5 630.668,47.5 c -29.059,0 -48.008,24.2578 -48.008,61.914 0,38.164 18.949,64.18 47.004,64.18 15.664,0 25.516,-6.055 33.856,-20.215 l 0,66.457 17.687,0 0,-133.918" /><path
         id="path36"
         style="fill:#5b90d2;fill-opacity:1;fill-rule:nonzero;stroke:none"
         d="m 723.891,107.148 69.2383,0 0,13.8867 -69.2383,0 0,-13.8867 z" /><path
         id="path38"
         style="fill:#5b90d2;fill-opacity:1;fill-rule:nonzero;stroke:none"
         d="m 888.375,170.32 0,-14.414 -28.555,0 -1.265,-60.6326 0,-11.875 c 0,-8.3476 0.254,-11.3789 1.765,-14.4062 1.52,-3.543 5.817,-5.5547 11.629,-5.5547 5.301,0 11.875,1.5117 17.184,4.2773 l 0,-15.664 c -8.086,-3.0195 -13.903,-4.043 -21.227,-4.043 -11.875,0 -20.722,4.043 -24.765,11.3867 -2.278,4.043 -3.036,8.3203 -3.036,16.9219 0,2.2695 0,6.3125 0.254,10.0977 l 0.254,9.3672 1.516,60.1247 -17.941,0 0,14.414 18.449,0 0.758,34.621 17.179,0 -0.5,-34.621 28.301,0" /><path
         id="path40"
         style="fill:#5b90d2;fill-opacity:1;fill-rule:nonzero;stroke:none"
         d="m 950.016,111.191 c 0,-29.316 13.386,-48.5269 34.109,-48.5269 20.465,0 34.115,19.2109 34.115,48.0119 0,28.562 -13.65,47.769 -34.115,47.769 -20.215,0 -34.109,-19.207 -34.109,-47.254 z m 86.414,-0.769 c 0,-36.8868 -21.47,-62.922 -52.305,-62.922 -31.078,0 -52.305,25.7891 -52.305,63.945 0,36.133 21.731,62.149 52.305,62.149 30.835,0 52.305,-25.762 52.305,-63.172" /><path
         id="path42"
         style="fill:#5b90d2;fill-opacity:1;fill-rule:nonzero;stroke:none"
         d="m 1071.79,107.148 69.2305,0 0,13.8867 -69.2305,0 0,-13.8867 z" /><path
         id="path44"
         style="fill:#5b90d2;fill-opacity:1;fill-rule:nonzero;stroke:none"
         d="m 1258,121.289 c -2.02,24.258 -12.89,37.41 -30.83,37.41 -17.43,0 -28.55,-12.898 -32.09,-37.41 l 62.92,0 z m -63.42,-13.887 c 0.75,-29.0739 12.88,-44.7379 34.61,-44.7379 13.14,0 20.98,5.0507 27.8,18.2031 l 16.42,-2.0274 C 1266.08,58.1133 1250.92,47.5 1228.94,47.5 c -32.09,0 -52.56,24.0234 -52.56,61.66 0,38.914 20.22,64.434 51.55,64.434 29.57,0 48.52,-24.004 48.52,-61.145 0,-0.75 0,-2.781 -0.26,-5.047 l -81.61,0" /><path
         id="path46"
         style="fill:#5b90d2;fill-opacity:1;fill-rule:nonzero;stroke:none"
         d="m 1344.15,170.32 c 1.76,-5.066 2.52,-9.859 2.52,-17.449 8.09,13.914 20.22,20.723 36.14,20.723 16.42,0 29.06,-7.317 34.36,-19.446 3.28,-7.832 3.79,-11.121 3.79,-34.871 l 0,-68.7418 -17.68,0 0,67.7348 c 0,18.183 -0.51,22.472 -3.29,28.3 -3.79,7.325 -10.86,11.368 -20.72,11.368 -10.87,0 -20.72,-5.567 -26.28,-14.911 -3.54,-6.328 -5.31,-14.16 -5.31,-25.527 l 0,-66.9648 -17.68,0 0,79.0938 c 0,28.562 0,29.57 -2.78,40.691 l 16.93,0" /><path
         id="path48"
         style="fill:#5b90d2;fill-opacity:1;fill-rule:nonzero;stroke:none"
         d="m 1492.45,110.176 c 0,-29.0549 12.13,-47.2541 31.33,-47.2541 19.46,0 31.59,18.4453 31.59,47.5001 0,29.07 -12.13,47.769 -31.09,47.769 -19.7,0 -31.83,-18.203 -31.83,-48.015 z m 80.35,-24.258 c 0,-21.2227 0.51,-28.3008 2.27,-35.3828 l -17.43,0 c -1.26,4.8164 -1.77,8.3437 -1.77,12.9023 0,1.2578 0,2.2656 0.25,4.2773 C 1547.53,53.3281 1537.68,47.5 1522.26,47.5 c -29.06,0 -48.01,24.2578 -48.01,61.914 0,38.164 18.95,64.18 47,64.18 15.67,0 25.52,-6.055 33.86,-20.215 l 0,66.457 17.69,0 0,-133.918" /><path
         id="path50"
         style="fill:#5b90d2;fill-opacity:1;fill-rule:nonzero;stroke:none"
         d="m 1724.13,50.5352 19.4609,0 0,168.547 -19.4609,0 0,-168.547 z" /><path
         id="path52"
         style="fill:#5b90d2;fill-opacity:1;fill-rule:nonzero;stroke:none"
         d="m 1900.75,219.082 0,-16.418 -43.98,0 0,-152.1288 -18.94,0 0,152.1288 -43.72,0 0,16.418 106.64,0" /><path
         id="path54"
         style="fill:#5b90d2;fill-opacity:1;fill-rule:nonzero;stroke:none"
         d="m 2097.54,137.461 c -1.76,14.656 -9.6,21.484 -24.51,21.484 -13.64,0 -22.99,-7.324 -22.99,-17.949 0,-9.844 5.05,-13.633 27.8,-20.207 19.7,-5.809 27.04,-9.344 32.09,-15.164 4.55,-5.305 6.82,-12.3828 6.82,-20.7148 0,-22.9961 -16.68,-37.4102 -43.46,-37.4102 -29.06,0 -45.23,14.4141 -45.23,40.1953 l 17.18,0 c 1.51,-16.9414 10.61,-25.2851 27.79,-25.2851 15.68,0 25.53,8.3437 25.53,20.9882 0,6.5625 -2.53,10.8477 -8.09,14.1407 -4.04,2.5269 -5.56,3.0349 -26.28,9.6089 -23.25,7.071 -32.09,15.918 -32.09,32.598 0,20.203 16.67,33.848 41.19,33.848 25.51,0 40.17,-12.891 41.44,-36.133 l -17.19,0" /><path
         id="path56"
         style="fill:#5b90d2;fill-opacity:1;fill-rule:nonzero;stroke:none"
         d="m 2244.58,121.289 c -2.02,24.258 -12.89,37.41 -30.83,37.41 -17.43,0 -28.55,-12.898 -32.08,-37.41 l 62.91,0 z m -63.42,-13.887 c 0.76,-29.0739 12.89,-44.7379 34.62,-44.7379 13.14,0 20.97,5.0507 27.79,18.2031 L 2260,78.8398 C 2252.67,58.1133 2237.51,47.5 2215.52,47.5 c -32.09,0 -52.56,24.0234 -52.56,61.66 0,38.914 20.22,64.434 51.56,64.434 29.56,0 48.51,-24.004 48.51,-61.145 0,-0.75 0,-2.781 -0.25,-5.047 l -81.62,0" /><path
         id="path58"
         style="fill:#5b90d2;fill-opacity:1;fill-rule:nonzero;stroke:none"
         d="m 2386.07,131.406 c -3.29,19.453 -10.62,27.039 -26.04,27.039 -19.96,0 -32.09,-18.203 -32.09,-48.023 0,-29.8087 12.13,-47.7579 32.6,-47.7579 15.92,0 24.26,9.0937 26.28,29.0742 l 17.69,0 C 2402.24,62.9219 2386.82,47.5 2360.54,47.5 c -30.82,0 -50.79,24.7734 -50.79,62.676 0,38.906 19.72,63.418 50.79,63.418 25.28,0 40.43,-14.895 42.96,-42.188 l -17.43,0" /><path
         id="path60"
         style="fill:#5b90d2;fill-opacity:1;fill-rule:nonzero;stroke:none"
         d="m 2475.49,170.32 0,-73.2809 c 0,-13.3868 1.27,-19.961 4.55,-24.5118 4.05,-5.8164 11.38,-9.0898 19.96,-9.0898 10.62,0 19.21,5.0469 24.52,13.8867 3.53,6.0742 4.8,13.1367 4.8,25.0118 l 0,67.984 17.69,0 0,-83.3942 c 0,-26.0195 0,-27.5313 2.78,-36.3906 l -17.44,0 c -1.77,5.3046 -2.28,9.6093 -2.53,15.9179 C 2522.75,53.0742 2513.4,47.5 2497.98,47.5 c -15.66,0 -29.05,7.0781 -35.37,19.2109 -3.79,6.5782 -4.8,13.9024 -4.8,30.3282 l 0,73.2809 17.68,0" /><path
         id="path62"
         style="fill:#5b90d2;fill-opacity:1;fill-rule:nonzero;stroke:none"
         d="m 2623.03,170.32 c 1.53,-6.074 2.28,-12.382 2.28,-18.457 0,-1.504 0,-4.031 -0.26,-7.324 8.34,19.965 17.95,29.055 30.83,29.055 4.55,0 9.35,-1.258 14.41,-3.781 l 0,-17.696 c -8.09,3.789 -11.37,4.797 -15.92,4.797 -9.36,0 -17.69,-6.809 -23,-18.43 -3.79,-8.339 -5.3,-18.445 -5.3,-34.375 l 0,-53.5738 -17.94,0 0,78.5858 c 0,27.293 -0.25,29.578 -2.02,41.199 l 16.92,0" /><path
         id="path64"
         style="fill:#5b90d2;fill-opacity:1;fill-rule:nonzero;stroke:none"
         d="m 2733.2,170.32 0,-119.7848 -18.7,0 0,119.7848 18.7,0 z m 3.53,37.895 c 0,-7.317 -5.31,-12.641 -12.89,-12.641 -7.32,0 -12.88,5.324 -12.88,12.641 0,7.574 5.56,13.14 13.14,13.14 7.32,0 12.63,-5.566 12.63,-13.14" /><path
         id="path66"
         style="fill:#5b90d2;fill-opacity:1;fill-rule:nonzero;stroke:none"
         d="m 2847.14,170.32 0,-14.414 -28.55,0 -1.27,-60.6326 0,-11.875 c 0,-8.3476 0.25,-11.3789 1.78,-14.4062 1.51,-3.543 5.81,-5.5547 11.62,-5.5547 5.3,0 11.87,1.5117 17.18,4.2773 l 0,-15.664 c -8.09,-3.0195 -13.9,-4.043 -21.23,-4.043 -11.87,0 -20.72,4.043 -24.76,11.3867 -2.28,4.043 -3.03,8.3203 -3.03,16.9219 0,2.2695 0,6.3125 0.26,10.0977 l 0.24,9.3672 1.52,60.1247 -17.94,0 0,14.414 18.44,0 0.76,34.621 17.19,0 -0.51,-34.621 28.3,0" /><path
         id="path68"
         style="fill:#5b90d2;fill-opacity:1;fill-rule:nonzero;stroke:none"
         d="m 2902.22,170.32 32.6,-99.8239 33.6,99.8239 18.45,0 -39.42,-111.4411 C 2936.33,27.0391 2934.06,22.4883 2926.48,14.1602 2917.63,4.8125 2906.01,0 2891.61,0 c -1.02,0 -3.04,0 -5.56,0.253906 l 0,15.664094 c 22.73,-0.2539 29.31,5.3203 38.91,33.3672 l -41.69,121.0348 18.95,0" /></g></g></svg>