<?xml version="1.0" encoding="UTF-8" standalone="no"?>
<!-- Created with Inkscape (http://www.inkscape.org/) -->

<svg
   xmlns:dc="http://purl.org/dc/elements/1.1/"
   xmlns:cc="http://creativecommons.org/ns#"
   xmlns:rdf="http://www.w3.org/1999/02/22-rdf-syntax-ns#"
   xmlns:svg="http://www.w3.org/2000/svg"
   xmlns="http://www.w3.org/2000/svg"
   xmlns:sodipodi="http://sodipodi.sourceforge.net/DTD/sodipodi-0.dtd"
   xmlns:inkscape="http://www.inkscape.org/namespaces/inkscape"
   id="svg2"
   version="1.1"
   inkscape:version="0.91 r13725"
   xml:space="preserve"
   width="213.33749"
   height="216.3625"
   viewBox="0 0 213.33749 216.3625"
   sodipodi:docname="terreactive_logo.svg"><metadata
     id="metadata8"><rdf:RDF><cc:Work
         rdf:about=""><dc:format>image/svg+xml</dc:format><dc:type
           rdf:resource="http://purl.org/dc/dcmitype/StillImage" /><dc:title></dc:title></cc:Work></rdf:RDF></metadata><defs
     id="defs6" /><sodipodi:namedview
     pagecolor="#ffffff"
     bordercolor="#666666"
     borderopacity="1"
     objecttolerance="10"
     gridtolerance="10"
     guidetolerance="10"
     inkscape:pageopacity="0"
     inkscape:pageshadow="2"
     inkscape:window-width="640"
     inkscape:window-height="480"
     id="namedview4"
     showgrid="false"
     inkscape:zoom="1.090762"
     inkscape:cx="106.66875"
     inkscape:cy="108.18125"
     inkscape:window-x="3845"
     inkscape:window-y="182"
     inkscape:window-maximized="0"
     inkscape:current-layer="g10" /><g
     id="g10"
     inkscape:groupmode="layer"
     inkscape:label="ink_ext_XXXXXX"
     transform="matrix(1.25,0,0,-1.25,0,216.3625)"><g
       id="g12"
       transform="scale(0.1,0.1)"><path
         d="m 0,1730.92 1706.65,0 L 1706.65,0 0,0 0,1730.92"
         style="fill:#184286;fill-opacity:1;fill-rule:nonzero;stroke:none"
         id="path14"
         inkscape:connector-curvature="0" /><path
         d="m 471.816,921.77 17.442,0 0,69.761 c 0,25.469 7.476,56.469 35.152,56.469 4.434,0 9.137,-0.55 12.735,-1.66 l 0,18.27 c -3.043,0.83 -8.028,1.66 -12.18,1.66 -17.992,0 -29.899,-14.67 -36.266,-30.45 l -0.551,0 0,27.13 -17.441,0 c 1.109,-10.24 1.109,-16.06 1.109,-31.56 l 0,-109.62"
         style="fill:#ffffff;fill-opacity:1;fill-rule:nonzero;stroke:none"
         id="path16"
         inkscape:connector-curvature="0" /><path
         d="m 576.965,1002.33 c 0,23.25 15.777,48.99 41.527,48.99 26.024,0 35.985,-24.36 35.985,-48.99 l -77.512,0 0,0 z m 86.094,-58.412 c -8.309,-5.258 -26.852,-10.52 -39.586,-10.52 -30.453,0 -46.508,24.082 -46.508,53.981 l 96.613,0 0,8.851 c 0,37.93 -16.336,70.04 -56.195,70.04 -35.711,0 -59.516,-30.73 -59.516,-73.911 0,-42.351 17.442,-73.906 64.219,-73.906 13.012,0 28.789,2.766 40.973,7.75 l 0,17.715"
         style="fill:#ffffff;fill-opacity:1;fill-rule:nonzero;stroke:none"
         id="path18"
         inkscape:connector-curvature="0" /><path
         d="m 1054.77,1031.11 26.58,0 -8.59,-40.411 c -3.32,-15.222 -4.43,-22.422 -4.43,-29.617 0,-30.176 20.21,-42.629 45.68,-42.629 9.97,0 20.49,1.106 31.01,2.766 l 5.53,32.937 c -5.26,-1.933 -10.79,-4.148 -16.05,-4.148 -9.97,0 -16.34,6.367 -16.34,16.055 0,6.917 1.95,14.121 4.15,24.91 l 8.59,40.137 36.27,0 6.09,34.89 -34.32,0 9.95,45.11 -52.6,-14.11 -6.92,-31 -28.51,0 -6.09,-34.89 0,0"
         style="fill:#ffffff;fill-opacity:1;fill-rule:nonzero;stroke:none"
         id="path20"
         inkscape:connector-curvature="0" /><path
         d="m 1487.86,1007.59 c 3.6,13.84 15.24,28.51 36.82,28.51 18.27,0 24.36,-13.01 24.36,-28.51 l -61.18,0 0,0 z m 80.84,-45.957 c -13.85,-6.645 -31.83,-9.965 -45.13,-9.965 -30.44,0 -38.19,12.176 -38.76,27.684 l 102.16,0 c 1.94,8.574 3.6,21.308 3.6,27.128 0,43.74 -28.52,62.84 -66.44,62.84 -64.22,0 -86.37,-51.49 -86.37,-84.988 0,-36.266 26.02,-65.879 74.19,-65.879 14.4,0 32.94,2.766 50.38,8.024 l 6.37,35.156 0,0"
         style="fill:#ffffff;fill-opacity:1;fill-rule:nonzero;stroke:none"
         id="path22"
         inkscape:connector-curvature="0" /><path
         d="m 552.355,266.25 c -1.386,-13.012 -3.601,-25.191 -6.093,-37.648 l -22.422,-106.571 49.832,0 14.117,66.43 c 3.594,21.309 16.055,39.59 37.094,39.59 9.41,0 16.605,-1.11 22.972,-6.09 l 11.348,44 c -6.64,2.769 -14.39,3.609 -21.035,3.609 -20.488,0 -36.543,-16.05 -44.57,-32.949 l -0.555,0 5.543,29.629 -46.231,0 0,0"
         style="fill:#ffffff;fill-opacity:1;fill-rule:nonzero;stroke:none"
         id="path24"
         inkscape:connector-curvature="0" /><path
         d="m 708.559,207.828 c 3.593,13.852 15.226,28.524 36.812,28.524 18.274,0 24.363,-13.012 24.363,-28.524 l -61.175,0 0,0 z m 80.828,-45.949 c -13.84,-6.641 -31.832,-9.957 -45.125,-9.957 -30.446,0 -38.199,12.18 -38.75,27.687 l 102.144,0 c 1.938,8.582 3.606,21.313 3.606,27.11 0,43.75 -28.52,62.851 -66.438,62.851 -64.226,0 -86.371,-51.48 -86.371,-84.98 0,-36.27 26.024,-65.879 74.188,-65.879 14.394,0 32.941,2.758 50.382,8.008 l 6.364,35.16 0,0"
         style="fill:#ffffff;fill-opacity:1;fill-rule:nonzero;stroke:none"
         id="path26"
         inkscape:connector-curvature="0" /><path
         d="m 1227.63,263.211 -32.12,0 0,40.129 -17.43,-6.09 0,-34.039 -27.69,0 0,-14.949 27.69,0 0,-82.5 c 0,-25.742 1.1,-47.051 32.11,-47.051 8.58,0 17.16,2.211 21.3,3.867 l -1.09,14.391 c -4.99,-1.93 -9.42,-3.321 -16.06,-3.321 -14.12,0 -18.83,10.512 -18.83,23.274 l 0,91.34 32.12,0 0,14.949"
         style="fill:#ffffff;fill-opacity:1;fill-rule:nonzero;stroke:none"
         id="path28"
         inkscape:connector-curvature="0" /><path
         d="m 1480.92,202.578 c 0,23.262 15.78,48.981 41.52,48.981 26.03,0 35.99,-24.348 35.99,-48.981 l -77.51,0 0,0 z m 86.09,-58.418 c -8.31,-5.25 -26.85,-10.512 -39.58,-10.512 -30.46,0 -46.51,24.09 -46.51,53.993 l 96.61,0 0,8.847 c 0,37.934 -16.33,70.043 -56.2,70.043 -35.7,0 -59.5,-30.73 -59.5,-73.91 0,-42.359 17.43,-73.91 64.21,-73.91 13.01,0 28.79,2.758 40.97,7.738 l 0,17.711"
         style="fill:#ffffff;fill-opacity:1;fill-rule:nonzero;stroke:none"
         id="path30"
         inkscape:connector-curvature="0" /><path
         d="m 180.805,1062.95 -32.11,0 0,40.14 -17.441,-6.09 0,-34.05 -27.68,0 0,-14.95 27.68,0 0,-82.496 c 0,-25.742 1.109,-47.051 32.109,-47.051 8.586,0 17.164,2.211 21.321,3.871 l -1.11,14.399 c -4.984,-1.942 -9.414,-3.325 -16.058,-3.325 -14.114,0 -18.821,10.52 -18.821,23.254 l 0,91.348 32.11,0 0,14.95"
         style="fill:#ffffff;fill-opacity:1;fill-rule:nonzero;stroke:none"
         id="path32"
         inkscape:connector-curvature="0" /><path
         d="m 185.316,655.309 1.11,20.589 c -5.074,-1.949 -9.871,-3.609 -16.055,-3.609 -12.734,0 -17.992,9.141 -17.992,20.859 0,2.301 4.242,82.579 4.242,82.579 l 33.496,0 2.031,21.597 -32.851,0 3.324,41.797 -29.16,-8.766 -2.309,-33.031 -27.953,0 -2.031,-21.597 27.309,0 c 0,0 -4.336,-75.938 -4.336,-78.348 0,-27.199 7.476,-45.559 36.629,-45.559 9.05,0 18.273,1.828 24.546,3.489 l 0,0"
         style="fill:#ffffff;fill-opacity:1;fill-rule:nonzero;stroke:none"
         id="path34"
         inkscape:connector-curvature="0" /><path
         d="m 184.426,388.32 3.324,26.758 c -5.172,-1.93 -10.34,-3.887 -16.062,-3.887 -11.344,0 -17.161,7.758 -17.161,18.457 0,4.614 8.493,73.832 8.493,73.832 l 34.878,0 4.059,28.219 -33.582,0 6.641,43.481 -40.879,-11.45 -4.617,-32.031 -28.231,0 -4.0624,-28.219 26.9454,0 c 0,0 -8.68,-69.402 -8.68,-74.199 0,-28.691 13.844,-44.101 41.156,-44.101 9.508,0 19.383,1.48 27.778,3.14 l 0,0"
         style="fill:#ffffff;fill-opacity:1;fill-rule:nonzero;stroke:none"
         id="path36"
         inkscape:connector-curvature="0" /><path
         d="m 95.4336,231.371 26.5744,0 c 0,0 -13.016,-62.832 -13.016,-70.043 0,-30.18 20.211,-42.617 45.68,-42.617 9.969,0 20.488,1.098 31.004,2.758 l 5.535,32.953 c -5.258,-1.942 -10.797,-4.16 -16.051,-4.16 -9.969,0 -16.336,6.359 -16.336,16.047 0,6.91 12.735,65.062 12.735,65.062 l 36.261,0 6.094,34.879 -34.328,0 9.965,45.121 -52.598,-14.121 -6.918,-31 -28.512,0 -6.0894,-34.879 0,0"
         style="fill:#ffffff;fill-opacity:1;fill-rule:nonzero;stroke:none"
         id="path38"
         inkscape:connector-curvature="0" /><path
         d="m 316.094,944.074 0,-17.719 c -12.18,-4.988 -27.957,-7.75 -40.973,-7.75 -46.781,0 -64.219,31.559 -64.219,73.907 0,43.188 23.805,73.908 59.512,73.908 39.867,0 56.195,-32.11 56.195,-70.029 l 0,-8.856 -96.609,0 c 0,-29.902 16.055,-53.984 46.508,-53.984 12.734,0 31.281,5.265 39.586,10.523 l 0,0 z M 230,1002.48 l 77.512,0 c 0,24.64 -9.969,49 -35.989,49 -25.742,0 -41.523,-25.75 -41.523,-49 l 0,0"
         style="fill:#ffffff;fill-opacity:1;fill-rule:nonzero;stroke:none"
         id="path40"
         inkscape:connector-curvature="0" /><path
         d="m 328.539,683.191 -2.121,-23.543 c -13.934,-5.078 -30.633,-7.828 -44.109,-7.828 -47.243,0 -67.539,30.899 -67.539,71.231 0,39.961 23.25,77.597 68.46,77.597 39.215,0 59.614,-27.777 59.614,-67.636 0,-1.938 -0.555,-12.09 -1.199,-14.942 l -98.457,0 c 0.187,-25.101 13.472,-45.218 43.921,-45.218 12.918,0 31.282,4.609 41.43,10.339 l 0,0 z m -12.269,54.25 c 0,21.582 -8.676,42.168 -32.114,42.168 -24.359,0 -38.758,-22.046 -39.953,-42.168 l 72.067,0 0,0"
         style="fill:#ffffff;fill-opacity:1;fill-rule:nonzero;stroke:none"
         id="path42"
         inkscape:connector-curvature="0" /><path
         d="m 339.766,422.91 -4.246,-29.332 c -15.684,-5.18 -33.309,-7.93 -47.25,-7.93 -47.7,0 -70.86,30.25 -70.86,68.551 0,36.723 22.695,81.289 77.418,81.289 38.57,0 63.02,-23.437 63.02,-65.226 0,-3.891 -1.106,-15.34 -2.399,-21.043 l -100.304,0 c 0.375,-20.309 10.894,-36.438 41.339,-36.438 13.106,0 31.286,3.957 43.282,10.129 l 0,0 z m -15.965,50.121 c 0,18.528 -7.387,35.328 -28.235,35.328 -22.976,0 -35.992,-18.359 -38.386,-35.328 l 66.621,0 0,0"
         style="fill:#ffffff;fill-opacity:1;fill-rule:nonzero;stroke:none"
         id="path44"
         inkscape:connector-curvature="0" /><path
         d="m 353.285,161.879 -6.367,-35.16 c -17.441,-5.25 -35.984,-8.008 -50.387,-8.008 -48.164,0 -74.183,29.609 -74.183,65.879 0,33.5 22.148,84.98 86.367,84.98 37.926,0 66.441,-19.101 66.441,-62.851 0,-5.797 -1.664,-18.528 -3.601,-27.11 l -102.145,0 c 0.551,-15.507 8.305,-27.687 38.75,-27.687 13.289,0 31.281,3.316 45.125,9.957 l 0,0 z m -80.836,45.949 61.184,0 c 0,15.512 -6.094,28.524 -24.363,28.524 -21.594,0 -33.219,-14.672 -36.821,-28.524 l 0,0"
         style="fill:#ffffff;fill-opacity:1;fill-rule:nonzero;stroke:none"
         id="path46"
         inkscape:connector-curvature="0" /><path
         d="m 369.379,921.77 17.441,0 0,69.761 c 0,25.469 7.477,56.469 35.157,56.469 4.433,0 9.14,-0.55 12.734,-1.66 l 0,18.27 c -3.047,0.83 -8.027,1.66 -12.184,1.66 -17.992,0 -29.89,-14.67 -36.257,-30.45 l -0.551,0 0,27.13 -17.442,0 c 1.102,-10.24 1.102,-16.06 1.102,-31.56 l 0,-109.62"
         style="fill:#ffffff;fill-opacity:1;fill-rule:nonzero;stroke:none"
         id="path48"
         inkscape:connector-curvature="0" /><path
         d="m 405.863,655.141 4.703,68.648 c 1.204,24.082 10.34,50.844 35.805,50.844 6.09,0 11.625,-0.742 16.149,-3.149 l 3.785,26.86 c -4.242,1.465 -10.153,2.304 -15.137,2.304 -18.82,0 -32.109,-15.136 -39.027,-31.293 l -0.559,0 1.848,27.969 -27.039,0 c 0.281,-11.172 -0.457,-19.097 -1.289,-33.594 l -7.473,-108.589 28.234,0 0,0"
         style="fill:#ffffff;fill-opacity:1;fill-rule:nonzero;stroke:none"
         id="path50"
         inkscape:connector-curvature="0" /><path
         d="m 423.375,388.969 9.402,67.543 c 2.403,22.687 13.2,45.207 36.453,45.207 7.75,0 14.122,-0.918 19.563,-4.61 l 7.562,35.43 c -5.441,2.133 -12.269,2.949 -18.078,2.949 -19.66,0 -34.328,-15.59 -41.8,-32.109 l -0.555,0 3.691,28.793 -36.633,0 c -0.554,-12.094 -2.035,-22.152 -3.695,-35.633 l -14.945,-107.57 39.035,0 0,0"
         style="fill:#ffffff;fill-opacity:1;fill-rule:nonzero;stroke:none"
         id="path52"
         inkscape:connector-curvature="0" /><path
         d="m 419.719,266.25 c -1.383,-13.012 -3.602,-25.191 -6.098,-37.648 l -22.414,-106.571 49.824,0 14.114,66.43 c 3.605,21.309 16.062,39.59 37.101,39.59 9.414,0 16.606,-1.11 22.973,-6.09 l 11.351,44 c -6.644,2.769 -14.398,3.609 -21.039,3.609 -20.48,0 -36.543,-16.05 -44.57,-32.949 l -0.551,0 5.531,29.629 -46.222,0 0,0"
         style="fill:#ffffff;fill-opacity:1;fill-rule:nonzero;stroke:none"
         id="path54"
         inkscape:connector-curvature="0" /><path
         d="m 684.965,921.77 114.883,193.22 64.769,0 31.567,-193.22 -52.039,0 -5.262,41.246 -75.02,0 -22.972,-41.246 -55.926,0 0,0 z m 148.93,77.789 -8.297,75.571 -41.528,-75.571 49.825,0 0,0"
         style="fill:#ffffff;fill-opacity:1;fill-rule:nonzero;stroke:none"
         id="path56"
         inkscape:connector-curvature="0" /><path
         d="m 934.148,655.141 -41.335,0 -10.43,44.738 -82.485,0 -22.242,-44.738 -43.461,0 102.977,193.203 50.387,0 46.589,-193.203 0,0 z m -57.207,74.648 -19.168,85.137 -39.753,-80.981 1.226,-4.156 57.695,0 0,0"
         style="fill:#ffffff;fill-opacity:1;fill-rule:nonzero;stroke:none"
         id="path58"
         inkscape:connector-curvature="0" /><path
         d="m 972.117,388.5 -30.633,0 -15.593,48.262 -89.969,0 -21.492,-48.262 -31.008,0 91.082,193.219 35.984,0 61.629,-193.219 0,0 z m -52.129,71.52 -30.047,94.71 -0.781,1.52 -40.57,-94.16 5.836,-2.07 65.562,0 0,0"
         style="fill:#ffffff;fill-opacity:1;fill-rule:nonzero;stroke:none"
         id="path60"
         inkscape:connector-curvature="0" /><path
         d="m 832.645,122.031 79.171,193.207 21.59,0 76.684,-193.207 -19.934,0 -20.769,51.758 -97.434,0 -20.762,-51.758 -18.546,0 0,0 z m 130.382,68.36 -41.804,106.578 -42.075,-106.578 83.879,0 0,0"
         style="fill:#ffffff;fill-opacity:1;fill-rule:nonzero;stroke:none"
         id="path62"
         inkscape:connector-curvature="0" /><path
         d="m 1027.56,961.359 c -10.79,-4.433 -19.66,-6.371 -32.111,-6.371 -21.035,0 -34.328,14.121 -34.328,31.285 0,29.887 18.274,46.497 44.019,46.497 11.07,0 21.87,-3.04 32.12,-7.74 l 10.79,34.6 c -14.68,6.08 -33.23,9.69 -45.4,9.69 -55.365,0 -93.021,-37.65 -93.021,-84.988 0,-36.266 26.023,-65.879 68.105,-65.879 19.375,0 32.666,2.211 42.626,5.531 l 7.2,37.375 0,0"
         style="fill:#ffffff;fill-opacity:1;fill-rule:nonzero;stroke:none"
         id="path64"
         inkscape:connector-curvature="0" /><path
         d="m 1060.19,688.129 c -10.72,-4.238 -20.03,-6.367 -32.04,-6.367 -24.63,0 -39.959,18.359 -39.959,40.508 0,31.367 18.559,50.664 47.069,50.664 10.52,0 21.51,-3.047 31.47,-7.579 l 7.65,28.614 c -11.44,4.605 -27.86,8.301 -41.62,8.301 -50.834,0 -85.248,-35.239 -85.248,-81.29 0,-37.289 24.722,-68.558 67.908,-68.558 17.34,0 29.89,1.758 40.51,5.359 l 4.26,30.348 0,0"
         style="fill:#ffffff;fill-opacity:1;fill-rule:nonzero;stroke:none"
         id="path66"
         inkscape:connector-curvature="0" /><path
         d="m 1092.79,414.898 c -10.61,-4.039 -20.39,-6.339 -31.92,-6.339 -28.23,0 -45.59,22.589 -45.59,49.722 0,32.848 18.83,54.809 50.11,54.809 9.96,0 21.12,-3.051 30.82,-7.371 l 4.52,22.601 c -8.21,3.129 -22.51,6.918 -37.83,6.918 -46.33,0 -77.517,-32.859 -77.517,-77.597 0,-38.282 23.437,-71.231 67.737,-71.231 15.32,0 27.12,1.289 38.38,5.149 l 1.29,23.339 0,0"
         style="fill:#ffffff;fill-opacity:1;fill-rule:nonzero;stroke:none"
         id="path68"
         inkscape:connector-curvature="0" /><path
         d="m 1127.07,262.68 c -4.98,1.66 -17.16,5.531 -34.05,5.531 -41.8,0 -69.76,-30.449 -69.76,-73.91 0,-39.321 22.15,-73.91 67.55,-73.91 13.28,0 24.36,0.82 36.26,4.98 l -1.66,16.328 c -10.52,-3.871 -20.76,-6.371 -31.84,-6.371 -31.82,0 -51.2,26.863 -51.2,58.973 0,34.32 19.09,58.961 53.15,58.961 9.4,0 20.75,-3.043 30.16,-7.203 l 1.39,16.621 0,0"
         style="fill:#ffffff;fill-opacity:1;fill-rule:nonzero;stroke:none"
         id="path70"
         inkscape:connector-curvature="0" /><path
         d="m 1450.9,1066 -53.7,0 -50.67,-102.703 -0.54,0 -9.96,102.703 -50.11,0 23.52,-144.23 56.75,0 84.71,144.23 0,0"
         style="fill:#ffffff;fill-opacity:1;fill-rule:nonzero;stroke:none"
         id="path72"
         inkscape:connector-curvature="0" /><path
         d="m 1338.08,798.344 -39.77,0 31.64,-143.203 44.67,0 72.99,143.203 -41.9,0 -47.43,-109.164 -0.55,0 -19.65,109.164 0,0"
         style="fill:#ffffff;fill-opacity:1;fill-rule:nonzero;stroke:none"
         id="path74"
         inkscape:connector-curvature="0" /><path
         d="m 1340.74,530.711 -29.43,0 39.76,-142.211 32.57,0 61.28,142.211 -30.08,0 -44.2,-115.633 -0.56,0 -29.34,115.633 0,0"
         style="fill:#ffffff;fill-opacity:1;fill-rule:nonzero;stroke:none"
         id="path76"
         inkscape:connector-curvature="0" /><path
         d="m 1439.64,263.211 -18.27,0 -40.98,-122.082 -0.56,0 -39.02,122.082 -19.1,0 47.89,-141.18 20.49,0 49.55,141.18 0,0"
         style="fill:#ffffff;fill-opacity:1;fill-rule:nonzero;stroke:none"
         id="path78"
         inkscape:connector-curvature="0" /><path
         d="m 1268.54,795.141 -39.4,0 -19.93,-143.2 39.4,0 19.93,143.2 0,0 z m 3.33,28.218 5.16,32.129 -39.4,0 -5.17,-32.129 39.41,0 0,0"
         style="fill:#ffffff;fill-opacity:1;fill-rule:nonzero;stroke:none"
         id="path80"
         inkscape:connector-curvature="0" /><path
         d="m 1178.09,916.047 50.38,0 29.89,144.223 -50.37,0 -29.9,-144.223 0,0 z m 34.87,167.753 50.39,0 7.75,36.54 -50.39,0 -7.75,-36.54 0,0"
         style="fill:#ffffff;fill-opacity:1;fill-rule:nonzero;stroke:none"
         id="path82"
         inkscape:connector-curvature="0" /><path
         d="m 1277.8,528.789 -28.42,0 -9.97,-142.211 28.42,0 9.97,142.211 0,0 z m 1.66,32.93 2.58,27.679 -28.42,0 -2.58,-27.679 28.42,0 0,0"
         style="fill:#ffffff;fill-opacity:1;fill-rule:nonzero;stroke:none"
         id="path84"
         inkscape:connector-curvature="0" /><path
         d="m 1269.31,122.031 17.45,0 0,141.18 -17.45,0 0,-141.18 z m 17.45,202.071 -17.45,0 0,-23.262 17.45,0 0,23.262"
         style="fill:#ffffff;fill-opacity:1;fill-rule:nonzero;stroke:none"
         id="path86"
         inkscape:connector-curvature="0" /><path
         d="m 509.934,655.141 4.707,68.648 c 1.199,24.082 10.336,50.844 35.797,50.844 6.089,0 11.632,-0.742 16.156,-3.149 l 3.777,26.86 c -4.25,1.465 -10.152,2.304 -15.137,2.304 -18.816,0 -32.109,-15.136 -39.027,-31.293 l -0.555,0 1.844,27.969 -27.031,0 C 490.738,786.152 490,778.227 489.172,763.73 l -7.477,-108.589 28.239,0 0,0"
         style="fill:#ffffff;fill-opacity:1;fill-rule:nonzero;stroke:none"
         id="path88"
         inkscape:connector-curvature="0" /><path
         d="m 543.035,388.5 9.414,67.539 c 2.399,22.691 13.196,45.211 36.446,45.211 7.753,0 14.125,-0.922 19.566,-4.609 l 7.57,35.449 c -5.445,2.109 -12.277,2.93 -18.093,2.93 -19.653,0 -34.325,-15.579 -41.793,-32.11 l -0.559,0 3.691,28.789 -36.632,0 c -0.551,-12.07 -2.032,-22.148 -3.692,-35.597 L 504.008,388.5 l 39.027,0 0,0"
         style="fill:#ffffff;fill-opacity:1;fill-rule:nonzero;stroke:none"
         id="path90"
         inkscape:connector-curvature="0" /><path
         d="m 742.703,422.461 -4.242,-29.352 c -15.684,-5.16 -33.305,-7.929 -47.246,-7.929 -47.703,0 -70.863,30.269 -70.863,68.55 0,36.739 22.699,81.29 77.418,81.29 38.57,0 63.023,-23.442 63.023,-65.231 0,-3.867 -1.109,-15.32 -2.398,-21.039 l -100.305,0 c 0.371,-20.289 10.89,-36.441 41.34,-36.441 13.105,0 31.285,3.961 43.273,10.152 l 0,0 z m -15.961,50.098 c 0,18.562 -7.383,35.351 -28.234,35.351 -22.981,0 -35.988,-18.379 -38.387,-35.351 l 66.621,0 0,0"
         style="fill:#ffffff;fill-opacity:1;fill-rule:nonzero;stroke:none"
         id="path92"
         inkscape:connector-curvature="0" /><path
         d="m 697.5,683.191 -2.117,-23.543 c -13.938,-5.078 -30.641,-7.828 -44.113,-7.828 -47.243,0 -67.543,30.899 -67.543,71.231 0,39.961 23.25,77.597 68.468,77.597 39.215,0 59.614,-27.777 59.614,-67.636 0,-1.938 -0.559,-12.09 -1.204,-14.942 l -98.457,0 c 0.188,-25.101 13.465,-45.218 43.922,-45.218 12.918,0 31.278,4.609 41.43,10.339 l 0,0 z m -12.27,54.25 c 0,21.582 -8.671,42.168 -32.117,42.168 -24.359,0 -38.754,-22.046 -39.949,-42.168 l 72.066,0 0,0"
         style="fill:#ffffff;fill-opacity:1;fill-rule:nonzero;stroke:none"
         id="path94"
         inkscape:connector-curvature="0" /><path
         d="m 1568.33,416.512 -2.12,-23.543 c -13.93,-5.078 -30.63,-7.828 -44.11,-7.828 -47.25,0 -67.54,30.898 -67.54,71.23 0,39.957 23.24,77.598 68.46,77.598 39.23,0 59.62,-27.778 59.62,-67.641 0,-1.93 -0.55,-12.09 -1.19,-14.937 l -98.47,0 c 0.18,-25.102 13.48,-45.219 43.92,-45.219 12.92,0 31.28,4.609 41.43,10.34 l 0,0 z m -12.27,54.25 c 0,21.59 -8.67,42.168 -32.1,42.168 -24.38,0 -38.76,-22.051 -39.97,-42.168 l 72.07,0 0,0"
         style="fill:#ffffff;fill-opacity:1;fill-rule:nonzero;stroke:none"
         id="path96"
         inkscape:connector-curvature="0" /><path
         d="m 1564.09,688.5 -4.25,-29.359 c -15.68,-5.153 -33.31,-7.93 -47.24,-7.93 -47.7,0 -70.86,30.258 -70.86,68.559 0,36.714 22.69,81.289 77.41,81.289 38.56,0 63.04,-23.442 63.04,-65.239 0,-3.867 -1.12,-15.308 -2.4,-21.031 l -100.31,0 c 0.36,-20.32 10.89,-36.449 41.33,-36.449 13.12,0 31.28,3.969 43.28,10.16 l 0,0 z m -15.96,50.098 c 0,18.535 -7.39,35.332 -28.24,35.332 -22.98,0 -35.98,-18.364 -38.38,-35.332 l 66.62,0 0,0"
         style="fill:#ffffff;fill-opacity:1;fill-rule:nonzero;stroke:none"
         id="path98"
         inkscape:connector-curvature="0" /><path
         d="m 1206.95,388.031 1.11,20.571 C 1202.99,406.66 1198.18,405 1192,405 c -12.74,0 -17.99,9.141 -17.99,20.859 0,2.313 4.24,82.582 4.24,82.582 l 33.5,0 2.03,21.598 -32.84,0 3.31,41.801 -29.15,-8.77 -2.32,-33.031 -27.96,0 -2.02,-21.598 27.31,0 c 0,0 -4.34,-75.941 -4.34,-78.339 0,-27.231 7.47,-45.59 36.63,-45.59 9.05,0 18.27,1.859 24.55,3.519 l 0,0"
         style="fill:#ffffff;fill-opacity:1;fill-rule:nonzero;stroke:none"
         id="path100"
         inkscape:connector-curvature="0" /><path
         d="m 1179.76,654.359 3.32,26.743 c -5.17,-1.942 -10.34,-3.872 -16.06,-3.872 -11.35,0 -17.16,7.75 -17.16,18.461 0,4.598 8.49,73.825 8.49,73.825 l 34.88,0 4.06,28.218 -33.59,0 6.64,43.481 -40.88,-11.445 -4.61,-32.036 -28.24,0 -4.06,-28.218 26.95,0 c 0,0 -8.67,-69.395 -8.67,-74.207 0,-28.688 13.84,-44.098 41.16,-44.098 9.5,0 19.36,1.488 27.77,3.148 l 0,0"
         style="fill:#ffffff;fill-opacity:1;fill-rule:nonzero;stroke:none"
         id="path102"
         inkscape:connector-curvature="0" /></g></g></svg>