<?xml version="1.0" encoding="UTF-8" standalone="no"?>
<!-- Created with Inkscape (http://www.inkscape.org/) -->

<svg
   xmlns:dc="http://purl.org/dc/elements/1.1/"
   xmlns:cc="http://creativecommons.org/ns#"
   xmlns:rdf="http://www.w3.org/1999/02/22-rdf-syntax-ns#"
   xmlns:svg="http://www.w3.org/2000/svg"
   xmlns="http://www.w3.org/2000/svg"
   xmlns:xlink="http://www.w3.org/1999/xlink"
   xmlns:sodipodi="http://sodipodi.sourceforge.net/DTD/sodipodi-0.dtd"
   xmlns:inkscape="http://www.inkscape.org/namespaces/inkscape"
   version="1.0"
   width="244.15208"
   height="110.20715"
   viewBox="0 0 325.16175 81.590021"
   id="svg2"
   xml:space="preserve"
   inkscape:version="0.91 r13725"
   sodipodi:docname="Trend-Micro-Logo.svg"><metadata
     id="metadata36"><rdf:RDF><cc:Work
         rdf:about=""><dc:format>image/svg+xml</dc:format><dc:type
           rdf:resource="http://purl.org/dc/dcmitype/StillImage" /><dc:title></dc:title></cc:Work></rdf:RDF></metadata><sodipodi:namedview
     pagecolor="#ffffff"
     bordercolor="#666666"
     borderopacity="1"
     objecttolerance="10"
     gridtolerance="10"
     guidetolerance="10"
     inkscape:pageopacity="0"
     inkscape:pageshadow="2"
     inkscape:window-width="1920"
     inkscape:window-height="1123"
     id="namedview34"
     showgrid="false"
     fit-margin-top="0"
     fit-margin-left="0"
     fit-margin-right="0"
     fit-margin-bottom="0"
     inkscape:zoom="1.47"
     inkscape:cx="89.152104"
     inkscape:cy="55.274743"
     inkscape:window-x="2151"
     inkscape:window-y="-9"
     inkscape:window-maximized="1"
     inkscape:current-layer="svg2" /><defs
     id="defs509"><linearGradient
       id="linearGradient3852"><stop
         id="stop3854"
         style="stop-color: rgb(0, 0, 0); stop-opacity: 0.773196;"
         offset="0" /><stop
         id="stop3856"
         style="stop-color: rgb(0, 0, 0); stop-opacity: 0;"
         offset="1" /></linearGradient><linearGradient
       id="linearGradient3255"><stop
         id="stop3257"
         style="stop-color: rgb(255, 255, 255); stop-opacity: 1;"
         offset="0" /><stop
         id="stop3259"
         style="stop-color: rgb(255, 255, 255); stop-opacity: 0;"
         offset="1" /></linearGradient><linearGradient
       id="linearGradient3200"><stop
         id="stop3202"
         style="stop-color: rgb(232, 0, 0); stop-opacity: 1;"
         offset="0" /><stop
         id="stop3204"
         style="stop-color: rgb(255, 123, 123); stop-opacity: 1;"
         offset="1" /></linearGradient><linearGradient
       x1="40.518616"
       y1="-16.269829"
       x2="40.518616"
       y2="105.10982"
       id="linearGradient3206"
       xlink:href="#linearGradient3200"
       gradientUnits="userSpaceOnUse"
       gradientTransform="translate(-37.855014,-9.89563)" /><linearGradient
       x1="59.192127"
       y1="-30.445953"
       x2="53.938019"
       y2="48.618484"
       id="linearGradient3261"
       xlink:href="#linearGradient3255"
       gradientUnits="userSpaceOnUse"
       gradientTransform="translate(-37.855014,-9.89563)" /><linearGradient
       x1="54.673252"
       y1="-186.14699"
       x2="53.938019"
       y2="48.618484"
       id="linearGradient3842"
       xlink:href="#linearGradient3255"
       gradientUnits="userSpaceOnUse"
       gradientTransform="matrix(1,0,0,-1,-37.855014,79.098069)" /><radialGradient
       cx="101.63232"
       cy="107.01726"
       r="54.356068"
       fx="101.63232"
       fy="107.01726"
       id="radialGradient3850"
       xlink:href="#linearGradient3852"
       gradientUnits="userSpaceOnUse"
       gradientTransform="matrix(0.991686,-0.00661127,0.00207797,0.311626,-37.232439,62.534069)" /></defs><path
     d="m 63.211506,77.407576 c 30.08743,0 54.497994,7.607125 54.497994,16.894893 0,9.376251 -24.410564,16.983411 -54.497994,16.983411 -29.803587,0 -54.214142,-7.60716 -54.214142,-16.983411 0,-9.287768 24.410555,-16.894893 54.214142,-16.894893 z m -19.585214,9.464679 68.690168,0 -68.690168,0 z"
     id="path3844"
     style="opacity:0.7;fill:url(#radialGradient3850);fill-opacity:1;fill-rule:evenodd;stroke:none;stroke-width:0.28;stroke-linecap:butt;stroke-linejoin:bevel"
     inkscape:connector-curvature="0" /><polygon
     points="297.5,27.14 297.5,42.8 293.54,42.8 293.54,27.14 287.78,27.14 287.78,24.08 287.78,24.08 303.08,24.08 303.08,27.14 "
     transform="matrix(1.76066,0,0,1.76066,-369.32801,-38.118931)"
     id="polygon4"
     style="fill:#000000;fill-rule:evenodd;stroke:none;stroke-width:0.28;stroke-linecap:butt;stroke-linejoin:bevel" /><path
     d="m 178.23626,9.6652612 8.87371,0 c 3.16918,0 5.07069,1.2676718 5.07069,4.1199378 0,2.852263 -1.90151,4.436855 -5.07069,4.436855 l -8.87371,0 0,-8.5567928 z m 0,14.5782388 7.60604,0 c 0,0 4.43685,9.824462 5.07069,12.993644 l 8.8737,0 -6.65528,-13.627481 c 4.75378,-1.267672 6.02145,-6.972201 6.02145,-11.409057 0,-6.6552802 -7.60604,-8.2398712 -13.9444,-7.9229532 l -14.26132,0 0,32.9594912 7.28912,0 0,-12.993644 z"
     id="path6"
     style="fill:#000000;fill-rule:evenodd;stroke:none;stroke-width:0.28;stroke-linecap:butt;stroke-linejoin:bevel"
     inkscape:connector-curvature="0" /><polygon
     points="342.5,39.56 342.5,42.8 328.64,42.8 328.64,24.08 328.64,24.08 342.14,24.08 342.14,27.14 332.78,27.14 332.78,31.46 341.42,31.46 341.42,34.7 332.78,34.7 332.78,39.56 "
     transform="matrix(1.76066,0,0,1.76066,-369.32801,-38.118931)"
     id="polygon8"
     style="fill:#000000;fill-rule:evenodd;stroke:none;stroke-width:0.28;stroke-linecap:butt;stroke-linejoin:bevel" /><polygon
     points="359.96,24.08 363.74,24.08 363.74,42.8 358.7,42.8 358.7,42.8 351.86,30.2 351.86,30.38 351.86,42.8 347.9,42.8 347.9,24.08 352.94,24.08 359.96,36.14 359.96,36.14 "
     transform="matrix(1.76066,0,0,1.76066,-369.32801,-38.118931)"
     id="polygon10"
     style="fill:#000000;fill-rule:evenodd;stroke:none;stroke-width:0.28;stroke-linecap:butt;stroke-linejoin:bevel" /><path
     d="m 288.52378,9.6652612 3.80302,0 c 8.23987,0 9.50754,5.7045278 9.50754,10.7752208 0,5.387608 -1.26767,11.092135 -9.50754,11.092135 l -3.80302,0 0,-21.8673558 z m -7.28912,27.5718828 11.40905,0 c 10.4583,0 16.79667,-5.070691 16.79667,-16.796662 0,-11.0921388 -6.33837,-16.4797472 -16.79667,-16.1628292 l -11.40905,0 0,32.9594912 z"
     id="path12"
     style="fill:#000000;fill-rule:evenodd;stroke:none;stroke-width:0.28;stroke-linecap:butt;stroke-linejoin:bevel"
     inkscape:connector-curvature="0" /><polygon
     points="292.28,58.1 290.3,58.1 290.3,47.66 293.54,47.66 295.34,54.86 297.32,47.66 300.56,47.66 300.56,58.1 300.56,58.1 298.4,58.1 298.4,49.82 296.42,58.1 294.44,58.1 292.46,49.82 "
     transform="matrix(1.76066,0,0,1.76066,-369.32801,-38.118931)"
     id="polygon14"
     style="fill:#000000;fill-rule:evenodd;stroke:none;stroke-width:0.28;stroke-linecap:butt;stroke-linejoin:bevel" /><polygon
     points="314.24,58.1 314.24,47.66 314.24,47.66 316.4,47.66 316.4,58.1 "
     transform="matrix(1.76066,0,0,1.76066,-369.32801,-38.118931)"
     id="polygon16"
     style="fill:#000000;fill-rule:evenodd;stroke:none;stroke-width:0.28;stroke-linecap:butt;stroke-linejoin:bevel" /><path
     d="m 263.48724,52.766133 c -0.31691,0.316919 -0.63383,0.633837 -0.95075,0.950755 -0.63384,0 -0.63384,0 -1.26767,0.316918 -0.31692,0 -0.95076,0 -1.90151,0 0,0 0,0 -0.31692,0 l -2.85226,0 0,-4.753772 3.16918,0 c 1.26767,0 1.90151,0 2.53534,0 0.31692,0 0.63384,0.316918 0.95076,0.316918 0.31692,0.316918 0.63383,0.633836 0.63383,0.633836 0.31692,0.633836 0.31692,0.950755 0.31692,1.267673 0,0.316918 0,0.633836 -0.31692,1.267672 z m 0.31692,4.119936 c 0,0 0.95076,-0.316918 1.26767,-0.316918 0.95076,-0.316918 1.58459,-1.267672 1.90151,-1.901509 0.63384,-0.633836 0.63384,-2.218427 0.63384,-3.169181 0,-1.267673 0,-2.218427 -0.63384,-3.169182 -0.63383,-0.633836 -1.26767,-1.267672 -2.53534,-1.901509 -0.31692,0 -0.63384,0 -1.26767,0 -0.63384,-0.316918 -1.5846,-0.316918 -2.85227,-0.316918 l -7.60603,0 0,18.381253 3.4861,0 0,-7.289118 3.80301,0 3.80302,7.289118 4.43686,0 -4.43686,-7.606036 z"
     id="path18"
     style="fill:#000000;fill-rule:evenodd;stroke:none;stroke-width:0.28;stroke-linecap:butt;stroke-linejoin:bevel"
     inkscape:connector-curvature="0" /><path
     d="m 299.93283,60.372169 c -0.95075,0.633836 -1.90151,0.950754 -3.4861,0.950754 -0.95075,0 -1.90151,-0.316918 -2.53534,-0.633836 -0.63384,-0.316918 -1.26768,-0.950754 -1.58459,-1.584591 -0.31692,-0.633836 -0.31692,-1.267672 -0.63384,-1.58459 0,-0.633837 -0.31692,-1.584591 -0.31692,-2.535346 0,-1.58459 0.63384,-3.169181 0.95076,-4.119936 0.95075,-1.267672 2.21842,-2.218427 4.11993,-2.218427 2.21843,0 3.4861,0.950755 4.43686,2.218427 0.31691,1.267673 0.95075,2.535346 0.95075,4.119936 0,2.218427 -0.63384,4.119936 -1.90151,5.387609 z m 3.16918,-12.04289 c -1.26767,-1.901509 -3.80302,-2.852263 -6.65528,-2.852263 -2.85226,0 -5.07069,0.950754 -6.33836,2.535345 -1.58459,1.584591 -2.53535,4.119936 -2.53535,7.289118 0,2.535345 0.63384,4.436854 1.90151,6.338363 1.58459,1.58459 3.80302,2.852263 7.28912,2.852263 2.85226,0 5.07069,-0.950754 6.65528,-2.852263 1.58459,-1.901509 2.21843,-3.803018 2.21843,-6.655282 0,-2.852263 -0.95076,-5.07069 -2.53535,-6.655281 z"
     id="path20"
     style="fill:#000000;fill-rule:evenodd;stroke:none;stroke-width:0.28;stroke-linecap:butt;stroke-linejoin:bevel"
     inkscape:connector-curvature="0" /><path
     d="m 225.77398,52.132297 c -0.31691,-1.267673 -0.95075,-3.169181 -4.11993,-3.169181 -1.90151,0 -4.43686,1.267672 -4.43686,6.338363 0,3.169181 1.26768,6.338363 4.43686,6.338363 2.21842,0 3.4861,-1.267673 4.11993,-3.4861 l 3.80302,0 c -0.63384,4.119936 -3.16918,6.655281 -7.92295,6.655281 -4.75378,0 -8.23987,-3.169181 -8.23987,-9.507544 0,-6.338363 3.48609,-9.507545 8.23987,-9.507545 5.38761,0 7.92295,3.803018 7.92295,6.338363 l -3.80302,0 z"
     id="path22"
     style="fill:#000000;fill-rule:evenodd;stroke:none;stroke-width:0.28;stroke-linecap:butt;stroke-linejoin:bevel"
     inkscape:connector-curvature="0" /><polygon
     points="385.16,46.94 385.16,42.98 383.72,42.98 383.72,42.44 387.14,42.44 387.14,42.98 387.14,42.98 385.88,42.98 385.88,46.94 "
     transform="matrix(1.76066,0,0,1.76066,-369.32801,-38.118931)"
     id="polygon24"
     style="fill:#000000;fill-rule:evenodd;stroke:none;stroke-width:0.28;stroke-linecap:butt;stroke-linejoin:bevel" /><path
     d="m 321.16635,44.526261 -0.95076,0 0,-6.655281 -2.21842,6.655281 -1.26768,0 -2.21842,-6.655281 0,6.655281 -0.95076,0 0,-7.922953 1.58459,0 1.90151,5.704526 c 0,0 0,0 0.31692,0.633837 0,0.316918 0,0.316918 0,0.633836 l 0.63384,-1.267673 1.9015,-5.704526 1.26768,0 0,7.922953 z"
     id="path26"
     style="fill:#000000;fill-rule:evenodd;stroke:none;stroke-width:0.28;stroke-linecap:butt;stroke-linejoin:bevel"
     inkscape:connector-curvature="0" /><path
     d="m 63.194966,-26.16546 c 33.59333,0 60.848294,27.2549578 60.848294,60.531367 0,33.593324 -27.254964,60.848282 -60.848294,60.848282 -33.276405,0 -60.531366,-27.254958 -60.531366,-60.848282 0,-33.2764092 27.254961,-60.531367 60.531366,-60.531367 z m -21.867351,33.9102392 76.694195,0 -76.694195,0 z"
     id="path74"
     style="fill:url(#linearGradient3206);fill-opacity:1;fill-rule:evenodd;stroke:none;stroke-width:0.28;stroke-linecap:butt;stroke-linejoin:bevel"
     inkscape:connector-curvature="0" /><path
     d="m 109.1481,-5.5657813 c 1.90151,1.9015076 3.80302,3.8030157 5.07069,6.33836111 C 119.28948,10.597042 115.80338,25.809117 104.07741,41.338106 85.696156,66.691558 52.41975,83.805139 29.918561,80.002121 24.847871,79.051366 20.411017,77.466776 17.558753,74.614512 15.974163,73.029921 14.389572,71.128413 13.438817,69.226904 8.685045,60.670114 10.269636,47.993387 18.509508,34.365907 l -6.655281,0.316918 1.901509,-4.436854 c 4.753772,-1.267673 20.916598,-7.922954 25.67037,-14.578237 l 5.387608,0 -6.021444,14.578237 10.14138,0 -2.218427,4.119936 -9.824462,0 -7.289118,16.479744 C 27.066298,59.719359 30.869316,70.494576 46.398305,67.642313 62.878046,64.473131 81.893136,52.430242 93.936026,36.267416 108.83119,15.984652 106.29584,-3.3473547 88.231506,-6.5165359 79.040876,-7.784207 67.631826,-5.2488633 55.90585,0.45566181 69.533326,-8.418043 84.428486,-13.171816 97.105206,-10.953388 c 5.070694,0.950754 9.190634,2.535345 12.042894,5.3876067 z"
     id="path332"
     style="fill:#ffffff;fill-rule:evenodd;stroke:none;stroke-width:0.28;stroke-linecap:butt;stroke-linejoin:bevel"
     inkscape:connector-curvature="0" /><path
     d="m 63.231926,-23.591889 c 25.75838,0 46.656694,17.1421031 46.656694,38.071416 0,21.128643 -20.898314,38.270744 -46.656694,38.270744 -25.515378,0 -46.413687,-17.142101 -46.413687,-38.270744 0,-20.9293129 20.898309,-38.071416 46.413687,-38.071416 z m -16.767249,21.3279648 58.806873,0 -58.806873,0 z"
     id="path3251"
     style="fill:url(#linearGradient3261);fill-opacity:1;fill-rule:evenodd;stroke:none;stroke-width:0.28;stroke-linecap:butt;stroke-linejoin:bevel"
     inkscape:connector-curvature="0" /><path
     d="m 63.231926,92.794289 c 25.75838,0 46.656694,-17.142092 46.656694,-38.071406 0,-21.128641 -20.898314,-38.270744 -46.656694,-38.270744 -25.515378,0 -46.413687,17.142103 -46.413687,38.270744 0,20.929314 20.898309,38.071406 46.413687,38.071406 z m -16.767249,-21.327955 58.806873,0 -58.806873,0 z"
     id="path3840"
     style="fill:url(#linearGradient3842);fill-opacity:1;fill-rule:evenodd;stroke:none;stroke-width:0.28;stroke-linecap:butt;stroke-linejoin:bevel"
     inkscape:connector-curvature="0" /></svg>