<?xml version="1.0" encoding="UTF-8" standalone="no"?>
<svg
   xmlns:dc="http://purl.org/dc/elements/1.1/"
   xmlns:cc="http://creativecommons.org/ns#"
   xmlns:rdf="http://www.w3.org/1999/02/22-rdf-syntax-ns#"
   xmlns:svg="http://www.w3.org/2000/svg"
   xmlns="http://www.w3.org/2000/svg"
   viewBox="0 0 354.32501 119.85"
   height="119.85"
   width="354.32501"
   xml:space="preserve"
   version="1.1"
   id="svg2"><metadata
     id="metadata8"><rdf:RDF><cc:Work
         rdf:about=""><dc:format>image/svg+xml</dc:format><dc:type
           rdf:resource="http://purl.org/dc/dcmitype/StillImage" /><dc:title></dc:title></cc:Work></rdf:RDF></metadata><defs
     id="defs6" /><g
     transform="matrix(1.25,0,0,-1.25,0,119.85)"
     id="g10"><g
       transform="scale(0.1,0.1)"
       id="g12"><path
         id="path14"
         style="fill:#c4161d;fill-opacity:1;fill-rule:nonzero;stroke:none"
         d="m 1463.65,937.809 c -2.67,2.648 -5.46,5.121 -8.37,7.375 -2.89,2.285 -5.94,4.336 -9.03,6.148 -3.11,1.816 -6.31,3.371 -9.54,4.625 -3.25,1.258 -6.54,2.227 -9.85,2.832 -6.67,1.227 -12.7,0.883 -17.87,-0.84 -5.25,-1.734 -9.6,-4.898 -12.81,-9.222 -3.26,-4.395 -5.35,-9.989 -6.01,-16.497 -0.7,-6.546 0.06,-13.984 2.45,-22.011 1.19,-4.004 2.75,-7.953 4.58,-11.789 1.84,-3.844 3.98,-7.571 6.34,-11.129 2.37,-3.551 4.99,-6.926 7.77,-10.117 2.8,-3.164 5.73,-6.11 8.82,-8.805 3.07,-2.676 6.24,-5.113 9.52,-7.25 3.24,-2.129 6.55,-3.961 9.87,-5.465 3.29,-1.492 6.62,-2.676 9.92,-3.484 3.27,-0.813 6.48,-1.282 9.67,-1.364 6.25,-0.175 11.64,1.164 16.07,3.672 4.37,2.461 7.8,6.086 10.22,10.586 2.35,4.434 3.74,9.739 3.97,15.672 0.26,5.902 -0.58,12.438 -2.67,19.395 -1.03,3.492 -2.35,6.918 -3.86,10.273 -1.53,3.352 -3.3,6.633 -5.26,9.805 -1.97,3.179 -4.12,6.261 -6.45,9.195 -2.34,2.949 -4.86,5.762 -7.48,8.395 m -150,-58.254 c -8.6,6.84 -17.92,12.25 -27.47,16.168 -9.79,3.988 -19.84,6.422 -29.63,7.222 -10,0.813 -19.74,-0.082 -28.56,-2.824 -9.04,-2.812 -17.08,-7.508 -23.42,-14.219 -6.47,-6.843 -10.55,-15.062 -12.26,-24.035 -1.73,-9.09 -1.07,-18.863 1.83,-28.683 2.9,-9.832 8.01,-19.598 15.13,-28.692 7.04,-9.004 15.96,-17.23 26.5,-24.086 10.32,-6.738 21.17,-11.453 31.87,-14.238 10.45,-2.762 20.75,-3.672 30.29,-2.84 9.31,0.82 17.94,3.277 25.35,7.281 7.25,3.934 13.38,9.34 17.9,16.192 4.45,6.758 7,14.293 7.8,22.183 0.8,7.817 -0.09,16.055 -2.52,24.239 -2.43,8.187 -6.43,16.402 -11.87,24.215 -5.5,7.867 -12.5,15.398 -20.94,22.117 M 1282.4,648.613 c -4.62,2.559 -9.54,4.742 -14.68,6.52 -5.21,1.781 -10.67,3.152 -16.3,4.043 -5.72,0.914 -11.62,1.332 -17.66,1.219 -6.11,-0.102 -12.37,-0.743 -18.72,-1.981 -12.95,-2.539 -24.97,-7.32 -35.59,-13.879 -10.9,-6.726 -20.28,-15.297 -27.57,-25.16 -7.46,-10.062 -12.72,-21.387 -15.23,-33.289 -2.55,-12.07 -2.27,-24.637 1.33,-36.93 1.82,-6.152 4.36,-11.926 7.54,-17.265 3.17,-5.305 6.98,-10.192 11.29,-14.571 4.32,-4.355 9.13,-8.211 14.33,-11.554 5.17,-3.305 10.73,-6.075 16.57,-8.293 5.78,-2.2 11.82,-3.828 18.04,-4.91 6.15,-1.036 12.45,-1.524 18.83,-1.415 6.31,0.114 12.65,0.782 18.98,2.028 6.24,1.277 12.46,3.094 18.55,5.512 11.96,4.734 22.39,11.289 31.07,19.039 8.47,7.562 15.32,16.312 20.32,25.664 4.91,9.199 8.08,19.05 9.27,29.058 1.16,9.949 0.41,20.102 -2.54,30.106 -1.48,4.996 -3.45,9.734 -5.83,14.16 -2.4,4.457 -5.21,8.629 -8.42,12.48 -3.21,3.891 -6.82,7.461 -10.75,10.684 -3.96,3.262 -8.26,6.176 -12.83,8.734 m 156.29,-190.218 c -7.59,3.367 -15.74,4.636 -24.01,4.015 -8.45,-0.601 -17.06,-3.207 -25.36,-7.586 -8.51,-4.465 -16.68,-10.816 -24,-18.812 -7.5,-8.164 -14.07,-18.067 -19.11,-29.387 -5.14,-11.547 -8.17,-23.371 -9.17,-34.867 -1.03,-11.574 0.01,-22.68 2.96,-32.621 2.92,-9.961 7.73,-18.641 14.19,-25.446 6.4,-6.738 14.34,-11.535 23.58,-13.839 9.09,-2.286 18.48,-1.914 27.66,0.636 8.97,2.473 17.71,6.992 25.73,13.16 7.83,6.004 14.98,13.582 21.04,22.29 5.94,8.55 10.83,18.222 14.33,28.714 3.44,10.325 5.19,20.543 5.49,30.231 0.29,9.597 -0.89,18.746 -3.34,27.015 -2.44,8.274 -6.23,15.743 -11.22,21.946 -5,6.246 -11.3,11.246 -18.77,14.551 m 164.73,11.933 c -2.25,1.25 -4.59,2.184 -7,2.774 -2.43,0.57 -4.93,0.804 -7.45,0.675 -2.56,-0.14 -5.16,-0.648 -7.75,-1.586 -2.61,-0.906 -5.26,-2.257 -7.86,-4.043 -5.27,-3.597 -9.92,-8.652 -13.82,-14.746 -3.97,-6.195 -7.12,-13.457 -9.32,-21.316 -2.23,-7.969 -3.45,-16.488 -3.52,-25.109 -0.05,-8.649 1.06,-17.297 3.47,-25.418 1.22,-4.082 2.69,-7.786 4.41,-11.149 1.69,-3.375 3.61,-6.347 5.7,-8.957 2.11,-2.574 4.35,-4.797 6.75,-6.59 2.37,-1.804 4.87,-3.175 7.47,-4.172 2.56,-0.972 5.23,-1.55 7.91,-1.691 2.65,-0.156 5.35,0.121 8.03,0.805 2.69,0.672 5.35,1.773 7.96,3.269 2.6,1.512 5.16,3.43 7.62,5.758 4.86,4.59 8.97,10.391 12.22,16.93 3.22,6.41 5.63,13.539 7.18,20.965 1.52,7.339 2.22,14.972 1.99,22.546 -0.22,7.524 -1.33,14.985 -3.44,22.032 -1.04,3.531 -2.3,6.785 -3.73,9.769 -1.45,2.989 -3.03,5.707 -4.77,8.145 -1.74,2.437 -3.63,4.597 -5.67,6.457 -1.99,1.863 -4.15,3.426 -6.38,4.652 m 72.5,120.938 c -3.59,2.875 -7.3,4.519 -10.93,5.035 -3.67,0.531 -7.29,-0.129 -10.59,-1.887 -3.38,-1.781 -6.47,-4.68 -9.07,-8.633 -2.67,-4.004 -4.77,-9.058 -6.15,-15.082 -1.42,-6.125 -1.93,-12.594 -1.62,-19.062 0.29,-6.52 1.39,-12.969 3.19,-19.02 1.81,-6.031 4.31,-11.617 7.38,-16.34 3.09,-4.699 6.68,-8.539 10.68,-11.144 4.01,-2.606 7.99,-3.723 11.8,-3.59 3.73,0.129 7.31,1.492 10.47,3.945 3.14,2.395 5.92,5.84 8.14,10.16 2.19,4.254 3.87,9.372 4.86,15.211 0.98,5.789 1.22,11.762 0.79,17.621 -0.41,5.817 -1.49,11.575 -3.11,16.95 -1.6,5.375 -3.79,10.414 -6.44,14.808 -2.64,4.403 -5.83,8.192 -9.4,11.028 m -8.61,143.484 c -1.58,1.563 -3.18,2.934 -4.85,4.117 -1.67,1.188 -3.37,2.145 -5.09,2.879 -1.74,0.727 -3.46,1.227 -5.21,1.457 -1.73,0.235 -3.46,0.192 -5.16,-0.144 -3.45,-0.657 -6.4,-2.473 -8.81,-5.223 -2.44,-2.754 -4.34,-6.453 -5.56,-10.84 -1.22,-4.422 -1.8,-9.535 -1.6,-15.031 0.2,-5.547 1.14,-11.477 2.95,-17.485 0.92,-3 1.98,-5.882 3.18,-8.585 1.22,-2.727 2.55,-5.266 4,-7.657 1.42,-2.363 2.99,-4.55 4.61,-6.523 1.63,-1.957 3.3,-3.711 5.05,-5.238 1.72,-1.504 3.5,-2.793 5.28,-3.809 1.79,-1.035 3.58,-1.801 5.37,-2.309 1.78,-0.484 3.53,-0.718 5.28,-0.656 1.73,0.043 3.4,0.387 5,1.016 3.21,1.285 5.89,3.613 7.97,6.703 2.05,3.066 3.57,6.902 4.46,11.234 0.9,4.293 1.22,9.102 0.88,14.176 -0.3,5.035 -1.25,10.367 -2.87,15.762 -0.82,2.707 -1.75,5.285 -2.83,7.769 -1.03,2.446 -2.21,4.793 -3.49,7 -1.26,2.203 -2.6,4.27 -4.03,6.18 -1.45,1.906 -2.95,3.637 -4.53,5.207 m -73.09,128.531 c 4,-4.269 7.45,-9.105 10.32,-14.203 2.85,-5.07 5.11,-10.426 6.71,-15.769 1.61,-5.348 2.54,-10.696 2.76,-15.77 0.19,-5.113 -0.35,-9.961 -1.76,-14.238 -1.46,-4.332 -3.65,-7.692 -6.39,-10.063 -2.81,-2.402 -6.17,-3.789 -9.9,-4.105 -3.81,-0.328 -7.98,0.433 -12.33,2.328 -4.41,1.918 -8.98,5.004 -13.44,9.277 -4.53,4.328 -8.51,9.461 -11.82,15.008 -3.31,5.578 -5.93,11.551 -7.73,17.555 -1.81,5.992 -2.77,11.965 -2.78,17.539 -0.02,5.543 0.88,10.66 2.81,14.98 1.91,4.278 4.61,7.36 7.87,9.282 3.2,1.894 6.93,2.66 10.9,2.328 3.93,-0.332 8.12,-1.696 12.35,-4.102 4.17,-2.351 8.39,-5.711 12.43,-10.047" /><path
         id="path16"
         style="fill:#231f20;fill-opacity:1;fill-rule:nonzero;stroke:none"
         d="M 51.6445,0 C 10.0625,0 0,22.4336 0,48.5352 l 0,84.5308 30.1758,0 0,-82.7926 C 30.1758,35 35.0117,25.332 53.5781,25.332 c 17.0157,0 23.5977,7.1485 23.5977,26.6875 l 0,81.0465 29.7892,0 0,-79.2965 C 106.965,17.0117 86.2656,0 51.6445,0" /><path
         id="path18"
         style="fill:#231f20;fill-opacity:1;fill-rule:nonzero;stroke:none"
         d="M 220.484,2.51172 189.73,58.7891 c -5.414,10.0586 -10.058,20.1172 -13.535,28.6328 0.578,-9.6797 0.969,-22.8321 0.969,-35.1953 l 0,-49.71488 -29.019,0 0,130.55428 38.687,0 28.621,-51.648 c 5.801,-10.6367 11.223,-22.043 15.86,-32.1016 -0.965,11.2109 -1.352,28.4258 -1.352,40.8008 l 0,42.9488 29.016,0 0,-130.55428 -38.493,0" /><path
         id="path20"
         style="fill:#231f20;fill-opacity:1;fill-rule:nonzero;stroke:none"
         d="m 301.094,2.51172 30.1758,0 0,130.555 -30.1758,0 0,-130.555 z" /><path
         id="path22"
         style="fill:#231f20;fill-opacity:1;fill-rule:nonzero;stroke:none"
         d="m 420.426,107.344 0,-104.83228 -29.977,0 0,104.83228 -31.332,0 0,25.722 92.645,0 0,-25.722 -31.336,0" /><path
         id="path24"
         style="fill:#231f20;fill-opacity:1;fill-rule:nonzero;stroke:none"
         d="m 479.609,2.51172 0,130.55428 73.5,0 0,-25.339 -43.324,0 0,-25.9106 41,0 0,-24.5703 -41,0 0,-28.8281 43.324,0 0,-25.90628 -73.5,0" /><path
         id="path26"
         style="fill:#231f20;fill-opacity:1;fill-rule:nonzero;stroke:none"
         d="m 627.965,1.54297 c -13.735,0 -26.695,0.58594 -38.688,1.15234 l 0,129.98069 c 10.25,0.586 26.883,1.152 44.489,1.152 39.257,0 65.371,-17.012 65.371,-63.4374 0,-44.6679 -28.625,-68.84763 -71.172,-68.84763 z m 3.867,106.95303 c -5.035,0 -9.094,0 -12.383,-0.391 l 0,-79.8745 c 2.516,-0.3789 6.574,-0.7696 11.219,-0.7696 20.695,0 36.168,12.7539 36.168,40.6133 0,24.5625 -7.93,40.4218 -35.004,40.4218" /><path
         id="path28"
         style="fill:#231f20;fill-opacity:1;fill-rule:nonzero;stroke:none"
         d="m 815.566,0.195313 c -9.089,0 -18.375,0.957027 -26.687,2.902347 l 1.543,27.83984 c 7.351,-2.707 17.984,-4.8437 27.465,-4.8437 11.023,0 18.953,4.6484 18.953,13.9453 0,22.2343 -52.027,10.8203 -52.027,54.5312 0,24.5707 19.152,40.8127 51.835,40.8127 6.961,0 15.665,-0.774 23.79,-2.317 l -1.743,-26.113 c -7.347,2.129 -15.472,3.477 -23.207,3.477 -12.566,0 -18.375,-5.41 -18.375,-12.762 0,-20.3047 52.028,-12.5703 52.028,-53.3828 0,-25.3399 -20.309,-44.089887 -53.575,-44.089887" /><path
         id="path30"
         style="fill:#231f20;fill-opacity:1;fill-rule:nonzero;stroke:none"
         d="m 902.602,2.51172 0,130.55428 73.496,0 0,-25.339 -43.325,0 0,-25.9106 41.004,0 0,-24.5703 -41.004,0 0,-28.8281 43.325,0 0,-25.90628 -73.496,0" /><path
         id="path32"
         style="fill:#231f20;fill-opacity:1;fill-rule:nonzero;stroke:none"
         d="m 1068.16,0.769531 c -48.16,0 -61.11,32.687469 -61.11,62.277369 0,42.3631 23.01,70.9841 66.14,70.9841 9.09,0 18.57,-1.172 26.69,-3.289 l -3.48,-27.265 c -7.35,2.109 -15.67,3.476 -23.79,3.476 -21.08,0 -32.49,-15.2811 -32.49,-38.8788 0,-25.7226 10.44,-39.8437 34.04,-39.8437 6.77,0 16.64,1.7304 22.82,4.6406 l 3.48,-26.87501 c -9.48,-3.30078 -21.08,-5.226559 -32.3,-5.226559" /><path
         id="path34"
         style="fill:#231f20;fill-opacity:1;fill-rule:nonzero;stroke:none"
         d="m 1186.72,0 c -41.58,0 -51.64,22.4336 -51.64,48.5352 l 0,84.5308 30.17,0 0,-82.7926 c 0,-15.2734 4.84,-24.9414 23.41,-24.9414 17.01,0 23.59,7.1485 23.59,26.6875 l 0,81.0465 29.79,0 0,-79.2965 C 1242.04,17.0117 1221.34,0 1186.72,0" /><path
         id="path36"
         style="fill:#231f20;fill-opacity:1;fill-rule:nonzero;stroke:none"
         d="m 1345.5,2.51172 -30.94,51.06248 -1.16,0 0,-51.06248 -30.18,0 0,130.55428 c 11.03,0.762 25.14,0.965 40.81,0.965 30.76,0 49.32,-11.023 49.32,-38.6794 0,-17.6094 -11.41,-31.9219 -28.81,-36.1719 3.48,-5.0391 6.76,-9.8633 10.05,-14.6875 l 27.66,-41.98048 -36.75,0 z M 1321.71,109.277 c -3.09,0 -6.57,-0.195 -8.31,-0.39 l 0,-33.4573 c 1.55,-0.1953 4.64,-0.3906 7.54,-0.3906 12.76,0 20.89,6.7773 20.89,17.7929 0,10.254 -6,16.445 -20.12,16.445" /><path
         id="path38"
         style="fill:#231f20;fill-opacity:1;fill-rule:nonzero;stroke:none"
         d="m 1410.66,2.51172 30.1797,0 0,130.555 -30.1797,0 0,-130.555 z" /><path
         id="path40"
         style="fill:#231f20;fill-opacity:1;fill-rule:nonzero;stroke:none"
         d="m 1529.99,107.344 0,-104.83228 -29.97,0 0,104.83228 -31.33,0 0,25.722 92.63,0 0,-25.722 -31.33,0" /><path
         id="path42"
         style="fill:#231f20;fill-opacity:1;fill-rule:nonzero;stroke:none"
         d="m 1650.1,48.1523 0,-45.64058 -30.17,0 0,45.44918 -40.81,85.1051 32.88,0 14.9,-33.2613 c 3.47,-7.7344 6.18,-14.5234 8.3,-20.8984 l 0.4,0 c 2.5,7.3437 6.18,15.2812 10.05,23.5937 l 14.12,30.566 31.72,0 -41.39,-84.9137" /><path
         id="path44"
         style="fill:#231f20;fill-opacity:1;fill-rule:nonzero;stroke:none"
         d="m 1813.15,45.6367 c -1.54,0 -4.27,0 -6.96,0.2031 l 0,-43.32808 -30.19,0 0,130.55428 c 11.23,0.567 23.59,0.965 37.15,0.965 33.26,0 51.44,-15.086 51.44,-41.9607 0,-25.3515 -18.18,-46.4336 -51.44,-46.4336 z m -0.6,63.8163 c -2.12,0 -4.24,0 -6.36,-0.176 l 0,-38.3004 c 1.92,-0.1953 3.66,-0.3907 5.21,-0.3907 12.57,0.1954 22.06,7.3633 22.06,20.1172 0,11.0159 -6.01,18.7499 -20.91,18.7499" /><path
         id="path46"
         style="fill:#231f20;fill-opacity:1;fill-rule:nonzero;stroke:none"
         d="m 1957.43,2.51172 -30.94,51.06248 -1.17,0 0,-51.06248 -30.16,0 0,130.55428 c 11.02,0.762 25.14,0.965 40.81,0.965 30.74,0 49.31,-11.023 49.31,-38.6794 0,-17.6094 -11.41,-31.9219 -28.82,-36.1719 3.49,-5.0391 6.79,-9.8633 10.06,-14.6875 l 27.66,-41.98048 -36.75,0 z M 1933.66,109.277 c -3.12,0 -6.58,-0.195 -8.34,-0.39 l 0,-33.4573 c 1.55,-0.1953 4.65,-0.3906 7.54,-0.3906 12.77,0 20.9,6.7773 20.9,17.7929 0,10.254 -6,16.445 -20.1,16.445" /><path
         id="path48"
         style="fill:#231f20;fill-opacity:1;fill-rule:nonzero;stroke:none"
         d="m 2073.85,0 c -40.42,0 -60.15,25.1367 -60.15,66.1445 0,42.5465 29.22,69.4415 64.8,69.4415 34.42,0 60.15,-19.934 60.15,-65.7735 C 2138.65,26.875 2110.02,0 2073.85,0 Z m 2.33,108.105 c -15.67,0 -30.57,-12.1675 -30.57,-39.4448 0,-25.1446 9.28,-41.0157 29.99,-41.0157 14.32,0 31.14,10.6368 31.14,40.2461 0,26.2969 -10.63,40.2144 -30.56,40.2144" /><path
         id="path50"
         style="fill:#231f20;fill-opacity:1;fill-rule:nonzero;stroke:none"
         d="m 2233.39,2.51172 -35.2,0 -44.29,130.55428 32.51,0 23.01,-71.3785 c 2.32,-7.1445 4.83,-15.2812 7.16,-24.3633 l 0.19,0 c 1.93,8.3125 3.47,14.6953 7.14,26.1055 l 22.83,69.6363 30.76,0 -44.11,-130.55428" /><path
         id="path52"
         style="fill:#231f20;fill-opacity:1;fill-rule:nonzero;stroke:none"
         d="m 2303.76,2.51172 30.168,0 0,130.555 -30.168,0 0,-130.555 z" /><path
         id="path54"
         style="fill:#231f20;fill-opacity:1;fill-rule:nonzero;stroke:none"
         d="m 2414.73,1.54297 c -13.72,0 -26.69,0.58594 -38.67,1.15234 l 0,129.98069 c 10.25,0.586 26.87,1.152 44.49,1.152 39.25,0 65.37,-17.012 65.37,-63.4374 0,-44.6679 -28.62,-68.84763 -71.19,-68.84763 z m 3.87,106.95303 c -5.02,0 -9.08,0 -12.36,-0.391 l 0,-79.8745 c 2.51,-0.3789 6.58,-0.7696 11.21,-0.7696 20.69,0 36.16,12.7539 36.16,40.6133 0,24.5625 -7.92,40.4218 -35.01,40.4218" /><path
         id="path56"
         style="fill:#231f20;fill-opacity:1;fill-rule:nonzero;stroke:none"
         d="m 2519.18,2.51172 0,130.55428 73.5,0 0,-25.339 -43.32,0 0,-25.9106 41,0 0,-24.5703 -41,0 0,-28.8281 43.32,0 0,-25.90628 -73.5,0" /><path
         id="path58"
         style="fill:#231f20;fill-opacity:1;fill-rule:nonzero;stroke:none"
         d="m 2691.14,2.51172 -30.97,51.06248 -1.14,0 0,-51.06248 -30.18,0 0,130.55428 c 11.02,0.762 25.14,0.965 40.8,0.965 30.77,0 49.33,-11.023 49.33,-38.6794 0,-17.6094 -11.41,-31.9219 -28.82,-36.1719 3.49,-5.0391 6.76,-9.8633 10.06,-14.6875 l 27.66,-41.98048 -36.74,0 z M 2667.33,109.277 c -3.09,0 -6.56,-0.195 -8.3,-0.39 l 0,-33.4573 c 1.54,-0.1953 4.63,-0.3906 7.53,-0.3906 12.77,0 20.89,6.7773 20.89,17.7929 0,10.254 -6,16.445 -20.12,16.445" /><path
         id="path60"
         style="fill:#231f20;fill-opacity:1;fill-rule:nonzero;stroke:none"
         d="m 2781.06,0.195313 c -9.08,0 -18.37,0.957027 -26.68,2.902347 l 1.54,27.83984 c 7.35,-2.707 17.99,-4.8437 27.45,-4.8437 11.03,0 18.96,4.6484 18.96,13.9453 0,22.2343 -52.01,10.8203 -52.01,54.5312 0,24.5707 19.14,40.8127 51.81,40.8127 6.98,0 15.68,-0.774 23.81,-2.317 l -1.75,-26.113 c -7.35,2.129 -15.47,3.477 -23.21,3.477 -12.57,0 -18.38,-5.41 -18.38,-12.762 0,-20.3047 52.04,-12.5703 52.04,-53.3828 0,-25.3399 -20.3,-44.089887 -53.58,-44.089887" /></g></g></svg>